<svg xmlns="http://www.w3.org/2000/svg" viewBox="0 0 800 600" width="800" height="600">
  <style>:root{--prism-color-axis:#6b7280;--prism-color-grid:#e5e7eb;--prism-color-text:#111827;--prism-color-bg:transparent;--prism-font-sans:Inter, system-ui, sans-serif;--prism-font-mono:ui-monospace, SF Mono, monospace;--prism-font-size-label:11px;--prism-font-size-title:16px;--prism-font-size-axis-title:12px;}.prism-axis-domain{stroke:var(--prism-color-axis);fill:none;}.prism-axis-tick{stroke:var(--prism-color-axis);}.prism-axis-label{fill:var(--prism-color-text);font-family:var(--prism-font-sans);font-size:var(--prism-font-size-label,11px);}.prism-axis-title{fill:var(--prism-color-text);font-family:var(--prism-font-sans);font-size:var(--prism-font-size-axis-title,12px);font-weight:600;}.prism-grid-line{stroke:var(--prism-color-grid);}.prism-title{fill:var(--prism-color-text);font-family:var(--prism-font-sans);font-size:var(--prism-font-size-title,16px);font-weight:600;}.prism-legend-title{fill:var(--prism-color-text);font-family:var(--prism-font-sans);font-size:12px;font-weight:600;}.prism-legend-label{fill:var(--prism-color-text);font-family:var(--prism-font-sans);font-size:11px;}.prism-legend-swatch{stroke:none;}.prism-selected{opacity:var(--prism-selected-opacity,1);}.prism-deselected{opacity:var(--prism-deselected-opacity,0.3);}</style>

  <g class="prism-scene" data-scene-id="scene-0">
    <text class="prism-title" x="410" y="20" text-anchor="middle">Team velocity vs target</text>
    <g class="prism-plot">
      <g class="prism-layer" data-layer-id="layer-0" data-prism-layer="layer-0">
        <rect class="prism-mark-bar" data-prism-id="bar-0" data-prism-datum-row="0" x="49.25" y="212.766" width="166.5" height="347.234" fill="#3b82f6"/>
        <rect class="prism-mark-bar" data-prism-id="bar-1" data-prism-datum-row="1" x="234.25" y="115.106" width="166.5" height="444.894" fill="#3b82f6"/>
        <rect class="prism-mark-bar" data-prism-id="bar-2" data-prism-datum-row="2" x="419.25" y="256.17" width="166.5" height="303.83" fill="#3b82f6"/>
        <rect class="prism-mark-bar" data-prism-id="bar-3" data-prism-datum-row="3" x="604.25" y="50" width="166.5" height="510" fill="#3b82f6"/>
      </g>
      <g class="prism-layer" data-layer-id="layer-1" data-prism-layer="layer-1">
        <line class="prism-mark-rule" data-prism-id="rule-0" data-prism-datum-row="0" x1="40" y1="125.957" x2="780" y2="125.957" stroke="#3b82f6" stroke-width="1.5"/>
      </g>
    </g>
  </g>

  <g class="prism-axes" data-shared="true">
    <g class="prism-axis prism-axis-x" data-prism-axis-id="x-axis"><line class="prism-grid-line" x1="132.5" y1="50" x2="132.5" y2="560"/><line class="prism-grid-line" x1="317.5" y1="50" x2="317.5" y2="560"/><line class="prism-grid-line" x1="502.5" y1="50" x2="502.5" y2="560"/><line class="prism-grid-line" x1="687.5" y1="50" x2="687.5" y2="560"/><line class="prism-axis-domain" x1="40" y1="560" x2="780" y2="560"/><line class="prism-axis-tick" x1="132.5" y1="560" x2="132.5" y2="565"/><text class="prism-axis-label" x="132.5" y="578" text-anchor="middle">alpha</text><line class="prism-axis-tick" x1="317.5" y1="560" x2="317.5" y2="565"/><text class="prism-axis-label" x="317.5" y="578" text-anchor="middle">beta</text><line class="prism-axis-tick" x1="502.5" y1="560" x2="502.5" y2="565"/><text class="prism-axis-label" x="502.5" y="578" text-anchor="middle">gamma</text><line class="prism-axis-tick" x1="687.5" y1="560" x2="687.5" y2="565"/><text class="prism-axis-label" x="687.5" y="578" text-anchor="middle">delta</text><text class="prism-axis-title" x="410" y="594" text-anchor="middle">team</text></g>
    <g class="prism-axis prism-axis-y" data-prism-axis-id="y-axis"><line class="prism-grid-line" x1="40" y1="560" x2="780" y2="560"/><line class="prism-grid-line" x1="40" y1="451.489" x2="780" y2="451.489"/><line class="prism-grid-line" x1="40" y1="342.979" x2="780" y2="342.979"/><line class="prism-grid-line" x1="40" y1="234.468" x2="780" y2="234.468"/><line class="prism-grid-line" x1="40" y1="125.957" x2="780" y2="125.957"/><line class="prism-axis-domain" x1="40" y1="50" x2="40" y2="560"/><line class="prism-axis-tick" x1="40" y1="560" x2="35" y2="560"/><text class="prism-axis-label" x="32" y="564" text-anchor="end">0</text><line class="prism-axis-tick" x1="40" y1="505.745" x2="37" y2="505.745"/><line class="prism-axis-tick" x1="40" y1="451.489" x2="35" y2="451.489"/><line class="prism-axis-tick" x1="40" y1="397.234" x2="37" y2="397.234"/><line class="prism-axis-tick" x1="40" y1="342.979" x2="35" y2="342.979"/><text class="prism-axis-label" x="32" y="346.979" text-anchor="end">20</text><line class="prism-axis-tick" x1="40" y1="288.723" x2="37" y2="288.723"/><line class="prism-axis-tick" x1="40" y1="234.468" x2="35" y2="234.468"/><line class="prism-axis-tick" x1="40" y1="180.213" x2="37" y2="180.213"/><line class="prism-axis-tick" x1="40" y1="125.957" x2="35" y2="125.957"/><text class="prism-axis-label" x="32" y="129.957" text-anchor="end">40</text><text class="prism-axis-title" x="10" y="305" text-anchor="middle" transform="rotate(-90 10 305)">velocity</text></g>
  </g>
</svg>
