<svg xmlns="http://www.w3.org/2000/svg" viewBox="0 0 800 600" width="800" height="600">
  <style>:root{--prism-color-axis:#6b7280;--prism-color-grid:#e5e7eb;--prism-color-text:#111827;--prism-color-bg:transparent;--prism-font-sans:Inter, system-ui, sans-serif;--prism-font-mono:ui-monospace, SF Mono, monospace;--prism-font-size-label:11px;--prism-font-size-title:16px;--prism-font-size-axis-title:12px;}.prism-axis-domain{stroke:var(--prism-color-axis);fill:none;}.prism-axis-tick{stroke:var(--prism-color-axis);}.prism-axis-label{fill:var(--prism-color-text);font-family:var(--prism-font-sans);font-size:var(--prism-font-size-label,11px);}.prism-axis-title{fill:var(--prism-color-text);font-family:var(--prism-font-sans);font-size:var(--prism-font-size-axis-title,12px);font-weight:600;}.prism-grid-line{stroke:var(--prism-color-grid);}.prism-title{fill:var(--prism-color-text);font-family:var(--prism-font-sans);font-size:var(--prism-font-size-title,16px);font-weight:600;}.prism-legend-title{fill:var(--prism-color-text);font-family:var(--prism-font-sans);font-size:12px;font-weight:600;}.prism-legend-label{fill:var(--prism-color-text);font-family:var(--prism-font-sans);font-size:11px;}.prism-legend-swatch{stroke:none;}.prism-selected{opacity:var(--prism-selected-opacity,1);}.prism-deselected{opacity:var(--prism-deselected-opacity,0.3);}</style>

  <g class="prism-scene" data-scene-id="scene-r0-c0-0">
    <g class="prism-axes">
      <g class="prism-axis prism-axis-y" data-prism-axis-id="y-axis"><line class="prism-grid-line" x1="40" y1="560" x2="370" y2="560"/><line class="prism-grid-line" x1="40" y1="465.818" x2="370" y2="465.818"/><line class="prism-grid-line" x1="40" y1="371.636" x2="370" y2="371.636"/><line class="prism-grid-line" x1="40" y1="277.455" x2="370" y2="277.455"/><line class="prism-grid-line" x1="40" y1="183.273" x2="370" y2="183.273"/><line class="prism-grid-line" x1="40" y1="89.091" x2="370" y2="89.091"/><line class="prism-axis-domain" x1="40" y1="42" x2="40" y2="560"/><line class="prism-axis-tick" x1="40" y1="560" x2="35" y2="560"/><text class="prism-axis-label" x="32" y="564" text-anchor="end">0</text><line class="prism-axis-tick" x1="40" y1="512.909" x2="37" y2="512.909"/><line class="prism-axis-tick" x1="40" y1="465.818" x2="35" y2="465.818"/><line class="prism-axis-tick" x1="40" y1="418.727" x2="37" y2="418.727"/><line class="prism-axis-tick" x1="40" y1="371.636" x2="35" y2="371.636"/><text class="prism-axis-label" x="32" y="375.636" text-anchor="end">0.2</text><line class="prism-axis-tick" x1="40" y1="324.545" x2="37" y2="324.545"/><line class="prism-axis-tick" x1="40" y1="277.455" x2="35" y2="277.455"/><line class="prism-axis-tick" x1="40" y1="230.364" x2="37" y2="230.364"/><line class="prism-axis-tick" x1="40" y1="183.273" x2="35" y2="183.273"/><text class="prism-axis-label" x="32" y="187.273" text-anchor="end">0.4</text><line class="prism-axis-tick" x1="40" y1="136.182" x2="37" y2="136.182"/><line class="prism-axis-tick" x1="40" y1="89.091" x2="35" y2="89.091"/><text class="prism-axis-title" x="10" y="301" text-anchor="middle" transform="rotate(-90 10 301)">score</text></g>
    </g>
    <g class="prism-plot">
      <g class="prism-layer" data-layer-id="layer-0" data-prism-layer="layer-0">
        <rect class="prism-mark-bar" data-prism-id="bar-0" data-prism-datum-row="0" x="48.25" y="164.436" width="148.5" height="395.564" fill="#3b82f6"/>
        <rect class="prism-mark-bar" data-prism-id="bar-1" data-prism-datum-row="1" x="213.25" y="42" width="148.5" height="518" fill="#3b82f6"/>
      </g>
    </g>
  </g>

  <g class="prism-scene" data-scene-id="scene-r0-c1-0">
    <g class="prism-axes">
      <g class="prism-axis prism-axis-y" data-prism-axis-id="y-axis"><line class="prism-grid-line" x1="450" y1="560" x2="780" y2="560"/><line class="prism-grid-line" x1="450" y1="476.452" x2="780" y2="476.452"/><line class="prism-grid-line" x1="450" y1="392.903" x2="780" y2="392.903"/><line class="prism-grid-line" x1="450" y1="309.355" x2="780" y2="309.355"/><line class="prism-grid-line" x1="450" y1="225.806" x2="780" y2="225.806"/><line class="prism-grid-line" x1="450" y1="142.258" x2="780" y2="142.258"/><line class="prism-grid-line" x1="450" y1="58.71" x2="780" y2="58.71"/><line class="prism-axis-domain" x1="450" y1="42" x2="450" y2="560"/><line class="prism-axis-tick" x1="450" y1="560" x2="445" y2="560"/><text class="prism-axis-label" x="442" y="564" text-anchor="end">0</text><line class="prism-axis-tick" x1="450" y1="518.226" x2="447" y2="518.226"/><line class="prism-axis-tick" x1="450" y1="476.452" x2="445" y2="476.452"/><line class="prism-axis-tick" x1="450" y1="434.677" x2="447" y2="434.677"/><line class="prism-axis-tick" x1="450" y1="392.903" x2="445" y2="392.903"/><text class="prism-axis-label" x="442" y="396.903" text-anchor="end">4</text><line class="prism-axis-tick" x1="450" y1="351.129" x2="447" y2="351.129"/><line class="prism-axis-tick" x1="450" y1="309.355" x2="445" y2="309.355"/><line class="prism-axis-tick" x1="450" y1="267.581" x2="447" y2="267.581"/><line class="prism-axis-tick" x1="450" y1="225.806" x2="445" y2="225.806"/><text class="prism-axis-label" x="442" y="229.806" text-anchor="end">8</text><line class="prism-axis-tick" x1="450" y1="184.032" x2="447" y2="184.032"/><line class="prism-axis-tick" x1="450" y1="142.258" x2="445" y2="142.258"/><line class="prism-axis-tick" x1="450" y1="100.484" x2="447" y2="100.484"/><line class="prism-axis-tick" x1="450" y1="58.71" x2="445" y2="58.71"/><text class="prism-axis-label" x="442" y="62.71" text-anchor="end">12</text><text class="prism-axis-title" x="420" y="301" text-anchor="middle" transform="rotate(-90 420 301)">score</text></g>
    </g>
    <g class="prism-plot">
      <g class="prism-layer" data-layer-id="layer-0" data-prism-layer="layer-0">
        <rect class="prism-mark-bar" data-prism-id="bar-0" data-prism-datum-row="0" x="458.25" y="150.613" width="148.5" height="409.387" fill="#3b82f6"/>
        <rect class="prism-mark-bar" data-prism-id="bar-1" data-prism-datum-row="1" x="623.25" y="42" width="148.5" height="518" fill="#3b82f6"/>
      </g>
    </g>
  </g>

  <g class="prism-axes" data-shared="true">
    <g class="prism-axis prism-axis-x" data-prism-axis-id="x-axis"><line class="prism-grid-line" x1="122.5" y1="42" x2="122.5" y2="560"/><line class="prism-grid-line" x1="287.5" y1="42" x2="287.5" y2="560"/><line class="prism-axis-domain" x1="450" y1="560" x2="780" y2="560"/><line class="prism-axis-tick" x1="122.5" y1="560" x2="122.5" y2="565"/><text class="prism-axis-label" x="122.5" y="578" text-anchor="middle">alpha</text><line class="prism-axis-tick" x1="287.5" y1="560" x2="287.5" y2="565"/><text class="prism-axis-label" x="287.5" y="578" text-anchor="middle">beta</text><text class="prism-axis-title" x="205" y="594" text-anchor="middle">brand</text></g>
  </g>

  <g class="prism-grid-headers">
    <text class="prism-facet-header prism-facet-header-top" x="195" y="14" text-anchor="middle">region = NA</text>
    <text class="prism-facet-header prism-facet-header-top" x="605" y="14" text-anchor="middle">region = EU</text>
  </g>
</svg>
