<svg xmlns="http://www.w3.org/2000/svg" viewBox="0 0 800 600" width="800" height="600">
  <style>:root{--prism-color-axis:#6b7280;--prism-color-grid:#e5e7eb;--prism-color-text:#111827;--prism-font-sans:Inter, system-ui, sans-serif;--prism-font-mono:ui-monospace, SF Mono, monospace;}.prism-axis-domain{stroke:var(--prism-color-axis);fill:none;}.prism-axis-tick{stroke:var(--prism-color-axis);}.prism-axis-label{fill:var(--prism-color-text);font-family:var(--prism-font-sans);font-size:11px;}.prism-axis-title{fill:var(--prism-color-text);font-family:var(--prism-font-sans);font-size:12px;font-weight:600;}.prism-grid-line{stroke:var(--prism-color-grid);}.prism-title{fill:var(--prism-color-text);font-family:var(--prism-font-sans);font-size:16px;font-weight:600;}</style>

  <g class="prism-scene" data-scene-id="scene-0">
    <text class="prism-title" x="410" y="20" text-anchor="middle">Cumulative volume</text>
    <g class="prism-axes">
      <g class="prism-axis prism-axis-x" data-prism-axis-id="x-axis"><line class="prism-grid-line" x1="144.491" y1="50" x2="144.491" y2="560"/><line class="prism-grid-line" x1="358.611" y1="50" x2="358.611" y2="560"/><line class="prism-grid-line" x1="572.731" y1="50" x2="572.731" y2="560"/><line class="prism-axis-domain" x1="40" y1="560" x2="780" y2="560"/><line class="prism-axis-tick" x1="144.491" y1="560" x2="144.491" y2="565"/><text class="prism-axis-label" x="144.491" y="578" text-anchor="middle">1.76725e+12</text><line class="prism-axis-tick" x1="358.611" y1="560" x2="358.611" y2="565"/><text class="prism-axis-label" x="358.611" y="578" text-anchor="middle">1.7673e+12</text><line class="prism-axis-tick" x1="572.731" y1="560" x2="572.731" y2="565"/><text class="prism-axis-label" x="572.731" y="578" text-anchor="middle">1.76735e+12</text><text class="prism-axis-title" x="410" y="594" text-anchor="middle">day</text></g>
      <g class="prism-axis prism-axis-y" data-prism-axis-id="y-axis"><line class="prism-grid-line" x1="40" y1="560" x2="780" y2="560"/><line class="prism-grid-line" x1="40" y1="453.75" x2="780" y2="453.75"/><line class="prism-grid-line" x1="40" y1="347.5" x2="780" y2="347.5"/><line class="prism-grid-line" x1="40" y1="241.25" x2="780" y2="241.25"/><line class="prism-grid-line" x1="40" y1="135" x2="780" y2="135"/><line class="prism-axis-domain" x1="40" y1="50" x2="40" y2="560"/><line class="prism-axis-tick" x1="35" y1="560" x2="40" y2="560"/><text class="prism-axis-label" x="32" y="564" text-anchor="end">0</text><line class="prism-axis-tick" x1="35" y1="453.75" x2="40" y2="453.75"/><text class="prism-axis-label" x="32" y="457.75" text-anchor="end">50</text><line class="prism-axis-tick" x1="35" y1="347.5" x2="40" y2="347.5"/><text class="prism-axis-label" x="32" y="351.5" text-anchor="end">100</text><line class="prism-axis-tick" x1="35" y1="241.25" x2="40" y2="241.25"/><text class="prism-axis-label" x="32" y="245.25" text-anchor="end">150</text><line class="prism-axis-tick" x1="35" y1="135" x2="40" y2="135"/><text class="prism-axis-label" x="32" y="139" text-anchor="end">200</text><text class="prism-axis-title" x="10" y="305" text-anchor="middle" transform="rotate(-90 10 305)">vol</text></g>
    </g>
    <g class="prism-plot">
      <g class="prism-layer" data-layer-id="layer-0">
        <path class="prism-mark-area" data-prism-id="area-0" d="M40,347.5 L410,188.125 L780,50 L780,347.5 L40,347.5 Z" fill="#3b82f6" opacity="0.7"/>
      </g>
    </g>
  </g>
</svg>
