<svg xmlns="http://www.w3.org/2000/svg" viewBox="0 0 800 600" width="800" height="600">
  <style>:root{--prism-color-axis:#6b7280;--prism-color-grid:#e5e7eb;--prism-color-text:#111827;--prism-font-sans:Inter, system-ui, sans-serif;--prism-font-mono:ui-monospace, SF Mono, monospace;}.prism-axis-domain{stroke:var(--prism-color-axis);fill:none;}.prism-axis-tick{stroke:var(--prism-color-axis);}.prism-axis-label{fill:var(--prism-color-text);font-family:var(--prism-font-sans);font-size:11px;}.prism-axis-title{fill:var(--prism-color-text);font-family:var(--prism-font-sans);font-size:12px;font-weight:600;}.prism-grid-line{stroke:var(--prism-color-grid);}.prism-title{fill:var(--prism-color-text);font-family:var(--prism-font-sans);font-size:16px;font-weight:600;}</style>

  <g class="prism-scene" data-scene-id="scene-0">
    <text class="prism-title" x="410" y="20" text-anchor="middle">Score over time</text>
    <g class="prism-axes">
      <g class="prism-axis prism-axis-x" data-prism-axis-id="x-axis"><line class="prism-grid-line" x1="144.491" y1="50" x2="144.491" y2="560"/><line class="prism-grid-line" x1="358.611" y1="50" x2="358.611" y2="560"/><line class="prism-grid-line" x1="572.731" y1="50" x2="572.731" y2="560"/><line class="prism-axis-domain" x1="40" y1="560" x2="780" y2="560"/><line class="prism-axis-tick" x1="144.491" y1="560" x2="144.491" y2="565"/><text class="prism-axis-label" x="144.491" y="578" text-anchor="middle">1.76725e+12</text><line class="prism-axis-tick" x1="358.611" y1="560" x2="358.611" y2="565"/><text class="prism-axis-label" x="358.611" y="578" text-anchor="middle">1.7673e+12</text><line class="prism-axis-tick" x1="572.731" y1="560" x2="572.731" y2="565"/><text class="prism-axis-label" x="572.731" y="578" text-anchor="middle">1.76735e+12</text><text class="prism-axis-title" x="410" y="594" text-anchor="middle">day</text></g>
      <g class="prism-axis prism-axis-y" data-prism-axis-id="y-axis"><line class="prism-grid-line" x1="40" y1="560" x2="780" y2="560"/><line class="prism-grid-line" x1="40" y1="476.393" x2="780" y2="476.393"/><line class="prism-grid-line" x1="40" y1="392.787" x2="780" y2="392.787"/><line class="prism-grid-line" x1="40" y1="309.18" x2="780" y2="309.18"/><line class="prism-grid-line" x1="40" y1="225.574" x2="780" y2="225.574"/><line class="prism-grid-line" x1="40" y1="141.967" x2="780" y2="141.967"/><line class="prism-grid-line" x1="40" y1="58.361" x2="780" y2="58.361"/><line class="prism-axis-domain" x1="40" y1="50" x2="40" y2="560"/><line class="prism-axis-tick" x1="35" y1="560" x2="40" y2="560"/><text class="prism-axis-label" x="32" y="564" text-anchor="end">0</text><line class="prism-axis-tick" x1="35" y1="476.393" x2="40" y2="476.393"/><text class="prism-axis-label" x="32" y="480.393" text-anchor="end">0.1</text><line class="prism-axis-tick" x1="35" y1="392.787" x2="40" y2="392.787"/><text class="prism-axis-label" x="32" y="396.787" text-anchor="end">0.2</text><line class="prism-axis-tick" x1="35" y1="309.18" x2="40" y2="309.18"/><text class="prism-axis-label" x="32" y="313.18" text-anchor="end">0.3</text><line class="prism-axis-tick" x1="35" y1="225.574" x2="40" y2="225.574"/><text class="prism-axis-label" x="32" y="229.574" text-anchor="end">0.4</text><line class="prism-axis-tick" x1="35" y1="141.967" x2="40" y2="141.967"/><text class="prism-axis-label" x="32" y="145.967" text-anchor="end">0.5</text><line class="prism-axis-tick" x1="35" y1="58.361" x2="40" y2="58.361"/><text class="prism-axis-label" x="32" y="62.361" text-anchor="end">0.6</text><text class="prism-axis-title" x="10" y="305" text-anchor="middle" transform="rotate(-90 10 305)">score</text></g>
    </g>
    <g class="prism-plot">
      <g class="prism-layer" data-layer-id="layer-0">
        <polyline class="prism-mark-line" data-prism-id="line-0" points="40,208.852 410,100.164 780,50" fill="none" stroke="#3b82f6" stroke-width="1.5"/>
      </g>
    </g>
  </g>
</svg>
