<svg xmlns="http://www.w3.org/2000/svg" viewBox="0 0 800 600" width="800" height="600">
  <style>:root{--prism-color-axis:#6b7280;--prism-color-grid:#e5e7eb;--prism-color-text:#111827;--prism-color-bg:transparent;--prism-font-sans:Inter, system-ui, sans-serif;--prism-font-mono:ui-monospace, SF Mono, monospace;--prism-font-size-label:11px;--prism-font-size-title:16px;--prism-font-size-axis-title:12px;}.prism-axis-domain{stroke:var(--prism-color-axis);fill:none;}.prism-axis-tick{stroke:var(--prism-color-axis);}.prism-axis-label{fill:var(--prism-color-text);font-family:var(--prism-font-sans);font-size:var(--prism-font-size-label,11px);}.prism-axis-title{fill:var(--prism-color-text);font-family:var(--prism-font-sans);font-size:var(--prism-font-size-axis-title,12px);font-weight:600;}.prism-grid-line{stroke:var(--prism-color-grid);}.prism-title{fill:var(--prism-color-text);font-family:var(--prism-font-sans);font-size:var(--prism-font-size-title,16px);font-weight:600;}.prism-legend-title{fill:var(--prism-color-text);font-family:var(--prism-font-sans);font-size:12px;font-weight:600;}.prism-legend-label{fill:var(--prism-color-text);font-family:var(--prism-font-sans);font-size:11px;}.prism-legend-swatch{stroke:none;}</style>

  <g class="prism-scene" data-scene-id="scene-0">
    <text class="prism-title" x="410" y="20" text-anchor="middle">Thresholds (rule basic)</text>
    <g class="prism-axes">
      <g class="prism-axis prism-axis-y" data-prism-axis-id="y-axis"><line class="prism-grid-line" x1="40" y1="560" x2="780" y2="560"/><line class="prism-grid-line" x1="40" y1="487.143" x2="780" y2="487.143"/><line class="prism-grid-line" x1="40" y1="414.286" x2="780" y2="414.286"/><line class="prism-grid-line" x1="40" y1="341.429" x2="780" y2="341.429"/><line class="prism-grid-line" x1="40" y1="268.571" x2="780" y2="268.571"/><line class="prism-grid-line" x1="40" y1="195.714" x2="780" y2="195.714"/><line class="prism-grid-line" x1="40" y1="122.857" x2="780" y2="122.857"/><line class="prism-grid-line" x1="40" y1="50" x2="780" y2="50"/><line class="prism-axis-domain" x1="40" y1="50" x2="40" y2="560"/><line class="prism-axis-tick" x1="40" y1="560" x2="35" y2="560"/><text class="prism-axis-label" x="32" y="564" text-anchor="end">0</text><line class="prism-axis-tick" x1="40" y1="523.571" x2="37" y2="523.571"/><line class="prism-axis-tick" x1="40" y1="487.143" x2="35" y2="487.143"/><line class="prism-axis-tick" x1="40" y1="450.714" x2="37" y2="450.714"/><line class="prism-axis-tick" x1="40" y1="414.286" x2="35" y2="414.286"/><text class="prism-axis-label" x="32" y="418.286" text-anchor="end">0.2</text><line class="prism-axis-tick" x1="40" y1="377.857" x2="37" y2="377.857"/><line class="prism-axis-tick" x1="40" y1="341.429" x2="35" y2="341.429"/><line class="prism-axis-tick" x1="40" y1="305" x2="37" y2="305"/><line class="prism-axis-tick" x1="40" y1="268.571" x2="35" y2="268.571"/><text class="prism-axis-label" x="32" y="272.571" text-anchor="end">0.4</text><line class="prism-axis-tick" x1="40" y1="232.143" x2="37" y2="232.143"/><line class="prism-axis-tick" x1="40" y1="195.714" x2="35" y2="195.714"/><line class="prism-axis-tick" x1="40" y1="159.286" x2="37" y2="159.286"/><line class="prism-axis-tick" x1="40" y1="122.857" x2="35" y2="122.857"/><text class="prism-axis-label" x="32" y="126.857" text-anchor="end">0.6</text><line class="prism-axis-tick" x1="40" y1="86.429" x2="37" y2="86.429"/><line class="prism-axis-tick" x1="40" y1="50" x2="35" y2="50"/><text class="prism-axis-title" x="10" y="305" text-anchor="middle" transform="rotate(-90 10 305)">score</text></g>
    </g>
    <g class="prism-plot">
      <g class="prism-layer" data-layer-id="layer-0">
        <line class="prism-mark-rule" data-prism-id="rule-0" x1="40" y1="268.571" x2="780" y2="268.571" stroke="#3b82f6" stroke-width="1.5"/>
        <line class="prism-mark-rule" data-prism-id="rule-1" x1="40" y1="159.286" x2="780" y2="159.286" stroke="#3b82f6" stroke-width="1.5"/>
        <line class="prism-mark-rule" data-prism-id="rule-2" x1="40" y1="50" x2="780" y2="50" stroke="#3b82f6" stroke-width="1.5"/>
      </g>
    </g>
  </g>
</svg>
