<svg xmlns="http://www.w3.org/2000/svg" viewBox="0 0 800 600" overflow="hidden">
  <style>:root{--prism-color-axis:#6b7280;--prism-color-grid:#e5e7eb;--prism-color-text:#111827;--prism-color-bg:transparent;--prism-font-sans:Inter, system-ui, sans-serif;--prism-font-mono:ui-monospace, SF Mono, monospace;--prism-font-size-label:11px;--prism-font-size-title:16px;--prism-font-size-axis-title:12px;--prism-axis-domain-color:#6b7280;--prism-axis-domain-width:1px;--prism-axis-tick-color:#6b7280;--prism-axis-tick-width:1px;--prism-axis-tick-size:5px;--prism-grid-color:#e5e7eb;--prism-grid-width:1px;--prism-axis-label-color:#111827;--prism-axis-label-font-size:11px;--prism-axis-label-padding:4px;--prism-axis-title-color:#111827;--prism-axis-title-font-size:12px;--prism-axis-title-padding:8px;--prism-legend-padding:8px;--prism-legend-symbol-size:64px;--prism-legend-label-color:#111827;--prism-legend-label-font-size:11px;--prism-legend-title-color:#111827;--prism-legend-title-font-size:12px;--prism-legend-title-font-weight:600;--prism-legend-row-padding:4px;--prism-title-color:#111827;--prism-title-font-size:16px;--prism-title-font-weight:600;--prism-title-anchor:start;--prism-title-padding:12px;--prism-view-bg:transparent;--prism-view-padding:0px;--prism-mark-fill:#4c78a8;--prism-mark-stroke-width:0px;--prism-mark-opacity:1;--prism-mark-arc-stroke:#ffffff;--prism-mark-arc-stroke-width:1px;--prism-mark-area-fill:#4c78a8;--prism-mark-area-opacity:0.7;--prism-mark-bar-fill:#4c78a8;--prism-mark-bar-corner-radius:0px;--prism-mark-geopoint-fill:#4c78a8;--prism-mark-geopoint-stroke-width:0px;--prism-mark-geopoint-size:36;--prism-mark-geoshape-fill:#cbd5e1;--prism-mark-geoshape-stroke:#ffffff;--prism-mark-geoshape-stroke-width:0.5px;--prism-mark-line-fill:transparent;--prism-mark-line-stroke:#4c78a8;--prism-mark-line-stroke-width:1.5px;--prism-mark-point-fill:#4c78a8;--prism-mark-point-stroke-width:0px;--prism-mark-point-size:64;--prism-mark-rule-stroke:#4c78a8;--prism-mark-rule-stroke-width:1px;--prism-mark-text-fill:#111827;--prism-mark-text-font-size:11px;--prism-mark-tick-stroke:#4c78a8;--prism-mark-tick-stroke-width:1px;--prism-deselected-opacity:0.3;--prism-selected-opacity:1;}.prism-axis-domain{stroke:var(--prism-axis-domain-color,var(--prism-color-axis));stroke-width:var(--prism-axis-domain-width,1px);fill:none;}.prism-axis-tick{stroke:var(--prism-axis-tick-color,var(--prism-color-axis));stroke-width:var(--prism-axis-tick-width,1px);}.prism-axis-label{fill:var(--prism-axis-label-color,var(--prism-color-text));font-family:var(--prism-font-sans);font-size:var(--prism-axis-label-font-size,var(--prism-font-size-label,11px));font-weight:var(--prism-axis-label-font-weight,400);}.prism-axis-title{fill:var(--prism-axis-title-color,var(--prism-color-text));font-family:var(--prism-font-sans);font-size:var(--prism-axis-title-font-size,var(--prism-font-size-axis-title,12px));font-weight:var(--prism-axis-title-font-weight,600);}.prism-grid-line{stroke:var(--prism-grid-color,var(--prism-color-grid));stroke-width:var(--prism-grid-width,1px);}.prism-title{fill:var(--prism-title-color,var(--prism-color-text));font-family:var(--prism-font-sans);font-size:var(--prism-title-font-size,var(--prism-font-size-title,16px));font-weight:var(--prism-title-font-weight,600);}.prism-legend-title{fill:var(--prism-legend-title-color,var(--prism-color-text));font-family:var(--prism-font-sans);font-size:var(--prism-legend-title-font-size,12px);font-weight:var(--prism-legend-title-font-weight,600);}.prism-legend-label{fill:var(--prism-legend-label-color,var(--prism-color-text));font-family:var(--prism-font-sans);font-size:var(--prism-legend-label-font-size,11px);}.prism-legend-swatch{stroke:none;}.prism-selected{opacity:var(--prism-selected-opacity,1);}.prism-deselected{opacity:var(--prism-deselected-opacity,0.3);}</style>

  <g class="prism-scene" data-scene-id="scene-0">
    <text class="prism-title" x="410" y="20" text-anchor="middle">Daily score (x-axis brush)</text>
    <g class="prism-axes">
      <g class="prism-axis prism-axis-x" data-prism-axis-id="x-axis"><line class="prism-grid-line" x1="40" y1="50" x2="40" y2="560"/><line class="prism-grid-line" x1="163.333" y1="50" x2="163.333" y2="560"/><line class="prism-grid-line" x1="286.667" y1="50" x2="286.667" y2="560"/><line class="prism-grid-line" x1="410" y1="50" x2="410" y2="560"/><line class="prism-grid-line" x1="533.333" y1="50" x2="533.333" y2="560"/><line class="prism-grid-line" x1="656.667" y1="50" x2="656.667" y2="560"/><line class="prism-grid-line" x1="780" y1="50" x2="780" y2="560"/><line class="prism-axis-domain" x1="40" y1="560" x2="780" y2="560"/><line class="prism-axis-tick" x1="40" y1="560" x2="40" y2="565"/><text class="prism-axis-label" x="40" y="578" text-anchor="middle">0</text><line class="prism-axis-tick" x1="101.667" y1="560" x2="101.667" y2="563"/><line class="prism-axis-tick" x1="163.333" y1="560" x2="163.333" y2="565"/><text class="prism-axis-label" x="163.333" y="578" text-anchor="middle">5</text><line class="prism-axis-tick" x1="225" y1="560" x2="225" y2="563"/><line class="prism-axis-tick" x1="286.667" y1="560" x2="286.667" y2="565"/><text class="prism-axis-label" x="286.667" y="578" text-anchor="middle">10</text><line class="prism-axis-tick" x1="348.333" y1="560" x2="348.333" y2="563"/><line class="prism-axis-tick" x1="410" y1="560" x2="410" y2="565"/><text class="prism-axis-label" x="410" y="578" text-anchor="middle">15</text><line class="prism-axis-tick" x1="471.667" y1="560" x2="471.667" y2="563"/><line class="prism-axis-tick" x1="533.333" y1="560" x2="533.333" y2="565"/><text class="prism-axis-label" x="533.333" y="578" text-anchor="middle">20</text><line class="prism-axis-tick" x1="595" y1="560" x2="595" y2="563"/><line class="prism-axis-tick" x1="656.667" y1="560" x2="656.667" y2="565"/><text class="prism-axis-label" x="656.667" y="578" text-anchor="middle">25</text><line class="prism-axis-tick" x1="718.333" y1="560" x2="718.333" y2="563"/><line class="prism-axis-tick" x1="780" y1="560" x2="780" y2="565"/><text class="prism-axis-label" x="780" y="578" text-anchor="middle">30</text><text class="prism-axis-title" x="410" y="594" text-anchor="middle">day</text></g>
      <g class="prism-axis prism-axis-y" data-prism-axis-id="y-axis"><line class="prism-grid-line" x1="40" y1="560" x2="780" y2="560"/><line class="prism-grid-line" x1="40" y1="451.489" x2="780" y2="451.489"/><line class="prism-grid-line" x1="40" y1="342.979" x2="780" y2="342.979"/><line class="prism-grid-line" x1="40" y1="234.468" x2="780" y2="234.468"/><line class="prism-grid-line" x1="40" y1="125.957" x2="780" y2="125.957"/><line class="prism-axis-domain" x1="40" y1="50" x2="40" y2="560"/><line class="prism-axis-tick" x1="40" y1="560" x2="35" y2="560"/><text class="prism-axis-label" x="32" y="564" text-anchor="end">0</text><line class="prism-axis-tick" x1="40" y1="505.745" x2="37" y2="505.745"/><line class="prism-axis-tick" x1="40" y1="451.489" x2="35" y2="451.489"/><line class="prism-axis-tick" x1="40" y1="397.234" x2="37" y2="397.234"/><line class="prism-axis-tick" x1="40" y1="342.979" x2="35" y2="342.979"/><text class="prism-axis-label" x="32" y="346.979" text-anchor="end">0.4</text><line class="prism-axis-tick" x1="40" y1="288.723" x2="37" y2="288.723"/><line class="prism-axis-tick" x1="40" y1="234.468" x2="35" y2="234.468"/><line class="prism-axis-tick" x1="40" y1="180.213" x2="37" y2="180.213"/><line class="prism-axis-tick" x1="40" y1="125.957" x2="35" y2="125.957"/><text class="prism-axis-label" x="32" y="129.957" text-anchor="end">0.8</text><text class="prism-axis-title" x="10" y="305" text-anchor="middle" transform="rotate(-90 10 305)">score</text></g>
    </g>
    <g class="prism-plot">
      <g class="prism-layer" data-layer-id="layer-0" data-prism-layer="layer-0">
        <polyline class="prism-mark-line" data-prism-id="line-0" data-prism-datum-row="0" points="64.667,337.553 89.333,299.574 114,277.872 138.667,261.596 163.333,229.043 188,245.319 212.667,212.766 237.333,185.638 262,169.362 286.667,191.064 311.333,174.787 336,158.511 360.667,142.234 385.333,125.957 410,147.66 434.667,136.809 459.333,115.106 484,104.255 508.667,120.532 533.333,98.83 558,109.681 582.667,87.979 607.333,77.128 632,93.404 656.667,71.702 681.333,82.553 706,60.851 730.667,66.277 755.333,55.426 780,50" fill="none" stroke="#4c78a8" stroke-width="1.5"/>
      </g>
    </g>
  </g>
</svg>
