<svg xmlns="http://www.w3.org/2000/svg" viewBox="0 0 800 600" width="800" height="600">
  <style>:root{--prism-color-axis:#6b7280;--prism-color-grid:#e5e7eb;--prism-color-text:#111827;--prism-color-bg:transparent;--prism-font-sans:Inter, system-ui, sans-serif;--prism-font-mono:ui-monospace, SF Mono, monospace;--prism-font-size-label:11px;--prism-font-size-title:16px;--prism-font-size-axis-title:12px;}.prism-axis-domain{stroke:var(--prism-color-axis);fill:none;}.prism-axis-tick{stroke:var(--prism-color-axis);}.prism-axis-label{fill:var(--prism-color-text);font-family:var(--prism-font-sans);font-size:var(--prism-font-size-label,11px);}.prism-axis-title{fill:var(--prism-color-text);font-family:var(--prism-font-sans);font-size:var(--prism-font-size-axis-title,12px);font-weight:600;}.prism-grid-line{stroke:var(--prism-color-grid);}.prism-title{fill:var(--prism-color-text);font-family:var(--prism-font-sans);font-size:var(--prism-font-size-title,16px);font-weight:600;}.prism-legend-title{fill:var(--prism-color-text);font-family:var(--prism-font-sans);font-size:12px;font-weight:600;}.prism-legend-label{fill:var(--prism-color-text);font-family:var(--prism-font-sans);font-size:11px;}.prism-legend-swatch{stroke:none;}.prism-selected{opacity:var(--prism-selected-opacity,1);}.prism-deselected{opacity:var(--prism-deselected-opacity,0.3);}</style>

  <g class="prism-scene" data-scene-id="scene-0">
    <text class="prism-title" x="410" y="20" text-anchor="middle">Line with interval brush</text>
    <g class="prism-axes">
      <g class="prism-axis prism-axis-x" data-prism-axis-id="x-axis"><line class="prism-grid-line" x1="40" y1="50" x2="40" y2="560"/><line class="prism-grid-line" x1="178.75" y1="50" x2="178.75" y2="560"/><line class="prism-grid-line" x1="317.5" y1="50" x2="317.5" y2="560"/><line class="prism-grid-line" x1="456.25" y1="50" x2="456.25" y2="560"/><line class="prism-grid-line" x1="595" y1="50" x2="595" y2="560"/><line class="prism-grid-line" x1="733.75" y1="50" x2="733.75" y2="560"/><line class="prism-axis-domain" x1="40" y1="560" x2="780" y2="560"/><line class="prism-axis-tick" x1="40" y1="560" x2="40" y2="565"/><text class="prism-axis-label" x="40" y="578" text-anchor="middle">00:00</text><line class="prism-axis-tick" x1="178.75" y1="560" x2="178.75" y2="565"/><text class="prism-axis-label" x="178.75" y="578" text-anchor="middle">09:00</text><line class="prism-axis-tick" x1="317.5" y1="560" x2="317.5" y2="565"/><text class="prism-axis-label" x="317.5" y="578" text-anchor="middle">18:00</text><line class="prism-axis-tick" x1="456.25" y1="560" x2="456.25" y2="565"/><text class="prism-axis-label" x="456.25" y="578" text-anchor="middle">03:00</text><line class="prism-axis-tick" x1="595" y1="560" x2="595" y2="565"/><text class="prism-axis-label" x="595" y="578" text-anchor="middle">12:00</text><line class="prism-axis-tick" x1="733.75" y1="560" x2="733.75" y2="565"/><text class="prism-axis-label" x="733.75" y="578" text-anchor="middle">21:00</text><text class="prism-axis-title" x="410" y="594" text-anchor="middle">day</text></g>
      <g class="prism-axis prism-axis-y" data-prism-axis-id="y-axis"><line class="prism-grid-line" x1="40" y1="560" x2="780" y2="560"/><line class="prism-grid-line" x1="40" y1="467.273" x2="780" y2="467.273"/><line class="prism-grid-line" x1="40" y1="374.545" x2="780" y2="374.545"/><line class="prism-grid-line" x1="40" y1="281.818" x2="780" y2="281.818"/><line class="prism-grid-line" x1="40" y1="189.091" x2="780" y2="189.091"/><line class="prism-grid-line" x1="40" y1="96.364" x2="780" y2="96.364"/><line class="prism-axis-domain" x1="40" y1="50" x2="40" y2="560"/><line class="prism-axis-tick" x1="40" y1="560" x2="35" y2="560"/><text class="prism-axis-label" x="32" y="564" text-anchor="end">0</text><line class="prism-axis-tick" x1="40" y1="513.636" x2="37" y2="513.636"/><line class="prism-axis-tick" x1="40" y1="467.273" x2="35" y2="467.273"/><line class="prism-axis-tick" x1="40" y1="420.909" x2="37" y2="420.909"/><line class="prism-axis-tick" x1="40" y1="374.545" x2="35" y2="374.545"/><text class="prism-axis-label" x="32" y="378.545" text-anchor="end">0.2</text><line class="prism-axis-tick" x1="40" y1="328.182" x2="37" y2="328.182"/><line class="prism-axis-tick" x1="40" y1="281.818" x2="35" y2="281.818"/><line class="prism-axis-tick" x1="40" y1="235.455" x2="37" y2="235.455"/><line class="prism-axis-tick" x1="40" y1="189.091" x2="35" y2="189.091"/><text class="prism-axis-label" x="32" y="193.091" text-anchor="end">0.4</text><line class="prism-axis-tick" x1="40" y1="142.727" x2="37" y2="142.727"/><line class="prism-axis-tick" x1="40" y1="96.364" x2="35" y2="96.364"/><text class="prism-axis-title" x="10" y="305" text-anchor="middle" transform="rotate(-90 10 305)">score</text></g>
    </g>
    <g class="prism-plot">
      <g class="prism-layer" data-layer-id="layer-0" data-prism-layer="layer-0">
        <polyline class="prism-mark-line" data-prism-id="line-0" data-prism-datum-row="0" points="40,170.545 410,50 780,105.636" fill="none" stroke="#3b82f6" stroke-width="1.5"/>
      </g>
    </g>
  </g>
</svg>
