<svg xmlns="http://www.w3.org/2000/svg" viewBox="0 0 800 600">
  <style>:root{--prism-color-axis:#6b7280;--prism-color-grid:#e5e7eb;--prism-color-text:#111827;--prism-color-bg:transparent;--prism-font-sans:Inter, system-ui, sans-serif;--prism-font-mono:ui-monospace, SF Mono, monospace;--prism-font-size-label:11px;--prism-font-size-title:16px;--prism-font-size-axis-title:12px;}.prism-axis-domain{stroke:var(--prism-color-axis);fill:none;}.prism-axis-tick{stroke:var(--prism-color-axis);}.prism-axis-label{fill:var(--prism-color-text);font-family:var(--prism-font-sans);font-size:var(--prism-font-size-label,11px);}.prism-axis-title{fill:var(--prism-color-text);font-family:var(--prism-font-sans);font-size:var(--prism-font-size-axis-title,12px);font-weight:600;}.prism-grid-line{stroke:var(--prism-color-grid);}.prism-title{fill:var(--prism-color-text);font-family:var(--prism-font-sans);font-size:var(--prism-font-size-title,16px);font-weight:600;}.prism-legend-title{fill:var(--prism-color-text);font-family:var(--prism-font-sans);font-size:12px;font-weight:600;}.prism-legend-label{fill:var(--prism-color-text);font-family:var(--prism-font-sans);font-size:11px;}.prism-legend-swatch{stroke:none;}.prism-selected{opacity:var(--prism-selected-opacity,1);}.prism-deselected{opacity:var(--prism-deselected-opacity,0.3);}</style>

  <g class="prism-scene" data-scene-id="scene-0">
    <g class="prism-axes">
      <g class="prism-axis prism-axis-x" data-prism-axis-id="x-axis"><line class="prism-grid-line" x1="122.5" y1="20" x2="122.5" y2="560"/><line class="prism-grid-line" x1="287.5" y1="20" x2="287.5" y2="560"/><line class="prism-axis-domain" x1="40" y1="560" x2="370" y2="560"/><line class="prism-axis-tick" x1="122.5" y1="560" x2="122.5" y2="565"/><text class="prism-axis-label" x="122.5" y="578" text-anchor="middle">a</text><line class="prism-axis-tick" x1="287.5" y1="560" x2="287.5" y2="565"/><text class="prism-axis-label" x="287.5" y="578" text-anchor="middle">b</text><text class="prism-axis-title" x="205" y="594" text-anchor="middle">x</text></g>
      <g class="prism-axis prism-axis-y" data-prism-axis-id="y-axis"><line class="prism-grid-line" x1="40" y1="560" x2="370" y2="560"/><line class="prism-grid-line" x1="40" y1="425" x2="370" y2="425"/><line class="prism-grid-line" x1="40" y1="290" x2="370" y2="290"/><line class="prism-grid-line" x1="40" y1="155" x2="370" y2="155"/><line class="prism-grid-line" x1="40" y1="20" x2="370" y2="20"/><line class="prism-axis-domain" x1="40" y1="20" x2="40" y2="560"/><line class="prism-axis-tick" x1="40" y1="560" x2="35" y2="560"/><text class="prism-axis-label" x="32" y="564" text-anchor="end">0</text><line class="prism-axis-tick" x1="40" y1="492.5" x2="37" y2="492.5"/><line class="prism-axis-tick" x1="40" y1="425" x2="35" y2="425"/><line class="prism-axis-tick" x1="40" y1="357.5" x2="37" y2="357.5"/><line class="prism-axis-tick" x1="40" y1="290" x2="35" y2="290"/><text class="prism-axis-label" x="32" y="294" text-anchor="end">1</text><line class="prism-axis-tick" x1="40" y1="222.5" x2="37" y2="222.5"/><line class="prism-axis-tick" x1="40" y1="155" x2="35" y2="155"/><line class="prism-axis-tick" x1="40" y1="87.5" x2="37" y2="87.5"/><line class="prism-axis-tick" x1="40" y1="20" x2="35" y2="20"/><text class="prism-axis-label" x="32" y="24" text-anchor="end">2</text><text class="prism-axis-title" x="10" y="290" text-anchor="middle" transform="rotate(-90 10 290)">y</text></g>
    </g>
    <g class="prism-plot">
      <g class="prism-layer" data-layer-id="layer-0" data-prism-layer="layer-0">
        <rect class="prism-mark-bar" data-prism-id="bar-0" data-prism-datum-row="0" x="48.25" y="290" width="148.5" height="270" fill="#3b82f6"/>
        <rect class="prism-mark-bar" data-prism-id="bar-1" data-prism-datum-row="1" x="213.25" y="20" width="148.5" height="540" fill="#3b82f6"/>
      </g>
    </g>
  </g>

  <g class="prism-scene" data-scene-id="scene-1">
    <g class="prism-axes">
      <g class="prism-axis prism-axis-x" data-prism-axis-id="x-axis"><line class="prism-grid-line" x1="532.5" y1="20" x2="532.5" y2="560"/><line class="prism-grid-line" x1="697.5" y1="20" x2="697.5" y2="560"/><line class="prism-axis-domain" x1="450" y1="560" x2="780" y2="560"/><line class="prism-axis-tick" x1="532.5" y1="560" x2="532.5" y2="565"/><text class="prism-axis-label" x="532.5" y="578" text-anchor="middle">a</text><line class="prism-axis-tick" x1="697.5" y1="560" x2="697.5" y2="565"/><text class="prism-axis-label" x="697.5" y="578" text-anchor="middle">b</text><text class="prism-axis-title" x="615" y="594" text-anchor="middle">x</text></g>
      <g class="prism-axis prism-axis-y" data-prism-axis-id="y-axis"><line class="prism-grid-line" x1="450" y1="560" x2="780" y2="560"/><line class="prism-grid-line" x1="450" y1="425" x2="780" y2="425"/><line class="prism-grid-line" x1="450" y1="290" x2="780" y2="290"/><line class="prism-grid-line" x1="450" y1="155" x2="780" y2="155"/><line class="prism-grid-line" x1="450" y1="20" x2="780" y2="20"/><line class="prism-axis-domain" x1="450" y1="20" x2="450" y2="560"/><line class="prism-axis-tick" x1="450" y1="560" x2="445" y2="560"/><text class="prism-axis-label" x="442" y="564" text-anchor="end">0</text><line class="prism-axis-tick" x1="450" y1="492.5" x2="447" y2="492.5"/><line class="prism-axis-tick" x1="450" y1="425" x2="445" y2="425"/><line class="prism-axis-tick" x1="450" y1="357.5" x2="447" y2="357.5"/><line class="prism-axis-tick" x1="450" y1="290" x2="445" y2="290"/><text class="prism-axis-label" x="442" y="294" text-anchor="end">2</text><line class="prism-axis-tick" x1="450" y1="222.5" x2="447" y2="222.5"/><line class="prism-axis-tick" x1="450" y1="155" x2="445" y2="155"/><line class="prism-axis-tick" x1="450" y1="87.5" x2="447" y2="87.5"/><line class="prism-axis-tick" x1="450" y1="20" x2="445" y2="20"/><text class="prism-axis-label" x="442" y="24" text-anchor="end">4</text><text class="prism-axis-title" x="420" y="290" text-anchor="middle" transform="rotate(-90 420 290)">y</text></g>
    </g>
    <g class="prism-plot">
      <g class="prism-layer" data-layer-id="layer-0" data-prism-layer="layer-0">
        <rect class="prism-mark-bar" data-prism-id="bar-0" data-prism-datum-row="0" x="458.25" y="155" width="148.5" height="405" fill="#3b82f6"/>
        <rect class="prism-mark-bar" data-prism-id="bar-1" data-prism-datum-row="1" x="623.25" y="20" width="148.5" height="540" fill="#3b82f6"/>
      </g>
    </g>
  </g>
</svg>
