<svg xmlns="http://www.w3.org/2000/svg" viewBox="0 0 800 600" overflow="hidden">
  <style>:root{--prism-color-axis:#6b7280;--prism-color-grid:#e5e7eb;--prism-color-text:#111827;--prism-color-bg:transparent;--prism-font-sans:Inter, system-ui, sans-serif;--prism-font-mono:ui-monospace, SF Mono, monospace;--prism-font-size-label:11px;--prism-font-size-title:16px;--prism-font-size-axis-title:12px;--prism-axis-domain-color:#6b7280;--prism-axis-domain-width:1px;--prism-axis-tick-color:#6b7280;--prism-axis-tick-width:1px;--prism-axis-tick-size:5px;--prism-grid-color:#e5e7eb;--prism-grid-width:1px;--prism-axis-label-color:#111827;--prism-axis-label-font-size:11px;--prism-axis-label-padding:4px;--prism-axis-title-color:#111827;--prism-axis-title-font-size:12px;--prism-axis-title-padding:8px;--prism-legend-padding:8px;--prism-legend-symbol-size:64px;--prism-legend-label-color:#111827;--prism-legend-label-font-size:11px;--prism-legend-title-color:#111827;--prism-legend-title-font-size:12px;--prism-legend-title-font-weight:600;--prism-legend-row-padding:4px;--prism-title-color:#111827;--prism-title-font-size:16px;--prism-title-font-weight:600;--prism-title-anchor:start;--prism-title-padding:12px;--prism-view-bg:transparent;--prism-view-padding:0px;--prism-mark-fill:#4c78a8;--prism-mark-stroke-width:0px;--prism-mark-opacity:1;--prism-mark-arc-stroke:#ffffff;--prism-mark-arc-stroke-width:1px;--prism-mark-area-fill:#4c78a8;--prism-mark-area-opacity:0.7;--prism-mark-bar-fill:#4c78a8;--prism-mark-bar-corner-radius:0px;--prism-mark-geopoint-fill:#4c78a8;--prism-mark-geopoint-stroke-width:0px;--prism-mark-geopoint-size:36;--prism-mark-geoshape-fill:#cbd5e1;--prism-mark-geoshape-stroke:#ffffff;--prism-mark-geoshape-stroke-width:0.5px;--prism-mark-line-fill:transparent;--prism-mark-line-stroke:#4c78a8;--prism-mark-line-stroke-width:1.5px;--prism-mark-point-fill:#4c78a8;--prism-mark-point-stroke-width:0px;--prism-mark-point-size:64;--prism-mark-rule-stroke:#4c78a8;--prism-mark-rule-stroke-width:1px;--prism-mark-text-fill:#111827;--prism-mark-text-font-size:11px;--prism-mark-tick-stroke:#4c78a8;--prism-mark-tick-stroke-width:1px;--prism-deselected-opacity:0.3;--prism-selected-opacity:1;}.prism-axis-domain{stroke:var(--prism-axis-domain-color,var(--prism-color-axis));stroke-width:var(--prism-axis-domain-width,1px);fill:none;}.prism-axis-tick{stroke:var(--prism-axis-tick-color,var(--prism-color-axis));stroke-width:var(--prism-axis-tick-width,1px);}.prism-axis-label{fill:var(--prism-axis-label-color,var(--prism-color-text));font-family:var(--prism-font-sans);font-size:var(--prism-axis-label-font-size,var(--prism-font-size-label,11px));font-weight:var(--prism-axis-label-font-weight,400);}.prism-axis-title{fill:var(--prism-axis-title-color,var(--prism-color-text));font-family:var(--prism-font-sans);font-size:var(--prism-axis-title-font-size,var(--prism-font-size-axis-title,12px));font-weight:var(--prism-axis-title-font-weight,600);}.prism-grid-line{stroke:var(--prism-grid-color,var(--prism-color-grid));stroke-width:var(--prism-grid-width,1px);}.prism-title{fill:var(--prism-title-color,var(--prism-color-text));font-family:var(--prism-font-sans);font-size:var(--prism-title-font-size,var(--prism-font-size-title,16px));font-weight:var(--prism-title-font-weight,600);}.prism-legend-title{fill:var(--prism-legend-title-color,var(--prism-color-text));font-family:var(--prism-font-sans);font-size:var(--prism-legend-title-font-size,12px);font-weight:var(--prism-legend-title-font-weight,600);}.prism-legend-label{fill:var(--prism-legend-label-color,var(--prism-color-text));font-family:var(--prism-font-sans);font-size:var(--prism-legend-label-font-size,11px);}.prism-legend-swatch{stroke:none;}.prism-selected{opacity:var(--prism-selected-opacity,1);}.prism-deselected{opacity:var(--prism-deselected-opacity,0.3);}</style>

  <g class="prism-scene" data-scene-id="scene-0">
    <g class="prism-axes">
      <g class="prism-axis prism-axis-x" data-prism-axis-id="x-axis"><line class="prism-grid-line" x1="40" y1="20" x2="40" y2="250"/><line class="prism-grid-line" x1="225" y1="20" x2="225" y2="250"/><line class="prism-grid-line" x1="410" y1="20" x2="410" y2="250"/><line class="prism-grid-line" x1="595" y1="20" x2="595" y2="250"/><line class="prism-grid-line" x1="780" y1="20" x2="780" y2="250"/><line class="prism-axis-domain" x1="40" y1="250" x2="780" y2="250"/><line class="prism-axis-tick" x1="40" y1="250" x2="40" y2="255"/><text class="prism-axis-label" x="40" y="268" text-anchor="middle">0</text><line class="prism-axis-tick" x1="132.5" y1="250" x2="132.5" y2="253"/><line class="prism-axis-tick" x1="225" y1="250" x2="225" y2="255"/><text class="prism-axis-label" x="225" y="268" text-anchor="middle">0.5</text><line class="prism-axis-tick" x1="317.5" y1="250" x2="317.5" y2="253"/><line class="prism-axis-tick" x1="410" y1="250" x2="410" y2="255"/><text class="prism-axis-label" x="410" y="268" text-anchor="middle">1</text><line class="prism-axis-tick" x1="502.5" y1="250" x2="502.5" y2="253"/><line class="prism-axis-tick" x1="595" y1="250" x2="595" y2="255"/><text class="prism-axis-label" x="595" y="268" text-anchor="middle">1.5</text><line class="prism-axis-tick" x1="687.5" y1="250" x2="687.5" y2="253"/><line class="prism-axis-tick" x1="780" y1="250" x2="780" y2="255"/><text class="prism-axis-label" x="780" y="268" text-anchor="middle">2</text><text class="prism-axis-title" x="410" y="284" text-anchor="middle">x</text></g>
      <g class="prism-axis prism-axis-y" data-prism-axis-id="y-axis"><line class="prism-grid-line" x1="40" y1="250" x2="780" y2="250"/><line class="prism-grid-line" x1="40" y1="192.5" x2="780" y2="192.5"/><line class="prism-grid-line" x1="40" y1="135" x2="780" y2="135"/><line class="prism-grid-line" x1="40" y1="77.5" x2="780" y2="77.5"/><line class="prism-grid-line" x1="40" y1="20" x2="780" y2="20"/><line class="prism-axis-domain" x1="40" y1="20" x2="40" y2="250"/><line class="prism-axis-tick" x1="40" y1="250" x2="35" y2="250"/><text class="prism-axis-label" x="32" y="254" text-anchor="end">0</text><line class="prism-axis-tick" x1="40" y1="221.25" x2="37" y2="221.25"/><line class="prism-axis-tick" x1="40" y1="192.5" x2="35" y2="192.5"/><line class="prism-axis-tick" x1="40" y1="163.75" x2="37" y2="163.75"/><line class="prism-axis-tick" x1="40" y1="135" x2="35" y2="135"/><text class="prism-axis-label" x="32" y="139" text-anchor="end">10</text><line class="prism-axis-tick" x1="40" y1="106.25" x2="37" y2="106.25"/><line class="prism-axis-tick" x1="40" y1="77.5" x2="35" y2="77.5"/><line class="prism-axis-tick" x1="40" y1="48.75" x2="37" y2="48.75"/><line class="prism-axis-tick" x1="40" y1="20" x2="35" y2="20"/><text class="prism-axis-label" x="32" y="24" text-anchor="end">20</text><text class="prism-axis-title" x="10" y="135" text-anchor="middle" transform="rotate(-90 10 135)">y</text></g>
    </g>
    <g class="prism-plot">
      <g class="prism-layer" data-layer-id="layer-0" data-prism-layer="layer-0">
        <polyline class="prism-mark-line" data-prism-id="line-0" data-prism-datum-row="0" points="410,135 780,20" fill="none" stroke="#4c78a8" stroke-width="1.5"/>
      </g>
    </g>
  </g>

  <g class="prism-scene" data-scene-id="scene-1">
    <g class="prism-axes">
      <g class="prism-axis prism-axis-x" data-prism-axis-id="x-axis"><line class="prism-grid-line" x1="40" y1="330" x2="40" y2="560"/><line class="prism-grid-line" x1="225" y1="330" x2="225" y2="560"/><line class="prism-grid-line" x1="410" y1="330" x2="410" y2="560"/><line class="prism-grid-line" x1="595" y1="330" x2="595" y2="560"/><line class="prism-grid-line" x1="780" y1="330" x2="780" y2="560"/><line class="prism-axis-domain" x1="40" y1="560" x2="780" y2="560"/><line class="prism-axis-tick" x1="40" y1="560" x2="40" y2="565"/><text class="prism-axis-label" x="40" y="578" text-anchor="middle">0</text><line class="prism-axis-tick" x1="132.5" y1="560" x2="132.5" y2="563"/><line class="prism-axis-tick" x1="225" y1="560" x2="225" y2="565"/><text class="prism-axis-label" x="225" y="578" text-anchor="middle">0.5</text><line class="prism-axis-tick" x1="317.5" y1="560" x2="317.5" y2="563"/><line class="prism-axis-tick" x1="410" y1="560" x2="410" y2="565"/><text class="prism-axis-label" x="410" y="578" text-anchor="middle">1</text><line class="prism-axis-tick" x1="502.5" y1="560" x2="502.5" y2="563"/><line class="prism-axis-tick" x1="595" y1="560" x2="595" y2="565"/><text class="prism-axis-label" x="595" y="578" text-anchor="middle">1.5</text><line class="prism-axis-tick" x1="687.5" y1="560" x2="687.5" y2="563"/><line class="prism-axis-tick" x1="780" y1="560" x2="780" y2="565"/><text class="prism-axis-label" x="780" y="578" text-anchor="middle">2</text><text class="prism-axis-title" x="410" y="594" text-anchor="middle">x</text></g>
      <g class="prism-axis prism-axis-y" data-prism-axis-id="y-axis"><line class="prism-grid-line" x1="40" y1="560" x2="780" y2="560"/><line class="prism-grid-line" x1="40" y1="527.143" x2="780" y2="527.143"/><line class="prism-grid-line" x1="40" y1="494.286" x2="780" y2="494.286"/><line class="prism-grid-line" x1="40" y1="461.429" x2="780" y2="461.429"/><line class="prism-grid-line" x1="40" y1="428.571" x2="780" y2="428.571"/><line class="prism-grid-line" x1="40" y1="395.714" x2="780" y2="395.714"/><line class="prism-grid-line" x1="40" y1="362.857" x2="780" y2="362.857"/><line class="prism-grid-line" x1="40" y1="330" x2="780" y2="330"/><line class="prism-axis-domain" x1="40" y1="330" x2="40" y2="560"/><line class="prism-axis-tick" x1="40" y1="560" x2="35" y2="560"/><text class="prism-axis-label" x="32" y="564" text-anchor="end">0</text><line class="prism-axis-tick" x1="40" y1="543.571" x2="37" y2="543.571"/><line class="prism-axis-tick" x1="40" y1="527.143" x2="35" y2="527.143"/><line class="prism-axis-tick" x1="40" y1="510.714" x2="37" y2="510.714"/><line class="prism-axis-tick" x1="40" y1="494.286" x2="35" y2="494.286"/><text class="prism-axis-label" x="32" y="498.286" text-anchor="end">2</text><line class="prism-axis-tick" x1="40" y1="477.857" x2="37" y2="477.857"/><line class="prism-axis-tick" x1="40" y1="461.429" x2="35" y2="461.429"/><line class="prism-axis-tick" x1="40" y1="445" x2="37" y2="445"/><line class="prism-axis-tick" x1="40" y1="428.571" x2="35" y2="428.571"/><text class="prism-axis-label" x="32" y="432.571" text-anchor="end">4</text><line class="prism-axis-tick" x1="40" y1="412.143" x2="37" y2="412.143"/><line class="prism-axis-tick" x1="40" y1="395.714" x2="35" y2="395.714"/><line class="prism-axis-tick" x1="40" y1="379.286" x2="37" y2="379.286"/><line class="prism-axis-tick" x1="40" y1="362.857" x2="35" y2="362.857"/><text class="prism-axis-label" x="32" y="366.857" text-anchor="end">6</text><line class="prism-axis-tick" x1="40" y1="346.429" x2="37" y2="346.429"/><line class="prism-axis-tick" x1="40" y1="330" x2="35" y2="330"/><text class="prism-axis-title" x="10" y="445" text-anchor="middle" transform="rotate(-90 10 445)">y</text></g>
    </g>
    <g class="prism-plot">
      <g class="prism-layer" data-layer-id="layer-0" data-prism-layer="layer-0">
        <polyline class="prism-mark-line" data-prism-id="line-0" data-prism-datum-row="0" points="410,395.714 780,330" fill="none" stroke="#4c78a8" stroke-width="1.5"/>
      </g>
    </g>
  </g>
</svg>
