<svg xmlns="http://www.w3.org/2000/svg" viewBox="0 0 800 600" overflow="hidden">
  <style>:root{--prism-color-axis:#6b7280;--prism-color-grid:#e5e7eb;--prism-color-text:#111827;--prism-color-bg:transparent;--prism-font-sans:Inter, system-ui, sans-serif;--prism-font-mono:ui-monospace, SF Mono, monospace;--prism-font-size-label:11px;--prism-font-size-title:16px;--prism-font-size-axis-title:12px;--prism-axis-domain-color:#6b7280;--prism-axis-domain-width:1px;--prism-axis-tick-color:#6b7280;--prism-axis-tick-width:1px;--prism-axis-tick-size:5px;--prism-grid-color:#e5e7eb;--prism-grid-width:1px;--prism-axis-label-color:#111827;--prism-axis-label-font-size:11px;--prism-axis-label-padding:4px;--prism-axis-title-color:#111827;--prism-axis-title-font-size:12px;--prism-axis-title-padding:8px;--prism-legend-padding:8px;--prism-legend-symbol-size:64px;--prism-legend-label-color:#111827;--prism-legend-label-font-size:11px;--prism-legend-title-color:#111827;--prism-legend-title-font-size:12px;--prism-legend-title-font-weight:600;--prism-legend-row-padding:4px;--prism-title-color:#111827;--prism-title-font-size:16px;--prism-title-font-weight:600;--prism-title-anchor:start;--prism-title-padding:12px;--prism-view-bg:transparent;--prism-view-padding:0px;--prism-mark-fill:#4c78a8;--prism-mark-stroke-width:0px;--prism-mark-opacity:1;--prism-mark-arc-stroke:#ffffff;--prism-mark-arc-stroke-width:1px;--prism-mark-area-fill:#4c78a8;--prism-mark-area-opacity:0.7;--prism-mark-bar-fill:#4c78a8;--prism-mark-bar-corner-radius:0px;--prism-mark-geopoint-fill:#4c78a8;--prism-mark-geopoint-stroke-width:0px;--prism-mark-geopoint-size:36;--prism-mark-geoshape-fill:#cbd5e1;--prism-mark-geoshape-stroke:#ffffff;--prism-mark-geoshape-stroke-width:0.5px;--prism-mark-line-fill:transparent;--prism-mark-line-stroke:#4c78a8;--prism-mark-line-stroke-width:1.5px;--prism-mark-point-fill:#4c78a8;--prism-mark-point-stroke-width:0px;--prism-mark-point-size:64;--prism-mark-rule-stroke:#4c78a8;--prism-mark-rule-stroke-width:1px;--prism-mark-text-fill:#111827;--prism-mark-text-font-size:11px;--prism-mark-tick-stroke:#4c78a8;--prism-mark-tick-stroke-width:1px;--prism-deselected-opacity:0.3;--prism-selected-opacity:1;}.prism-axis-domain{stroke:var(--prism-axis-domain-color,var(--prism-color-axis));stroke-width:var(--prism-axis-domain-width,1px);fill:none;}.prism-axis-tick{stroke:var(--prism-axis-tick-color,var(--prism-color-axis));stroke-width:var(--prism-axis-tick-width,1px);}.prism-axis-label{fill:var(--prism-axis-label-color,var(--prism-color-text));font-family:var(--prism-font-sans);font-size:var(--prism-axis-label-font-size,var(--prism-font-size-label,11px));font-weight:var(--prism-axis-label-font-weight,400);}.prism-axis-title{fill:var(--prism-axis-title-color,var(--prism-color-text));font-family:var(--prism-font-sans);font-size:var(--prism-axis-title-font-size,var(--prism-font-size-axis-title,12px));font-weight:var(--prism-axis-title-font-weight,600);}.prism-grid-line{stroke:var(--prism-grid-color,var(--prism-color-grid));stroke-width:var(--prism-grid-width,1px);}.prism-title{fill:var(--prism-title-color,var(--prism-color-text));font-family:var(--prism-font-sans);font-size:var(--prism-title-font-size,var(--prism-font-size-title,16px));font-weight:var(--prism-title-font-weight,600);}.prism-legend-title{fill:var(--prism-legend-title-color,var(--prism-color-text));font-family:var(--prism-font-sans);font-size:var(--prism-legend-title-font-size,12px);font-weight:var(--prism-legend-title-font-weight,600);}.prism-legend-label{fill:var(--prism-legend-label-color,var(--prism-color-text));font-family:var(--prism-font-sans);font-size:var(--prism-legend-label-font-size,11px);}.prism-legend-swatch{stroke:none;}.prism-selected{opacity:var(--prism-selected-opacity,1);}.prism-deselected{opacity:var(--prism-deselected-opacity,0.3);}</style>

  <g class="prism-scene" data-scene-id="scene-0">
    <text class="prism-title" x="410" y="20" text-anchor="middle">Bar — quarterly revenue</text>
    <g class="prism-axes">
      <g class="prism-axis prism-axis-x" data-prism-axis-id="x-axis"><line class="prism-grid-line" x1="132.5" y1="50" x2="132.5" y2="95"/><line class="prism-grid-line" x1="317.5" y1="50" x2="317.5" y2="95"/><line class="prism-grid-line" x1="502.5" y1="50" x2="502.5" y2="95"/><line class="prism-grid-line" x1="687.5" y1="50" x2="687.5" y2="95"/><line class="prism-axis-domain" x1="40" y1="95" x2="780" y2="95"/><line class="prism-axis-tick" x1="132.5" y1="95" x2="132.5" y2="100"/><text class="prism-axis-label" x="132.5" y="113" text-anchor="middle">Q1</text><line class="prism-axis-tick" x1="317.5" y1="95" x2="317.5" y2="100"/><text class="prism-axis-label" x="317.5" y="113" text-anchor="middle">Q2</text><line class="prism-axis-tick" x1="502.5" y1="95" x2="502.5" y2="100"/><text class="prism-axis-label" x="502.5" y="113" text-anchor="middle">Q3</text><line class="prism-axis-tick" x1="687.5" y1="95" x2="687.5" y2="100"/><text class="prism-axis-label" x="687.5" y="113" text-anchor="middle">Q4</text><text class="prism-axis-title" x="410" y="129" text-anchor="middle">q</text></g>
      <g class="prism-axis prism-axis-y" data-prism-axis-id="y-axis"><line class="prism-grid-line" x1="40" y1="95" x2="780" y2="95"/><line class="prism-grid-line" x1="40" y1="81.607" x2="780" y2="81.607"/><line class="prism-grid-line" x1="40" y1="68.214" x2="780" y2="68.214"/><line class="prism-grid-line" x1="40" y1="54.821" x2="780" y2="54.821"/><line class="prism-axis-domain" x1="40" y1="50" x2="40" y2="95"/><line class="prism-axis-tick" x1="40" y1="95" x2="35" y2="95"/><text class="prism-axis-label" x="32" y="99" text-anchor="end">0</text><line class="prism-axis-tick" x1="40" y1="88.304" x2="37" y2="88.304"/><line class="prism-axis-tick" x1="40" y1="81.607" x2="35" y2="81.607"/><line class="prism-axis-tick" x1="40" y1="74.911" x2="37" y2="74.911"/><line class="prism-axis-tick" x1="40" y1="68.214" x2="35" y2="68.214"/><text class="prism-axis-label" x="32" y="72.214" text-anchor="end">100</text><line class="prism-axis-tick" x1="40" y1="61.518" x2="37" y2="61.518"/><line class="prism-axis-tick" x1="40" y1="54.821" x2="35" y2="54.821"/><text class="prism-axis-title" x="10" y="72.5" text-anchor="middle" transform="rotate(-90 10 72.5)">rev</text></g>
    </g>
    <g class="prism-plot">
      <g class="prism-layer" data-layer-id="layer-0" data-prism-layer="layer-0">
        <rect class="prism-mark-bar" data-prism-id="bar-0" data-prism-datum-row="0" x="49.25" y="62.857" width="166.5" height="32.143" fill="#4c78a8"/>
        <rect class="prism-mark-bar" data-prism-id="bar-1" data-prism-datum-row="1" x="234.25" y="56.161" width="166.5" height="38.839" fill="#4c78a8"/>
        <rect class="prism-mark-bar" data-prism-id="bar-2" data-prism-datum-row="2" x="419.25" y="59.643" width="166.5" height="35.357" fill="#4c78a8"/>
        <rect class="prism-mark-bar" data-prism-id="bar-3" data-prism-datum-row="3" x="604.25" y="50" width="166.5" height="45" fill="#4c78a8"/>
      </g>
    </g>
  </g>

  <g class="prism-scene" data-scene-id="scene-1">
    <text class="prism-title" x="410" y="175" text-anchor="middle">Line — weekly active users</text>
    <g class="prism-axes">
      <g class="prism-axis prism-axis-x" data-prism-axis-id="x-axis"><line class="prism-grid-line" x1="40" y1="205" x2="40" y2="250"/><line class="prism-grid-line" x1="188" y1="205" x2="188" y2="250"/><line class="prism-grid-line" x1="336" y1="205" x2="336" y2="250"/><line class="prism-grid-line" x1="484" y1="205" x2="484" y2="250"/><line class="prism-grid-line" x1="632" y1="205" x2="632" y2="250"/><line class="prism-grid-line" x1="780" y1="205" x2="780" y2="250"/><line class="prism-axis-domain" x1="40" y1="250" x2="780" y2="250"/><line class="prism-axis-tick" x1="40" y1="250" x2="40" y2="255"/><text class="prism-axis-label" x="40" y="268" text-anchor="middle">0</text><line class="prism-axis-tick" x1="114" y1="250" x2="114" y2="253"/><line class="prism-axis-tick" x1="188" y1="250" x2="188" y2="255"/><text class="prism-axis-label" x="188" y="268" text-anchor="middle">1</text><line class="prism-axis-tick" x1="262" y1="250" x2="262" y2="253"/><line class="prism-axis-tick" x1="336" y1="250" x2="336" y2="255"/><text class="prism-axis-label" x="336" y="268" text-anchor="middle">2</text><line class="prism-axis-tick" x1="410" y1="250" x2="410" y2="253"/><line class="prism-axis-tick" x1="484" y1="250" x2="484" y2="255"/><text class="prism-axis-label" x="484" y="268" text-anchor="middle">3</text><line class="prism-axis-tick" x1="558" y1="250" x2="558" y2="253"/><line class="prism-axis-tick" x1="632" y1="250" x2="632" y2="255"/><text class="prism-axis-label" x="632" y="268" text-anchor="middle">4</text><line class="prism-axis-tick" x1="706" y1="250" x2="706" y2="253"/><line class="prism-axis-tick" x1="780" y1="250" x2="780" y2="255"/><text class="prism-axis-label" x="780" y="268" text-anchor="middle">5</text><text class="prism-axis-title" x="410" y="284" text-anchor="middle">week</text></g>
      <g class="prism-axis prism-axis-y" data-prism-axis-id="y-axis"><line class="prism-grid-line" x1="40" y1="250" x2="780" y2="250"/><line class="prism-grid-line" x1="40" y1="240.217" x2="780" y2="240.217"/><line class="prism-grid-line" x1="40" y1="230.435" x2="780" y2="230.435"/><line class="prism-grid-line" x1="40" y1="220.652" x2="780" y2="220.652"/><line class="prism-grid-line" x1="40" y1="210.87" x2="780" y2="210.87"/><line class="prism-axis-domain" x1="40" y1="205" x2="40" y2="250"/><line class="prism-axis-tick" x1="40" y1="250" x2="35" y2="250"/><text class="prism-axis-label" x="32" y="254" text-anchor="end">0</text><line class="prism-axis-tick" x1="40" y1="245.109" x2="37" y2="245.109"/><line class="prism-axis-tick" x1="40" y1="240.217" x2="35" y2="240.217"/><line class="prism-axis-tick" x1="40" y1="235.326" x2="37" y2="235.326"/><line class="prism-axis-tick" x1="40" y1="230.435" x2="35" y2="230.435"/><text class="prism-axis-label" x="32" y="234.435" text-anchor="end">200</text><line class="prism-axis-tick" x1="40" y1="225.543" x2="37" y2="225.543"/><line class="prism-axis-tick" x1="40" y1="220.652" x2="35" y2="220.652"/><line class="prism-axis-tick" x1="40" y1="215.761" x2="37" y2="215.761"/><line class="prism-axis-tick" x1="40" y1="210.87" x2="35" y2="210.87"/><text class="prism-axis-label" x="32" y="214.87" text-anchor="end">400</text><text class="prism-axis-title" x="10" y="227.5" text-anchor="middle" transform="rotate(-90 10 227.5)">wau</text></g>
    </g>
    <g class="prism-plot">
      <g class="prism-layer" data-layer-id="layer-0" data-prism-layer="layer-0">
        <polyline class="prism-mark-line" data-prism-id="line-0" data-prism-datum-row="0" points="188,218.696 336,212.826 484,209.891 632,210.38 780,205" fill="none" stroke="#4c78a8" stroke-width="1.5"/>
      </g>
    </g>
  </g>

  <g class="prism-scene" data-scene-id="scene-2">
    <text class="prism-title" x="410" y="330" text-anchor="middle">Area — cumulative installs</text>
    <g class="prism-axes">
      <g class="prism-axis prism-axis-x" data-prism-axis-id="x-axis"><line class="prism-grid-line" x1="40" y1="360" x2="40" y2="405"/><line class="prism-grid-line" x1="188" y1="360" x2="188" y2="405"/><line class="prism-grid-line" x1="336" y1="360" x2="336" y2="405"/><line class="prism-grid-line" x1="484" y1="360" x2="484" y2="405"/><line class="prism-grid-line" x1="632" y1="360" x2="632" y2="405"/><line class="prism-grid-line" x1="780" y1="360" x2="780" y2="405"/><line class="prism-axis-domain" x1="40" y1="405" x2="780" y2="405"/><line class="prism-axis-tick" x1="40" y1="405" x2="40" y2="410"/><text class="prism-axis-label" x="40" y="423" text-anchor="middle">0</text><line class="prism-axis-tick" x1="114" y1="405" x2="114" y2="408"/><line class="prism-axis-tick" x1="188" y1="405" x2="188" y2="410"/><text class="prism-axis-label" x="188" y="423" text-anchor="middle">1</text><line class="prism-axis-tick" x1="262" y1="405" x2="262" y2="408"/><line class="prism-axis-tick" x1="336" y1="405" x2="336" y2="410"/><text class="prism-axis-label" x="336" y="423" text-anchor="middle">2</text><line class="prism-axis-tick" x1="410" y1="405" x2="410" y2="408"/><line class="prism-axis-tick" x1="484" y1="405" x2="484" y2="410"/><text class="prism-axis-label" x="484" y="423" text-anchor="middle">3</text><line class="prism-axis-tick" x1="558" y1="405" x2="558" y2="408"/><line class="prism-axis-tick" x1="632" y1="405" x2="632" y2="410"/><text class="prism-axis-label" x="632" y="423" text-anchor="middle">4</text><line class="prism-axis-tick" x1="706" y1="405" x2="706" y2="408"/><line class="prism-axis-tick" x1="780" y1="405" x2="780" y2="410"/><text class="prism-axis-label" x="780" y="423" text-anchor="middle">5</text><text class="prism-axis-title" x="410" y="439" text-anchor="middle">day</text></g>
      <g class="prism-axis prism-axis-y" data-prism-axis-id="y-axis"><line class="prism-grid-line" x1="40" y1="405" x2="780" y2="405"/><line class="prism-grid-line" x1="40" y1="396.346" x2="780" y2="396.346"/><line class="prism-grid-line" x1="40" y1="387.692" x2="780" y2="387.692"/><line class="prism-grid-line" x1="40" y1="379.038" x2="780" y2="379.038"/><line class="prism-grid-line" x1="40" y1="370.385" x2="780" y2="370.385"/><line class="prism-grid-line" x1="40" y1="361.731" x2="780" y2="361.731"/><line class="prism-axis-domain" x1="40" y1="360" x2="40" y2="405"/><line class="prism-axis-tick" x1="40" y1="405" x2="35" y2="405"/><text class="prism-axis-label" x="32" y="409" text-anchor="end">0</text><line class="prism-axis-tick" x1="40" y1="400.673" x2="37" y2="400.673"/><line class="prism-axis-tick" x1="40" y1="396.346" x2="35" y2="396.346"/><line class="prism-axis-tick" x1="40" y1="392.019" x2="37" y2="392.019"/><line class="prism-axis-tick" x1="40" y1="387.692" x2="35" y2="387.692"/><text class="prism-axis-label" x="32" y="391.692" text-anchor="end">100</text><line class="prism-axis-tick" x1="40" y1="383.365" x2="37" y2="383.365"/><line class="prism-axis-tick" x1="40" y1="379.038" x2="35" y2="379.038"/><line class="prism-axis-tick" x1="40" y1="374.712" x2="37" y2="374.712"/><line class="prism-axis-tick" x1="40" y1="370.385" x2="35" y2="370.385"/><text class="prism-axis-label" x="32" y="374.385" text-anchor="end">200</text><line class="prism-axis-tick" x1="40" y1="366.058" x2="37" y2="366.058"/><line class="prism-axis-tick" x1="40" y1="361.731" x2="35" y2="361.731"/><text class="prism-axis-title" x="10" y="382.5" text-anchor="middle" transform="rotate(-90 10 382.5)">n</text></g>
    </g>
    <g class="prism-plot">
      <g class="prism-layer" data-layer-id="layer-0" data-prism-layer="layer-0">
        <path class="prism-mark-area" data-prism-id="area-0" data-prism-datum-row="0" d="M188,396.346 L336,389.423 L484,380.769 L632,372.115 L780,360 L780,405 L632,405 L484,405 L336,405 L188,405 Z" fill="#4c78a8" opacity="0.7"/>
      </g>
    </g>
  </g>

  <g class="prism-scene" data-scene-id="scene-3">
    <text class="prism-title" x="410" y="485" text-anchor="middle">Point — latency vs throughput</text>
    <g class="prism-axes">
      <g class="prism-axis prism-axis-x" data-prism-axis-id="x-axis"><line class="prism-grid-line" x1="40" y1="515" x2="40" y2="560"/><line class="prism-grid-line" x1="188" y1="515" x2="188" y2="560"/><line class="prism-grid-line" x1="336" y1="515" x2="336" y2="560"/><line class="prism-grid-line" x1="484" y1="515" x2="484" y2="560"/><line class="prism-grid-line" x1="632" y1="515" x2="632" y2="560"/><line class="prism-grid-line" x1="780" y1="515" x2="780" y2="560"/><line class="prism-axis-domain" x1="40" y1="560" x2="780" y2="560"/><line class="prism-axis-tick" x1="40" y1="560" x2="40" y2="565"/><text class="prism-axis-label" x="40" y="578" text-anchor="middle">0</text><line class="prism-axis-tick" x1="114" y1="560" x2="114" y2="563"/><line class="prism-axis-tick" x1="188" y1="560" x2="188" y2="565"/><text class="prism-axis-label" x="188" y="578" text-anchor="middle">100</text><line class="prism-axis-tick" x1="262" y1="560" x2="262" y2="563"/><line class="prism-axis-tick" x1="336" y1="560" x2="336" y2="565"/><text class="prism-axis-label" x="336" y="578" text-anchor="middle">200</text><line class="prism-axis-tick" x1="410" y1="560" x2="410" y2="563"/><line class="prism-axis-tick" x1="484" y1="560" x2="484" y2="565"/><text class="prism-axis-label" x="484" y="578" text-anchor="middle">300</text><line class="prism-axis-tick" x1="558" y1="560" x2="558" y2="563"/><line class="prism-axis-tick" x1="632" y1="560" x2="632" y2="565"/><text class="prism-axis-label" x="632" y="578" text-anchor="middle">400</text><line class="prism-axis-tick" x1="706" y1="560" x2="706" y2="563"/><line class="prism-axis-tick" x1="780" y1="560" x2="780" y2="565"/><text class="prism-axis-label" x="780" y="578" text-anchor="middle">500</text><text class="prism-axis-title" x="410" y="594" text-anchor="middle">thr</text></g>
      <g class="prism-axis prism-axis-y" data-prism-axis-id="y-axis"><line class="prism-grid-line" x1="40" y1="560" x2="780" y2="560"/><line class="prism-grid-line" x1="40" y1="553.077" x2="780" y2="553.077"/><line class="prism-grid-line" x1="40" y1="546.154" x2="780" y2="546.154"/><line class="prism-grid-line" x1="40" y1="539.231" x2="780" y2="539.231"/><line class="prism-grid-line" x1="40" y1="532.308" x2="780" y2="532.308"/><line class="prism-grid-line" x1="40" y1="525.385" x2="780" y2="525.385"/><line class="prism-grid-line" x1="40" y1="518.462" x2="780" y2="518.462"/><line class="prism-axis-domain" x1="40" y1="515" x2="40" y2="560"/><line class="prism-axis-tick" x1="40" y1="560" x2="35" y2="560"/><text class="prism-axis-label" x="32" y="564" text-anchor="end">0</text><line class="prism-axis-tick" x1="40" y1="556.538" x2="37" y2="556.538"/><line class="prism-axis-tick" x1="40" y1="553.077" x2="35" y2="553.077"/><line class="prism-axis-tick" x1="40" y1="549.615" x2="37" y2="549.615"/><line class="prism-axis-tick" x1="40" y1="546.154" x2="35" y2="546.154"/><text class="prism-axis-label" x="32" y="550.154" text-anchor="end">20</text><line class="prism-axis-tick" x1="40" y1="542.692" x2="37" y2="542.692"/><line class="prism-axis-tick" x1="40" y1="539.231" x2="35" y2="539.231"/><line class="prism-axis-tick" x1="40" y1="535.769" x2="37" y2="535.769"/><line class="prism-axis-tick" x1="40" y1="532.308" x2="35" y2="532.308"/><text class="prism-axis-label" x="32" y="536.308" text-anchor="end">40</text><line class="prism-axis-tick" x1="40" y1="528.846" x2="37" y2="528.846"/><line class="prism-axis-tick" x1="40" y1="525.385" x2="35" y2="525.385"/><line class="prism-axis-tick" x1="40" y1="521.923" x2="37" y2="521.923"/><line class="prism-axis-tick" x1="40" y1="518.462" x2="35" y2="518.462"/><text class="prism-axis-label" x="32" y="522.462" text-anchor="end">60</text><text class="prism-axis-title" x="10" y="537.5" text-anchor="middle" transform="rotate(-90 10 537.5)">lat</text></g>
    </g>
    <g class="prism-plot">
      <g class="prism-layer" data-layer-id="layer-0" data-prism-layer="layer-0">
        <circle class="prism-mark-point" data-prism-id="point-0" data-prism-datum-row="0" cx="188" cy="551.692" r="4" fill="#4c78a8"/>
        <circle class="prism-mark-point" data-prism-id="point-1" data-prism-datum-row="1" cx="336" cy="547.538" r="4" fill="#4c78a8"/>
        <circle class="prism-mark-point" data-prism-id="point-2" data-prism-datum-row="2" cx="484" cy="540.615" r="4" fill="#4c78a8"/>
        <circle class="prism-mark-point" data-prism-id="point-3" data-prism-datum-row="3" cx="632" cy="530.923" r="4" fill="#4c78a8"/>
        <circle class="prism-mark-point" data-prism-id="point-4" data-prism-datum-row="4" cx="780" cy="515" r="4" fill="#4c78a8"/>
      </g>
    </g>
  </g>
</svg>
