<svg xmlns="http://www.w3.org/2000/svg" viewBox="0 0 800 600">
  <style>:root{--prism-color-axis:#6b7280;--prism-color-grid:#e5e7eb;--prism-color-text:#111827;--prism-color-bg:transparent;--prism-font-sans:Inter, system-ui, sans-serif;--prism-font-mono:ui-monospace, SF Mono, monospace;--prism-font-size-label:11px;--prism-font-size-title:16px;--prism-font-size-axis-title:12px;}.prism-axis-domain{stroke:var(--prism-color-axis);fill:none;}.prism-axis-tick{stroke:var(--prism-color-axis);}.prism-axis-label{fill:var(--prism-color-text);font-family:var(--prism-font-sans);font-size:var(--prism-font-size-label,11px);}.prism-axis-title{fill:var(--prism-color-text);font-family:var(--prism-font-sans);font-size:var(--prism-font-size-axis-title,12px);font-weight:600;}.prism-grid-line{stroke:var(--prism-color-grid);}.prism-title{fill:var(--prism-color-text);font-family:var(--prism-font-sans);font-size:var(--prism-font-size-title,16px);font-weight:600;}.prism-legend-title{fill:var(--prism-color-text);font-family:var(--prism-font-sans);font-size:12px;font-weight:600;}.prism-legend-label{fill:var(--prism-color-text);font-family:var(--prism-font-sans);font-size:11px;}.prism-legend-swatch{stroke:none;}.prism-selected{opacity:var(--prism-selected-opacity,1);}.prism-deselected{opacity:var(--prism-deselected-opacity,0.3);}</style>

  <g class="prism-scene" data-scene-id="scene-0">
    <text class="prism-title" x="205" y="20" text-anchor="middle">Quarter sales</text>
    <g class="prism-axes">
      <g class="prism-axis prism-axis-x" data-prism-axis-id="x-axis"><line class="prism-grid-line" x1="81.25" y1="50" x2="81.25" y2="560"/><line class="prism-grid-line" x1="163.75" y1="50" x2="163.75" y2="560"/><line class="prism-grid-line" x1="246.25" y1="50" x2="246.25" y2="560"/><line class="prism-grid-line" x1="328.75" y1="50" x2="328.75" y2="560"/><line class="prism-axis-domain" x1="40" y1="560" x2="370" y2="560"/><line class="prism-axis-tick" x1="81.25" y1="560" x2="81.25" y2="565"/><text class="prism-axis-label" x="81.25" y="578" text-anchor="middle">Q1</text><line class="prism-axis-tick" x1="163.75" y1="560" x2="163.75" y2="565"/><text class="prism-axis-label" x="163.75" y="578" text-anchor="middle">Q2</text><line class="prism-axis-tick" x1="246.25" y1="560" x2="246.25" y2="565"/><text class="prism-axis-label" x="246.25" y="578" text-anchor="middle">Q3</text><line class="prism-axis-tick" x1="328.75" y1="560" x2="328.75" y2="565"/><text class="prism-axis-label" x="328.75" y="578" text-anchor="middle">Q4</text><text class="prism-axis-title" x="205" y="594" text-anchor="middle">q</text></g>
      <g class="prism-axis prism-axis-y" data-prism-axis-id="y-axis"><line class="prism-grid-line" x1="40" y1="560" x2="370" y2="560"/><line class="prism-grid-line" x1="40" y1="461.923" x2="370" y2="461.923"/><line class="prism-grid-line" x1="40" y1="363.846" x2="370" y2="363.846"/><line class="prism-grid-line" x1="40" y1="265.769" x2="370" y2="265.769"/><line class="prism-grid-line" x1="40" y1="167.692" x2="370" y2="167.692"/><line class="prism-grid-line" x1="40" y1="69.615" x2="370" y2="69.615"/><line class="prism-axis-domain" x1="40" y1="50" x2="40" y2="560"/><line class="prism-axis-tick" x1="40" y1="560" x2="35" y2="560"/><text class="prism-axis-label" x="32" y="564" text-anchor="end">0</text><line class="prism-axis-tick" x1="40" y1="510.962" x2="37" y2="510.962"/><line class="prism-axis-tick" x1="40" y1="461.923" x2="35" y2="461.923"/><line class="prism-axis-tick" x1="40" y1="412.885" x2="37" y2="412.885"/><line class="prism-axis-tick" x1="40" y1="363.846" x2="35" y2="363.846"/><text class="prism-axis-label" x="32" y="367.846" text-anchor="end">100</text><line class="prism-axis-tick" x1="40" y1="314.808" x2="37" y2="314.808"/><line class="prism-axis-tick" x1="40" y1="265.769" x2="35" y2="265.769"/><line class="prism-axis-tick" x1="40" y1="216.731" x2="37" y2="216.731"/><line class="prism-axis-tick" x1="40" y1="167.692" x2="35" y2="167.692"/><text class="prism-axis-label" x="32" y="171.692" text-anchor="end">200</text><line class="prism-axis-tick" x1="40" y1="118.654" x2="37" y2="118.654"/><line class="prism-axis-tick" x1="40" y1="69.615" x2="35" y2="69.615"/><text class="prism-axis-title" x="10" y="305" text-anchor="middle" transform="rotate(-90 10 305)">sales</text></g>
    </g>
    <g class="prism-plot">
      <g class="prism-layer" data-layer-id="layer-0" data-prism-layer="layer-0">
        <rect class="prism-mark-bar" data-prism-id="bar-0" data-prism-datum-row="0" x="44.125" y="324.615" width="74.25" height="235.385" fill="#3b82f6"/>
        <rect class="prism-mark-bar" data-prism-id="bar-1" data-prism-datum-row="1" x="126.625" y="206.923" width="74.25" height="353.077" fill="#3b82f6"/>
        <rect class="prism-mark-bar" data-prism-id="bar-2" data-prism-datum-row="2" x="209.125" y="148.077" width="74.25" height="411.923" fill="#3b82f6"/>
        <rect class="prism-mark-bar" data-prism-id="bar-3" data-prism-datum-row="3" x="291.625" y="50" width="74.25" height="510" fill="#3b82f6"/>
      </g>
    </g>
  </g>

  <g class="prism-scene" data-scene-id="scene-1">
    <text class="prism-title" x="615" y="20" text-anchor="middle">Region share</text>
    <g class="prism-axes">
      <g class="prism-axis prism-axis-x" data-prism-axis-id="x-axis"><line class="prism-grid-line" x1="491.25" y1="50" x2="491.25" y2="560"/><line class="prism-grid-line" x1="573.75" y1="50" x2="573.75" y2="560"/><line class="prism-grid-line" x1="656.25" y1="50" x2="656.25" y2="560"/><line class="prism-grid-line" x1="738.75" y1="50" x2="738.75" y2="560"/><line class="prism-axis-domain" x1="450" y1="560" x2="780" y2="560"/><line class="prism-axis-tick" x1="491.25" y1="560" x2="491.25" y2="565"/><text class="prism-axis-label" x="491.25" y="578" text-anchor="middle">NA</text><line class="prism-axis-tick" x1="573.75" y1="560" x2="573.75" y2="565"/><text class="prism-axis-label" x="573.75" y="578" text-anchor="middle">EMEA</text><line class="prism-axis-tick" x1="656.25" y1="560" x2="656.25" y2="565"/><text class="prism-axis-label" x="656.25" y="578" text-anchor="middle">APAC</text><line class="prism-axis-tick" x1="738.75" y1="560" x2="738.75" y2="565"/><text class="prism-axis-label" x="738.75" y="578" text-anchor="middle">LATAM</text><text class="prism-axis-title" x="615" y="594" text-anchor="middle">region</text></g>
      <g class="prism-axis prism-axis-y" data-prism-axis-id="y-axis"><line class="prism-grid-line" x1="450" y1="560" x2="780" y2="560"/><line class="prism-grid-line" x1="450" y1="438.571" x2="780" y2="438.571"/><line class="prism-grid-line" x1="450" y1="317.143" x2="780" y2="317.143"/><line class="prism-grid-line" x1="450" y1="195.714" x2="780" y2="195.714"/><line class="prism-grid-line" x1="450" y1="74.286" x2="780" y2="74.286"/><line class="prism-axis-domain" x1="450" y1="50" x2="450" y2="560"/><line class="prism-axis-tick" x1="450" y1="560" x2="445" y2="560"/><text class="prism-axis-label" x="442" y="564" text-anchor="end">0</text><line class="prism-axis-tick" x1="450" y1="499.286" x2="447" y2="499.286"/><line class="prism-axis-tick" x1="450" y1="438.571" x2="445" y2="438.571"/><line class="prism-axis-tick" x1="450" y1="377.857" x2="447" y2="377.857"/><line class="prism-axis-tick" x1="450" y1="317.143" x2="445" y2="317.143"/><text class="prism-axis-label" x="442" y="321.143" text-anchor="end">0.2</text><line class="prism-axis-tick" x1="450" y1="256.429" x2="447" y2="256.429"/><line class="prism-axis-tick" x1="450" y1="195.714" x2="445" y2="195.714"/><line class="prism-axis-tick" x1="450" y1="135" x2="447" y2="135"/><line class="prism-axis-tick" x1="450" y1="74.286" x2="445" y2="74.286"/><text class="prism-axis-label" x="442" y="78.286" text-anchor="end">0.4</text><text class="prism-axis-title" x="420" y="305" text-anchor="middle" transform="rotate(-90 420 305)">share</text></g>
    </g>
    <g class="prism-plot">
      <g class="prism-layer" data-layer-id="layer-0" data-prism-layer="layer-0">
        <rect class="prism-mark-bar" data-prism-id="bar-0" data-prism-datum-row="0" x="454.125" y="50" width="74.25" height="510" fill="#3b82f6"/>
        <rect class="prism-mark-bar" data-prism-id="bar-1" data-prism-datum-row="1" x="536.625" y="195.714" width="74.25" height="364.286" fill="#3b82f6"/>
        <rect class="prism-mark-bar" data-prism-id="bar-2" data-prism-datum-row="2" x="619.125" y="341.429" width="74.25" height="218.571" fill="#3b82f6"/>
        <rect class="prism-mark-bar" data-prism-id="bar-3" data-prism-datum-row="3" x="701.625" y="438.571" width="74.25" height="121.429" fill="#3b82f6"/>
      </g>
    </g>
  </g>
</svg>
