<svg xmlns="http://www.w3.org/2000/svg" viewBox="0 0 800 600" overflow="hidden">
  <style>:root{--prism-color-axis:#6b7280;--prism-color-grid:#e5e7eb;--prism-color-text:#111827;--prism-color-bg:transparent;--prism-font-sans:Inter, system-ui, sans-serif;--prism-font-mono:ui-monospace, SF Mono, monospace;--prism-font-size-label:11px;--prism-font-size-title:16px;--prism-font-size-axis-title:12px;}.prism-axis-domain{stroke:var(--prism-color-axis);fill:none;}.prism-axis-tick{stroke:var(--prism-color-axis);}.prism-axis-label{fill:var(--prism-color-text);font-family:var(--prism-font-sans);font-size:var(--prism-font-size-label,11px);}.prism-axis-title{fill:var(--prism-color-text);font-family:var(--prism-font-sans);font-size:var(--prism-font-size-axis-title,12px);font-weight:600;}.prism-grid-line{stroke:var(--prism-color-grid);}.prism-title{fill:var(--prism-color-text);font-family:var(--prism-font-sans);font-size:var(--prism-font-size-title,16px);font-weight:600;}.prism-legend-title{fill:var(--prism-color-text);font-family:var(--prism-font-sans);font-size:12px;font-weight:600;}.prism-legend-label{fill:var(--prism-color-text);font-family:var(--prism-font-sans);font-size:11px;}.prism-legend-swatch{stroke:none;}.prism-selected{opacity:var(--prism-selected-opacity,1);}.prism-deselected{opacity:var(--prism-deselected-opacity,0.3);}</style>

  <g class="prism-scene" data-scene-id="scene-0">
    <text class="prism-title" x="410" y="20" text-anchor="middle">Shared y-scale domain union</text>
    <g class="prism-plot">
      <g class="prism-layer" data-layer-id="layer-0" data-prism-layer="layer-0">
        <rect class="prism-mark-bar" data-prism-id="bar-0" data-prism-datum-row="0" x="49.25" y="560" width="166.5" height="0" fill="#3b82f6"/>
        <rect class="prism-mark-bar" data-prism-id="bar-1" data-prism-datum-row="1" x="234.25" y="509" width="166.5" height="51" fill="#3b82f6"/>
        <rect class="prism-mark-bar" data-prism-id="bar-2" data-prism-datum-row="2" x="419.25" y="432.5" width="166.5" height="127.5" fill="#3b82f6"/>
        <rect class="prism-mark-bar" data-prism-id="bar-3" data-prism-datum-row="3" x="604.25" y="305" width="166.5" height="255" fill="#3b82f6"/>
      </g>
      <g class="prism-layer" data-layer-id="layer-1" data-prism-layer="layer-1">
        <line class="prism-mark-rule" data-prism-id="rule-0" data-prism-datum-row="0" x1="48.75" y1="356" x2="49.75" y2="356" stroke="#dc2626" stroke-width="1.5"/>
        <line class="prism-mark-rule" data-prism-id="rule-1" data-prism-datum-row="1" x1="233.75" y1="254" x2="234.75" y2="254" stroke="#dc2626" stroke-width="1.5"/>
        <line class="prism-mark-rule" data-prism-id="rule-2" data-prism-datum-row="2" x1="418.75" y1="152" x2="419.75" y2="152" stroke="#dc2626" stroke-width="1.5"/>
        <line class="prism-mark-rule" data-prism-id="rule-3" data-prism-datum-row="3" x1="603.75" y1="50" x2="604.75" y2="50" stroke="#dc2626" stroke-width="1.5"/>
      </g>
    </g>
  </g>

  <g class="prism-axes" data-shared="true">
    <g class="prism-axis prism-axis-x" data-prism-axis-id="x-axis"><line class="prism-grid-line" x1="132.5" y1="50" x2="132.5" y2="560"/><line class="prism-grid-line" x1="317.5" y1="50" x2="317.5" y2="560"/><line class="prism-grid-line" x1="502.5" y1="50" x2="502.5" y2="560"/><line class="prism-grid-line" x1="687.5" y1="50" x2="687.5" y2="560"/><line class="prism-axis-domain" x1="40" y1="560" x2="780" y2="560"/><line class="prism-axis-tick" x1="132.5" y1="560" x2="132.5" y2="565"/><text class="prism-axis-label" x="132.5" y="578" text-anchor="middle">a</text><line class="prism-axis-tick" x1="317.5" y1="560" x2="317.5" y2="565"/><text class="prism-axis-label" x="317.5" y="578" text-anchor="middle">b</text><line class="prism-axis-tick" x1="502.5" y1="560" x2="502.5" y2="565"/><text class="prism-axis-label" x="502.5" y="578" text-anchor="middle">c</text><line class="prism-axis-tick" x1="687.5" y1="560" x2="687.5" y2="565"/><text class="prism-axis-label" x="687.5" y="578" text-anchor="middle">d</text><text class="prism-axis-title" x="410" y="594" text-anchor="middle">x</text></g>
    <g class="prism-axis prism-axis-y" data-prism-axis-id="y-axis"><line class="prism-grid-line" x1="40" y1="560" x2="780" y2="560"/><line class="prism-grid-line" x1="40" y1="458" x2="780" y2="458"/><line class="prism-grid-line" x1="40" y1="356" x2="780" y2="356"/><line class="prism-grid-line" x1="40" y1="254" x2="780" y2="254"/><line class="prism-grid-line" x1="40" y1="152" x2="780" y2="152"/><line class="prism-grid-line" x1="40" y1="50" x2="780" y2="50"/><line class="prism-axis-domain" x1="40" y1="50" x2="40" y2="560"/><line class="prism-axis-tick" x1="40" y1="560" x2="35" y2="560"/><text class="prism-axis-label" x="32" y="564" text-anchor="end">0</text><line class="prism-axis-tick" x1="40" y1="509" x2="37" y2="509"/><line class="prism-axis-tick" x1="40" y1="458" x2="35" y2="458"/><line class="prism-axis-tick" x1="40" y1="407" x2="37" y2="407"/><line class="prism-axis-tick" x1="40" y1="356" x2="35" y2="356"/><text class="prism-axis-label" x="32" y="360" text-anchor="end">40</text><line class="prism-axis-tick" x1="40" y1="305" x2="37" y2="305"/><line class="prism-axis-tick" x1="40" y1="254" x2="35" y2="254"/><line class="prism-axis-tick" x1="40" y1="203" x2="37" y2="203"/><line class="prism-axis-tick" x1="40" y1="152" x2="35" y2="152"/><text class="prism-axis-label" x="32" y="156" text-anchor="end">80</text><line class="prism-axis-tick" x1="40" y1="101" x2="37" y2="101"/><line class="prism-axis-tick" x1="40" y1="50" x2="35" y2="50"/><text class="prism-axis-title" x="10" y="305" text-anchor="middle" transform="rotate(-90 10 305)">y</text></g>
  </g>
</svg>
