<svg xmlns="http://www.w3.org/2000/svg" viewBox="0 0 800 600">
  <style>:root{--prism-color-axis:#6b7280;--prism-color-grid:#e5e7eb;--prism-color-text:#111827;--prism-color-bg:transparent;--prism-font-sans:Inter, system-ui, sans-serif;--prism-font-mono:ui-monospace, SF Mono, monospace;--prism-font-size-label:11px;--prism-font-size-title:16px;--prism-font-size-axis-title:12px;}.prism-axis-domain{stroke:var(--prism-color-axis);fill:none;}.prism-axis-tick{stroke:var(--prism-color-axis);}.prism-axis-label{fill:var(--prism-color-text);font-family:var(--prism-font-sans);font-size:var(--prism-font-size-label,11px);}.prism-axis-title{fill:var(--prism-color-text);font-family:var(--prism-font-sans);font-size:var(--prism-font-size-axis-title,12px);font-weight:600;}.prism-grid-line{stroke:var(--prism-color-grid);}.prism-title{fill:var(--prism-color-text);font-family:var(--prism-font-sans);font-size:var(--prism-font-size-title,16px);font-weight:600;}.prism-legend-title{fill:var(--prism-color-text);font-family:var(--prism-font-sans);font-size:12px;font-weight:600;}.prism-legend-label{fill:var(--prism-color-text);font-family:var(--prism-font-sans);font-size:11px;}.prism-legend-swatch{stroke:none;}.prism-selected{opacity:var(--prism-selected-opacity,1);}.prism-deselected{opacity:var(--prism-deselected-opacity,0.3);}</style>

  <g class="prism-scene" data-scene-id="scene-0">
    <g class="prism-axes">
      <g class="prism-axis prism-axis-x" data-prism-axis-id="x-axis"><line class="prism-grid-line" x1="40" y1="20" x2="40" y2="250"/><line class="prism-grid-line" x1="178.75" y1="20" x2="178.75" y2="250"/><line class="prism-grid-line" x1="317.5" y1="20" x2="317.5" y2="250"/><line class="prism-grid-line" x1="456.25" y1="20" x2="456.25" y2="250"/><line class="prism-grid-line" x1="595" y1="20" x2="595" y2="250"/><line class="prism-grid-line" x1="733.75" y1="20" x2="733.75" y2="250"/><line class="prism-axis-domain" x1="40" y1="250" x2="780" y2="250"/><line class="prism-axis-tick" x1="40" y1="250" x2="40" y2="255"/><text class="prism-axis-label" x="40" y="268" text-anchor="middle">00:00</text><line class="prism-axis-tick" x1="178.75" y1="250" x2="178.75" y2="255"/><text class="prism-axis-label" x="178.75" y="268" text-anchor="middle">09:00</text><line class="prism-axis-tick" x1="317.5" y1="250" x2="317.5" y2="255"/><text class="prism-axis-label" x="317.5" y="268" text-anchor="middle">18:00</text><line class="prism-axis-tick" x1="456.25" y1="250" x2="456.25" y2="255"/><text class="prism-axis-label" x="456.25" y="268" text-anchor="middle">03:00</text><line class="prism-axis-tick" x1="595" y1="250" x2="595" y2="255"/><text class="prism-axis-label" x="595" y="268" text-anchor="middle">12:00</text><line class="prism-axis-tick" x1="733.75" y1="250" x2="733.75" y2="255"/><text class="prism-axis-label" x="733.75" y="268" text-anchor="middle">21:00</text><text class="prism-axis-title" x="410" y="284" text-anchor="middle">day</text></g>
      <g class="prism-axis prism-axis-y" data-prism-axis-id="y-axis"><line class="prism-grid-line" x1="40" y1="250" x2="780" y2="250"/><line class="prism-grid-line" x1="40" y1="208.182" x2="780" y2="208.182"/><line class="prism-grid-line" x1="40" y1="166.364" x2="780" y2="166.364"/><line class="prism-grid-line" x1="40" y1="124.545" x2="780" y2="124.545"/><line class="prism-grid-line" x1="40" y1="82.727" x2="780" y2="82.727"/><line class="prism-grid-line" x1="40" y1="40.909" x2="780" y2="40.909"/><line class="prism-axis-domain" x1="40" y1="20" x2="40" y2="250"/><line class="prism-axis-tick" x1="40" y1="250" x2="35" y2="250"/><text class="prism-axis-label" x="32" y="254" text-anchor="end">0</text><line class="prism-axis-tick" x1="40" y1="229.091" x2="37" y2="229.091"/><line class="prism-axis-tick" x1="40" y1="208.182" x2="35" y2="208.182"/><line class="prism-axis-tick" x1="40" y1="187.273" x2="37" y2="187.273"/><line class="prism-axis-tick" x1="40" y1="166.364" x2="35" y2="166.364"/><text class="prism-axis-label" x="32" y="170.364" text-anchor="end">0.2</text><line class="prism-axis-tick" x1="40" y1="145.455" x2="37" y2="145.455"/><line class="prism-axis-tick" x1="40" y1="124.545" x2="35" y2="124.545"/><line class="prism-axis-tick" x1="40" y1="103.636" x2="37" y2="103.636"/><line class="prism-axis-tick" x1="40" y1="82.727" x2="35" y2="82.727"/><text class="prism-axis-label" x="32" y="86.727" text-anchor="end">0.4</text><line class="prism-axis-tick" x1="40" y1="61.818" x2="37" y2="61.818"/><line class="prism-axis-tick" x1="40" y1="40.909" x2="35" y2="40.909"/><text class="prism-axis-title" x="10" y="135" text-anchor="middle" transform="rotate(-90 10 135)">score</text></g>
    </g>
    <g class="prism-plot">
      <g class="prism-layer" data-layer-id="layer-0" data-prism-layer="layer-0">
        <polyline class="prism-mark-line" data-prism-id="line-0" data-prism-datum-row="0" points="40,74.364 410,20 780,45.091" fill="none" stroke="#3b82f6" stroke-width="1.5"/>
      </g>
    </g>
  </g>

  <g class="prism-scene" data-scene-id="scene-1">
    <g class="prism-axes">
      <g class="prism-axis prism-axis-x" data-prism-axis-id="x-axis"><line class="prism-grid-line" x1="40" y1="330" x2="40" y2="560"/><line class="prism-grid-line" x1="178.75" y1="330" x2="178.75" y2="560"/><line class="prism-grid-line" x1="317.5" y1="330" x2="317.5" y2="560"/><line class="prism-grid-line" x1="456.25" y1="330" x2="456.25" y2="560"/><line class="prism-grid-line" x1="595" y1="330" x2="595" y2="560"/><line class="prism-grid-line" x1="733.75" y1="330" x2="733.75" y2="560"/><line class="prism-axis-domain" x1="40" y1="560" x2="780" y2="560"/><line class="prism-axis-tick" x1="40" y1="560" x2="40" y2="565"/><text class="prism-axis-label" x="40" y="578" text-anchor="middle">00:00</text><line class="prism-axis-tick" x1="178.75" y1="560" x2="178.75" y2="565"/><text class="prism-axis-label" x="178.75" y="578" text-anchor="middle">09:00</text><line class="prism-axis-tick" x1="317.5" y1="560" x2="317.5" y2="565"/><text class="prism-axis-label" x="317.5" y="578" text-anchor="middle">18:00</text><line class="prism-axis-tick" x1="456.25" y1="560" x2="456.25" y2="565"/><text class="prism-axis-label" x="456.25" y="578" text-anchor="middle">03:00</text><line class="prism-axis-tick" x1="595" y1="560" x2="595" y2="565"/><text class="prism-axis-label" x="595" y="578" text-anchor="middle">12:00</text><line class="prism-axis-tick" x1="733.75" y1="560" x2="733.75" y2="565"/><text class="prism-axis-label" x="733.75" y="578" text-anchor="middle">21:00</text><text class="prism-axis-title" x="410" y="594" text-anchor="middle">day</text></g>
      <g class="prism-axis prism-axis-y" data-prism-axis-id="y-axis"><line class="prism-grid-line" x1="40" y1="560" x2="780" y2="560"/><line class="prism-grid-line" x1="40" y1="521.667" x2="780" y2="521.667"/><line class="prism-grid-line" x1="40" y1="483.333" x2="780" y2="483.333"/><line class="prism-grid-line" x1="40" y1="445" x2="780" y2="445"/><line class="prism-grid-line" x1="40" y1="406.667" x2="780" y2="406.667"/><line class="prism-grid-line" x1="40" y1="368.333" x2="780" y2="368.333"/><line class="prism-grid-line" x1="40" y1="330" x2="780" y2="330"/><line class="prism-axis-domain" x1="40" y1="330" x2="40" y2="560"/><line class="prism-axis-tick" x1="40" y1="560" x2="35" y2="560"/><text class="prism-axis-label" x="32" y="564" text-anchor="end">0</text><line class="prism-axis-tick" x1="40" y1="540.833" x2="37" y2="540.833"/><line class="prism-axis-tick" x1="40" y1="521.667" x2="35" y2="521.667"/><line class="prism-axis-tick" x1="40" y1="502.5" x2="37" y2="502.5"/><line class="prism-axis-tick" x1="40" y1="483.333" x2="35" y2="483.333"/><text class="prism-axis-label" x="32" y="487.333" text-anchor="end">40</text><line class="prism-axis-tick" x1="40" y1="464.167" x2="37" y2="464.167"/><line class="prism-axis-tick" x1="40" y1="445" x2="35" y2="445"/><line class="prism-axis-tick" x1="40" y1="425.833" x2="37" y2="425.833"/><line class="prism-axis-tick" x1="40" y1="406.667" x2="35" y2="406.667"/><text class="prism-axis-label" x="32" y="410.667" text-anchor="end">80</text><line class="prism-axis-tick" x1="40" y1="387.5" x2="37" y2="387.5"/><line class="prism-axis-tick" x1="40" y1="368.333" x2="35" y2="368.333"/><line class="prism-axis-tick" x1="40" y1="349.167" x2="37" y2="349.167"/><line class="prism-axis-tick" x1="40" y1="330" x2="35" y2="330"/><text class="prism-axis-label" x="32" y="334" text-anchor="end">120</text><text class="prism-axis-title" x="10" y="445" text-anchor="middle" transform="rotate(-90 10 445)">latency_ms</text></g>
    </g>
    <g class="prism-plot">
      <g class="prism-layer" data-layer-id="layer-0" data-prism-layer="layer-0">
        <polyline class="prism-mark-line" data-prism-id="line-0" data-prism-datum-row="0" points="40,330 410,377.917 780,349.167" fill="none" stroke="#3b82f6" stroke-width="1.5"/>
      </g>
    </g>
  </g>
</svg>
