<svg xmlns="http://www.w3.org/2000/svg" viewBox="0 0 800 600" overflow="hidden">
  <style>:root{--prism-color-axis:#6b7280;--prism-color-grid:#e5e7eb;--prism-color-text:#111827;--prism-color-bg:transparent;--prism-font-sans:Inter, system-ui, sans-serif;--prism-font-mono:ui-monospace, SF Mono, monospace;--prism-font-size-label:11px;--prism-font-size-title:16px;--prism-font-size-axis-title:12px;}.prism-axis-domain{stroke:var(--prism-color-axis);fill:none;}.prism-axis-tick{stroke:var(--prism-color-axis);}.prism-axis-label{fill:var(--prism-color-text);font-family:var(--prism-font-sans);font-size:var(--prism-font-size-label,11px);}.prism-axis-title{fill:var(--prism-color-text);font-family:var(--prism-font-sans);font-size:var(--prism-font-size-axis-title,12px);font-weight:600;}.prism-grid-line{stroke:var(--prism-color-grid);}.prism-title{fill:var(--prism-color-text);font-family:var(--prism-font-sans);font-size:var(--prism-font-size-title,16px);font-weight:600;}.prism-legend-title{fill:var(--prism-color-text);font-family:var(--prism-font-sans);font-size:12px;font-weight:600;}.prism-legend-label{fill:var(--prism-color-text);font-family:var(--prism-font-sans);font-size:11px;}.prism-legend-swatch{stroke:none;}.prism-selected{opacity:var(--prism-selected-opacity,1);}.prism-deselected{opacity:var(--prism-deselected-opacity,0.3);}</style>

  <g class="prism-scene" data-scene-id="scene-0">
    <text class="prism-title" x="410" y="20" text-anchor="middle">Score</text>
    <g class="prism-axes">
      <g class="prism-axis prism-axis-x" data-prism-axis-id="x-axis"><line class="prism-grid-line" x1="40" y1="50" x2="40" y2="146.667"/><line class="prism-grid-line" x1="225" y1="50" x2="225" y2="146.667"/><line class="prism-grid-line" x1="410" y1="50" x2="410" y2="146.667"/><line class="prism-grid-line" x1="595" y1="50" x2="595" y2="146.667"/><line class="prism-grid-line" x1="780" y1="50" x2="780" y2="146.667"/><line class="prism-axis-domain" x1="40" y1="146.667" x2="780" y2="146.667"/><line class="prism-axis-tick" x1="40" y1="146.667" x2="40" y2="151.667"/><text class="prism-axis-label" x="40" y="164.667" text-anchor="middle">0</text><line class="prism-axis-tick" x1="132.5" y1="146.667" x2="132.5" y2="149.667"/><line class="prism-axis-tick" x1="225" y1="146.667" x2="225" y2="151.667"/><text class="prism-axis-label" x="225" y="164.667" text-anchor="middle">1</text><line class="prism-axis-tick" x1="317.5" y1="146.667" x2="317.5" y2="149.667"/><line class="prism-axis-tick" x1="410" y1="146.667" x2="410" y2="151.667"/><text class="prism-axis-label" x="410" y="164.667" text-anchor="middle">2</text><line class="prism-axis-tick" x1="502.5" y1="146.667" x2="502.5" y2="149.667"/><line class="prism-axis-tick" x1="595" y1="146.667" x2="595" y2="151.667"/><text class="prism-axis-label" x="595" y="164.667" text-anchor="middle">3</text><line class="prism-axis-tick" x1="687.5" y1="146.667" x2="687.5" y2="149.667"/><line class="prism-axis-tick" x1="780" y1="146.667" x2="780" y2="151.667"/><text class="prism-axis-label" x="780" y="164.667" text-anchor="middle">4</text><text class="prism-axis-title" x="410" y="180.667" text-anchor="middle">day</text></g>
      <g class="prism-axis prism-axis-y" data-prism-axis-id="y-axis"><line class="prism-grid-line" x1="40" y1="146.667" x2="780" y2="146.667"/><line class="prism-grid-line" x1="40" y1="130.82" x2="780" y2="130.82"/><line class="prism-grid-line" x1="40" y1="114.973" x2="780" y2="114.973"/><line class="prism-grid-line" x1="40" y1="99.126" x2="780" y2="99.126"/><line class="prism-grid-line" x1="40" y1="83.279" x2="780" y2="83.279"/><line class="prism-grid-line" x1="40" y1="67.432" x2="780" y2="67.432"/><line class="prism-grid-line" x1="40" y1="51.585" x2="780" y2="51.585"/><line class="prism-axis-domain" x1="40" y1="50" x2="40" y2="146.667"/><line class="prism-axis-tick" x1="40" y1="146.667" x2="35" y2="146.667"/><text class="prism-axis-label" x="32" y="150.667" text-anchor="end">0</text><line class="prism-axis-tick" x1="40" y1="138.743" x2="37" y2="138.743"/><line class="prism-axis-tick" x1="40" y1="130.82" x2="35" y2="130.82"/><line class="prism-axis-tick" x1="40" y1="122.896" x2="37" y2="122.896"/><line class="prism-axis-tick" x1="40" y1="114.973" x2="35" y2="114.973"/><text class="prism-axis-label" x="32" y="118.973" text-anchor="end">0.2</text><line class="prism-axis-tick" x1="40" y1="107.049" x2="37" y2="107.049"/><line class="prism-axis-tick" x1="40" y1="99.126" x2="35" y2="99.126"/><line class="prism-axis-tick" x1="40" y1="91.202" x2="37" y2="91.202"/><line class="prism-axis-tick" x1="40" y1="83.279" x2="35" y2="83.279"/><text class="prism-axis-label" x="32" y="87.279" text-anchor="end">0.4</text><line class="prism-axis-tick" x1="40" y1="75.355" x2="37" y2="75.355"/><line class="prism-axis-tick" x1="40" y1="67.432" x2="35" y2="67.432"/><line class="prism-axis-tick" x1="40" y1="59.508" x2="37" y2="59.508"/><line class="prism-axis-tick" x1="40" y1="51.585" x2="35" y2="51.585"/><text class="prism-axis-label" x="32" y="55.585" text-anchor="end">0.6</text><text class="prism-axis-title" x="10" y="98.333" text-anchor="middle" transform="rotate(-90 10 98.333)">score</text></g>
    </g>
    <g class="prism-plot">
      <g class="prism-layer" data-layer-id="layer-0" data-prism-layer="layer-0">
        <polyline class="prism-mark-line" data-prism-id="line-0" data-prism-datum-row="0" points="225,83.279 410,70.601 595,59.508 780,50" fill="none" stroke="#3b82f6" stroke-width="1.5"/>
      </g>
    </g>
  </g>

  <g class="prism-scene" data-scene-id="scene-1">
    <text class="prism-title" x="410" y="226.667" text-anchor="middle">Revenue</text>
    <g class="prism-axes">
      <g class="prism-axis prism-axis-x" data-prism-axis-id="x-axis"><line class="prism-grid-line" x1="40" y1="256.667" x2="40" y2="353.333"/><line class="prism-grid-line" x1="225" y1="256.667" x2="225" y2="353.333"/><line class="prism-grid-line" x1="410" y1="256.667" x2="410" y2="353.333"/><line class="prism-grid-line" x1="595" y1="256.667" x2="595" y2="353.333"/><line class="prism-grid-line" x1="780" y1="256.667" x2="780" y2="353.333"/><line class="prism-axis-domain" x1="40" y1="353.333" x2="780" y2="353.333"/><line class="prism-axis-tick" x1="40" y1="353.333" x2="40" y2="358.333"/><text class="prism-axis-label" x="40" y="371.333" text-anchor="middle">0</text><line class="prism-axis-tick" x1="132.5" y1="353.333" x2="132.5" y2="356.333"/><line class="prism-axis-tick" x1="225" y1="353.333" x2="225" y2="358.333"/><text class="prism-axis-label" x="225" y="371.333" text-anchor="middle">1</text><line class="prism-axis-tick" x1="317.5" y1="353.333" x2="317.5" y2="356.333"/><line class="prism-axis-tick" x1="410" y1="353.333" x2="410" y2="358.333"/><text class="prism-axis-label" x="410" y="371.333" text-anchor="middle">2</text><line class="prism-axis-tick" x1="502.5" y1="353.333" x2="502.5" y2="356.333"/><line class="prism-axis-tick" x1="595" y1="353.333" x2="595" y2="358.333"/><text class="prism-axis-label" x="595" y="371.333" text-anchor="middle">3</text><line class="prism-axis-tick" x1="687.5" y1="353.333" x2="687.5" y2="356.333"/><line class="prism-axis-tick" x1="780" y1="353.333" x2="780" y2="358.333"/><text class="prism-axis-label" x="780" y="371.333" text-anchor="middle">4</text><text class="prism-axis-title" x="410" y="387.333" text-anchor="middle">day</text></g>
      <g class="prism-axis prism-axis-y" data-prism-axis-id="y-axis"><line class="prism-grid-line" x1="40" y1="353.333" x2="780" y2="353.333"/><line class="prism-grid-line" x1="40" y1="331.364" x2="780" y2="331.364"/><line class="prism-grid-line" x1="40" y1="309.394" x2="780" y2="309.394"/><line class="prism-grid-line" x1="40" y1="287.424" x2="780" y2="287.424"/><line class="prism-grid-line" x1="40" y1="265.455" x2="780" y2="265.455"/><line class="prism-axis-domain" x1="40" y1="256.667" x2="40" y2="353.333"/><line class="prism-axis-tick" x1="40" y1="353.333" x2="35" y2="353.333"/><text class="prism-axis-label" x="32" y="357.333" text-anchor="end">0</text><line class="prism-axis-tick" x1="40" y1="342.348" x2="37" y2="342.348"/><line class="prism-axis-tick" x1="40" y1="331.364" x2="35" y2="331.364"/><line class="prism-axis-tick" x1="40" y1="320.379" x2="37" y2="320.379"/><line class="prism-axis-tick" x1="40" y1="309.394" x2="35" y2="309.394"/><text class="prism-axis-label" x="32" y="313.394" text-anchor="end">10</text><line class="prism-axis-tick" x1="40" y1="298.409" x2="37" y2="298.409"/><line class="prism-axis-tick" x1="40" y1="287.424" x2="35" y2="287.424"/><line class="prism-axis-tick" x1="40" y1="276.439" x2="37" y2="276.439"/><line class="prism-axis-tick" x1="40" y1="265.455" x2="35" y2="265.455"/><text class="prism-axis-label" x="32" y="269.455" text-anchor="end">20</text><text class="prism-axis-title" x="10" y="305" text-anchor="middle" transform="rotate(-90 10 305)">revenue</text></g>
    </g>
    <g class="prism-plot">
      <g class="prism-layer" data-layer-id="layer-0" data-prism-layer="layer-0">
        <polyline class="prism-mark-line" data-prism-id="line-0" data-prism-datum-row="0" points="225,300.606 410,287.424 595,274.242 780,256.667" fill="none" stroke="#3b82f6" stroke-width="1.5"/>
      </g>
    </g>
  </g>

  <g class="prism-scene" data-scene-id="scene-2">
    <text class="prism-title" x="410" y="433.333" text-anchor="middle">Clicks</text>
    <g class="prism-axes">
      <g class="prism-axis prism-axis-x" data-prism-axis-id="x-axis"><line class="prism-grid-line" x1="40" y1="463.333" x2="40" y2="560"/><line class="prism-grid-line" x1="225" y1="463.333" x2="225" y2="560"/><line class="prism-grid-line" x1="410" y1="463.333" x2="410" y2="560"/><line class="prism-grid-line" x1="595" y1="463.333" x2="595" y2="560"/><line class="prism-grid-line" x1="780" y1="463.333" x2="780" y2="560"/><line class="prism-axis-domain" x1="40" y1="560" x2="780" y2="560"/><line class="prism-axis-tick" x1="40" y1="560" x2="40" y2="565"/><text class="prism-axis-label" x="40" y="578" text-anchor="middle">0</text><line class="prism-axis-tick" x1="132.5" y1="560" x2="132.5" y2="563"/><line class="prism-axis-tick" x1="225" y1="560" x2="225" y2="565"/><text class="prism-axis-label" x="225" y="578" text-anchor="middle">1</text><line class="prism-axis-tick" x1="317.5" y1="560" x2="317.5" y2="563"/><line class="prism-axis-tick" x1="410" y1="560" x2="410" y2="565"/><text class="prism-axis-label" x="410" y="578" text-anchor="middle">2</text><line class="prism-axis-tick" x1="502.5" y1="560" x2="502.5" y2="563"/><line class="prism-axis-tick" x1="595" y1="560" x2="595" y2="565"/><text class="prism-axis-label" x="595" y="578" text-anchor="middle">3</text><line class="prism-axis-tick" x1="687.5" y1="560" x2="687.5" y2="563"/><line class="prism-axis-tick" x1="780" y1="560" x2="780" y2="565"/><text class="prism-axis-label" x="780" y="578" text-anchor="middle">4</text><text class="prism-axis-title" x="410" y="594" text-anchor="middle">day</text></g>
      <g class="prism-axis prism-axis-y" data-prism-axis-id="y-axis"><line class="prism-grid-line" x1="40" y1="560" x2="780" y2="560"/><line class="prism-grid-line" x1="40" y1="536.984" x2="780" y2="536.984"/><line class="prism-grid-line" x1="40" y1="513.968" x2="780" y2="513.968"/><line class="prism-grid-line" x1="40" y1="490.952" x2="780" y2="490.952"/><line class="prism-grid-line" x1="40" y1="467.937" x2="780" y2="467.937"/><line class="prism-axis-domain" x1="40" y1="463.333" x2="40" y2="560"/><line class="prism-axis-tick" x1="40" y1="560" x2="35" y2="560"/><text class="prism-axis-label" x="32" y="564" text-anchor="end">0</text><line class="prism-axis-tick" x1="40" y1="548.492" x2="37" y2="548.492"/><line class="prism-axis-tick" x1="40" y1="536.984" x2="35" y2="536.984"/><line class="prism-axis-tick" x1="40" y1="525.476" x2="37" y2="525.476"/><line class="prism-axis-tick" x1="40" y1="513.968" x2="35" y2="513.968"/><text class="prism-axis-label" x="32" y="517.968" text-anchor="end">100</text><line class="prism-axis-tick" x1="40" y1="502.46" x2="37" y2="502.46"/><line class="prism-axis-tick" x1="40" y1="490.952" x2="35" y2="490.952"/><line class="prism-axis-tick" x1="40" y1="479.444" x2="37" y2="479.444"/><line class="prism-axis-tick" x1="40" y1="467.937" x2="35" y2="467.937"/><text class="prism-axis-label" x="32" y="471.937" text-anchor="end">200</text><text class="prism-axis-title" x="10" y="511.667" text-anchor="middle" transform="rotate(-90 10 511.667)">clicks</text></g>
    </g>
    <g class="prism-plot">
      <g class="prism-layer" data-layer-id="layer-0" data-prism-layer="layer-0">
        <polyline class="prism-mark-line" data-prism-id="line-0" data-prism-datum-row="0" points="225,513.968 410,500.159 595,479.444 780,463.333" fill="none" stroke="#3b82f6" stroke-width="1.5"/>
      </g>
    </g>
  </g>
</svg>
