<svg xmlns="http://www.w3.org/2000/svg" viewBox="0 0 800 600" overflow="hidden">
  <style>:root{--prism-color-axis:#6b7280;--prism-color-grid:#e5e7eb;--prism-color-text:#111827;--prism-color-bg:transparent;--prism-font-sans:Inter, system-ui, sans-serif;--prism-font-mono:ui-monospace, SF Mono, monospace;--prism-font-size-label:11px;--prism-font-size-title:16px;--prism-font-size-axis-title:12px;}.prism-axis-domain{stroke:var(--prism-color-axis);fill:none;}.prism-axis-tick{stroke:var(--prism-color-axis);}.prism-axis-label{fill:var(--prism-color-text);font-family:var(--prism-font-sans);font-size:var(--prism-font-size-label,11px);}.prism-axis-title{fill:var(--prism-color-text);font-family:var(--prism-font-sans);font-size:var(--prism-font-size-axis-title,12px);font-weight:600;}.prism-grid-line{stroke:var(--prism-color-grid);}.prism-title{fill:var(--prism-color-text);font-family:var(--prism-font-sans);font-size:var(--prism-font-size-title,16px);font-weight:600;}.prism-legend-title{fill:var(--prism-color-text);font-family:var(--prism-font-sans);font-size:12px;font-weight:600;}.prism-legend-label{fill:var(--prism-color-text);font-family:var(--prism-font-sans);font-size:11px;}.prism-legend-swatch{stroke:none;}.prism-selected{opacity:var(--prism-selected-opacity,1);}.prism-deselected{opacity:var(--prism-deselected-opacity,0.3);}</style>

  <g class="prism-scene" data-scene-id="scene-0">
    <text class="prism-title" x="410" y="20" text-anchor="middle">Customer revenue distribution (log scale)</text>
    <g class="prism-axes">
      <g class="prism-axis prism-axis-x" data-prism-axis-id="x-axis"><line class="prism-grid-line" x1="92.857" y1="50" x2="92.857" y2="560"/><line class="prism-grid-line" x1="198.571" y1="50" x2="198.571" y2="560"/><line class="prism-grid-line" x1="304.286" y1="50" x2="304.286" y2="560"/><line class="prism-grid-line" x1="410" y1="50" x2="410" y2="560"/><line class="prism-grid-line" x1="515.714" y1="50" x2="515.714" y2="560"/><line class="prism-grid-line" x1="621.429" y1="50" x2="621.429" y2="560"/><line class="prism-grid-line" x1="727.143" y1="50" x2="727.143" y2="560"/><line class="prism-axis-domain" x1="40" y1="560" x2="780" y2="560"/><line class="prism-axis-tick" x1="92.857" y1="560" x2="92.857" y2="565"/><text class="prism-axis-label" x="92.857" y="578" text-anchor="middle">A</text><line class="prism-axis-tick" x1="198.571" y1="560" x2="198.571" y2="565"/><text class="prism-axis-label" x="198.571" y="578" text-anchor="middle">B</text><line class="prism-axis-tick" x1="304.286" y1="560" x2="304.286" y2="565"/><text class="prism-axis-label" x="304.286" y="578" text-anchor="middle">C</text><line class="prism-axis-tick" x1="410" y1="560" x2="410" y2="565"/><text class="prism-axis-label" x="410" y="578" text-anchor="middle">D</text><line class="prism-axis-tick" x1="515.714" y1="560" x2="515.714" y2="565"/><text class="prism-axis-label" x="515.714" y="578" text-anchor="middle">E</text><line class="prism-axis-tick" x1="621.429" y1="560" x2="621.429" y2="565"/><text class="prism-axis-label" x="621.429" y="578" text-anchor="middle">F</text><line class="prism-axis-tick" x1="727.143" y1="560" x2="727.143" y2="565"/><text class="prism-axis-label" x="727.143" y="578" text-anchor="middle">G</text><text class="prism-axis-title" x="410" y="594" text-anchor="middle">customer</text></g>
      <g class="prism-axis prism-axis-y" data-prism-axis-id="y-axis"><line class="prism-grid-line" x1="40" y1="439.681" x2="780" y2="439.681"/><line class="prism-grid-line" x1="40" y1="309.015" x2="780" y2="309.015"/><line class="prism-grid-line" x1="40" y1="178.349" x2="780" y2="178.349"/><line class="prism-axis-domain" x1="40" y1="50" x2="40" y2="560"/><line class="prism-axis-tick" x1="40" y1="531.012" x2="37" y2="531.012"/><line class="prism-axis-tick" x1="40" y1="508.003" x2="37" y2="508.003"/><line class="prism-axis-tick" x1="40" y1="491.678" x2="37" y2="491.678"/><line class="prism-axis-tick" x1="40" y1="479.015" x2="37" y2="479.015"/><line class="prism-axis-tick" x1="40" y1="468.669" x2="37" y2="468.669"/><line class="prism-axis-tick" x1="40" y1="459.921" x2="37" y2="459.921"/><line class="prism-axis-tick" x1="40" y1="452.343" x2="37" y2="452.343"/><line class="prism-axis-tick" x1="40" y1="445.66" x2="37" y2="445.66"/><line class="prism-axis-tick" x1="40" y1="439.681" x2="35" y2="439.681"/><text class="prism-axis-label" x="32" y="443.681" text-anchor="end">100</text><line class="prism-axis-tick" x1="40" y1="400.346" x2="37" y2="400.346"/><line class="prism-axis-tick" x1="40" y1="377.337" x2="37" y2="377.337"/><line class="prism-axis-tick" x1="40" y1="361.012" x2="37" y2="361.012"/><line class="prism-axis-tick" x1="40" y1="348.349" x2="37" y2="348.349"/><line class="prism-axis-tick" x1="40" y1="338.003" x2="37" y2="338.003"/><line class="prism-axis-tick" x1="40" y1="329.255" x2="37" y2="329.255"/><line class="prism-axis-tick" x1="40" y1="321.678" x2="37" y2="321.678"/><line class="prism-axis-tick" x1="40" y1="314.994" x2="37" y2="314.994"/><line class="prism-axis-tick" x1="40" y1="309.015" x2="35" y2="309.015"/><line class="prism-axis-tick" x1="40" y1="269.681" x2="37" y2="269.681"/><line class="prism-axis-tick" x1="40" y1="246.671" x2="37" y2="246.671"/><line class="prism-axis-tick" x1="40" y1="230.346" x2="37" y2="230.346"/><line class="prism-axis-tick" x1="40" y1="217.683" x2="37" y2="217.683"/><line class="prism-axis-tick" x1="40" y1="207.337" x2="37" y2="207.337"/><line class="prism-axis-tick" x1="40" y1="198.59" x2="37" y2="198.59"/><line class="prism-axis-tick" x1="40" y1="191.012" x2="37" y2="191.012"/><line class="prism-axis-tick" x1="40" y1="184.328" x2="37" y2="184.328"/><line class="prism-axis-tick" x1="40" y1="178.349" x2="35" y2="178.349"/><text class="prism-axis-label" x="32" y="182.349" text-anchor="end">1e+04</text><line class="prism-axis-tick" x1="40" y1="139.015" x2="37" y2="139.015"/><line class="prism-axis-tick" x1="40" y1="116.006" x2="37" y2="116.006"/><line class="prism-axis-tick" x1="40" y1="99.681" x2="37" y2="99.681"/><line class="prism-axis-tick" x1="40" y1="87.018" x2="37" y2="87.018"/><line class="prism-axis-tick" x1="40" y1="76.671" x2="37" y2="76.671"/><line class="prism-axis-tick" x1="40" y1="67.924" x2="37" y2="67.924"/><line class="prism-axis-tick" x1="40" y1="60.346" x2="37" y2="60.346"/><line class="prism-axis-tick" x1="40" y1="53.662" x2="37" y2="53.662"/><text class="prism-axis-title" x="10" y="305" text-anchor="middle" transform="rotate(-90 10 305)">revenue</text></g>
    </g>
    <g class="prism-plot">
      <g class="prism-layer" data-layer-id="layer-0" data-prism-layer="layer-0">
        <rect class="prism-mark-bar" data-prism-id="bar-0" data-prism-datum-row="0" x="45.286" y="560" width="95.143" height="0" fill="#3b82f6"/>
        <rect class="prism-mark-bar" data-prism-id="bar-1" data-prism-datum-row="1" x="151" y="442.591" width="95.143" height="117.409" fill="#3b82f6"/>
        <rect class="prism-mark-bar" data-prism-id="bar-2" data-prism-datum-row="2" x="256.714" y="318.909" width="95.143" height="241.091" fill="#3b82f6"/>
        <rect class="prism-mark-bar" data-prism-id="bar-3" data-prism-datum-row="3" x="362.429" y="266.912" width="95.143" height="293.088" fill="#3b82f6"/>
        <rect class="prism-mark-bar" data-prism-id="bar-4" data-prism-datum-row="4" x="468.143" y="188.243" width="95.143" height="371.757" fill="#3b82f6"/>
        <rect class="prism-mark-bar" data-prism-id="bar-5" data-prism-datum-row="5" x="573.857" y="114.145" width="95.143" height="445.855" fill="#3b82f6"/>
        <rect class="prism-mark-bar" data-prism-id="bar-6" data-prism-datum-row="6" x="679.571" y="50" width="95.143" height="510" fill="#3b82f6"/>
      </g>
    </g>
  </g>
</svg>
