<svg xmlns="http://www.w3.org/2000/svg" viewBox="0 0 800 600">
  <style>:root{--prism-color-axis:#6b7280;--prism-color-grid:#e5e7eb;--prism-color-text:#111827;--prism-color-bg:transparent;--prism-font-sans:Inter, system-ui, sans-serif;--prism-font-mono:ui-monospace, SF Mono, monospace;--prism-font-size-label:11px;--prism-font-size-title:16px;--prism-font-size-axis-title:12px;}.prism-axis-domain{stroke:var(--prism-color-axis);fill:none;}.prism-axis-tick{stroke:var(--prism-color-axis);}.prism-axis-label{fill:var(--prism-color-text);font-family:var(--prism-font-sans);font-size:var(--prism-font-size-label,11px);}.prism-axis-title{fill:var(--prism-color-text);font-family:var(--prism-font-sans);font-size:var(--prism-font-size-axis-title,12px);font-weight:600;}.prism-grid-line{stroke:var(--prism-color-grid);}.prism-title{fill:var(--prism-color-text);font-family:var(--prism-font-sans);font-size:var(--prism-font-size-title,16px);font-weight:600;}.prism-legend-title{fill:var(--prism-color-text);font-family:var(--prism-font-sans);font-size:12px;font-weight:600;}.prism-legend-label{fill:var(--prism-color-text);font-family:var(--prism-font-sans);font-size:11px;}.prism-legend-swatch{stroke:none;}.prism-selected{opacity:var(--prism-selected-opacity,1);}.prism-deselected{opacity:var(--prism-deselected-opacity,0.3);}</style>

  <g class="prism-scene" data-scene-id="scene-0">
    <g class="prism-axes">
      <g class="prism-axis prism-axis-x" data-prism-axis-id="x-axis"><line class="prism-grid-line" x1="40" y1="20" x2="40" y2="560"/><line class="prism-grid-line" x1="166.74" y1="20" x2="166.74" y2="560"/><line class="prism-grid-line" x1="281.215" y1="20" x2="281.215" y2="560"/><line class="prism-grid-line" x1="407.956" y1="20" x2="407.956" y2="560"/><line class="prism-grid-line" x1="530.608" y1="20" x2="530.608" y2="560"/><line class="prism-grid-line" x1="657.348" y1="20" x2="657.348" y2="560"/><line class="prism-grid-line" x1="780" y1="20" x2="780" y2="560"/><line class="prism-axis-domain" x1="40" y1="560" x2="780" y2="560"/><line class="prism-axis-tick" x1="40" y1="560" x2="40" y2="565"/><text class="prism-axis-label" x="40" y="578" text-anchor="middle">2026-01</text><line class="prism-axis-tick" x1="166.74" y1="560" x2="166.74" y2="565"/><text class="prism-axis-label" x="166.74" y="578" text-anchor="middle">2026-02</text><line class="prism-axis-tick" x1="281.215" y1="560" x2="281.215" y2="565"/><text class="prism-axis-label" x="281.215" y="578" text-anchor="middle">2026-03</text><line class="prism-axis-tick" x1="407.956" y1="560" x2="407.956" y2="565"/><text class="prism-axis-label" x="407.956" y="578" text-anchor="middle">2026-04</text><line class="prism-axis-tick" x1="530.608" y1="560" x2="530.608" y2="565"/><text class="prism-axis-label" x="530.608" y="578" text-anchor="middle">2026-05</text><line class="prism-axis-tick" x1="657.348" y1="560" x2="657.348" y2="565"/><text class="prism-axis-label" x="657.348" y="578" text-anchor="middle">2026-06</text><line class="prism-axis-tick" x1="780" y1="560" x2="780" y2="565"/><text class="prism-axis-label" x="780" y="578" text-anchor="middle">2026-07</text><text class="prism-axis-title" x="410" y="594" text-anchor="middle">t</text></g>
      <g class="prism-axis prism-axis-y" data-prism-axis-id="y-axis"><line class="prism-grid-line" x1="40" y1="560" x2="780" y2="560"/><line class="prism-grid-line" x1="40" y1="452" x2="780" y2="452"/><line class="prism-grid-line" x1="40" y1="344" x2="780" y2="344"/><line class="prism-grid-line" x1="40" y1="236" x2="780" y2="236"/><line class="prism-grid-line" x1="40" y1="128" x2="780" y2="128"/><line class="prism-grid-line" x1="40" y1="20" x2="780" y2="20"/><line class="prism-axis-domain" x1="40" y1="20" x2="40" y2="560"/><line class="prism-axis-tick" x1="40" y1="560" x2="35" y2="560"/><text class="prism-axis-label" x="32" y="564" text-anchor="end">0</text><line class="prism-axis-tick" x1="40" y1="506" x2="37" y2="506"/><line class="prism-axis-tick" x1="40" y1="452" x2="35" y2="452"/><line class="prism-axis-tick" x1="40" y1="398" x2="37" y2="398"/><line class="prism-axis-tick" x1="40" y1="344" x2="35" y2="344"/><text class="prism-axis-label" x="32" y="348" text-anchor="end">4</text><line class="prism-axis-tick" x1="40" y1="290" x2="37" y2="290"/><line class="prism-axis-tick" x1="40" y1="236" x2="35" y2="236"/><line class="prism-axis-tick" x1="40" y1="182" x2="37" y2="182"/><line class="prism-axis-tick" x1="40" y1="128" x2="35" y2="128"/><text class="prism-axis-label" x="32" y="132" text-anchor="end">8</text><line class="prism-axis-tick" x1="40" y1="74" x2="37" y2="74"/><line class="prism-axis-tick" x1="40" y1="20" x2="35" y2="20"/><text class="prism-axis-title" x="10" y="290" text-anchor="middle" transform="rotate(-90 10 290)">y</text></g>
    </g>
    <g class="prism-plot">
      <g class="prism-layer" data-layer-id="layer-0" data-prism-layer="layer-0">
        <polyline class="prism-mark-line" data-prism-id="line-0" data-prism-datum-row="0" points="40,506 407.956,290 780,20" fill="none" stroke="#3b82f6" stroke-width="1.5"/>
      </g>
    </g>
  </g>
</svg>
