<svg xmlns="http://www.w3.org/2000/svg" viewBox="0 0 800 600">
  <style>:root{--prism-color-axis:#6b7280;--prism-color-grid:#e5e7eb;--prism-color-text:#111827;--prism-color-bg:transparent;--prism-font-sans:Inter, system-ui, sans-serif;--prism-font-mono:ui-monospace, SF Mono, monospace;--prism-font-size-label:11px;--prism-font-size-title:16px;--prism-font-size-axis-title:12px;}.prism-axis-domain{stroke:var(--prism-color-axis);fill:none;}.prism-axis-tick{stroke:var(--prism-color-axis);}.prism-axis-label{fill:var(--prism-color-text);font-family:var(--prism-font-sans);font-size:var(--prism-font-size-label,11px);}.prism-axis-title{fill:var(--prism-color-text);font-family:var(--prism-font-sans);font-size:var(--prism-font-size-axis-title,12px);font-weight:600;}.prism-grid-line{stroke:var(--prism-color-grid);}.prism-title{fill:var(--prism-color-text);font-family:var(--prism-font-sans);font-size:var(--prism-font-size-title,16px);font-weight:600;}.prism-legend-title{fill:var(--prism-color-text);font-family:var(--prism-font-sans);font-size:12px;font-weight:600;}.prism-legend-label{fill:var(--prism-color-text);font-family:var(--prism-font-sans);font-size:11px;}.prism-legend-swatch{stroke:none;}.prism-selected{opacity:var(--prism-selected-opacity,1);}.prism-deselected{opacity:var(--prism-deselected-opacity,0.3);}</style>

  <g class="prism-scene" data-scene-id="scene-0">
    <text class="prism-title" x="410" y="20" text-anchor="middle">Score distribution by group</text>
    <g class="prism-axes">
      <g class="prism-axis prism-axis-x" data-prism-axis-id="x-axis"><line class="prism-grid-line" x1="225" y1="50" x2="225" y2="560"/><line class="prism-grid-line" x1="595" y1="50" x2="595" y2="560"/><line class="prism-axis-domain" x1="40" y1="560" x2="780" y2="560"/><line class="prism-axis-tick" x1="225" y1="560" x2="225" y2="565"/><text class="prism-axis-label" x="225" y="578" text-anchor="middle">a</text><line class="prism-axis-tick" x1="595" y1="560" x2="595" y2="565"/><text class="prism-axis-label" x="595" y="578" text-anchor="middle">b</text><text class="prism-axis-title" x="410" y="594" text-anchor="middle">group</text></g>
      <g class="prism-axis prism-axis-y" data-prism-axis-id="y-axis"><line class="prism-grid-line" x1="40" y1="560" x2="780" y2="560"/><line class="prism-grid-line" x1="40" y1="446.667" x2="780" y2="446.667"/><line class="prism-grid-line" x1="40" y1="333.333" x2="780" y2="333.333"/><line class="prism-grid-line" x1="40" y1="220" x2="780" y2="220"/><line class="prism-grid-line" x1="40" y1="106.667" x2="780" y2="106.667"/><line class="prism-axis-domain" x1="40" y1="50" x2="40" y2="560"/><line class="prism-axis-tick" x1="40" y1="560" x2="35" y2="560"/><text class="prism-axis-label" x="32" y="564" text-anchor="end">0</text><line class="prism-axis-tick" x1="40" y1="503.333" x2="37" y2="503.333"/><line class="prism-axis-tick" x1="40" y1="446.667" x2="35" y2="446.667"/><line class="prism-axis-tick" x1="40" y1="390" x2="37" y2="390"/><line class="prism-axis-tick" x1="40" y1="333.333" x2="35" y2="333.333"/><text class="prism-axis-label" x="32" y="337.333" text-anchor="end">0.4</text><line class="prism-axis-tick" x1="40" y1="276.667" x2="37" y2="276.667"/><line class="prism-axis-tick" x1="40" y1="220" x2="35" y2="220"/><line class="prism-axis-tick" x1="40" y1="163.333" x2="37" y2="163.333"/><line class="prism-axis-tick" x1="40" y1="106.667" x2="35" y2="106.667"/><text class="prism-axis-label" x="32" y="110.667" text-anchor="end">0.8</text><text class="prism-axis-title" x="10" y="305" text-anchor="middle" transform="rotate(-90 10 305)">score</text></g>
    </g>
    <g class="prism-plot">
      <g class="prism-layer" data-layer-id="layer-0" data-prism-layer="layer-0">
        <rect class="prism-mark-bar" data-prism-id="boxplot-a-box" data-prism-datum-row="0" x="58.5" y="347.5" width="333" height="99.167" fill="#3b82f6"/>
        <line class="prism-mark-rule" data-prism-id="boxplot-a-median" data-prism-datum-row="1" x1="58.5" y1="390" x2="391.5" y2="390" fill="#3b82f6"/>
        <line class="prism-mark-rule" data-prism-id="boxplot-a-w-stem-hi" data-prism-datum-row="2" x1="225" y1="347.5" x2="225" y2="305" fill="#3b82f6"/>
        <line class="prism-mark-rule" data-prism-id="boxplot-a-w-stem-lo" data-prism-datum-row="3" x1="225" y1="446.667" x2="225" y2="503.333" fill="#3b82f6"/>
        <line class="prism-mark-rule" data-prism-id="boxplot-a-w-cap-hi" data-prism-datum-row="4" x1="141.75" y1="305" x2="308.25" y2="305" fill="#3b82f6"/>
        <line class="prism-mark-rule" data-prism-id="boxplot-a-w-cap-lo" data-prism-datum-row="5" x1="141.75" y1="503.333" x2="308.25" y2="503.333" fill="#3b82f6"/>
        <rect class="prism-mark-bar" data-prism-id="boxplot-b-box" x="428.5" y="106.667" width="333" height="113.333" fill="#3b82f6"/>
        <line class="prism-mark-rule" data-prism-id="boxplot-b-median" x1="428.5" y1="163.333" x2="761.5" y2="163.333" fill="#3b82f6"/>
        <line class="prism-mark-rule" data-prism-id="boxplot-b-w-stem-hi" x1="595" y1="106.667" x2="595" y2="50" fill="#3b82f6"/>
        <line class="prism-mark-rule" data-prism-id="boxplot-b-w-stem-lo" x1="595" y1="220" x2="595" y2="276.667" fill="#3b82f6"/>
        <line class="prism-mark-rule" data-prism-id="boxplot-b-w-cap-hi" x1="511.75" y1="50" x2="678.25" y2="50" fill="#3b82f6"/>
        <line class="prism-mark-rule" data-prism-id="boxplot-b-w-cap-lo" x1="511.75" y1="276.667" x2="678.25" y2="276.667" fill="#3b82f6"/>
      </g>
    </g>
  </g>
</svg>
