<svg xmlns="http://www.w3.org/2000/svg" viewBox="0 0 800 600" overflow="hidden">
  <style>:root{--prism-color-axis:#6b7280;--prism-color-grid:#e5e7eb;--prism-color-text:#111827;--prism-color-bg:transparent;--prism-font-sans:Inter, system-ui, sans-serif;--prism-font-mono:ui-monospace, SF Mono, monospace;--prism-font-size-label:11px;--prism-font-size-title:16px;--prism-font-size-axis-title:12px;}.prism-axis-domain{stroke:var(--prism-color-axis);fill:none;}.prism-axis-tick{stroke:var(--prism-color-axis);}.prism-axis-label{fill:var(--prism-color-text);font-family:var(--prism-font-sans);font-size:var(--prism-font-size-label,11px);}.prism-axis-title{fill:var(--prism-color-text);font-family:var(--prism-font-sans);font-size:var(--prism-font-size-axis-title,12px);font-weight:600;}.prism-grid-line{stroke:var(--prism-color-grid);}.prism-title{fill:var(--prism-color-text);font-family:var(--prism-font-sans);font-size:var(--prism-font-size-title,16px);font-weight:600;}.prism-legend-title{fill:var(--prism-color-text);font-family:var(--prism-font-sans);font-size:12px;font-weight:600;}.prism-legend-label{fill:var(--prism-color-text);font-family:var(--prism-font-sans);font-size:11px;}.prism-legend-swatch{stroke:none;}.prism-selected{opacity:var(--prism-selected-opacity,1);}.prism-deselected{opacity:var(--prism-deselected-opacity,0.3);}</style>

  <g class="prism-scene" data-scene-id="scene-0">
    <text class="prism-title" x="410" y="20" text-anchor="middle">Highlight bars matching a brush selection</text>
    <g class="prism-axes">
      <g class="prism-axis prism-axis-x" data-prism-axis-id="x-axis"><line class="prism-grid-line" x1="114" y1="50" x2="114" y2="560"/><line class="prism-grid-line" x1="262" y1="50" x2="262" y2="560"/><line class="prism-grid-line" x1="410" y1="50" x2="410" y2="560"/><line class="prism-grid-line" x1="558" y1="50" x2="558" y2="560"/><line class="prism-grid-line" x1="706" y1="50" x2="706" y2="560"/><line class="prism-axis-domain" x1="40" y1="560" x2="780" y2="560"/><line class="prism-axis-tick" x1="114" y1="560" x2="114" y2="565"/><text class="prism-axis-label" x="114" y="578" text-anchor="middle">west</text><line class="prism-axis-tick" x1="262" y1="560" x2="262" y2="565"/><text class="prism-axis-label" x="262" y="578" text-anchor="middle">east</text><line class="prism-axis-tick" x1="410" y1="560" x2="410" y2="565"/><text class="prism-axis-label" x="410" y="578" text-anchor="middle">north</text><line class="prism-axis-tick" x1="558" y1="560" x2="558" y2="565"/><text class="prism-axis-label" x="558" y="578" text-anchor="middle">south</text><line class="prism-axis-tick" x1="706" y1="560" x2="706" y2="565"/><text class="prism-axis-label" x="706" y="578" text-anchor="middle">central</text><text class="prism-axis-title" x="410" y="594" text-anchor="middle">region</text></g>
      <g class="prism-axis prism-axis-y" data-prism-axis-id="y-axis"><line class="prism-grid-line" x1="40" y1="560" x2="780" y2="560"/><line class="prism-grid-line" x1="40" y1="447.912" x2="780" y2="447.912"/><line class="prism-grid-line" x1="40" y1="335.824" x2="780" y2="335.824"/><line class="prism-grid-line" x1="40" y1="223.736" x2="780" y2="223.736"/><line class="prism-grid-line" x1="40" y1="111.648" x2="780" y2="111.648"/><line class="prism-axis-domain" x1="40" y1="50" x2="40" y2="560"/><line class="prism-axis-tick" x1="40" y1="560" x2="35" y2="560"/><text class="prism-axis-label" x="32" y="564" text-anchor="end">0</text><line class="prism-axis-tick" x1="40" y1="503.956" x2="37" y2="503.956"/><line class="prism-axis-tick" x1="40" y1="447.912" x2="35" y2="447.912"/><line class="prism-axis-tick" x1="40" y1="391.868" x2="37" y2="391.868"/><line class="prism-axis-tick" x1="40" y1="335.824" x2="35" y2="335.824"/><text class="prism-axis-label" x="32" y="339.824" text-anchor="end">0.4</text><line class="prism-axis-tick" x1="40" y1="279.78" x2="37" y2="279.78"/><line class="prism-axis-tick" x1="40" y1="223.736" x2="35" y2="223.736"/><line class="prism-axis-tick" x1="40" y1="167.692" x2="37" y2="167.692"/><line class="prism-axis-tick" x1="40" y1="111.648" x2="35" y2="111.648"/><text class="prism-axis-label" x="32" y="115.648" text-anchor="end">0.8</text><text class="prism-axis-title" x="10" y="305" text-anchor="middle" transform="rotate(-90 10 305)">score</text></g>
    </g>
    <g class="prism-plot">
      <g class="prism-layer" data-layer-id="layer-0" data-prism-layer="layer-0">
        <rect class="prism-mark-bar" data-prism-id="bar-0" data-prism-datum-row="0" x="47.4" y="324.615" width="133.2" height="235.385" fill="#3b82f6"/>
        <rect class="prism-mark-bar" data-prism-id="bar-1" data-prism-datum-row="1" x="195.4" y="50" width="133.2" height="510" fill="#3b82f6"/>
        <rect class="prism-mark-bar" data-prism-id="bar-2" data-prism-datum-row="2" x="343.4" y="178.901" width="133.2" height="381.099" fill="#3b82f6"/>
        <rect class="prism-mark-bar" data-prism-id="bar-3" data-prism-datum-row="3" x="491.4" y="251.758" width="133.2" height="308.242" fill="#3b82f6"/>
        <rect class="prism-mark-bar" data-prism-id="bar-4" data-prism-datum-row="4" x="639.4" y="150.879" width="133.2" height="409.121" fill="#3b82f6"/>
      </g>
    </g>
  </g>
</svg>
