<svg xmlns="http://www.w3.org/2000/svg" viewBox="0 0 800 600" width="800" height="600">
  <style>:root{--prism-color-axis:#6b7280;--prism-color-grid:#e5e7eb;--prism-color-text:#111827;--prism-color-bg:transparent;--prism-font-sans:Inter, system-ui, sans-serif;--prism-font-mono:ui-monospace, SF Mono, monospace;--prism-font-size-label:11px;--prism-font-size-title:16px;--prism-font-size-axis-title:12px;}.prism-axis-domain{stroke:var(--prism-color-axis);fill:none;}.prism-axis-tick{stroke:var(--prism-color-axis);}.prism-axis-label{fill:var(--prism-color-text);font-family:var(--prism-font-sans);font-size:var(--prism-font-size-label,11px);}.prism-axis-title{fill:var(--prism-color-text);font-family:var(--prism-font-sans);font-size:var(--prism-font-size-axis-title,12px);font-weight:600;}.prism-grid-line{stroke:var(--prism-color-grid);}.prism-title{fill:var(--prism-color-text);font-family:var(--prism-font-sans);font-size:var(--prism-font-size-title,16px);font-weight:600;}.prism-legend-title{fill:var(--prism-color-text);font-family:var(--prism-font-sans);font-size:12px;font-weight:600;}.prism-legend-label{fill:var(--prism-color-text);font-family:var(--prism-font-sans);font-size:11px;}.prism-legend-swatch{stroke:none;}.prism-selected{opacity:var(--prism-selected-opacity,1);}.prism-deselected{opacity:var(--prism-deselected-opacity,0.3);}</style>

  <g class="prism-scene" data-scene-id="scene-0">
    <text class="prism-title" x="410" y="20" text-anchor="middle">Brand detail (filtered by overview&#39;s brand_focus)</text>
    <g class="prism-axes">
      <g class="prism-axis prism-axis-x" data-prism-axis-id="x-axis"><line class="prism-grid-line" x1="40" y1="50" x2="40" y2="560"/><line class="prism-grid-line" x1="163.333" y1="50" x2="163.333" y2="560"/><line class="prism-grid-line" x1="286.667" y1="50" x2="286.667" y2="560"/><line class="prism-grid-line" x1="410" y1="50" x2="410" y2="560"/><line class="prism-grid-line" x1="533.333" y1="50" x2="533.333" y2="560"/><line class="prism-grid-line" x1="656.667" y1="50" x2="656.667" y2="560"/><line class="prism-grid-line" x1="780" y1="50" x2="780" y2="560"/><line class="prism-axis-domain" x1="40" y1="560" x2="780" y2="560"/><line class="prism-axis-tick" x1="40" y1="560" x2="40" y2="565"/><text class="prism-axis-label" x="40" y="578" text-anchor="middle">0</text><line class="prism-axis-tick" x1="101.667" y1="560" x2="101.667" y2="563"/><line class="prism-axis-tick" x1="163.333" y1="560" x2="163.333" y2="565"/><text class="prism-axis-label" x="163.333" y="578" text-anchor="middle">0.5</text><line class="prism-axis-tick" x1="225" y1="560" x2="225" y2="563"/><line class="prism-axis-tick" x1="286.667" y1="560" x2="286.667" y2="565"/><text class="prism-axis-label" x="286.667" y="578" text-anchor="middle">1</text><line class="prism-axis-tick" x1="348.333" y1="560" x2="348.333" y2="563"/><line class="prism-axis-tick" x1="410" y1="560" x2="410" y2="565"/><text class="prism-axis-label" x="410" y="578" text-anchor="middle">1.5</text><line class="prism-axis-tick" x1="471.667" y1="560" x2="471.667" y2="563"/><line class="prism-axis-tick" x1="533.333" y1="560" x2="533.333" y2="565"/><text class="prism-axis-label" x="533.333" y="578" text-anchor="middle">2</text><line class="prism-axis-tick" x1="595" y1="560" x2="595" y2="563"/><line class="prism-axis-tick" x1="656.667" y1="560" x2="656.667" y2="565"/><text class="prism-axis-label" x="656.667" y="578" text-anchor="middle">2.5</text><line class="prism-axis-tick" x1="718.333" y1="560" x2="718.333" y2="563"/><line class="prism-axis-tick" x1="780" y1="560" x2="780" y2="565"/><text class="prism-axis-label" x="780" y="578" text-anchor="middle">3</text><text class="prism-axis-title" x="410" y="594" text-anchor="middle">month</text></g>
      <g class="prism-axis prism-axis-y" data-prism-axis-id="y-axis"><line class="prism-grid-line" x1="40" y1="560" x2="780" y2="560"/><line class="prism-grid-line" x1="40" y1="416.338" x2="780" y2="416.338"/><line class="prism-grid-line" x1="40" y1="272.676" x2="780" y2="272.676"/><line class="prism-grid-line" x1="40" y1="129.014" x2="780" y2="129.014"/><line class="prism-axis-domain" x1="40" y1="50" x2="40" y2="560"/><line class="prism-axis-tick" x1="40" y1="560" x2="35" y2="560"/><text class="prism-axis-label" x="32" y="564" text-anchor="end">0</text><line class="prism-axis-tick" x1="40" y1="488.169" x2="37" y2="488.169"/><line class="prism-axis-tick" x1="40" y1="416.338" x2="35" y2="416.338"/><line class="prism-axis-tick" x1="40" y1="344.507" x2="37" y2="344.507"/><line class="prism-axis-tick" x1="40" y1="272.676" x2="35" y2="272.676"/><text class="prism-axis-label" x="32" y="276.676" text-anchor="end">0.4</text><line class="prism-axis-tick" x1="40" y1="200.845" x2="37" y2="200.845"/><line class="prism-axis-tick" x1="40" y1="129.014" x2="35" y2="129.014"/><text class="prism-axis-title" x="10" y="305" text-anchor="middle" transform="rotate(-90 10 305)">value</text></g>
    </g>
    <g class="prism-plot">
      <g class="prism-layer" data-layer-id="layer-0" data-prism-layer="layer-0">
        <circle class="prism-mark-point" data-prism-id="point-0" data-prism-datum-row="0" cx="286.667" cy="272.676" r="4" fill="#3b82f6"/>
        <circle class="prism-mark-point" data-prism-id="point-1" data-prism-datum-row="1" cx="533.333" cy="258.31" r="4" fill="#3b82f6"/>
        <circle class="prism-mark-point" data-prism-id="point-2" data-prism-datum-row="2" cx="780" cy="236.761" r="4" fill="#3b82f6"/>
        <circle class="prism-mark-point" data-prism-id="point-3" data-prism-datum-row="3" cx="286.667" cy="93.099" r="4" fill="#ef4444"/>
        <circle class="prism-mark-point" data-prism-id="point-4" data-prism-datum-row="4" cx="533.333" cy="71.549" r="4" fill="#ef4444"/>
        <circle class="prism-mark-point" data-prism-id="point-5" data-prism-datum-row="5" cx="780" cy="50" r="4" fill="#ef4444"/>
        <circle class="prism-mark-point" data-prism-id="point-6" data-prism-datum-row="6" cx="286.667" cy="164.93" r="4" fill="#10b981"/>
        <circle class="prism-mark-point" data-prism-id="point-7" data-prism-datum-row="7" cx="533.333" cy="157.746" r="4" fill="#10b981"/>
        <circle class="prism-mark-point" data-prism-id="point-8" data-prism-datum-row="8" cx="780" cy="143.38" r="4" fill="#10b981"/>
        <circle class="prism-mark-point" data-prism-id="point-9" data-prism-datum-row="9" cx="286.667" cy="344.507" r="4" fill="#f59e0b"/>
        <circle class="prism-mark-point" data-prism-id="point-10" data-prism-datum-row="10" cx="533.333" cy="330.141" r="4" fill="#f59e0b"/>
        <circle class="prism-mark-point" data-prism-id="point-11" data-prism-datum-row="11" cx="780" cy="315.775" r="4" fill="#f59e0b"/>
        <circle class="prism-mark-point" data-prism-id="point-12" data-prism-datum-row="12" cx="286.667" cy="114.648" r="4" fill="#8b5cf6"/>
        <circle class="prism-mark-point" data-prism-id="point-13" data-prism-datum-row="13" cx="533.333" cy="100.282" r="4" fill="#8b5cf6"/>
        <circle class="prism-mark-point" data-prism-id="point-14" data-prism-datum-row="14" cx="780" cy="85.915" r="4" fill="#8b5cf6"/>
      </g>
    </g>
    <g class="prism-legends"><g class="prism-legend prism-legend-color" data-prism-legend-id="legend-color"><text class="prism-legend-title" x="680" y="64">brand_id</text><rect class="prism-legend-swatch" x="680" y="76" width="12" height="12" fill="#3b82f6"/><text class="prism-legend-label" x="698" y="86">alpha</text><rect class="prism-legend-swatch" x="680" y="94" width="12" height="12" fill="#ef4444"/><text class="prism-legend-label" x="698" y="104">beta</text><rect class="prism-legend-swatch" x="680" y="112" width="12" height="12" fill="#10b981"/><text class="prism-legend-label" x="698" y="122">gamma</text><rect class="prism-legend-swatch" x="680" y="130" width="12" height="12" fill="#f59e0b"/><text class="prism-legend-label" x="698" y="140">delta</text><rect class="prism-legend-swatch" x="680" y="148" width="12" height="12" fill="#8b5cf6"/><text class="prism-legend-label" x="698" y="158">epsilon</text></g></g>
  </g>
</svg>
