<svg xmlns="http://www.w3.org/2000/svg" viewBox="0 0 800 600">
  <style>:root{--prism-color-axis:#6b7280;--prism-color-grid:#e5e7eb;--prism-color-text:#111827;--prism-color-bg:transparent;--prism-font-sans:Inter, system-ui, sans-serif;--prism-font-mono:ui-monospace, SF Mono, monospace;--prism-font-size-label:11px;--prism-font-size-title:16px;--prism-font-size-axis-title:12px;}.prism-axis-domain{stroke:var(--prism-color-axis);fill:none;}.prism-axis-tick{stroke:var(--prism-color-axis);}.prism-axis-label{fill:var(--prism-color-text);font-family:var(--prism-font-sans);font-size:var(--prism-font-size-label,11px);}.prism-axis-title{fill:var(--prism-color-text);font-family:var(--prism-font-sans);font-size:var(--prism-font-size-axis-title,12px);font-weight:600;}.prism-grid-line{stroke:var(--prism-color-grid);}.prism-title{fill:var(--prism-color-text);font-family:var(--prism-font-sans);font-size:var(--prism-font-size-title,16px);font-weight:600;}.prism-legend-title{fill:var(--prism-color-text);font-family:var(--prism-font-sans);font-size:12px;font-weight:600;}.prism-legend-label{fill:var(--prism-color-text);font-family:var(--prism-font-sans);font-size:11px;}.prism-legend-swatch{stroke:none;}.prism-selected{opacity:var(--prism-selected-opacity,1);}.prism-deselected{opacity:var(--prism-deselected-opacity,0.3);}</style>

  <g class="prism-scene" data-scene-id="scene-0">
    <text class="prism-title" x="410" y="20" text-anchor="middle">US states (admin-1)</text>
    <g class="prism-plot">
      <g class="prism-layer" data-layer-id="layer-0" data-prism-layer="layer-0">
        <path class="prism-mark-geoshape" data-prism-id="geoshape-0-0" data-prism-datum-row="0" d="M350.935,-9.13L350.891,-9.352L350.947,-9.669L351.18,-10.276L351.195,-10.413L351.199,-10.417L351.185,-10.556L351.291,-10.727L351.57,-10.995L351.624,-11.109L351.622,-11.117L351.606,-11.187L351.507,-11.261L351.097,-11.485L350.859,-11.687L350.587,-12.036L350.555,-12.355L350.495,-12.613L350.405,-12.809L350.294,-12.984L350.158,-13.137L350.034,-13.219L349.917,-13.231L349.834,-13.453L349.782,-13.882L349.853,-14.164L350.046,-14.298L350.149,-14.463L350.159,-14.662L350.103,-14.842L349.985,-15.007L349.821,-15.078L349.512,-15.047L349.512,-15.047L349.498,-15.069L349.244,-15.045L348.608,-14.977L347.972,-14.903L347.334,-14.83L346.698,-14.753L346.063,-14.674L345.427,-14.596L344.792,-14.513L344.156,-14.43L344.156,-14.411L344.205,-14.123L344.126,-13.998L343.984,-14.032L344.007,-13.647L344.08,-13.479L344.104,-13.303L344.078,-12.855L343.876,-12.273L343.33,-11.478L343.031,-11.182L342.817,-10.85L342.662,-10.734L342.449,-10.661L342.355,-10.768L342.127,-10.625L342.235,-10.337L342.094,-9.864L341.907,-9.769L341.405,-9.677L340.798,-9.284L340.637,-9.1L340.629,-8.841L340.374,-8.55L340.02,-8.242L339.782,-8.231L339.494,-8.125L339.11,-7.868L338.869,-7.786L338.382,-7.703L338.211,-7.625L338.094,-7.394L337.94,-7.253L338.039,-7.032L338.071,-6.819L338.141,-6.662L338.156,-6.286L338.304,-5.972L338.284,-5.839L338.208,-5.719L337.932,-5.5L337.919,-5.316L338.033,-5.097L337.992,-4.919L337.775,-4.705L337.625,-4.313L337.372,-4.052L337.33,-3.718L337.195,-3.481L337.176,-3.3L336.929,-2.599L336.62,-2.019L336.626,-1.736L336.708,-1.371L336.941,-1.199L337.087,-1.03L337.126,-0.849L337.138,-0.712L337.051,-0.443L336.515,-0.147L336.207,0.547L336.302,0.981L336.245,1.473L336.324,1.758L336.384,2.074L336.539,2.102L336.657,2.043L336.61,1.922L336.587,1.691L336.685,1.484L336.803,1.373L336.884,1.176L336.965,1.101L337.058,1.06L337.035,1.179L337,1.261L336.991,1.493L336.94,1.803L336.834,1.995L336.839,2.293L336.792,2.374L336.782,2.488L336.958,2.567L337.176,2.6L337.443,2.55L338.171,2.302L338.349,2.328L338.472,2.269L338.571,2.253L338.389,2.381L338.271,2.388L338.14,2.439L337.873,2.499L337.775,2.56L337.681,2.678L337.606,2.711L337.321,2.629L337.218,2.678L337.007,2.914L336.901,2.969L336.693,2.928L336.557,2.533L336.527,2.217L336.41,2.217L336.319,2.377L336.146,2.506L336.021,2.665L335.856,2.937L335.76,3.046L335.576,2.914L335.595,2.993L335.72,3.175L335.798,3.517L335.92,3.19L335.914,3.399L335.817,3.651L335.721,3.757L335.681,4.172L335.413,4.495L335.253,4.935L334.887,5.693L335.007,6.229L335.011,6.949L335.206,7.303L335.275,7.574L335.302,8.007L335.269,8.256L335.016,8.989L334.725,9.519L334.755,9.845L334.821,10.162L334.996,10.409L335.163,10.675L335.244,10.731L335.257,10.694L335.221,10.637L335.274,10.599L335.336,10.72L335.391,10.776L335.332,10.803L335.351,10.842L335.411,10.91L335.655,11.251L335.788,11.733L336.101,12.277L336.154,12.474L336.194,12.917L336.185,13.191L336.085,13.416L336.232,13.654L336.301,13.902L336.284,13.952L336.795,13.797L337.292,13.647L337.789,13.499L338.284,13.352L338.782,13.207L339.28,13.062L339.777,12.92L340.276,12.779L340.775,12.639L341.273,12.501L341.774,12.363L342.274,12.228L342.773,12.094L343.275,11.961L343.776,11.829L344.276,11.699L344.15,11.211L344.025,10.725L343.899,10.237L343.774,9.751L343.648,9.262L343.521,8.773L343.396,8.287L343.272,7.798L343.146,7.311L343.02,6.822L342.894,6.336L342.768,5.847L342.643,5.36L342.516,4.871L342.391,4.384L342.265,3.894L342.621,3.351L342.978,2.805L343.341,2.262L343.704,1.717L344.07,1.176L344.437,0.632L344.809,0.092L345.181,-0.45L345.469,-0.897L345.757,-1.345L346.049,-1.794L346.34,-2.241L346.633,-2.689L346.93,-3.134L347.226,-3.58L347.524,-4.026L347.936,-4.661L348.351,-5.296L348.769,-5.932L349.19,-6.565L349.614,-7.197L350.042,-7.827L350.473,-8.457L350.935,-9.13Z" fill-rule="evenodd" fill="#cbd5e1" stroke="#ffffff" stroke-width="0.5"/>
        <path class="prism-mark-geoshape" data-prism-id="geoshape-0-1" data-prism-datum-row="1" d="M339.211,-8.972L339.608,-9.217L339.858,-9.211L339.884,-9.287L339.842,-9.335L339.29,-9.302L339.146,-9.191L339.158,-9.091L339.127,-8.983L339.211,-8.972Z" fill-rule="evenodd" fill="#cbd5e1" stroke="#ffffff" stroke-width="0.5"/>
        <path class="prism-mark-geoshape" data-prism-id="geoshape-0-2" data-prism-datum-row="2" d="M338.274,-8.881L338.159,-8.86L337.993,-8.786L338.07,-8.742L338.177,-8.723L338.201,-8.762L338.274,-8.881Z" fill-rule="evenodd" fill="#cbd5e1" stroke="#ffffff" stroke-width="0.5"/>
        <path class="prism-mark-geoshape" data-prism-id="geoshape-0-3" data-prism-datum-row="3" d="M338.76,-9.302L338.602,-9.3L338.498,-9.237L338.383,-8.94L338.773,-9.006L338.91,-9.158L338.924,-9.194L338.76,-9.302Z" fill-rule="evenodd" fill="#cbd5e1" stroke="#ffffff" stroke-width="0.5"/>
        <path class="prism-mark-geoshape" data-prism-id="geoshape-0-4" d="M342.036,-11.59L342.1,-11.81L341.948,-11.749L341.783,-11.72L341.758,-11.604L341.744,-11.446L341.721,-11.402L341.612,-11.362L341.607,-11.346L341.611,-11.273L341.649,-11.246L341.96,-11.492L342.036,-11.59Z" fill-rule="evenodd" fill="#cbd5e1" stroke="#ffffff" stroke-width="0.5"/>
        <path class="prism-mark-geoshape" data-prism-id="geoshape-0-5" d="M339.588,-11.456L339.493,-11.437L339.366,-11.377L339.335,-11.223L339.444,-11.24L339.538,-11.283L339.59,-11.414L339.588,-11.456Z" fill-rule="evenodd" fill="#cbd5e1" stroke="#ffffff" stroke-width="0.5"/>
        <path class="prism-mark-geoshape" data-prism-id="geoshape-0-6" d="M341.684,-13.044L341.55,-13.036L341.425,-12.951L341.365,-12.669L341.28,-12.442L341.365,-12.402L341.427,-12.618L341.625,-12.972L341.684,-13.044Z" fill-rule="evenodd" fill="#cbd5e1" stroke="#ffffff" stroke-width="0.5"/>
        <path class="prism-mark-geoshape" data-prism-id="geoshape-1-0" d="M422.434,9.917L422.989,10.318L423.464,10.669L423.701,10.856L423.858,11.053L423.883,11.18L423.859,11.246L423.799,11.306L423.722,11.347L423.656,11.378L423.619,11.426L423.592,11.544L423.544,11.603L423.501,11.647L423.433,12.102L423.362,12.234L423.129,12.562L423.422,12.777L423.69,12.978L423.908,13.132L424.399,13.242L424.858,13.326L425.491,13.444L426.023,13.545L426.645,13.663L427.01,13.736L427.485,13.838L427.634,14.294L427.765,14.701L427.918,15.098L428.235,15.591L428.337,15.689L428.368,15.864L428.578,16.07L428.815,16.268L428.892,16.424L428.926,16.511L429.492,17.385L429.827,17.806L430.122,18.066L430.357,18.212L430.534,18.239L430.628,18.274L430.713,18.293L431.14,18.391L431.901,18.571L432.662,18.752L433.111,18.861L433.166,18.693L433.177,18.479L433.262,18.266L433.331,17.794L433.532,17.467L433.562,17.221L433.632,16.966L433.627,16.899L433.573,16.727L433.555,16.568L433.56,16.416L433.585,16.32L433.765,15.918L433.825,15.735L433.85,15.625L433.866,15.26L433.884,15.16L433.911,15.136L433.937,15.143L433.99,15.268L434.021,15.295L434.073,15.277L434.223,15.14L434.289,14.845L434.336,14.628L434.39,14.388L434.47,14.03L434.528,13.766L434.581,13.525L434.622,13.342L434.63,13.201L434.72,13.055L434.713,12.821L434.705,12.588L434.698,12.355L434.692,12.122L434.684,11.888L434.676,11.654L434.668,11.421L434.662,11.188L434.727,11.137L434.771,10.886L434.816,10.634L434.86,10.383L434.905,10.131L434.949,9.88L434.993,9.628L435.038,9.377L435.082,9.125L435.166,9.038L435.248,8.953L435.186,8.888L435.092,8.788L434.991,8.681L434.858,8.544L434.968,8.433L435.108,8.292L435.045,8.205L434.89,7.926L434.78,7.77L434.672,7.703L434.626,7.584L434.565,7.498L434.584,7.745L434.621,7.955L434.6,8.345L434.509,8.643L434.397,8.747L434.29,8.81L434.461,8.536L434.565,8.174L434.565,8.163L434.351,8.237L434.131,8.312L433.911,8.387L433.692,8.463L433.473,8.536L433.253,8.612L433.034,8.688L432.816,8.762L432.753,8.853L432.664,8.912L432.29,8.965L432.182,9.034L432.074,9.134L431.988,9.266L431.924,9.414L431.895,9.534L431.89,9.675L431.791,9.747L431.77,9.833L431.708,9.877L431.46,9.929L431.361,10.058L431.184,10.159L430.919,10.1L430.653,10.045L430.388,9.988L430.123,9.931L429.858,9.874L429.593,9.817L429.33,9.762L429.064,9.706L428.799,9.651L428.533,9.596L428.268,9.542L428.002,9.488L427.736,9.434L427.472,9.384L427.206,9.331L426.94,9.279L426.674,9.227L426.408,9.175L426.141,9.124L425.875,9.073L425.611,9.023L425.344,8.972L425.078,8.923L424.811,8.873L424.544,8.824L424.278,8.776L424.01,8.73L423.743,8.682L423.478,8.635L423.211,8.588L422.944,8.541L422.677,8.495L422.616,8.852L422.555,9.206L422.493,9.562L422.434,9.917Z" fill-rule="evenodd" fill="#cbd5e1" stroke="#ffffff" stroke-width="0.5"/>
        <path class="prism-mark-geoshape" data-prism-id="geoshape-1-1" d="M437.28,8.81L437.185,8.606L437.313,8.622L437.409,8.699L437.484,8.823L437.686,9.018L437.869,9.129L437.93,9.156L438.049,9.086L438.218,9.21L438.402,9.305L437.671,8.654L437.512,8.561L437.296,8.371L437.086,8.222L436.926,8.145L436.169,7.615L436.102,7.593L436.022,7.607L435.371,7.273L435.091,7.187L434.845,7.067L435.007,7.247L434.999,7.297L434.943,7.325L434.844,7.291L434.771,7.127L434.615,7.041L434.546,7.184L434.575,7.313L434.623,7.44L434.749,7.655L434.96,7.821L435.058,7.944L435.162,7.88L435.153,7.996L435.201,8.077L435.262,8.13L435.431,8.171L435.516,8.211L435.573,8.263L435.637,8.287L435.833,8.28L436.008,8.339L436.136,8.445L436.279,8.505L436.672,8.619L437.054,8.77L437.187,8.9L437.452,9.241L437.625,9.36L437.405,8.989L437.28,8.81Z" fill-rule="evenodd" fill="#cbd5e1" stroke="#ffffff" stroke-width="0.5"/>
        <path class="prism-mark-geoshape" data-prism-id="geoshape-1-2" d="M434.313,6.81L434.221,6.777L434.256,7.05L434.402,7.203L434.468,7.194L434.492,7.106L434.485,7.024L434.397,6.882L434.313,6.81Z" fill-rule="evenodd" fill="#cbd5e1" stroke="#ffffff" stroke-width="0.5"/>
        <path class="prism-mark-geoshape" data-prism-id="geoshape-2-0" d="M394.268,-16.636L394.384,-16.763L394.477,-16.799L394.505,-16.852L394.549,-16.865L394.604,-16.853L394.686,-16.793L394.812,-16.807L394.913,-16.783L395.119,-16.812L395.234,-16.871L395.244,-17.233L395.256,-17.597L395.266,-17.959L395.278,-18.323L395.282,-18.663L395.289,-19.001L395.296,-19.341L395.303,-19.678L395.308,-20.018L395.315,-20.358L395.322,-20.695L395.329,-21.035L395.646,-21.355L395.784,-21.576L395.83,-21.69L395.852,-22.08L395.886,-22.173L396.045,-22.317L396.052,-22.413L396.222,-22.692L396.22,-22.823L396.384,-23.121L396.475,-23.199L396.496,-23.401L396.545,-23.555L396.476,-23.666L396.511,-23.818L396.469,-23.96L396.451,-24.15L396.354,-24.447L396.266,-24.59L396.147,-24.868L396.164,-25.095L396.097,-25.345L396.092,-25.438L396.162,-25.602L396.196,-26.054L396.162,-26.151L396.014,-26.421L395.905,-26.416L395.673,-26.861L395.817,-27.103L395.81,-27.194L395.325,-27.254L394.237,-27.766L393.809,-28.041L393.831,-27.95L394.345,-27.597L394.161,-27.546L393.866,-27.638L393.762,-27.605L393.883,-27.318L393.838,-27.066L393.63,-27.061L393.498,-27.265L393.406,-27.258L393.284,-27.171L393.19,-27.202L393.264,-27.656L393.398,-27.844L393.512,-28.079L393.214,-28.381L392.935,-28.626L392.907,-28.863L392.625,-29.171L392.36,-29.348L391.736,-29.758L391.558,-29.846L391.276,-30.038L390.885,-30.18L390.507,-30.405L390.38,-30.439L390.622,-30.248L390.906,-30.06L390.662,-30.086L390.288,-29.998L390.058,-29.992L390.056,-30.061L389.879,-30.158L389.7,-30.014L389.621,-29.918L389.584,-29.833L389.507,-29.814L389.434,-29.85L389.7,-30.437L389.817,-30.464L389.943,-30.523L389.783,-30.657L389.611,-30.76L389.343,-30.827L389.114,-30.61L389.063,-30.878L389.032,-31.146L388.954,-31.215L388.831,-31.309L388.766,-31.237L388.736,-31.133L388.655,-31.222L388.541,-31.293L388.35,-31.304L388.209,-31.339L388.21,-31.448L388.241,-31.56L388.495,-31.475L388.399,-31.761L388.165,-32.039L387.972,-32.106L387.685,-32.059L387.613,-32.088L387.546,-32.145L387.878,-32.59L387.653,-33.255L387.509,-33.494L387.411,-33.521L387.307,-33.527L386.935,-33.307L386.733,-33.139L386.906,-33.592L387.396,-33.733L387.417,-33.903L387.413,-34.048L387.312,-34.219L387.218,-34.445L387.285,-34.602L387.355,-34.995L387.419,-35.175L387.485,-35.721L387.561,-35.957L388.002,-36.832L388.156,-36.842L388.179,-36.934L388.163,-37.116L387.833,-37.162L387.694,-37.242L387.667,-37.31L387.647,-37.347L387.603,-37.344L387.449,-37.291L387.098,-37.04L386.584,-36.878L385.905,-36.806L385.445,-36.672L385.201,-36.478L384.944,-36.358L384.675,-36.316L384.454,-36.21L384.281,-36.036L384.024,-35.92L383.685,-35.862L383.465,-35.728L383.322,-35.414L383.322,-35.408L383.201,-34.886L383.04,-34.555L382.715,-34.141L382.686,-34.087L382.686,-34.087L382.686,-34.021L382.737,-33.79L382.708,-33.619L382.606,-33.477L382.587,-33.334L382.65,-33.182L382.661,-33L382.619,-32.783L382.415,-32.542L382.048,-32.279L381.741,-31.903L381.5,-31.412L381.252,-31.07L381.004,-30.873L380.838,-30.639L380.756,-30.37L380.735,-30.215L380.775,-30.171L380.631,-29.869L380.305,-29.303L380.124,-28.89L380.082,-28.632L379.874,-28.318L379.5,-27.947L379.299,-27.708L379.254,-27.548L379.254,-27.548L378.666,-27.052L378.507,-26.752L378.374,-26.654L378.214,-26.655L378.132,-26.621L378.134,-26.557L378.081,-26.551L377.978,-26.604L377.655,-26.598L377.106,-26.527L376.715,-26.424L376.479,-26.286L376.308,-26.291L376.198,-26.438L375.984,-26.525L375.66,-26.548L375.366,-26.816L375.097,-27.331L374.97,-27.666L374.987,-27.819L374.919,-27.926L374.763,-27.984L374.598,-28.127L374.425,-28.354L374.235,-28.457L374.026,-28.433L373.657,-28.218L373.127,-27.813L372.707,-27.554L372.397,-27.443L372.131,-27.252L371.91,-26.982L371.703,-26.798L371.505,-26.695L371.292,-26.398L371.063,-25.906L370.961,-25.53L370.996,-25.151L370.718,-24.284L370.565,-23.908L370.442,-23.727L370.19,-23.502L369.808,-23.235L369.315,-22.719L368.709,-21.959L368.277,-21.492L368.013,-21.321L367.797,-21.045L367.632,-20.667L367.457,-20.419L367.438,-20.406L367.182,-20.238L367.182,-20.238L367.008,-19.731L367.022,-19.732L367.524,-19.788L368.025,-19.843L368.528,-19.894L369.031,-19.946L369.534,-19.998L370.037,-20.048L370.538,-20.096L371.041,-20.144L371.545,-20.191L372.048,-20.236L372.55,-20.28L373.053,-20.323L373.557,-20.364L374.062,-20.402L374.566,-20.442L375.068,-20.48L375.128,-19.73L375.186,-18.98L375.246,-18.23L375.304,-17.479L375.365,-16.728L375.423,-15.977L375.483,-15.223L375.541,-14.471L375.602,-13.72L375.66,-12.967L375.72,-12.215L375.778,-11.463L375.836,-10.71L375.896,-9.957L375.954,-9.204L376.015,-8.449L376.103,-8.455L376.499,-8.484L376.894,-8.512L377.292,-8.54L377.688,-8.566L378.085,-8.592L378.481,-8.617L378.877,-8.641L379.275,-8.664L379.671,-8.687L380.066,-8.709L380.464,-8.73L380.86,-8.75L381.256,-8.769L381.655,-8.788L382.051,-8.806L382.449,-8.823L382.435,-9.145L382.422,-9.465L382.408,-9.787L382.395,-10.109L382.383,-10.429L382.37,-10.751L382.356,-11.073L382.343,-11.393L382.329,-11.715L382.316,-12.034L382.304,-12.356L382.291,-12.678L382.277,-12.998L382.264,-13.32L382.25,-13.641L382.239,-13.961L382.364,-13.995L382.521,-14.091L382.901,-14.447L383.016,-14.526L383.227,-14.489L383.452,-14.54L383.511,-14.534L383.56,-14.388L383.582,-14.359L383.615,-14.366L383.806,-14.504L383.842,-14.556L383.951,-14.748L383.972,-14.972L384.034,-15.006L384.155,-15.037L384.445,-15.057L384.812,-15.213L384.962,-15.239L385.23,-15.209L385.474,-15.409L385.561,-15.44L385.636,-15.415L385.78,-15.274L386.09,-15.3L386.342,-15.279L386.358,-15.443L386.401,-15.562L386.607,-15.69L386.656,-15.753L386.663,-15.951L386.714,-16.004L386.799,-16.024L386.89,-16.012L386.994,-15.953L387.223,-15.761L387.294,-15.714L387.336,-15.709L387.377,-15.721L387.412,-15.764L387.486,-15.916L387.68,-15.999L387.792,-16.127L387.862,-16.15L387.937,-16.127L388.061,-16.051L388.155,-16.055L388.266,-15.978L388.31,-15.995L388.329,-16.051L388.294,-16.217L388.313,-16.279L388.356,-16.355L388.414,-16.407L388.471,-16.415L388.516,-16.376L388.602,-16.165L388.596,-16.089L388.689,-16.064L388.733,-16.024L388.787,-15.874L388.884,-15.835L388.934,-15.843L388.98,-15.884L389.071,-16.024L389.294,-16.104L389.351,-16.107L389.408,-16.078L389.508,-15.966L389.561,-15.953L389.602,-15.967L389.626,-15.986L389.632,-16.12L389.862,-16.274L390.028,-16.32L390.19,-16.474L390.239,-16.493L390.318,-16.367L390.477,-16.325L390.626,-16.196L391.059,-16.033L391.232,-16.086L391.405,-16.081L391.451,-16.011L391.758,-15.905L391.822,-15.865L391.905,-15.915L391.936,-15.99L391.978,-16.019L392.189,-16.056L392.305,-16.052L392.519,-15.952L392.602,-15.83L392.65,-15.822L392.804,-15.879L393.21,-16.128L393.417,-16.326L393.644,-16.42L393.771,-16.507L394.268,-16.636Z" fill-rule="evenodd" fill="#cbd5e1" stroke="#ffffff" stroke-width="0.5"/>
        <path class="prism-mark-geoshape" data-prism-id="geoshape-2-1" d="M393.166,-28.682L393.05,-28.71L393.552,-28.295L393.657,-28.158L393.792,-28.161L393.569,-28.393L393.166,-28.682Z" fill-rule="evenodd" fill="#cbd5e1" stroke="#ffffff" stroke-width="0.5"/>
        <path class="prism-mark-geoshape" data-prism-id="geoshape-2-2" d="M389.132,-31.325L389.045,-31.337L389.152,-31.195L389.327,-31.122L389.712,-30.851L389.867,-30.83L389.947,-30.738L389.982,-30.722L389.961,-30.839L389.652,-31.002L389.132,-31.325Z" fill-rule="evenodd" fill="#cbd5e1" stroke="#ffffff" stroke-width="0.5"/>
        <path class="prism-mark-geoshape" data-prism-id="geoshape-2-3" d="M388.536,-31.985L388.484,-31.993L388.6,-31.776L388.622,-31.689L388.813,-31.418L388.913,-31.376L388.952,-31.493L388.759,-31.685L388.536,-31.985Z" fill-rule="evenodd" fill="#cbd5e1" stroke="#ffffff" stroke-width="0.5"/>
        <path class="prism-mark-geoshape" data-prism-id="geoshape-2-4" d="M387.71,-33.571L387.634,-33.721L387.659,-33.496L387.859,-32.982L388.258,-32.308L388.423,-32.196L387.964,-32.936L387.71,-33.571Z" fill-rule="evenodd" fill="#cbd5e1" stroke="#ffffff" stroke-width="0.5"/>
        <path class="prism-mark-geoshape" data-prism-id="geoshape-2-5" d="M388.109,-36.593L388.073,-36.714L387.883,-36.139L387.578,-34.837L387.577,-34.098L387.63,-33.842L387.699,-34.891L388.039,-36.22L388.109,-36.593Z" fill-rule="evenodd" fill="#cbd5e1" stroke="#ffffff" stroke-width="0.5"/>
        <path class="prism-mark-geoshape" data-prism-id="geoshape-3-0" d="M410.417,-24.538L410.432,-24.446L410.505,-24.356L410.533,-24.26L410.505,-24.08L410.541,-23.822L410.502,-23.743L410.145,-23.443L410.05,-23.277L410.02,-23.097L410.033,-22.903L410.767,-22.837L411.499,-22.768L412.23,-22.697L412.964,-22.623L413.695,-22.547L414.428,-22.468L415.158,-22.387L415.888,-22.301L416.005,-22.499L416.235,-22.913L416.254,-23.013L416.469,-23.004L416.832,-22.985L417.196,-22.968L417.561,-22.947L417.925,-22.926L418.291,-22.907L418.654,-22.885L419.018,-22.862L419.384,-22.841L419.747,-22.816L420.113,-22.791L420.476,-22.769L420.842,-22.742L421.206,-22.716L421.569,-22.691L421.935,-22.663L422.298,-22.635L422.313,-22.722L422.392,-22.85L422.431,-23.004L422.469,-23.076L422.546,-23.111L422.664,-23.107L422.764,-23.001L422.808,-22.797L422.794,-22.578L422.715,-22.339L422.691,-22.129L422.729,-22L422.793,-21.961L422.841,-21.886L422.886,-21.863L423.018,-21.881L423.512,-21.985L423.897,-21.95L424.039,-22.171L424.351,-23.125L424.515,-23.447L424.856,-24.33L425.327,-25.165L425.967,-26.16L426.953,-27.33L427.075,-27.499L426.999,-27.673L426.995,-27.837L427.026,-28.083L427.093,-28.317L427.233,-28.592L427.483,-29.005L427.369,-28.935L427.008,-28.338L426.917,-27.971L426.867,-27.433L426.809,-27.456L426.789,-27.637L426.796,-27.843L426.744,-27.932L426.603,-27.638L426.588,-27.497L426.656,-27.317L426.619,-27.264L426.453,-27.204L426.399,-27.079L426.399,-26.947L426.3,-26.89L426.233,-26.903L426.331,-27.216L426.435,-27.401L426.599,-27.859L426.791,-28.121L426.914,-28.346L428.325,-30.73L428.615,-31.014L428.741,-31.231L428.915,-31.701L429.042,-32.32L429.068,-33.487L429.163,-34.268L429.135,-34.248L429.105,-34.171L429.065,-34.167L428.981,-34.544L428.839,-34.897L428.857,-35.407L428.805,-35.672L428.565,-35.981L428.389,-36.005L427.99,-36.272L427.681,-36.269L427.338,-36.438L427.099,-36.463L426.925,-36.248L426.928,-36.141L426.966,-36.025L427.054,-35.987L427.413,-36.184L427.457,-36.07L427.341,-35.961L427.145,-35.922L426.998,-35.868L426.636,-35.349L426.293,-35.005L426.205,-34.755L425.695,-34.671L425.305,-34.487L425.015,-34.096L424.768,-33.361L424.603,-33.3L424.528,-33.25L424.636,-32.948L424.759,-32.689L424.642,-32.765L424.563,-32.868L424.478,-33.092L424.397,-33.136L424.312,-33.117L424.163,-32.732L424.116,-32.237L424.217,-32.035L424.02,-32.061L423.829,-32.159L423.882,-32.319L423.866,-32.413L423.716,-32.41L423.597,-32.369L423.421,-32.221L423.168,-31.926L422.619,-31.092L422.519,-30.978L422.359,-30.864L422.419,-30.815L422.535,-30.772L422.748,-30.332L422.924,-30.058L422.97,-29.88L422.948,-29.808L422.839,-29.716L422.731,-29.826L422.673,-29.807L422.505,-29.617L422.366,-29.575L422.281,-29.632L422.401,-29.792L422.497,-29.846L422.5,-30.102L422.477,-30.189L422.405,-30.274L422.273,-30.252L422.216,-30.324L422.132,-30.269L422.039,-30.167L421.929,-29.998L422.007,-28.939L422.12,-28.256L422.037,-27.505L422.038,-27.392L421.994,-27.197L421.66,-26.801L420.316,-25.911L419.224,-24.782L418.364,-24.414L417.77,-24.593L417.676,-24.701L417.648,-24.831L417.702,-24.967L417.654,-25.032L417.491,-25.044L417.275,-25.102L416.739,-25.502L416.536,-25.512L416.362,-25.621L416.232,-25.701L415.875,-25.777L415.578,-25.885L415.443,-25.86L415.334,-25.677L415.312,-25.481L415.4,-25.624L415.521,-25.731L415.564,-25.678L415.571,-25.57L415.44,-25.375L415.066,-25.149L414.63,-24.805L414.753,-24.805L414.773,-24.72L414.64,-24.625L414.677,-24.492L414.747,-24.35L414.585,-24.389L414.446,-24.498L414.454,-24.613L414.434,-24.706L414.353,-24.701L414.192,-24.606L413.431,-24.367L412.776,-24.257L413.256,-24.128L413.527,-24.161L413.485,-24.069L413.415,-24.017L413.2,-23.962L412.936,-24.018L412.764,-23.998L412.601,-24.092L412.423,-24.223L412.26,-24.298L411.611,-24.444L411.087,-24.581L411.163,-24.481L411.248,-24.411L411.555,-24.291L411.585,-24.098L411.492,-23.924L411.414,-23.975L411.341,-24.126L411.224,-24.033L411.106,-24.044L411.095,-24.273L410.958,-24.438L410.904,-24.598L410.469,-24.758L410.409,-24.724L410.526,-24.566L410.509,-24.487L410.417,-24.538Z" fill-rule="evenodd" fill="#cbd5e1" stroke="#ffffff" stroke-width="0.5"/>
        <path class="prism-mark-geoshape" data-prism-id="geoshape-3-1" d="M416.534,-25.875L416.315,-25.997L416.057,-25.957L416.211,-25.926L416.325,-25.942L416.594,-25.771L416.731,-25.65L416.899,-25.593L416.534,-25.875Z" fill-rule="evenodd" fill="#cbd5e1" stroke="#ffffff" stroke-width="0.5"/>
        <path class="prism-mark-geoshape" data-prism-id="geoshape-3-2" d="M428.386,-30.529L428.455,-30.713L428.167,-30.302L427.784,-29.649L427.551,-29.128L427.671,-29.259L427.815,-29.547L428.386,-30.529Z" fill-rule="evenodd" fill="#cbd5e1" stroke="#ffffff" stroke-width="0.5"/>
        <path class="prism-mark-geoshape" data-prism-id="geoshape-3-3" d="M424.207,-33.132L424.227,-33.284L424.068,-33.046L423.948,-32.772L424.075,-32.847L424.207,-33.132Z" fill-rule="evenodd" fill="#cbd5e1" stroke="#ffffff" stroke-width="0.5"/>
        <path class="prism-mark-geoshape" data-prism-id="geoshape-3-4" d="M424.357,-33.372L424.281,-33.452L424.103,-33.428L423.997,-33.353L423.931,-33.183L424.105,-33.347L424.166,-33.381L424.357,-33.372Z" fill-rule="evenodd" fill="#cbd5e1" stroke="#ffffff" stroke-width="0.5"/>
        <path class="prism-mark-geoshape" data-prism-id="geoshape-3-5" d="M428.851,-36.168L428.452,-36.735L428.485,-36.605L428.629,-36.312L428.669,-36.18L428.782,-36.081L428.876,-35.919L428.858,-35.754L429.01,-35.611L429.062,-35.584L428.851,-36.168Z" fill-rule="evenodd" fill="#cbd5e1" stroke="#ffffff" stroke-width="0.5"/>
        <path class="prism-mark-geoshape" data-prism-id="geoshape-3-6" d="M428.336,-36.89L428.273,-36.914L428.348,-36.787L428.376,-36.79L428.336,-36.89Z" fill-rule="evenodd" fill="#cbd5e1" stroke="#ffffff" stroke-width="0.5"/>
        <path class="prism-mark-geoshape" data-prism-id="geoshape-3-7" d="M427.916,-37.222L427.87,-37.229L427.886,-37.19L427.971,-37.101L428.009,-37.124L428.01,-37.161L427.916,-37.222Z" fill-rule="evenodd" fill="#cbd5e1" stroke="#ffffff" stroke-width="0.5"/>
        <path class="prism-mark-geoshape" data-prism-id="geoshape-3-8" d="M427.432,-37.531L427.33,-37.611L427.209,-37.582L427.326,-37.502L427.69,-37.378L427.561,-37.481L427.432,-37.531Z" fill-rule="evenodd" fill="#cbd5e1" stroke="#ffffff" stroke-width="0.5"/>
        <path class="prism-mark-geoshape" data-prism-id="geoshape-3-9" d="M426.755,-37.816L426.69,-37.879L426.654,-37.868L426.641,-37.791L426.51,-37.633L426.508,-37.588L426.772,-37.72L426.784,-37.763L426.755,-37.816Z" fill-rule="evenodd" fill="#cbd5e1" stroke="#ffffff" stroke-width="0.5"/>
        <path class="prism-mark-geoshape" data-prism-id="geoshape-3-10" d="M426.212,-38.032L426.058,-38.082L426.171,-37.961L426.189,-37.799L426.28,-37.91L426.291,-37.983L426.212,-38.032Z" fill-rule="evenodd" fill="#cbd5e1" stroke="#ffffff" stroke-width="0.5"/>
        <path class="prism-mark-geoshape" data-prism-id="geoshape-3-11" d="M425.707,-38.255L425.648,-38.272L425.637,-38.231L425.733,-38.166L425.805,-38.161L425.81,-38.213L425.707,-38.255Z" fill-rule="evenodd" fill="#cbd5e1" stroke="#ffffff" stroke-width="0.5"/>
      </g>
    </g>
  </g>
</svg>
