<svg xmlns="http://www.w3.org/2000/svg" viewBox="0 0 800 600">
  <style>:root{--prism-color-axis:#6b7280;--prism-color-grid:#e5e7eb;--prism-color-text:#111827;--prism-color-bg:transparent;--prism-font-sans:Inter, system-ui, sans-serif;--prism-font-mono:ui-monospace, SF Mono, monospace;--prism-font-size-label:11px;--prism-font-size-title:16px;--prism-font-size-axis-title:12px;}.prism-axis-domain{stroke:var(--prism-color-axis);fill:none;}.prism-axis-tick{stroke:var(--prism-color-axis);}.prism-axis-label{fill:var(--prism-color-text);font-family:var(--prism-font-sans);font-size:var(--prism-font-size-label,11px);}.prism-axis-title{fill:var(--prism-color-text);font-family:var(--prism-font-sans);font-size:var(--prism-font-size-axis-title,12px);font-weight:600;}.prism-grid-line{stroke:var(--prism-color-grid);}.prism-title{fill:var(--prism-color-text);font-family:var(--prism-font-sans);font-size:var(--prism-font-size-title,16px);font-weight:600;}.prism-legend-title{fill:var(--prism-color-text);font-family:var(--prism-font-sans);font-size:12px;font-weight:600;}.prism-legend-label{fill:var(--prism-color-text);font-family:var(--prism-font-sans);font-size:11px;}.prism-legend-swatch{stroke:none;}.prism-selected{opacity:var(--prism-selected-opacity,1);}.prism-deselected{opacity:var(--prism-deselected-opacity,0.3);}</style>

  <g class="prism-scene" data-scene-id="scene-0">
    <text class="prism-title" x="410" y="20" text-anchor="middle">World choropleth (GDP tier)</text>
    <g class="prism-plot">
      <g class="prism-layer" data-layer-id="layer-0" data-prism-layer="layer-0">
        <path class="prism-mark-geoshape" data-prism-id="geoshape-0-0" data-prism-datum-row="0" d="M260.253,173.535L263.932,173.535L267.779,173.535L269.053,173.535L273.002,173.535L276.824,173.535L280.711,173.535L284.6,173.535L289.003,173.535L293.436,173.534L296.117,173.535L296.41,172.881L296.851,172.873L296.67,173.808L296.949,174.096L297.809,174.201L299.021,174.472L300.062,174.999L301.208,174.778L302.629,175.221L303.062,175.204L304.421,174.722L305.397,175.34L306.417,175.998L307.261,176.564L308.074,177.109L308.035,177.556L308.283,177.723L308.141,177.891L308.474,177.944L308.795,177.769L308.714,178.172L308.882,178.44L309.244,178.44L309.363,178.648L309.093,178.951L310.19,179.748L309.946,181.293L309.722,182.773L309.005,183.78L308.075,184.717L307.59,185.314L307.505,185.491L307.579,185.735L307.953,186.004L308.291,186.004L310.136,185.094L311.604,184.826L313.62,183.977L313.699,183.805L313.739,183.286L313.627,182.952L314.315,182.681L315.629,182.674L316.854,182.674L317.484,182.012L317.692,181.879L319.476,180.653L320.171,180.34L322.188,180.328L324.632,180.327L324.889,179.907L325.338,179.822L325.979,179.558L326.678,178.784L327.479,177.461L328.872,176.177L329.17,176.624L330.136,176.335L330.569,176.826L329.89,179.144L330.483,180.106L330.556,180.664L328.909,181.489L327.379,182.076L325.83,182.58L324.841,183.592L324.508,183.976L324.247,184.879L324.449,185.783L324.996,185.825L325.02,185.203L325.323,185.581L325.087,186.069L324.104,186.346L323.465,186.313L322.388,186.61L321.777,186.695L320.97,186.779L319.709,187.274L321.782,186.953L322.096,187.276L320.066,187.788L319.202,187.791L319.299,187.581L318.759,188.054L319.137,188.133L318.519,189.361L317.186,190.676L317.199,190.238L316.922,190.149L316.588,189.72L316.63,190.642L316.89,190.946L316.745,191.593L316.139,192.257L315.025,193.624L314.917,193.556L315.632,192.392L315.099,191.738L315.31,190.317L314.852,191.056L314.864,192.142L314.028,191.873L314.829,192.424L314.481,194.054L314.847,194.173L314.846,194.765L314.634,196.479L313.458,197.751L311.905,198.261L310.761,199.268L310.041,199.378L309.192,200.007L308.862,200.584L307.08,201.698L306.11,202.515L305.227,203.533L304.749,204.752L304.748,205.944L304.923,207.414L305.314,208.629L305.181,209.371L305.487,211.363L305.239,212.52L305.061,213.187L304.527,214.236L304.064,214.452L303.395,214.244L303.298,213.491L302.825,213.096L302.334,211.62L301.917,210.307L301.832,209.636L302.346,208.495L302.138,207.551L301.334,206.114L300.84,205.851L299.25,206.631L299.016,206.545L298.505,205.743L297.714,205.319L296.074,205.535L294.866,205.345L293.766,205.463L293.121,205.731L293.272,206.188L293.094,206.883L293.318,207.223L293.001,207.448L292.532,207.196L291.928,207.522L290.915,207.467L290.064,206.56L288.784,206.775L287.85,206.377L286.944,206.497L285.661,206.899L284.078,208.171L282.5,208.913L281.54,209.732L281.04,210.504L280.766,211.689L280.661,212.513L280.81,213.096L280.242,213.148L279.309,212.77L278.311,212.238L278.09,211.431L278.047,210.23L277.437,209.251L277.187,208.245L276.765,207.069L275.943,206.385L274.781,206.418L273.547,207.774L272.503,207.259L271.906,206.741L271.803,205.796L271.578,204.9L270.949,204.144L270.383,203.602L270.045,202.992L267.616,202.992L267.408,203.701L266.294,203.701L263.497,203.713L260.663,202.505L258.81,201.67L259.049,201.334L257.213,201.521L255.58,201.653L255.633,200.776L255.061,199.789L254.48,199.584L254.498,199.091L253.747,199.005L253.412,198.542L252.181,198.372L251.927,198.094L252.1,197.155L251.403,195.432L251.193,193.051L251.401,192.655L251.029,192.089L250.571,190.655L250.985,189.262L250.674,188.329L251.612,186.914L252.244,185.45L252.439,184.144L253.747,182.54L254.684,180.994L255.641,179.451L256.617,177.168L257.003,175.714L257.066,174.925L257.413,174.591L258.97,175.17L258.787,176.775L259.353,176.326L259.91,174.931L260.253,173.535Z" fill-rule="evenodd" fill="#3b82f6" stroke="#ffffff" stroke-width="0.5"/>
        <path class="prism-mark-geoshape" data-prism-id="geoshape-0-1" data-prism-datum-row="1" d="M194.768,223.024L194.986,223.174L195.164,223.403L195.384,224.002L195.325,224.098L194.67,224.463L194.142,224.732L193.862,225.018L193.56,224.773L193.719,224.294L193.635,223.67L193.753,223.48L194.075,223.201L194.062,222.863L194.187,222.704L194.288,222.735L194.768,223.024Z" fill-rule="evenodd" fill="#3b82f6" stroke="#ffffff" stroke-width="0.5"/>
        <path class="prism-mark-geoshape" data-prism-id="geoshape-0-2" data-prism-datum-row="2" d="M194.214,221.853L194.04,222.058L193.524,222.182L193.37,221.82L193.241,221.681L193.256,221.573L193.437,221.428L193.907,221.591L194.214,221.853Z" fill-rule="evenodd" fill="#3b82f6" stroke="#ffffff" stroke-width="0.5"/>
        <path class="prism-mark-geoshape" data-prism-id="geoshape-0-3" data-prism-datum-row="3" d="M193.304,221.145L193.209,221.33L192.45,221.28L192.615,221.071L193.304,221.145Z" fill-rule="evenodd" fill="#3b82f6" stroke="#ffffff" stroke-width="0.5"/>
        <path class="prism-mark-geoshape" data-prism-id="geoshape-0-4" data-prism-datum-row="4" d="M191.733,220.22L191.822,220.329L192.081,220.897L191.976,220.996L191.878,220.974L191.393,220.914L191.318,220.525L191.281,220.456L191.733,220.22Z" fill-rule="evenodd" fill="#3b82f6" stroke="#ffffff" stroke-width="0.5"/>
        <path class="prism-mark-geoshape" data-prism-id="geoshape-0-5" data-prism-datum-row="5" d="M190.046,219.366L189.961,219.765L189.741,219.935L189.346,219.623L189.457,219.498L189.726,219.33L190.046,219.366Z" fill-rule="evenodd" fill="#3b82f6" stroke="#ffffff" stroke-width="0.5"/>
        <path class="prism-mark-geoshape" data-prism-id="geoshape-0-6" data-prism-datum-row="6" d="M221.106,153.396L221.896,153.569L221.345,154.302L220.341,154.598L219.881,154.243L219.63,153.724L221.106,153.396Z" fill-rule="evenodd" fill="#3b82f6" stroke="#ffffff" stroke-width="0.5"/>
        <path class="prism-mark-geoshape" data-prism-id="geoshape-0-7" data-prism-datum-row="7" d="M233.095,157.912L233.799,158.036L233.849,158.599L232.083,159.457L230.292,160.14L230.05,159.678L230.566,158.834L232.214,158.189L233.095,157.912Z" fill-rule="evenodd" fill="#3b82f6" stroke="#ffffff" stroke-width="0.5"/>
        <path class="prism-mark-geoshape" data-prism-id="geoshape-0-8" data-prism-datum-row="8" d="M266.83,131.562L266.83,131.562L260.334,141.476L251.331,153.546L252.463,153.601L253.221,154.131L253.428,154.96L253.569,156.189L255.523,155.145L257.182,154.533L257.098,155.507L257.348,156.271L257.845,157.104L257.657,158.414L257.441,160.467L258.745,161.598L258.011,162.711L256.74,163.556L256.74,163.556L256.74,163.556L256.509,162.897L255.806,162.336L256.544,160.792L255.999,159.343L256.586,157.63L255.508,157.511L253.611,157.467L252.586,156.938L251.561,155.006L250.689,154.647L249.121,153.971L247.339,154.133L245.692,153.252L244.941,152.426L243.291,152.838L242.455,154.173L241.695,154.294L239.988,154.689L238.409,155.325L236.748,155.722L237.496,154.615L239.591,152.735L241.346,152.135L241.424,151.644L239.015,152.733L237.138,154.013L234.281,155.359L234.401,156.263L232.147,157.588L230.198,158.35L228.509,158.903L227.531,159.701L224.832,160.624L223.734,161.459L221.648,162.214L220.912,162.078L219.337,162.57L217.564,163.169L216.03,163.753L213.458,164.253L213.516,163.96L215.584,163.143L217.267,162.6L219.42,161.635L221.124,161.435L222.357,160.706L224.979,159.635L225.561,159.275L227.009,158.637L228.405,157.255L229.957,156.163L228.081,156.724L227.967,156.406L226.729,157.078L226.755,156.141L225.851,156.804L226.208,155.88L224.348,156.623L223.608,156.621L224.485,155.514L225.313,154.825L225.141,154.15L223.261,154.514L223.055,153.621L222.657,153.159L223.646,152.057L223.495,151.216L224.987,150.064L226.955,148.925L228.311,147.857L229.386,147.704L229.889,148.04L231.707,147.018L232.391,147.202L233.837,146.538L234.463,145.544L234.154,145.147L235.72,144.285L234.996,144.312L233.374,144.801L232.611,145.289L232.122,144.801L230.288,145.05L229.072,144.515L229.372,143.605L229.08,142.258L231.5,141.265L234.98,140.075L235.901,140.075L234.766,141.291L237.221,141.198L237.518,139.681L236.898,138.725L237.114,137.435L236.926,136.302L236.068,135.443L237.779,133.982L239.786,133.888L242.11,132.574L243.388,131.121L245.489,129.655L246.776,129.292L249.736,127.863L250.577,128.081L253.324,126.31L254.497,127.017L254.347,128.5L255.215,127.869L256.897,128.065L256.374,128.808L257.677,129.349L258.967,129.032L260.617,130.027L262.507,130.318L263.093,130.718L264.832,130.216L265.91,131.139L266.83,131.562L266.83,131.562Z" fill-rule="evenodd" fill="#3b82f6" stroke="#ffffff" stroke-width="0.5"/>
        <path class="prism-mark-geoshape" data-prism-id="geoshape-0-9" data-prism-datum-row="9" d="M221.22,146.502L221.563,146.912L222.482,146.691L222.909,147.255L223.808,147.537L223.505,147.767L222.224,148.211L221.751,147.756L221.659,147.372L220.525,147.494L220.42,147.308L221.22,146.502Z" fill-rule="evenodd" fill="#3b82f6" stroke="#ffffff" stroke-width="0.5"/>
        <path class="prism-mark-geoshape" data-prism-id="geoshape-1-0" data-prism-datum-row="10" d="M260.253,173.535L260.082,173.53L258.554,171.857L258.076,171.119L256.185,170.412L256.421,168.896L257.274,167.842L256.126,167.11L256.823,165.716L256.153,164.455L256.74,163.556L256.74,163.556L258.011,162.711L258.745,161.598L257.441,160.467L257.657,158.414L257.845,157.104L257.348,156.271L257.098,155.507L257.182,154.533L255.523,155.145L253.569,156.189L253.428,154.96L253.221,154.131L252.463,153.601L251.331,153.546L260.334,141.476L266.83,131.562L266.83,131.562L268.418,132.279L269.284,133.677L270.262,133.939L271.94,132.738L273.794,131.816L275.196,132.179L277.566,130.856L279.75,130.089L279.796,131.36L280.991,130.648L282.017,129.178L282.58,129.516L282.939,132.25L285.47,130.201L284.401,132.488L285.995,132.004L286.864,131.127L288.083,131.302L289.089,132.553L291.082,133.617L292.335,134.098L293.499,133.916L294.245,135.334L291.986,136.676L293.682,137.246L296.833,136.934L298.014,136.468L298.384,138.046L300.267,136.719L299.715,135.572L300.89,134.627L302.285,134.498L303.295,134.216L303.861,134.886L304.254,136.369L305.59,136.153L306.971,137.353L308.887,136.934L310.472,136.998L311.107,135.32L312.3,134.836L313.589,135.771L312.457,138.272L314.107,136.172L314.962,136.245L316.652,133.45L316.236,131.64L315.476,130.411L316.958,126.86L319.136,124.359L320.322,124.926L320.844,126.442L320.93,130.098L319.388,131.598L321.167,132.199L319.986,135.124L322.339,132.901L322.921,134.735L321.777,136.756L322.121,138.513L324.051,136.628L325.783,134.259L327.041,131.048L328.492,131.281L329.934,131.723L330.872,133.182L330.427,134.593L329.065,136.059L329.302,137.484L328.674,138.738L325.786,140.48L324.066,140.857L323.214,140.122L322.36,141.342L320.406,143.321L319.628,144.315L317.612,145.816L315.898,145.96L314.552,146.873L313.813,148.247L312.332,148.507L310.075,150.165L307.657,152.399L306.411,153.921L305.211,156.107L306.826,156.417L306.5,158.136L306.383,159.509L308.271,159.152L310.168,159.931L311.073,160.61L311.561,161.451L312.886,161.937L313.862,162.679L315.867,162.781L317.144,162.951L316.287,164.465L315.938,166.209L316.058,168.138L317.304,169.767L318.504,169.208L319.885,167.443L320.33,164.711L319.828,163.792L322.162,162.972L324.075,161.737L325.268,160.499L325.663,159.3L325.478,157.76L324.596,156.375L326.852,154.41L327.069,152.673L327.99,149.567L329.002,149.094L330.777,149.652L331.901,149.85L333.085,149.313L333.902,150.004L334.895,151.167L334.955,151.933L337.009,152.082L336.355,153.709L335.847,156.093L336.84,156.382L337.314,157.467L339.441,156.445L341.335,154.376L342.44,153.488L342.776,155.184L343.533,157.55L344.15,159.724L343.284,160.847L344.6,161.847L345.394,162.853L347.237,163.307L347.869,163.864L347.927,165.338L348.838,165.569L349.157,166.221L348.705,168.157L347.602,168.802L346.518,169.404L344.24,170.013L342.225,171.416L339.969,171.694L337.326,171.334L335.402,171.322L334.033,171.44L332.568,172.663L330.679,173.42L328.092,175.671L326.096,177.241L327.297,176.962L330.087,174.727L333.25,173.309L335.239,173.139L336.135,173.975L334.571,175.117L334.454,176.951L334.523,178.235L336.004,179.083L338.25,178.837L340.073,176.925L339.84,178.158L340.532,178.775L338.613,179.89L335.416,180.902L333.919,181.59L332.11,182.817L331.13,182.691L331.462,181.251L334.145,179.844L332.011,179.9L330.483,180.106L329.89,179.144L330.569,176.826L330.136,176.335L329.17,176.624L328.872,176.177L327.479,177.461L326.678,178.784L325.979,179.558L325.338,179.822L324.889,179.907L324.632,180.327L322.188,180.328L320.171,180.34L319.476,180.653L317.692,181.879L317.484,182.012L316.854,182.674L315.629,182.674L314.315,182.681L313.627,182.952L313.739,183.286L313.699,183.805L313.62,183.977L311.604,184.826L310.136,185.094L308.291,186.004L307.953,186.004L307.579,185.735L307.505,185.491L307.59,185.314L308.075,184.717L309.005,183.78L309.722,182.773L309.946,181.293L310.19,179.748L309.093,178.951L309.363,178.648L309.244,178.44L308.882,178.44L308.714,178.172L308.795,177.769L308.474,177.944L308.141,177.891L308.283,177.723L308.035,177.556L308.074,177.109L307.261,176.564L306.417,175.998L305.397,175.34L304.421,174.722L303.062,175.204L302.629,175.221L301.208,174.778L300.062,174.999L299.021,174.472L297.809,174.201L296.949,174.096L296.67,173.808L296.851,172.873L296.41,172.881L296.117,173.535L293.436,173.534L289.003,173.535L284.6,173.535L280.711,173.535L276.824,173.535L273.002,173.535L269.053,173.535L267.779,173.535L263.932,173.535L260.253,173.535Z" fill-rule="evenodd" fill="#3b82f6" stroke="#ffffff" stroke-width="0.5"/>
        <path class="prism-mark-geoshape" data-prism-id="geoshape-1-1" data-prism-datum-row="11" d="M321.223,149.295L322.518,148.343L324.108,148.361L323.907,148.764L322.036,149.894L321.229,149.847L321.223,149.295Z" fill-rule="evenodd" fill="#3b82f6" stroke="#ffffff" stroke-width="0.5"/>
        <path class="prism-mark-geoshape" data-prism-id="geoshape-1-2" data-prism-datum-row="12" d="M336.342,121.119L335.784,119.056L336.23,117.601L336.799,117.325L339.036,117.769L340.233,119.962L340.036,121.031L338.961,120.917L337.862,120.836L336.578,121.351L336.342,121.119Z" fill-rule="evenodd" fill="#3b82f6" stroke="#ffffff" stroke-width="0.5"/>
        <path class="prism-mark-geoshape" data-prism-id="geoshape-1-3" data-prism-datum-row="13" d="M325.2,150.042L325.916,149.432L326.375,149.477L326.494,149.894L325.578,150.952L325.131,150.782L325.083,150.183L325.2,150.042Z" fill-rule="evenodd" fill="#3b82f6" stroke="#ffffff" stroke-width="0.5"/>
        <path class="prism-mark-geoshape" data-prism-id="geoshape-1-4" data-prism-datum-row="14" d="M324.77,112.013L323.704,113.764L322.329,113.431L321.455,112.251L322.61,110.151L324.42,108.854L324.823,110.54L324.77,112.013Z" fill-rule="evenodd" fill="#3b82f6" stroke="#ffffff" stroke-width="0.5"/>
        <path class="prism-mark-geoshape" data-prism-id="geoshape-1-5" data-prism-datum-row="15" d="M327.992,98.871L327.507,99.04L325.772,98.667L325.913,97.012L327.843,97.102L328.266,98.205L327.992,98.871Z" fill-rule="evenodd" fill="#3b82f6" stroke="#ffffff" stroke-width="0.5"/>
        <path class="prism-mark-geoshape" data-prism-id="geoshape-1-6" d="M326.951,91.175L327.594,93.419L326.816,95.667L325.088,96.916L324.638,95.508L324.776,93.165L325.314,90.476L326.491,90.741L326.951,91.175Z" fill-rule="evenodd" fill="#3b82f6" stroke="#ffffff" stroke-width="0.5"/>
        <path class="prism-mark-geoshape" data-prism-id="geoshape-1-7" d="M329.561,114.644L328.072,114.101L325.788,112.661L326.161,110.108L326.699,107.69L326.289,105.472L324.408,104.835L323.699,103.183L324.65,100.923L326.581,101.276L327.228,103.048L329.172,103.031L329.587,104.787L328.866,106.729L329.716,107.864L330.045,109.035L331.342,109.248L332.7,109.653L334.559,108.6L336.698,108.182L338.24,108.526L338.88,110.346L338.635,112.274L337.701,113.475L335.939,114.426L334.778,113.889L331.676,114.566L329.561,114.644Z" fill-rule="evenodd" fill="#3b82f6" stroke="#ffffff" stroke-width="0.5"/>
        <path class="prism-mark-geoshape" data-prism-id="geoshape-1-8" d="M312.064,95.077L313.167,96.04L312.356,97.833L310.068,99.513L309.163,97.626L310.483,95.704L312.064,95.077Z" fill-rule="evenodd" fill="#3b82f6" stroke="#ffffff" stroke-width="0.5"/>
        <path class="prism-mark-geoshape" data-prism-id="geoshape-1-9" d="M313.436,90.925L314.345,92.242L312.854,93.488L311.259,93.482L311.516,92.57L313.001,90.622L313.436,90.925Z" fill-rule="evenodd" fill="#3b82f6" stroke="#ffffff" stroke-width="0.5"/>
        <path class="prism-mark-geoshape" data-prism-id="geoshape-1-10" d="M348.418,169.58L347.442,170.658L346.188,172.152L347.184,171.575L347.952,171.94L347.343,172.535L348.368,173.002L349.07,172.586L350.226,173.111L349.517,174.358L350.497,174.067L350.444,174.971L350.599,176.027L349.699,177.525L349.09,177.588L348.302,177.267L348.918,175.876L348.607,175.66L346.73,177.134L345.963,177.075L347.084,176.275L345.931,175.862L344.502,175.964L341.98,175.913L341.914,175.409L342.885,174.809L342.443,174.348L343.811,173.321L345.887,170.605L346.95,169.632L348.221,169.04L348.791,169.116L348.418,169.58Z" fill-rule="evenodd" fill="#3b82f6" stroke="#ffffff" stroke-width="0.5"/>
        <path class="prism-mark-geoshape" data-prism-id="geoshape-1-11" d="M323.886,143.557L324.801,144.335L325.816,145.032L325.474,146.075L326.393,145.907L326.912,146.624L325.599,147.297L324.021,146.783L323.798,145.809L322.148,146.959L320.005,148.054L320.17,146.815L318.509,147.021L320,145.953L320.93,144.209L322.243,142.096L322.978,142.289L322.748,143.309L323.484,142.954L323.886,143.557Z" fill-rule="evenodd" fill="#3b82f6" stroke="#ffffff" stroke-width="0.5"/>
        <path class="prism-mark-geoshape" data-prism-id="geoshape-1-12" d="M336.905,122.804L338.317,121.32L340.11,123.199L341.078,124.901L340.784,126.402L342.972,125.63L343.473,127.771L345.691,129.048L346.268,130.312L346.481,133.113L344.075,134.442L346.11,136.237L347.685,136.823L348.557,139.2L350.265,139.366L349.391,141.092L346.538,143.81L345.46,142.828L344.44,140.538L342.884,140.843L342.277,142.211L343.007,143.561L344.201,144.602L344.473,145.192L344.49,147.336L343.568,148.84L342.297,148.278L339.999,146.581L340.977,148.405L341.747,149.648L341.684,150.355L338.801,149.546L336.746,148.349L335.73,147.325L336.363,146.723L335.069,145.608L333.814,144.533L333.581,145.178L330.123,145.529L329.461,144.77L330.884,143.099L333.035,143.058L335.485,142.761L335.42,141.923L336.255,140.726L338.568,138.293L338.659,137.143L338.543,136.232L337.309,134.902L335.416,133.947L336.361,133.223L335.823,131.387L334.926,131.218L334.423,130.173L333.543,131.078L331.45,131.468L327.758,130.789L325.807,129.883L324.237,129.409L323.757,128.286L325.406,126.783L323.903,126.766L324.787,123.232L326.682,119.861L328.247,118.233L331.225,117.143L329.696,119.751L329.782,122.132L331.683,119.028L334.771,117.363L335.389,121.445L334.518,123.856L336.905,122.804Z" fill-rule="evenodd" fill="#3b82f6" stroke="#ffffff" stroke-width="0.5"/>
        <path class="prism-mark-geoshape" data-prism-id="geoshape-1-13" d="M322.745,115.752L324.831,115.901L326.479,116.923L323.815,120.494L322.329,121.237L320.258,123.988L319.105,123.856L319.593,120.594L320.266,118.64L321.367,116.903L322.745,115.752Z" fill-rule="evenodd" fill="#3b82f6" stroke="#ffffff" stroke-width="0.5"/>
        <path class="prism-mark-geoshape" data-prism-id="geoshape-1-14" d="M297.208,106.511L297.208,106.511L300.213,102.563L303.366,98.918L304.837,98.999L306.425,98.14L304.977,102.498L303.627,104.365L302.62,104.624L300.037,106.836L298.175,107.605L297.208,106.511Z" fill-rule="evenodd" fill="#3b82f6" stroke="#ffffff" stroke-width="0.5"/>
        <path class="prism-mark-geoshape" data-prism-id="geoshape-1-15" d="M253.11,164.886L254.408,164.747L252.7,166.714L252.883,168.1L252.379,168.096L252.137,167.308L252.202,166.515L251.93,165.977L252.219,165.215L252.677,164.66L253.11,164.886Z" fill-rule="evenodd" fill="#3b82f6" stroke="#ffffff" stroke-width="0.5"/>
        <path class="prism-mark-geoshape" data-prism-id="geoshape-1-16" d="M319.456,87.567L321.1,88.507L323.112,90.952L323.13,94.006L322.884,96.573L321.47,95.9L320.377,93.892L318.294,93.659L319.687,91.756L318.911,90.171L319.456,87.567Z" fill-rule="evenodd" fill="#3b82f6" stroke="#ffffff" stroke-width="0.5"/>
        <path class="prism-mark-geoshape" data-prism-id="geoshape-1-17" d="M258.911,174.37L258.123,174.606L256.433,173.833L256.396,173.229L255.591,172.632L255.65,172.147L254.51,171.84L254.583,170.911L254.94,170.514L256.055,170.887L256.685,171.147L257.783,171.328L257.868,171.916L258.028,172.726L258.91,173.43L258.911,174.37Z" fill-rule="evenodd" fill="#3b82f6" stroke="#ffffff" stroke-width="0.5"/>
        <path class="prism-mark-geoshape" data-prism-id="geoshape-1-18" d="M295.629,114.395L296.733,115.298L299.251,115.534L299.772,116.761L300.199,118.487L298.497,119.492L294.812,122.184L292.379,124.715L291.678,126.222L288.102,127.83L288.255,126.371L286.695,124.542L287.862,123.024L289.83,120.274L291.852,117.654L291.913,115.074L295.629,114.395Z" fill-rule="evenodd" fill="#3b82f6" stroke="#ffffff" stroke-width="0.5"/>
        <path class="prism-mark-geoshape" data-prism-id="geoshape-1-19" d="M311.742,107.874L312.888,107.038L313.865,107.26L313.298,109.663L311.969,111.898L308.305,112.606L305.065,114.535L303.478,114.636L303.872,113.193L306.681,111.165L301.927,111.722L300.814,110.889L303.82,106.091L305.223,104.635L307.456,106.388L308.279,109.33L309.913,109.697L310.001,104.892L311.489,102.95L312.321,103.576L311.907,106.076L311.742,107.874Z" fill-rule="evenodd" fill="#3b82f6" stroke="#ffffff" stroke-width="0.5"/>
        <path class="prism-mark-geoshape" data-prism-id="geoshape-1-20" d="M308.89,120.068L309.473,121.611L308.748,125.142L308.097,127.531L309.219,129.133L310.531,130.614L309.841,131.944L307.956,132.182L308.147,133.304L307.304,134.349L305.53,133.905L304.014,133.13L302.664,133.306L300.15,134.273L297.167,134.694L295.083,134.955L295.166,133.628L294.076,132.84L292.945,133.165L292.795,130.81L293.675,130.482L295.593,129.955L297.042,130.095L298.701,129.551L296.974,128.808L294.564,129.063L293.077,128.997L293.084,127.807L296.172,126.476L294.512,126.523L293.078,125.623L295.158,122.966L296.526,121.487L300.277,119.127L301.03,119.892L299.779,121.686L302.564,120.537L303.245,122.443L305.192,120.513L305.653,121.762L305.076,125.305L306.204,123.845L306.968,120.013L308.096,119.44L308.89,120.068Z" fill-rule="evenodd" fill="#3b82f6" stroke="#ffffff" stroke-width="0.5"/>
        <path class="prism-mark-geoshape" data-prism-id="geoshape-1-21" d="M314.695,121.487L314.456,118.948L316.352,116.977L317.286,117.847L319.295,117.325L319.172,118.508L317.562,120.398L318.567,122.035L317.206,125.274L314.967,126.598L314.054,126.317L313.829,125.002L312.272,122.221L312.74,121.016L314.695,121.487Z" fill-rule="evenodd" fill="#3b82f6" stroke="#ffffff" stroke-width="0.5"/>
        <path class="prism-mark-geoshape" data-prism-id="geoshape-1-22" d="M309.58,117.981L311.019,117.818L311.483,118.708L309.62,121.282L309.022,118.548L309.58,117.981Z" fill-rule="evenodd" fill="#3b82f6" stroke="#ffffff" stroke-width="0.5"/>
        <path class="prism-mark-geoshape" data-prism-id="geoshape-1-23" d="M322.295,103.35L322.391,105.793L321.698,108.384L320.201,111.921L318.389,112.392L317.53,111.658L318.391,108.884L316.637,109.258L317.715,105.378L318.735,105.544L320.725,103.748L322.031,104.052L322.295,103.35Z" fill-rule="evenodd" fill="#3b82f6" stroke="#ffffff" stroke-width="0.5"/>
        <path class="prism-mark-geoshape" data-prism-id="geoshape-1-24" d="M330.344,77.98L331.437,75.546L332.485,74.977L332.419,73.087L334.628,72.66L335.044,77.023L336.306,78.708L337.574,80.166L337.431,85.048L338.145,87.324L336.451,89.361L333.687,94.244L331.887,94.693L330.066,93.892L329.608,91.273L330.137,88.854L331.264,87.025L329.522,87.081L328.966,84.726L329.039,81.394L330.344,77.98Z" fill-rule="evenodd" fill="#3b82f6" stroke="#ffffff" stroke-width="0.5"/>
        <path class="prism-mark-geoshape" data-prism-id="geoshape-1-25" d="M336.295,67.139L337.914,65.413L339.017,65.112L341.013,63.617L342.84,60.091L343.881,60.592L344.481,63.244L345.87,58.06L347.254,56.469L348.989,55.35L351.753,54.933L352.094,56.027L354.857,54.31L356.706,54.954L358.558,55.603L360.85,56.389L362.631,57.665L363.997,60.313L363.696,62.851L361.06,66.834L358.654,68.638L357.593,70.587L359.589,70.535L356.792,75.603L354.984,77.862L352.505,84.039L350.38,85.234L349.551,86.676L346.563,87.421L347.726,88.282L346.863,89.495L347.091,92.73L345.787,94.891L343.969,96.621L343.056,98.935L341.343,100.647L341.215,101.915L342.938,101.699L342.681,103.037L339.347,106.199L337.083,104.766L333.981,105.575L332.659,104.945L330.854,104.672L331.358,102.086L333.465,100.828L333.924,96.621L334.606,96.198L336.65,98.761L336.144,94.91L334.832,93.71L336.117,91.221L338.118,89.643L338.837,87.269L338.015,84.502L338.3,80.692L340.795,81.017L341.394,81.829L343.312,79.058L341.369,78.153L338.035,78.653L336.863,75.958L336.659,72.634L336.005,70.138L336.295,67.139Z" fill-rule="evenodd" fill="#3b82f6" stroke="#ffffff" stroke-width="0.5"/>
        <path class="prism-mark-geoshape" data-prism-id="geoshape-1-26" d="M335.861,137.883L334.865,138.641L333.568,138.768L333.754,137.508L334.759,136.016L335.9,135.64L336.499,136.39L336.114,137.524L335.861,137.883Z" fill-rule="evenodd" fill="#3b82f6" stroke="#ffffff" stroke-width="0.5"/>
        <path class="prism-mark-geoshape" data-prism-id="geoshape-1-27" d="M314.962,132.223L315.156,133.338L314.05,134.338L312.951,133.476L311.926,133.788L311.006,132.488L312.355,131.568L313.662,130.244L314.448,131.115L314.872,131.658L314.962,132.223Z" fill-rule="evenodd" fill="#3b82f6" stroke="#ffffff" stroke-width="0.5"/>
        <path class="prism-mark-geoshape" data-prism-id="geoshape-1-28" d="M336.264,172.048L336.754,171.904L338.32,172.332L339.432,173.043L339.381,173.357L338.741,173.387L337.222,172.852L336.264,172.048Z" fill-rule="evenodd" fill="#3b82f6" stroke="#ffffff" stroke-width="0.5"/>
        <path class="prism-mark-geoshape" data-prism-id="geoshape-1-29" d="M335.502,176.877L335.731,177.704L336.623,177.932L337.855,177.886L337.021,178.583L336.503,178.694L335.029,177.971L334.859,177.403L335.502,176.877Z" fill-rule="evenodd" fill="#3b82f6" stroke="#ffffff" stroke-width="0.5"/>
        <path class="prism-mark-geoshape" data-prism-id="geoshape-2-0" d="M411.63,165.185L410.695,164.827L409.92,164.852L410.213,163.918L409.994,162.979L411.038,162.907L412.338,163.989L411.63,165.185Z" fill-rule="evenodd" fill="#3b82f6" stroke="#ffffff" stroke-width="0.5"/>
        <path class="prism-mark-geoshape" data-prism-id="geoshape-2-1" d="M415.512,165.988L415.514,165.989L415.715,164.982L414.895,163.909L414.877,163.885L413.37,163.577L413.085,163.102L413.557,162.318L413.162,161.831L412.472,162.665L412.45,160.961L411.857,160.051L412.361,158.185L413.348,156.699L414.311,156.844L415.773,156.689L414.436,158.668L415.684,158.419L417.019,158.429L416.683,159.898L415.554,161.495L416.83,161.608L416.925,161.794L418.015,163.867L418.869,164.148L419.64,166.126L420,166.808L421.534,167.136L421.388,168.237L420.744,168.74L421.258,169.628L420.111,170.523L418.397,170.508L416.211,170.977L415.617,170.641L414.756,171.442L413.57,171.247L412.651,171.899L411.975,171.558L413.9,169.763L415.05,169.393L415.039,169.392L413.055,169.107L412.712,168.424L414.051,167.892L413.379,166.964L413.645,165.832L415.512,165.988Z" fill-rule="evenodd" fill="#3b82f6" stroke="#ffffff" stroke-width="0.5"/>
        <path class="prism-mark-geoshape" data-prism-id="geoshape-3-0" d="M343.358,250.224L342.464,251.784L341.997,253.039L341.425,253.686L340.72,253.809L340.522,253.328L340.193,253.257L339.734,253.719L339.093,253.368L339.477,252.652L339.616,251.871L339.885,251.138L339.323,250.127L339.23,248.961L340.031,247.495L340.526,247.682L341.6,248.086L343.128,249.525L343.358,250.224Z" fill-rule="evenodd" fill="#3b82f6" stroke="#ffffff" stroke-width="0.5"/>
        <path class="prism-mark-geoshape" data-prism-id="geoshape-3-1" d="M427.398,172.745L428.022,173.191L429.899,173.505L429.285,174.671L429.161,175.882L428.811,176.173L428.211,176.017L428.266,176.449L427.333,177.405L427.335,178.175L427.955,177.908L428.43,178.655L428.388,179.134L428.797,179.774L428.352,180.291L428.732,181.608L429.46,181.824L429.329,182.563L428.145,183.526L425.497,183.064L423.557,183.618L423.416,184.644L421.861,184.865L420.348,184.093L419.86,184.461L417.394,183.688L416.866,183.025L417.563,182.003L417.833,178.614L416.489,176.83L415.535,175.969L413.55,175.314L413.446,174.074L415.134,173.702L417.307,174.142L416.914,172.213L418.128,172.944L421.129,171.614L421.504,170.213L422.62,169.868L422.812,170.47L423.408,170.499L424.015,171.184L424.929,171.99L425.586,171.857L426.734,172.634L427.027,172.781L427.398,172.745Z" fill-rule="evenodd" fill="#3b82f6" stroke="#ffffff" stroke-width="0.5"/>
        <path class="prism-mark-geoshape" data-prism-id="geoshape-3-2" d="M431.141,184.379L431.981,183.728L432.263,185.191L431.865,186.508L431.24,186.16L430.89,185.012L431.141,184.379Z" fill-rule="evenodd" fill="#3b82f6" stroke="#ffffff" stroke-width="0.5"/>
        <path class="prism-mark-geoshape" data-prism-id="geoshape-4-0" d="M437.136,165.378L437.493,166.259L437.176,166.72L437.679,167.334L438.06,168.254L438.003,168.847L438.606,169.94L438.049,170.119L437.697,169.923L437.398,170.248L436.501,170.579L436.052,171.005L435.141,171.377L435.396,171.884L435.575,172.604L436.258,173.013L437.035,173.745L436.625,174.53L436.171,174.746L436.421,175.854L436.316,176.143L435.888,175.796L435.259,175.743L434.341,176.047L433.186,175.976L433.02,176.425L432.337,175.952L431.946,176.046L430.526,175.525L430.271,175.894L429.161,175.882L429.285,174.671L429.899,173.505L428.022,173.191L427.398,172.745L427.45,171.998L427.181,171.613L427.294,170.458L427.026,168.663L427.789,168.663L428.09,168.017L428.35,166.439L428.094,165.854L428.325,165.487L429.372,165.393L429.621,165.775L430.436,164.919L430.12,164.267L430.019,163.276L430.971,163.507L431.754,163.241L431.812,163.916L433.096,164.322L433.117,164.94L434.372,164.615L435.044,164.138L436.503,164.824L437.136,165.378Z" fill-rule="evenodd" fill="#3b82f6" stroke="#ffffff" stroke-width="0.5"/>
        <path class="prism-mark-geoshape" data-prism-id="geoshape-5-0" d="M612.828,190.264L612.394,191.986L613.24,193.753L613.339,195.12L613.958,195.979L613.759,197.187L612.327,197.993L609.93,198.1L608.728,200.057L607.534,199.398L606.966,198.115L604.701,198.494L603.371,199.302L601.753,199.335L603.643,200.598L603.766,203.516L603.107,204.237L602.198,203.571L601.997,202.024L600.931,201.525L599.933,200.347L601.056,199.819L601.375,198.739L602.426,197.853L602.974,196.681L605.516,196.169L607.143,196.52L607.27,193.474L608.55,194.292L609.793,192.58L610.262,191.914L610.118,189.823L608.927,187.902L608.946,186.823L610.217,186.509L612.176,188.878L612.828,190.264Z" fill-rule="evenodd" fill="#3b82f6" stroke="#ffffff" stroke-width="0.5"/>
        <path class="prism-mark-geoshape" data-prism-id="geoshape-5-1" d="M612.134,182.109L612.653,181.387L614.063,183.299L612.343,183.766L612.102,185.459L609.353,184.292L609.625,186.158L608.139,186.184L607.054,184.489L606.999,183.178L608.375,183.083L607.418,180.728L607.027,179.403L609.632,181.174L610.986,181.746L612.134,182.109Z" fill-rule="evenodd" fill="#3b82f6" stroke="#ffffff" stroke-width="0.5"/>
        <path class="prism-mark-geoshape" data-prism-id="geoshape-5-2" d="M603.958,200.059L604.335,199.036L605.204,199.234L605.493,198.513L606.66,198.884L607.069,199.472L606.685,200.51L605.902,199.959L605.339,200.357L605.346,201.361L604.253,200.874L603.958,200.059Z" fill-rule="evenodd" fill="#3b82f6" stroke="#ffffff" stroke-width="0.5"/>
        <path class="prism-mark-geoshape" data-prism-id="geoshape-6-0" d="M619.278,327.132L620.028,327.247L619.004,329.272L618.21,329.86L617.283,331.232L617.086,330.765L615.468,331.952L615.245,331.86L614.455,331.808L614.464,330.349L614.907,329.224L614.935,327.738L615.386,326.955L616.191,327.107L617.182,327.696L618.045,327.462L619.278,327.132Z" fill-rule="evenodd" fill="#3b82f6" stroke="#ffffff" stroke-width="0.5"/>
        <path class="prism-mark-geoshape" data-prism-id="geoshape-6-1" d="M596.041,312.415L594.252,313.296L592.902,313.691L592.315,314.592L591.552,315.288L590.355,315.329L589.427,315.482L588.307,315.17L587.24,315.357L586.258,315.436L585.109,316.35L584.73,316.273L583.863,316.758L583.002,317.304L582.016,317.235L581.085,317.235L579.993,316.139L579.357,315.815L579.717,314.83L580.486,314.597L580.852,314.207L581.004,313.589L581.559,312.396L581.721,311.378L581.505,309.644L581.562,308.664L581.905,307.685L581.656,306.567L581.758,306.062L581.317,305.379L581.495,304.035L581.028,302.675L581.012,301.944L581.454,302.685L581.365,301.093L581.952,301.59L582.21,302.254L582.402,301.376L582.019,300.025L582.008,299.485L581.795,298.972L582.173,297.978L582.561,297.557L582.943,296.699L583.004,295.696L583.854,294.463L583.691,295.768L584.545,294.59L585.832,294.016L586.682,293.286L587.911,292.657L588.592,292.524L588.949,292.734L590.214,292.095L591.127,291.905L591.42,291.53L591.832,291.374L592.623,291.415L594.241,290.913L595.174,290.153L595.715,289.237L596.725,288.369L596.912,287.686L597.112,286.756L598.373,285.302L598.737,286.78L599.413,286.437L599.032,285.63L599.625,284.799L600.206,285.17L600.592,283.868L601.518,283.027L601.97,282.352L602.747,282.062L602.84,281.585L603.452,281.783L603.54,281.354L604.217,281.11L604.955,280.879L605.921,281.663L606.578,282.675L607.489,282.687L608.39,282.848L608.226,281.909L609.127,280.539L609.847,280.091L609.68,279.666L610.446,278.689L611.409,278.088L612.132,278.289L613.403,277.968L613.487,277.096L612.483,276.534L613.292,276.286L614.212,276.708L614.903,277.41L616.079,277.845L616.52,277.673L617.357,278.199L618.278,277.709L618.807,277.857L619.192,277.529L619.753,278.375L619.236,279.288L618.581,279.979L618.071,280.037L618.14,280.718L617.579,281.573L616.929,282.412L616.954,282.896L617.954,283.839L618.98,284.388L619.625,284.977L620.489,285.991L620.9,285.989L621.578,286.427L621.696,286.956L622.966,287.536L624.042,286.951L624.506,286.032L624.945,285.274L625.298,284.337L625.982,282.976L625.919,282.149L626.108,281.651L626.094,280.674L626.481,279.388L626.813,279.041L626.666,278.47L627.146,277.564L627.547,276.626L627.647,276.14L628.27,275.499L628.579,276.334L628.54,277.406L628.877,277.613L628.839,278.33L629.244,279.198L629.207,280.165L629.059,280.787L629.364,282.127L630.409,281.482L630.77,282.205L631.354,282.873L631.069,283.631L631.106,285.098L631.16,285.952L631.485,286.16L631.579,287.623L631.25,288.51L631.461,289.67L632.825,290.566L633.654,291.379L634.44,292.124L634.148,292.539L634.699,293.615L634.764,295.47L635.441,295.093L635.821,295.835L636.245,295.571L635.977,297.388L636.682,298.442L637.149,299.097L637.831,300.487L637.783,301.865L637.492,302.843L637.029,303.906L637.188,305.365L636.549,306.885L636.006,307.68L635.034,309.212L634.673,310.197L633.896,311.426L632.626,312.989L631.232,313.831L630.146,315.161L629.308,316.009L628.227,317.489L627.298,318.345L626.346,319.626L625.601,320.807L625.406,321.348L624.326,321.944L622.761,322.005L621.15,322.707L620.19,323.371L618.997,324.105L618.244,323.349L617.555,323.046L618.201,322.154L617.297,322.478L615.494,323.716L614.539,323.253L613.894,322.982L613.171,322.861L612.081,322.365L611.683,321.31L612.017,320.01L612.079,319.143L611.702,318.449L610.461,318.242L611.267,317.41L611.46,316.138L610.291,317.324L608.926,317.64L610.045,316.69L610.659,315.7L611.533,314.859L611.919,313.589L610.212,315.053L609.108,315.64L608.025,317.004L607.226,316.299L607.632,315.388L607.243,314.144L606.751,313.5L607.162,313.104L605.749,312.063L604.781,312.015L603.729,311.179L601.16,311.341L599.131,311.955L597.337,312.529L596.041,312.415Z" fill-rule="evenodd" fill="#3b82f6" stroke="#ffffff" stroke-width="0.5"/>
        <path class="prism-mark-geoshape" data-prism-id="geoshape-7-0" d="M433.105,177.119L433.912,177.362L434.048,177.037L435.328,176.743L435.652,177.333L437.556,177.774L437.463,178.61L437.823,179.335L436.757,179.087L435.715,179.691L435.831,180.536L435.693,181.021L436.173,181.887L437.468,182.744L438.218,184.153L439.79,185.527L440.843,185.517L441.195,185.894L440.836,186.233L442.083,186.849L443.108,187.366L444.328,188.256L444.489,188.575L444.275,189.187L443.47,188.389L442.275,188.109L441.77,189.214L442.79,189.847L442.682,190.739L442.117,190.84L441.468,192.308L440.903,192.44L440.881,191.916L441.111,190.999L441.387,190.633L440.801,189.643L440.339,188.782L439.763,188.568L439.323,187.831L438.438,187.522L437.817,186.835L436.812,186.724L435.723,185.953L434.442,184.845L433.489,183.863L433.003,182.179L432.331,181.981L431.228,181.419L430.624,181.649L429.88,182.439L429.329,182.563L429.46,181.824L428.732,181.608L428.352,180.291L428.797,179.774L428.388,179.134L428.43,178.655L429.008,179.019L429.641,178.939L430.361,178.36L430.599,178.631L431.224,178.576L431.483,177.891L432.466,178.104L433.032,177.816L433.105,177.119Z" fill-rule="evenodd" fill="#ef4444" stroke="#ffffff" stroke-width="0.5"/>
        <path class="prism-mark-geoshape" data-prism-id="geoshape-7-1" d="M439.618,192.038L440.65,191.889L440.225,193.236L440.458,193.767L440.212,194.647L439.128,194.001L438.421,193.816L436.466,192.946L436.621,192.068L438.23,192.224L439.618,192.038Z" fill-rule="evenodd" fill="#ef4444" stroke="#ffffff" stroke-width="0.5"/>
        <path class="prism-mark-geoshape" data-prism-id="geoshape-7-2" d="M431.189,187.327L431.847,186.798L432.701,188.01L432.589,190.271L431.965,190.163L431.427,190.732L430.896,190.279L430.781,188.218L430.442,187.242L431.189,187.327Z" fill-rule="evenodd" fill="#ef4444" stroke="#ffffff" stroke-width="0.5"/>
        <path class="prism-mark-geoshape" data-prism-id="geoshape-8-0" d="M409.156,193.828L409.056,193.261L409.579,192.619L409.779,192.154L409.319,191.646L409.724,190.522L409.204,189.496L409.795,189.356L409.871,188.548L410.097,188.299L410.148,186.967L410.783,186.504L410.427,185.65L409.645,185.59L409.407,185.805L408.612,185.807L408.3,184.973L407.744,185.22L407.241,185.653L407.351,184.439L406.829,183.699L408.763,182.471L410.387,182.778L412.18,182.768L413.595,183.059L414.706,182.969L416.866,183.025L417.394,183.688L419.86,184.461L420.348,184.093L421.861,184.865L423.416,184.644L423.498,185.634L422.232,186.77L420.503,187.131L420.383,187.706L419.552,188.652L419.026,190.043L419.558,191.02L418.767,191.784L418.469,192.897L417.432,193.237L416.45,194.555L414.701,194.58L413.388,194.548L412.516,195.153L411.978,195.8L411.306,195.658L410.805,195.079L410.435,194.094L409.156,193.828Z" fill-rule="evenodd" fill="#ef4444" stroke="#ffffff" stroke-width="0.5"/>
        <path class="prism-mark-geoshape" data-prism-id="geoshape-9-0" d="M345.073,315.079L344.538,314.108L345.031,313.294L344.05,312.125L342.812,311.178L341.205,310.077L340.69,310.127L339.085,308.799L338.197,308.981L339.75,306.641L341.129,304.974L341.993,304.275L343.074,303.327L342.942,301.958L342.111,300.967L341.443,301.295L341.609,300.305L341.69,299.291L341.587,298.347L341.038,298.037L340.53,298.313L339.987,298.237L339.748,297.577L339.448,296.006L339.127,295.494L338.108,295.029L337.554,295.365L336.001,295.036L335.86,292.71L335.342,291.758L335.759,291.403L335.529,290.427L335.858,289.677L335.999,288.328L335.566,287.264L334.734,286.785L334.524,286.109L334.66,285.122L331.865,285.05L331.152,283.06L331.576,283.031L331.504,282.294L331.184,281.795L331.052,280.807L330.169,280.3L329.252,280.317L328.614,279.821L327.603,279.483L326.987,278.844L325.331,278.563L323.646,277.033L323.696,275.889L323.478,275.231L323.567,273.953L321.662,274.242L320.924,274.883L319.683,275.575L319.387,276.092L318.635,276.128L317.536,275.984L316.728,276.278L316.049,276.082L315.997,273.489L314.85,274.494L313.553,274.451L312.946,273.54L311.967,273.441L312.238,272.709L311.368,271.67L310.685,270.135L311.059,269.823L311.028,269.103L311.896,268.61L311.715,267.688L312.069,267.094L312.151,266.3L313.801,265.139L314.999,264.811L315.19,264.554L316.518,264.634L317.104,259.96L317.134,259.222L316.898,258.245L316.243,257.623L316.252,256.386L317.083,256.105L317.377,256.28L317.429,255.628L316.567,255.452L316.557,254.385L319.427,254.424L319.92,253.836L320.324,254.377L320.604,255.382L320.884,255.173L321.689,256.074L322.836,255.963L323.123,255.442L324.221,255.043L324.83,254.763L325.007,254.043L326.064,253.557L325.989,253.199L324.743,253.052L324.554,251.978L324.635,250.836L323.984,250.395L324.263,250.238L325.349,250.454L326.511,250.881L326.943,250.478L328.008,250.214L329.668,249.576L330.221,248.925L330.037,248.444L330.804,248.369L331.138,248.762L330.929,249.51L331.43,249.767L331.751,250.56L331.332,251.162L331.075,252.612L331.442,253.473L331.542,254.262L332.442,255.062L333.164,255.147L333.33,254.813L333.796,254.74L334.464,254.44L334.947,253.986L335.76,254.131L336.12,254.07L336.919,254.21L337.054,253.862L336.812,253.523L336.964,253.03L337.556,253.18L338.253,253.006L339.093,253.368L339.734,253.719L340.193,253.257L340.522,253.328L340.72,253.809L341.425,253.686L341.997,253.039L342.464,251.784L343.358,250.224L343.862,250.144L344.21,251.087L345.003,254.066L345.789,254.349L345.822,255.525L344.711,256.928L345.169,257.441L347.772,257.709L347.832,259.418L348.946,258.3L350.801,258.912L353.253,259.953L353.978,260.952L353.745,261.895L355.453,261.37L358.327,262.271L360.527,262.205L362.719,263.616L364.624,265.526L365.764,266.017L367.023,266.087L367.566,266.624L368.101,268.794L368.366,269.826L367.845,272.646L367.128,273.76L365.133,276.136L364.267,278.066L363.242,279.546L362.878,279.581L362.523,280.836L362.775,284.039L362.506,286.675L362.415,287.805L361.994,288.479L361.878,290.768L360.561,293.005L360.443,294.774L359.334,295.518L359.078,296.545L357.516,296.541L355.312,297.2L354.368,297.963L352.808,298.464L351.253,299.83L350.216,301.532L350.144,302.814L350.483,303.762L350.412,305.496L350.189,306.334L349.313,307.278L348.133,310.3L347.084,311.663L346.245,312.465L345.847,314.099L345.073,315.079Z" fill-rule="evenodd" fill="#ef4444" stroke="#ffffff" stroke-width="0.5"/>
        <path class="prism-mark-geoshape" data-prism-id="geoshape-10-0" d="M255.58,201.653L257.213,201.521L259.049,201.334L258.81,201.67L260.663,202.505L263.497,203.713L266.294,203.701L267.408,203.701L267.616,202.992L270.045,202.992L270.383,203.602L270.949,204.144L271.578,204.9L271.803,205.796L271.906,206.741L272.503,207.259L273.547,207.774L274.781,206.418L275.943,206.385L276.765,207.069L277.187,208.245L277.437,209.251L278.047,210.23L278.09,211.431L278.311,212.238L279.309,212.77L280.242,213.148L280.81,213.096L279.947,214.603L279.451,215.838L278.91,218.135L278.619,218.973L278.702,219.908L279.004,220.744L279.07,222.074L279.824,223.348L280.012,224.326L280.453,225.168L281.926,225.622L282.424,226.339L283.763,225.86L284.893,225.687L286.022,225.379L286.974,225.086L287.994,224.388L288.483,223.389L288.819,221.949L289.144,221.448L290.192,220.999L291.778,220.602L293.046,220.662L293.941,220.516L294.232,220.879L294.059,221.705L293.135,222.725L292.642,223.766L292.867,224.066L292.548,224.806L292.008,226.141L291.698,225.701L291.391,225.73L291.112,225.752L290.458,226.786L290.22,226.582L290.034,226.663L290.013,226.914L288.673,226.896L287.317,226.897L287.192,227.861L286.535,227.866L287.003,228.437L287.492,228.832L287.609,229.202L287.832,229.306L287.726,229.888L285.857,229.893L284.994,231.288L285.165,231.606L284.951,232.008L284.86,232.505L283.419,230.666L282.734,230.11L281.6,229.664L280.772,229.788L279.524,230.431L278.769,230.599L277.795,230.149L276.746,229.824L275.488,229.039L274.43,228.8L272.894,228.004L271.796,227.186L271.496,226.73L270.7,226.627L269.298,226.086L268.815,225.304L267.417,224.333L266.874,223.252L266.675,222.418L267.186,222.25L267.124,221.762L267.536,221.318L267.651,220.725L267.31,219.956L267.311,219.273L266.997,218.408L266.079,216.703L264.926,215.363L264.467,214.294L263.402,213.592L263.236,213.174L263.705,212.113L263.077,211.713L262.441,210.879L262.392,209.68L261.664,209.541L261.078,208.636L260.641,207.802L260.726,207.264L260.33,205.97L260.212,204.654L260.429,203.995L259.619,203.313L259.128,203.389L258.474,202.915L258.033,203.614L258.017,204.436L257.772,205.726L258.051,206.435L258.767,207.616L258.888,208.022L259.07,208.143L259.097,208.734L259.356,208.71L259.346,209.818L259.664,210.254L259.811,210.861L260.487,211.735L260.572,213.331L260.82,214.083L261.032,214.888L260.908,215.792L261.586,215.849L261.99,216.629L262.348,217.394L262.25,217.701L261.514,218.332L261.261,218.324L261.101,217.281L260.372,216.303L259.524,215.475L258.892,215.039L259.231,213.783L259.237,212.853L258.689,212.321L257.9,211.555L257.656,211.776L257.411,211.328L256.64,210.913L256.065,209.915L256.203,209.787L256.762,209.885L257.459,209.242L257.721,208.468L256.972,207.244L256.278,206.768L256.071,205.695L255.885,204.57L255.657,203.197L255.58,201.653Z" fill-rule="evenodd" fill="#ef4444" stroke="#ffffff" stroke-width="0.5"/>
        <path class="prism-mark-geoshape" data-prism-id="geoshape-11-0" d="M609.591,127.18L609.951,125.771L611.581,128.059L610.53,128.225L609.591,127.18Z" fill-rule="evenodd" fill="#ef4444" stroke="#ffffff" stroke-width="0.5"/>
        <path class="prism-mark-geoshape" data-prism-id="geoshape-11-1" d="M483.995,177.961L483.605,178.969L482.383,179.25L481.411,181.006L482.929,182.621L483.013,183.768L484.849,185.776L484.849,185.776L484.168,186.463L484.014,186.898L483.395,186.781L482.287,185.745L481.898,185.687L480.983,185.293L480.449,184.592L479.137,184.236L478.368,184.504L478.08,184.187L476.118,183.371L474.105,183.095L472.929,182.803L472.798,183.004L470.871,181.566L469.254,180.924L467.955,179.924L468.876,179.651L469.743,178.229L468.898,177.556L470.715,176.862L470.616,176.491L469.488,176.765L469.401,176.01L469.992,175.534L471.232,175.409L471.336,174.843L470.878,173.903L471.239,173.013L471.129,172.511L469.125,171.957L468.376,171.974L467.438,171.176L466.5,171.445L464.765,170.846L464.736,170.509L464.153,169.767L463.121,169.685L462.926,169.154L463.186,168.805L462.209,167.833L460.921,168L460.521,167.912L460.263,168.304L459.778,168.234L459.778,168.234L459.291,167.133L458.903,166.56L459.121,166.399L460.148,166.458L460.576,166.081L460.136,165.619L459.238,165.314L459.262,164.999L458.7,164.683L457.733,163.54L457.923,163.067L457.666,162.242L456.387,161.822L455.772,162.032L455.528,161.594L454.16,161.149L453.605,160.097L453.37,159.226L452.719,158.809L453.156,158.234L452.539,156.523L453.234,155.451L453.003,155.124L453.003,155.124L454.201,154.077L452.809,153.165L452.809,153.165L454.944,150.658L455.84,149.489L456.102,148.438L454.148,146.995L454.395,145.586L453.105,143.924L453.569,141.937L451.857,139.16L452.609,137.219L450.678,135.427L450.586,133.462L451.432,133.197L453.126,132.022L453.126,132.022L454.101,130.975L456.136,132.778L459.225,133.468L463.918,136.599L465.007,137.849L465.414,139.541L464.426,140.835L462.711,141.476L457.365,139.621L456.594,139.936L458.727,141.714L458.991,142.805L459.481,145.123L461.084,145.794L462.093,146.357L462.036,145.298L461.163,144.342L461.726,143.481L464.764,144.885L465.616,144.342L464.506,142.663L466.657,140.323L467.723,140.463L468.956,141.311L469.244,139.631L467.993,138.121L468.211,136.548L467.063,134.858L470.316,135.741L471.271,137.24L469.938,137.563L470.256,138.994L471.327,139.85L472.932,139.308L472.83,137.68L474.852,136.42L478.126,134.055L478.985,134.194L478.314,135.875L479.751,136.156L480.304,135.223L482.343,135.149L483.666,133.987L485.366,135.665L486.107,133.817L484.52,132.134L484.827,131.145L488.266,132.054L490.025,132.971L494.956,136.17L495.24,134.733L493.67,133.234L493.454,132.618L492.06,132.327L492.008,130.905L490.752,128.458L490.439,127.412L491.578,124.309L491.417,120.966L492.003,120.208L495.014,121.222L495.78,123.286L495.566,126.137L496.532,127.21L497.542,129.472L498.578,133.588L500.351,135.309L500.489,137.109L499.554,140.704L500.967,141.06L501.1,140.183L502.105,139.549L501.955,138.296L502.478,137.056L501.305,135.526L501.195,133.68L499.924,133.445L499.139,131.813L499.034,128.705L496.857,126.007L498.078,123.644L497.114,121.008L497.61,120.92L498.727,122.991L499.286,126.385L500.607,127L499.393,124.525L500.746,123.115L502.865,122.922L505.426,124.961L503.582,121.949L502.301,117.785L503.861,116.953L506.382,117.135L508.45,116.589L506.988,114.347L507.358,111.384L508.483,111.254L509.804,108.888L512.272,108.236L512.237,106.866L514.723,106.393L515.85,107.53L517.328,104.803L519.171,104.892L518.808,102.58L519.111,100.205L520.787,97.828L522.961,99.714L522.012,101.114L524.471,101.965L525.51,104.629L526.031,103.334L528.934,103.404L531.961,105.973L533.374,107.864L533.973,110.389L533.336,111.773L531.544,114.272L531.235,115.56L532.719,116.156L534.627,117.21L535.256,116.421L536.789,119.048L536.833,118.002L538.228,117.354L541.798,118.03L542.817,119.896L547.404,120.475L546.165,117.428L548.651,118.144L550.288,118.123L552.884,120.212L554.488,122.632L554.594,124.149L557.278,126.866L559.653,128.205L558.843,124.659L561.338,126.215L562.659,125.291L565.267,126.344L565.532,125.385L567.523,125.867L565.023,122.569L565.577,120.943L576.293,123.359L578.385,125.461L582.702,128.026L586.621,127.405L589.086,127.944L590.841,129.276L592.225,131.531L594.147,132.38L595.173,131.771L597.038,131.693L599.5,132.276L601.319,131.947L605.125,134.515L605.79,133.608L603.52,131.738L603.025,130.389L607.091,131.245L609.203,131.063L613.404,132.488L615.924,133.751L624.653,143.853L624.658,143.867L624.102,144.854L622.468,144.691L624.592,145.866L626.947,147.634L628.023,148.199L628.984,149.057L629.206,149.599L626.598,149.153L624.773,150.68L623.946,150.912L623.444,152.299L622.833,153.488L623.202,154.355L620.265,153.03L618.534,154.531L617.348,153.825L616.933,154.639L615.098,154.38L615.82,155.619L615.961,157.411L616.656,158.149L618.403,158.556L620.536,161.167L619.448,161.232L620.188,162.709L621.351,163.465L619.922,164.357L621.121,166.337L619.581,166.758L620.592,168.507L619.991,170.104L618.613,168.924L616.101,166.413L612.269,162.542L610.815,160.081L610.942,159.008L610.285,158.161L611.825,157.753L611.96,155.424L612.302,153.475L613.059,151.925L611.488,149.094L610.221,149.268L610.983,150.932L609.876,153.088L606.804,150.67L604.344,151.347L604.122,154.59L606.089,155.742L603.808,156.228L602.1,156.419L601.07,155.07L598.969,154.783L598.235,155.707L594.297,155.385L590.774,155.938L589.569,159.507L587.884,163.684L590.006,163.904L591.399,164.996L592.892,165.381L593.071,164.512L594.526,164.626L597.718,166.532L598.807,167.998L599.006,169.712L600.282,171.753L601.48,174.477L601.048,176.939L601.316,178.116L600.676,180.095L599.983,182.061L599.663,183.067L598.407,184.068L597.572,184.09L596.301,183.26L595.143,184.507L595.218,185.075L595.218,185.075L595.218,185.075L595.218,185.075L594.881,184.777L594.881,184.777L594.436,183.911L595.097,183.865L594.24,181.852L593.108,180.395L593.916,179.794L595.689,180.095L595.646,178.44L595.01,176.578L595.148,175.956L594.901,174.424L593.058,174.926L592.33,175.597L590.345,175.595L588.868,173.995L586.604,172.784L584.028,172.24L582.534,170.567L581.438,169.517L580.5,168.78L578.619,167.045L577.106,166.41L574.893,165.894L573.255,165.941L571.885,166.254L571.367,167.112L572.311,167.522L572.899,168.471L572.519,169.02L572.425,170.836L572.866,171.587L571.654,172.665L569.75,172.02L568.291,172.164L567.304,171.592L566.431,171.408L565.191,172.609L563.639,172.892L562.669,173.314L560.896,173.036L559.706,173.053L558.479,172.182L556.801,171.363L555.399,171.138L553.886,171.362L552.828,171.677L550.648,170.959L549.768,169.678L548.048,169.238L546.793,169.037L545.017,168.328L544.557,170.104L545.555,171.111L544.856,172.298L542.797,171.87L541.484,171.809L540.264,171.01L538.914,170.986L537.565,170.461L535.967,171.264L534.133,172.733L532.892,173.03L532.443,173.169L531.331,172.126L529.763,172.355L528.923,171.631L527.889,171.3L526.871,170.313L526.04,170.005L524.377,170.444L522.225,169.459L521.895,170.354L517.34,165.989L515.204,164.648L515.443,164.101L512.945,165.742L511.777,165.841L511.522,164.893L509.689,164.3L508.541,164.725L507.475,162.913L505.104,162.535L504.25,163.263L501.359,163.909L500.896,164.34L496.411,164.946L496.022,165.537L497.303,166.722L496.229,167.171L496.609,167.639L495.645,168.478L498.063,169.656L497.984,170.466L496.164,170.393L495.938,170.901L494.046,170.013L492.028,170.047L490.866,170.769L489.165,170.078L486.041,168.891L484.063,168.936L481.876,170.798L482.006,172.044L480.455,171.054L479.847,172.929L480.301,173.277L479.829,174.567L481.18,175.721L482.138,175.673L483.216,176.809L483.269,177.685L483.995,177.961Z" fill-rule="evenodd" fill="#ef4444" stroke="#ffffff" stroke-width="0.5"/>
        <path class="prism-mark-geoshape" data-prism-id="geoshape-11-2" d="M505.779,74.584L507.435,72.718L509.982,76.832L513.602,84.184L514.733,90.417L512.836,91.241L509.761,89.32L507.641,86.697L505.902,81.499L504.351,80.005L505.779,74.584Z" fill-rule="evenodd" fill="#ef4444" stroke="#ffffff" stroke-width="0.5"/>
        <path class="prism-mark-geoshape" data-prism-id="geoshape-11-3" d="M516.876,87.712L520.181,91.522L520.537,94.118L515.684,96.495L515.457,88.035L516.062,87.262L516.876,87.712Z" fill-rule="evenodd" fill="#ef4444" stroke="#ffffff" stroke-width="0.5"/>
        <path class="prism-mark-geoshape" data-prism-id="geoshape-11-4" d="M557.456,106.409L560.172,106.633L564.874,109.263L565.611,112.742L561.821,112.615L560.606,113.68L557.329,110.7L556.517,107.36L557.456,106.409Z" fill-rule="evenodd" fill="#ef4444" stroke="#ffffff" stroke-width="0.5"/>
        <path class="prism-mark-geoshape" data-prism-id="geoshape-11-5" d="M568.478,110.303L571.564,111.533L571.234,113.332L569.425,112.932L566.723,111.118L566.287,109.581L568.478,110.303Z" fill-rule="evenodd" fill="#ef4444" stroke="#ffffff" stroke-width="0.5"/>
        <path class="prism-mark-geoshape" data-prism-id="geoshape-11-6" d="M563.948,118.908L564.159,117.305L565.26,116.919L567.481,118.487L568.126,119.535L566.57,119.563L564.231,119.12L563.948,118.908Z" fill-rule="evenodd" fill="#ef4444" stroke="#ffffff" stroke-width="0.5"/>
        <path class="prism-mark-geoshape" data-prism-id="geoshape-11-7" d="M461.014,78.075L462.693,76.633L464.089,76.537L464.481,78.661L464.832,76.776L465.577,75.449L467.12,77.206L466.883,78.411L465.738,79.437L464.957,80.013L464.951,81.266L463.98,82.499L462.796,80.722L463.101,78.318L461.014,78.075Z" fill-rule="evenodd" fill="#ef4444" stroke="#ffffff" stroke-width="0.5"/>
        <path class="prism-mark-geoshape" data-prism-id="geoshape-11-8" d="M447.831,164.385L445.534,164.411L443.975,164.214L444.178,163.446L445.834,162.878L447.172,163.185L447.755,163.461L447.679,163.94L447.831,164.385Z" fill-rule="evenodd" fill="#ef4444" stroke="#ffffff" stroke-width="0.5"/>
        <path class="prism-mark-geoshape" data-prism-id="geoshape-11-9" d="M474.423,117.367L476.199,113.609L475.567,111.546L477.389,109.039L480.13,105.818L483.259,104.845L484.597,102.863L486.384,102.152L487.463,104.286L487.108,105.911L484.051,108.408L481.418,110.705L479.076,115.005L478.329,119.056L477.436,122.735L478.27,125.685L480.919,128.422L480.352,128.702L476.763,128.283L476.167,126.819L474.06,125.912L473.533,124.024L474.457,123.253L474.033,121.225L475.461,117.867L474.423,117.367Z" fill-rule="evenodd" fill="#ef4444" stroke="#ffffff" stroke-width="0.5"/>
        <path class="prism-mark-geoshape" data-prism-id="geoshape-11-10" d="M598.92,165.468L600.573,167.134L601.752,168.826L603.492,170.554L606.85,173.576L604.557,173.013L605.368,175.472L607.748,177.216L608.449,178.405L606.82,177.379L606.765,178.695L605.647,177.269L604.752,175.612L603.417,173.776L602.865,172.488L601.37,170.205L599.448,168.521L597.88,166.166L598.461,165.369L597.37,164.565L597.745,164.319L598.92,165.468Z" fill-rule="evenodd" fill="#ef4444" stroke="#ffffff" stroke-width="0.5"/>
        <path class="prism-mark-geoshape" data-prism-id="geoshape-11-11" d="M224.596,138.495L223.177,140.057L223.412,140.665L224.685,138.862L227.402,139.238L227.674,141.531L225.672,142.561L223.604,142.801L221.61,145.019L220.738,145.478L219.721,145.412L219.547,144.64L218.622,143.983L219.263,142.988L218.449,142.61L216.889,142.91L217.01,142.093L218.047,141.207L216.188,141.774L215.698,142.88L214.16,143.853L222.889,133.751L223.857,135.877L224.596,138.495Z" fill-rule="evenodd" fill="#ef4444" stroke="#ffffff" stroke-width="0.5"/>
        <path class="prism-mark-geoshape" data-prism-id="geoshape-11-12" d="M228.77,127.859L227.232,128.059L228.862,125.771L229.098,125.627L229.99,125.634L230.843,126.611L230.431,127.067L228.77,127.859Z" fill-rule="evenodd" fill="#ef4444" stroke="#ffffff" stroke-width="0.5"/>
        <path class="prism-mark-geoshape" data-prism-id="geoshape-11-13" d="M463.493,178.687L463.779,178.265L464.769,178.631L465.203,178.697L465.425,179.034L465.632,179.085L465.664,179.233L466.371,179.643L467.705,179.541L467.539,180.148L466.132,180.442L464.469,181.428L463.681,181.081L463.864,180.281L462.349,179.784L462.538,179.457L463.723,178.891L463.493,178.687Z" fill-rule="evenodd" fill="#ef4444" stroke="#ffffff" stroke-width="0.5"/>
        <path class="prism-mark-geoshape" data-prism-id="geoshape-12-0" d="M578.206,226.247L576.93,225.716L576.642,224.244L577.22,223.468L578.715,222.989L579.553,223.028L579.993,223.682L579.491,224.436L579.323,225.425L578.206,226.247Z" fill-rule="evenodd" fill="#ef4444" stroke="#ffffff" stroke-width="0.5"/>
        <path class="prism-mark-geoshape" data-prism-id="geoshape-12-1" d="M527.235,184.853L526.826,183.882L527.605,183.439L525.447,180.48L527.842,179.801L528.388,179.422L528.247,176.377L531.053,176.937L531.491,176.168L530.894,174.462L531.912,174.303L532.443,173.169L532.892,173.03L533.716,174.218L535.172,175.12L537.29,175.758L538.743,177.129L539.012,179.116L539.77,179.854L541.454,180.145L543.331,180.383L545.344,181.443L546.24,181.632L547.446,183.202L548.612,184.212L550.076,184.173L552.991,184.555L554.684,184.318L556.108,184.572L558.502,185.609L560.13,185.607L560.936,186.137L562.138,185.222L564.067,184.628L566.053,184.565L567.365,183.965L567.929,183.052L568.61,182.48L568.142,181.918L567.42,181.264L567.612,180.167L568.429,180.32L569.954,180.665L570.846,179.762L572.542,179.104L572.949,177.979L573.628,177.495L575.419,177.27L576.554,177.461L576.382,176.857L574.568,175.668L573.23,175.124L572.561,175.751L571.134,175.488L570.507,175.702L569.81,175.008L569.823,173.306L569.75,172.02L571.654,172.665L572.866,171.587L572.425,170.836L572.519,169.02L572.899,168.471L572.311,167.522L571.367,167.112L571.885,166.254L573.255,165.941L574.893,165.894L577.106,166.41L578.619,167.045L580.5,168.78L581.438,169.517L582.534,170.567L584.028,172.24L586.604,172.784L588.868,173.995L590.345,175.595L592.33,175.597L593.058,174.926L594.901,174.424L595.148,175.956L595.01,176.578L595.646,178.44L595.689,180.095L593.916,179.794L593.108,180.395L594.24,181.852L595.097,183.865L594.436,183.911L594.881,184.777L593.507,183.771L593.455,184.725L591.739,185.46L592.382,186.359L591.187,186.298L590.291,185.762L589.936,186.974L588.866,187.89L588.252,188.987L586.568,189.483L585.907,190.283L584.635,190.749L585.025,189.956L584.457,189.291L585.034,188.143L583.92,187.248L583.008,187.851L581.988,189.038L581.612,190.142L580.31,190.224L579.937,191.021L581.12,192.18L582.351,192.46L582.7,193.229L583.982,193.729L585.036,192.506L586.521,193.172L587.428,193.219L588.007,194.114L586.245,194.594L585.955,195.519L584.933,196.378L584.658,197.578L586.49,198.522L587.626,200.208L589.012,201.782L590.4,203.1L590.79,204.376L590.055,204.845L590.679,205.76L591.672,206.292L591.876,207.692L591.914,209.052L591.167,209.206L590.646,211.066L590.084,213.318L589.265,215.367L587.665,216.948L585.989,218.392L584.411,218.589L583.693,219.351L583.079,218.795L582.441,219.647L580.602,220.506L579.126,220.768L578.975,222.577L578.193,222.678L577.585,221.435L577.799,220.771L575.761,220.223L575.133,220.502L573.597,220.057L572.777,219.361L572.81,218.373L571.434,218.059L570.612,217.416L569.57,218.33L568.211,218.528L567.063,218.519L566.37,218.937L565.672,219.189L566.245,221.15L565.467,221.102L565.267,220.699L565.096,219.992L564.13,220.49L563.448,220.175L562.265,219.532L562.421,218.107L561.449,217.775L560.804,216.197L559.347,216.482L559.116,214.445L560.171,213.012L559.923,211.596L559.589,210.283L558.875,209.874L558.169,208.863L557.369,208.99L555.783,208.734L556.095,208.013L555.18,206.945L554.342,207.668L553.058,207.247L551.677,208.339L550.667,209.617L549.569,209.831L548.849,209.369L548.092,209.328L546.994,208.932L546.32,209.366L545.643,210.643L545.246,209.29L544.455,209.651L542.768,209.484L541.082,209.09L539.78,208.336L538.611,207.997L537.967,207.173L537.122,206.926L535.466,205.808L534.225,205.279L533.726,205.691L531.52,204.489L529.913,203.403L529.114,201.511L530.169,201.741L530.021,200.865L529.268,199.987L529.088,198.587L527.122,196.577L524.684,195.884L523.959,194.567L522.748,193.768L522.383,193.277L521.936,192.301L521.816,191.635L520.888,191.245L520.481,191.418L519.732,189.836L520.019,189.445L519.727,189.045L520.809,188.239L521.655,187.904L523.152,188.133L523.359,187.044L525.034,186.84L525.319,186.163L527.163,185.239L527.235,184.853Z" fill-rule="evenodd" fill="#ef4444" stroke="#ffffff" stroke-width="0.5"/>
        <path class="prism-mark-geoshape" data-prism-id="geoshape-13-0" d="M442.555,306.167L443.267,305.317L443.808,305.788L444.016,306.523L444.646,306.646L445.521,306.971L446.287,306.845L447.592,305.968L447.872,299.629L448.248,299.886L449.025,301.516L448.845,302.562L449.137,303.166L450.164,302.991L450.913,302.224L451.614,301.707L452.002,300.885L452.718,300.488L453.311,300.696L453.968,301.177L455.125,301.262L456.061,300.863L456.234,300.327L456.529,299.505L457.315,299.368L457.779,298.725L458.317,297.581L459.674,296.301L461.777,295.038L462.361,295.057L463.042,295.348L463.539,295.142L464.293,295.314L464.838,297.726L465.136,298.944L464.754,300.857L464.835,301.474L464.136,301.159L463.715,301.281L463.548,301.782L463.115,302.426L463.088,303.02L463.872,303.951L464.717,303.765L465.062,303.003L466.14,303.017L465.692,304.266L465.417,305.693L464.99,306.468L463.958,307.335L463.664,307.584L462.997,308.456L462.535,309.339L461.64,310.568L459.915,312.34L458.846,313.37L457.73,314.151L456.22,314.816L455.504,314.906L455.289,315.383L454.461,315.129L453.749,315.455L452.263,315.124L451.405,315.333L450.834,315.244L449.356,315.921L448.153,316.192L447.255,316.841L446.621,316.882L446.069,316.271L445.602,316.239L445.046,315.474L444.966,315.712L444.806,315.251L444.867,314.243L444.472,313.093L444.939,312.781L444.968,311.464L444.124,309.857L443.48,308.403L443.478,308.398L442.555,306.167ZM460.401,306.818L459.82,306.289L459.134,306.638L458.323,307.311L457.496,308.398L458.46,309.718L458.976,309.548L459.275,308.999L460.08,308.731L460.36,308.171L460.855,307.335L460.401,306.818Z" fill-rule="evenodd" fill="#10b981" stroke="#ffffff" stroke-width="0.5"/>
        <path class="prism-mark-geoshape" data-prism-id="geoshape-14-0" d="M557.369,208.99L557.626,209.641L557.199,209.957L557.55,211.012L556.465,210.702L554.878,211.888L555.125,212.871L554.627,214.311L554.718,215.147L554.346,216.561L553.153,216.169L553.418,217.945L553.195,218.529L553.473,219.258L552.832,219.664L551.603,216.945L551.208,216.95L551.166,218.046L550.225,217.156L550.493,216.18L551.116,216.082L551.504,214.629L550.625,214.337L549.303,214.361L547.9,214.126L547.545,212.933L546.848,212.849L545.576,212.106L545.295,213.271L546.496,214.179L545.719,214.819L545.513,215.444L546.477,215.904L546.414,216.938L547.13,218.228L547.586,219.639L547.48,220.264L546.495,220.244L544.775,220.598L545.051,221.889L544.426,222.901L542.505,224.054L541.145,226.069L540.186,227.149L538.869,228.268L538.954,229.055L538.276,229.477L537.029,230.089L536.359,230.18L536.053,231.485L536.565,233.706L536.765,235.124L536.277,236.747L536.479,239.648L535.726,239.73L535.139,241.032L535.62,241.593L534.31,242.078L533.877,243.238L533.313,243.727L531.839,242.136L531.02,239.745L530.343,238.024L529.774,237.217L528.876,235.575L528.341,233.438L527.997,232.372L526.456,230.023L525.52,226.707L524.846,224.518L524.606,222.442L524.128,220.838L522.155,221.865L521.112,221.659L518.975,219.582L519.588,218.961L519.077,218.289L517.201,216.833L518.001,215.689L521.152,215.693L520.655,214.22L519.723,213.35L519.359,212.029L518.307,211.258L519.584,209.459L521.254,209.589L522.426,207.788L522.996,206.047L524.034,204.323L523.771,203.099L524.765,202.106L523.46,201.258L522.731,200.098L521.914,198.594L522.432,197.854L524.632,198.273L526.122,198.017L527.122,196.577L529.088,198.587L529.268,199.987L530.021,200.865L530.169,201.741L529.114,201.511L529.913,203.403L531.52,204.489L533.726,205.691L532.991,206.469L532.758,208.076L534.256,208.726L535.755,209.569L537.79,210.53L539.781,210.753L540.768,211.627L541.899,211.79L543.688,212.19L544.87,212.161L544.901,211.483L544.496,210.391L544.455,209.651L545.246,209.29L545.643,210.643L545.743,210.987L547.167,211.639L548.007,211.37L549.232,211.485L550.382,211.435L550.263,210.379L549.569,209.831L550.667,209.617L551.677,208.339L553.058,207.247L554.342,207.668L555.18,206.945L556.095,208.013L555.783,208.734L557.369,208.99Z" fill-rule="evenodd" fill="#10b981" stroke="#ffffff" stroke-width="0.5"/>
        <path class="prism-mark-geoshape" data-prism-id="geoshape-15-0" d="M472.489,219.735L466.778,219.735L461.192,219.735L455.403,219.735L455.093,213.417L454.743,207.312L454.234,205.93L454.53,204.869L454.265,204.136L454.718,203.312L456.583,203.282L457.967,203.737L459.398,204.244L460.071,204.512L461.11,203.967L461.649,203.476L462.876,203.334L463.892,203.55L464.345,204.402L464.624,203.842L465.786,204.247L466.89,204.345L467.542,203.913L467.542,203.913L468.551,206.416L468.731,206.862L468.393,207.553L468.196,208.849L467.882,209.744L467.574,210.042L467.058,209.49L466.358,208.722L465.151,206.261L465.018,206.418L465.75,208.229L466.755,209.955L468.032,212.629L468.627,213.561L469.156,214.531L470.576,216.43L470.313,216.73L470.435,217.845L472.214,219.383L472.489,219.735Z" fill-rule="evenodd" fill="#10b981" stroke="#ffffff" stroke-width="0.5"/>
      </g>
    </g>
    <g class="prism-legends"><g class="prism-legend prism-legend-color" data-prism-legend-id="legend-color"><text class="prism-legend-title" x="680" y="64">tier</text><rect class="prism-legend-swatch" x="680" y="76" width="12" height="12" fill="#3b82f6"/><text class="prism-legend-label" x="698" y="86">high</text><rect class="prism-legend-swatch" x="680" y="94" width="12" height="12" fill="#ef4444"/><text class="prism-legend-label" x="698" y="104">mid</text><rect class="prism-legend-swatch" x="680" y="112" width="12" height="12" fill="#10b981"/><text class="prism-legend-label" x="698" y="122">low</text></g></g>
  </g>
</svg>
