<svg xmlns="http://www.w3.org/2000/svg" viewBox="0 0 800 600">
  <style>:root{--prism-color-axis:#6b7280;--prism-color-grid:#e5e7eb;--prism-color-text:#111827;--prism-color-bg:transparent;--prism-font-sans:Inter, system-ui, sans-serif;--prism-font-mono:ui-monospace, SF Mono, monospace;--prism-font-size-label:11px;--prism-font-size-title:16px;--prism-font-size-axis-title:12px;}.prism-axis-domain{stroke:var(--prism-color-axis);fill:none;}.prism-axis-tick{stroke:var(--prism-color-axis);}.prism-axis-label{fill:var(--prism-color-text);font-family:var(--prism-font-sans);font-size:var(--prism-font-size-label,11px);}.prism-axis-title{fill:var(--prism-color-text);font-family:var(--prism-font-sans);font-size:var(--prism-font-size-axis-title,12px);font-weight:600;}.prism-grid-line{stroke:var(--prism-color-grid);}.prism-title{fill:var(--prism-color-text);font-family:var(--prism-font-sans);font-size:var(--prism-font-size-title,16px);font-weight:600;}.prism-legend-title{fill:var(--prism-color-text);font-family:var(--prism-font-sans);font-size:12px;font-weight:600;}.prism-legend-label{fill:var(--prism-color-text);font-family:var(--prism-font-sans);font-size:11px;}.prism-legend-swatch{stroke:none;}.prism-selected{opacity:var(--prism-selected-opacity,1);}.prism-deselected{opacity:var(--prism-deselected-opacity,0.3);}</style>

  <g class="prism-scene" data-scene-id="scene-0">
    <text class="prism-title" x="410" y="20" text-anchor="middle">World choropleth (GDP tier)</text>
    <g class="prism-plot">
      <g class="prism-layer" data-layer-id="layer-0" data-prism-layer="layer-0">
        <path class="prism-mark-geoshape" data-prism-id="geoshape-0-0" data-prism-datum-row="0" d="M4.883,269.512L76.529,267.626L101.753,277.049L141.609,273.909L139.379,281.761L101.897,295.927L95.87,319.651L49.152,330.746L32.177,330.746L1.601,319.651L-8.447,295.927L4.883,269.512Z" fill-rule="evenodd" fill="#3b82f6" stroke="#ffffff" stroke-width="0.5"/>
        <path class="prism-mark-geoshape" data-prism-id="geoshape-1-0" data-prism-datum-row="1" d="M21.695,193.982L112.364,193.982L123.886,224.571L158.564,224.571L174.714,258.161L140.698,277.049L101.753,277.049L76.529,267.626L5.962,267.626L-5.17,231.799L21.695,193.982Z" fill-rule="evenodd" fill="#3b82f6" stroke="#ffffff" stroke-width="0.5"/>
        <path class="prism-mark-geoshape" data-prism-id="geoshape-2-0" data-prism-datum-row="2" d="M285.823,238.675L299.326,235.274L307.273,254.983L307.321,261.325L296.645,264.479L289.698,258.161L285.398,248.564L285.823,238.675Z" fill-rule="evenodd" fill="#3b82f6" stroke="#ffffff" stroke-width="0.5"/>
        <path class="prism-mark-geoshape" data-prism-id="geoshape-3-0" data-prism-datum-row="3" d="M291.967,261.325L325.037,261.325L326.139,289.624L311.231,289.624L298.832,286.477L291.607,277.049L291.967,261.325Z" fill-rule="evenodd" fill="#3b82f6" stroke="#ffffff" stroke-width="0.5"/>
        <path class="prism-mark-geoshape" data-prism-id="geoshape-4-0" data-prism-datum-row="4" d="M317.562,248.564L338.239,248.564L340.084,273.909L318.3,273.909L317.562,248.564Z" fill-rule="evenodd" fill="#3b82f6" stroke="#ffffff" stroke-width="0.5"/>
        <path class="prism-mark-geoshape" data-prism-id="geoshape-5-0" data-prism-datum-row="5" d="M636.375,318.066L654.874,295.927L664.054,289.624L651.285,280.19L651.908,311.731L642.682,321.235L636.375,318.066Z" fill-rule="evenodd" fill="#3b82f6" stroke="#ffffff" stroke-width="0.5"/>
        <path class="prism-mark-geoshape" data-prism-id="geoshape-6-0" data-prism-datum-row="6" d="M607.473,488.502L657.327,463.233L690.167,460.08L702.542,491.667L702.141,517.014L676.573,545.507L659.377,539.187L632.333,523.354L604.743,501.166L607.473,488.502Z" fill-rule="evenodd" fill="#3b82f6" stroke="#ffffff" stroke-width="0.5"/>
        <path class="prism-mark-geoshape" data-prism-id="geoshape-7-0" data-prism-datum-row="7" d="M320.816,277.049L335.42,277.049L348.918,295.927L344.417,305.402L334.257,305.402L323.655,289.624L320.816,277.049Z" fill-rule="evenodd" fill="#ef4444" stroke="#ffffff" stroke-width="0.5"/>
        <path class="prism-mark-geoshape" data-prism-id="geoshape-8-0" data-prism-datum-row="8" d="M281.637,283.332L313.618,283.332L313.978,308.566L280.827,308.566L281.637,283.332Z" fill-rule="evenodd" fill="#ef4444" stroke="#ffffff" stroke-width="0.5"/>
        <path class="prism-mark-geoshape" data-prism-id="geoshape-9-0" data-prism-datum-row="9" d="M108.15,406.559L167.925,406.559L208.681,438.03L200.327,494.832L174.864,526.524L130.98,491.667L108.504,447.476L108.15,406.559Z" fill-rule="evenodd" fill="#ef4444" stroke="#ffffff" stroke-width="0.5"/>
        <path class="prism-mark-geoshape" data-prism-id="geoshape-10-0" data-prism-datum-row="10" d="M1.601,319.651L32.177,330.746L49.152,330.746L64.519,352.923L71.549,359.25L51.945,365.572L23.502,359.25L1.601,319.651Z" fill-rule="evenodd" fill="#ef4444" stroke="#ffffff" stroke-width="0.5"/>
        <path class="prism-mark-geoshape" data-prism-id="geoshape-11-0" data-prism-datum-row="11" d="M347.428,248.564L441.622,248.564L533.518,248.564L625.414,248.564L678.928,231.799L642.284,188.516L565.012,153.867L457.172,169.453L385.3,199.094L345.706,231.799L347.428,248.564Z" fill-rule="evenodd" fill="#ef4444" stroke="#ffffff" stroke-width="0.5"/>
        <path class="prism-mark-geoshape" data-prism-id="geoshape-12-0" data-prism-datum-row="12" d="M489.357,295.927L597.446,280.19L628.649,270.769L629.238,327.575L597.399,359.25L556.328,352.923L512.072,327.575L489.357,295.927Z" fill-rule="evenodd" fill="#ef4444" stroke="#ffffff" stroke-width="0.5"/>
        <path class="prism-mark-geoshape" data-prism-id="geoshape-13-0" data-prism-datum-row="13" d="M348.971,491.667L391.506,491.667L389.699,517.014L375.715,529.692L350.023,529.692L348.971,491.667Z" fill-rule="evenodd" fill="#10b981" stroke="#ffffff" stroke-width="0.5"/>
        <path class="prism-mark-geoshape" data-prism-id="geoshape-14-0" data-prism-datum-row="14" d="M477.843,311.731L534.259,333.916L556.328,352.923L526.173,397.114L512.612,397.114L497.582,375.046L477.843,311.731Z" fill-rule="evenodd" fill="#10b981" stroke="#ffffff" stroke-width="0.5"/>
        <path class="prism-mark-geoshape" data-prism-id="geoshape-15-0" data-prism-datum-row="15" d="M368.561,322.82L398.361,322.82L400.81,352.923L370.238,352.923L368.561,322.82Z" fill-rule="evenodd" fill="#10b981" stroke="#ffffff" stroke-width="0.5"/>
      </g>
    </g>
    <g class="prism-legends"><g class="prism-legend prism-legend-color" data-prism-legend-id="legend-color"><text class="prism-legend-title" x="680" y="64">tier</text><rect class="prism-legend-swatch" x="680" y="76" width="12" height="12" fill="#3b82f6"/><text class="prism-legend-label" x="698" y="86">high</text><rect class="prism-legend-swatch" x="680" y="94" width="12" height="12" fill="#ef4444"/><text class="prism-legend-label" x="698" y="104">mid</text><rect class="prism-legend-swatch" x="680" y="112" width="12" height="12" fill="#10b981"/><text class="prism-legend-label" x="698" y="122">low</text></g></g>
  </g>
</svg>
