<svg xmlns="http://www.w3.org/2000/svg" viewBox="0 0 800 600" overflow="hidden">
  <style>:root{--prism-color-axis:#6b7280;--prism-color-grid:#e5e7eb;--prism-color-text:#111827;--prism-color-bg:transparent;--prism-font-sans:Inter, system-ui, sans-serif;--prism-font-mono:ui-monospace, SF Mono, monospace;--prism-font-size-label:11px;--prism-font-size-title:16px;--prism-font-size-axis-title:12px;}.prism-axis-domain{stroke:var(--prism-color-axis);fill:none;}.prism-axis-tick{stroke:var(--prism-color-axis);}.prism-axis-label{fill:var(--prism-color-text);font-family:var(--prism-font-sans);font-size:var(--prism-font-size-label,11px);}.prism-axis-title{fill:var(--prism-color-text);font-family:var(--prism-font-sans);font-size:var(--prism-font-size-axis-title,12px);font-weight:600;}.prism-grid-line{stroke:var(--prism-color-grid);}.prism-title{fill:var(--prism-color-text);font-family:var(--prism-font-sans);font-size:var(--prism-font-size-title,16px);font-weight:600;}.prism-legend-title{fill:var(--prism-color-text);font-family:var(--prism-font-sans);font-size:12px;font-weight:600;}.prism-legend-label{fill:var(--prism-color-text);font-family:var(--prism-font-sans);font-size:11px;}.prism-legend-swatch{stroke:none;}.prism-selected{opacity:var(--prism-selected-opacity,1);}.prism-deselected{opacity:var(--prism-deselected-opacity,0.3);}</style>

  <g class="prism-scene" data-scene-id="scene-0">
    <text class="prism-title" x="410" y="20" text-anchor="middle">World choropleth (GDP tier)</text>
    <g class="prism-plot">
      <g class="prism-layer" data-layer-id="layer-0" data-prism-layer="layer-0">
        <path class="prism-mark-geoshape" data-prism-id="geoshape-0-0" data-prism-datum-row="0" d="M208.879,199.137L213.529,199.137L218.39,199.137L219.999,199.137L224.99,199.137L229.819,199.137L234.731,199.137L239.646,199.137L245.21,199.137L250.812,199.135L254.2,199.137L254.571,198.311L255.128,198.3L254.899,199.482L255.251,199.845L256.339,199.979L257.869,200.321L259.185,200.987L260.633,200.708L262.429,201.267L262.976,201.245L264.694,200.637L265.927,201.417L267.217,202.249L268.282,202.965L269.31,203.653L269.261,204.218L269.574,204.429L269.395,204.641L269.816,204.708L270.221,204.487L270.119,204.996L270.331,205.336L270.789,205.336L270.938,205.598L270.597,205.98L271.984,206.988L271.676,208.941L271.393,210.81L270.487,212.083L269.311,213.267L268.699,214.021L268.59,214.245L268.684,214.554L269.157,214.894L269.585,214.894L271.916,213.743L273.771,213.405L276.319,212.332L276.418,212.115L276.469,211.458L276.327,211.036L277.197,210.694L278.857,210.686L280.405,210.686L281.202,209.849L281.464,209.681L283.719,208.132L284.597,207.737L287.146,207.722L290.234,207.719L290.559,207.188L291.126,207.081L291.936,206.748L292.82,205.77L293.832,204.098L295.592,202.475L295.969,203.04L297.189,202.675L297.737,203.296L296.879,206.225L297.628,207.44L297.72,208.145L295.639,209.188L293.705,209.93L291.748,210.567L290.499,211.846L290.077,212.33L289.748,213.472L290.003,214.614L290.695,214.668L290.725,213.881L291.108,214.36L290.81,214.976L289.567,215.325L288.76,215.284L287.398,215.66L286.627,215.767L285.607,215.873L284.014,216.499L286.632,216.093L287.03,216.501L284.464,217.148L283.372,217.152L283.495,216.887L282.812,217.485L283.291,217.584L282.51,219.136L280.825,220.797L280.841,220.244L280.491,220.132L280.069,219.59L280.122,220.754L280.451,221.139L280.268,221.956L279.502,222.795L278.094,224.524L277.958,224.437L278.862,222.966L278.188,222.14L278.454,220.344L277.876,221.277L277.891,222.65L276.835,222.311L277.847,223.007L277.406,225.067L277.868,225.216L277.867,225.965L277.599,228.131L276.114,229.739L274.151,230.383L272.705,231.655L271.796,231.794L270.722,232.59L270.306,233.318L268.054,234.726L266.828,235.758L265.712,237.045L265.109,238.586L265.108,240.091L265.328,241.949L265.822,243.485L265.655,244.423L266.041,246.939L265.727,248.401L265.502,249.245L264.828,250.57L264.242,250.843L263.398,250.581L263.275,249.629L262.677,249.13L262.056,247.265L261.53,245.605L261.423,244.757L262.071,243.316L261.809,242.122L260.793,240.306L260.168,239.974L258.16,240.959L257.864,240.851L257.217,239.838L256.219,239.302L254.146,239.575L252.62,239.334L251.229,239.484L250.415,239.822L250.605,240.4L250.38,241.278L250.664,241.708L250.262,241.992L249.669,241.673L248.907,242.086L247.627,242.016L246.552,240.87L244.934,241.142L243.753,240.638L242.608,240.79L240.987,241.298L238.987,242.906L236.993,243.843L235.779,244.878L235.148,245.854L234.802,247.351L234.669,248.393L234.856,249.13L234.14,249.195L232.96,248.718L231.699,248.045L231.419,247.026L231.366,245.507L230.594,244.271L230.278,242.999L229.746,241.513L228.707,240.649L227.238,240.69L225.678,242.405L224.36,241.754L223.606,241.098L223.475,239.905L223.191,238.772L222.396,237.817L221.681,237.132L221.253,236.362L218.183,236.362L217.92,237.258L216.513,237.258L212.979,237.273L209.397,235.745L207.056,234.691L207.358,234.266L205.038,234.502L202.975,234.669L203.041,233.561L202.318,232.314L201.584,232.054L201.607,231.432L200.658,231.323L200.234,230.738L198.679,230.523L198.357,230.172L198.577,228.985L197.695,226.808L197.43,223.799L197.693,223.299L197.222,222.583L196.644,220.771L197.167,219.011L196.774,217.832L197.959,216.043L198.759,214.194L199.004,212.543L200.658,210.516L201.842,208.562L203.051,206.612L204.284,203.728L204.772,201.89L204.852,200.893L205.29,200.471L207.258,201.202L207.026,203.232L207.742,202.664L208.446,200.901L208.879,199.137Z" fill-rule="evenodd" fill="#3b82f6" stroke="#ffffff" stroke-width="0.5"/>
        <path class="prism-mark-geoshape" data-prism-id="geoshape-0-1" data-prism-datum-row="1" d="M126.126,261.676L126.402,261.864L126.627,262.154L126.904,262.912L126.831,263.033L126.003,263.494L125.335,263.834L124.981,264.195L124.6,263.886L124.8,263.28L124.694,262.492L124.844,262.252L125.251,261.899L125.234,261.473L125.392,261.271L125.52,261.31L126.126,261.676Z" fill-rule="evenodd" fill="#3b82f6" stroke="#ffffff" stroke-width="0.5"/>
        <path class="prism-mark-geoshape" data-prism-id="geoshape-0-2" data-prism-datum-row="2" d="M125.426,260.195L125.206,260.455L124.554,260.611L124.359,260.154L124.196,259.979L124.216,259.842L124.444,259.658L125.038,259.864L125.426,260.195Z" fill-rule="evenodd" fill="#3b82f6" stroke="#ffffff" stroke-width="0.5"/>
        <path class="prism-mark-geoshape" data-prism-id="geoshape-0-3" data-prism-datum-row="3" d="M124.277,259.301L124.157,259.535L123.197,259.472L123.405,259.208L124.277,259.301Z" fill-rule="evenodd" fill="#3b82f6" stroke="#ffffff" stroke-width="0.5"/>
        <path class="prism-mark-geoshape" data-prism-id="geoshape-0-4" data-prism-datum-row="4" d="M122.292,258.132L122.404,258.27L122.731,258.987L122.598,259.113L122.475,259.085L121.862,259.009L121.767,258.517L121.72,258.431L122.292,258.132Z" fill-rule="evenodd" fill="#3b82f6" stroke="#ffffff" stroke-width="0.5"/>
        <path class="prism-mark-geoshape" data-prism-id="geoshape-0-5" data-prism-datum-row="5" d="M120.16,257.053L120.052,257.558L119.774,257.772L119.274,257.378L119.415,257.22L119.754,257.007L120.16,257.053Z" fill-rule="evenodd" fill="#3b82f6" stroke="#ffffff" stroke-width="0.5"/>
        <path class="prism-mark-geoshape" data-prism-id="geoshape-0-6" data-prism-datum-row="6" d="M159.41,173.687L160.407,173.906L159.711,174.832L158.443,175.206L157.861,174.758L157.544,174.102L159.41,173.687Z" fill-rule="evenodd" fill="#3b82f6" stroke="#ffffff" stroke-width="0.5"/>
        <path class="prism-mark-geoshape" data-prism-id="geoshape-0-7" data-prism-datum-row="7" d="M174.56,179.394L175.45,179.55L175.513,180.262L173.282,181.346L171.018,182.21L170.712,181.625L171.364,180.56L173.446,179.744L174.56,179.394Z" fill-rule="evenodd" fill="#3b82f6" stroke="#ffffff" stroke-width="0.5"/>
        <path class="prism-mark-geoshape" data-prism-id="geoshape-0-8" data-prism-datum-row="8" d="M217.191,146.095L217.191,146.095L208.982,158.624L197.605,173.877L199.035,173.947L199.993,174.616L200.254,175.664L200.432,177.217L202.901,175.897L204.998,175.124L204.893,176.355L205.208,177.32L205.837,178.373L205.599,180.028L205.326,182.623L206.973,184.051L206.046,185.458L204.439,186.526L204.439,186.526L204.439,186.526L204.148,185.693L203.259,184.984L204.192,183.033L203.503,181.203L204.245,179.038L202.882,178.888L200.485,178.832L199.191,178.164L197.895,175.721L196.793,175.268L194.812,174.413L192.56,174.618L190.478,173.505L189.529,172.461L187.444,172.982L186.389,174.669L185.428,174.822L183.271,175.321L181.275,176.125L179.176,176.626L180.121,175.227L182.768,172.852L184.986,172.094L185.085,171.473L182.041,172.85L179.669,174.466L176.059,176.168L176.211,177.311L173.362,178.985L170.898,179.948L168.765,180.647L167.528,181.655L164.117,182.821L162.731,183.877L160.094,184.831L159.165,184.659L157.174,185.28L154.934,186.037L152.995,186.776L149.745,187.407L149.818,187.036L152.431,186.004L154.558,185.318L157.278,184.098L159.432,183.846L160.99,182.925L164.304,181.571L165.039,181.116L166.869,180.31L168.633,178.563L170.594,177.184L168.223,177.893L168.079,177.491L166.515,178.34L166.548,177.156L165.406,177.994L165.857,176.827L163.507,177.765L162.571,177.763L163.679,176.364L164.726,175.492L164.509,174.64L162.132,175.101L161.873,173.971L161.37,173.388L162.62,171.995L162.428,170.933L164.313,169.477L166.801,168.037L168.514,166.688L169.872,166.494L170.509,166.919L172.806,165.628L173.671,165.86L175.497,165.021L176.288,163.765L175.898,163.263L177.877,162.174L176.963,162.208L174.912,162.826L173.949,163.442L173.33,162.826L171.013,163.14L169.476,162.464L169.855,161.314L169.486,159.613L172.545,158.357L176.942,156.853L178.106,156.853L176.671,158.391L179.773,158.272L180.149,156.355L179.365,155.147L179.639,153.517L179.401,152.085L178.317,151.001L180.479,149.153L183.016,149.035L185.952,147.374L187.566,145.538L190.222,143.685L191.849,143.227L195.589,141.421L196.652,141.698L200.122,139.459L201.605,140.352L201.416,142.226L202.512,141.429L204.639,141.677L203.977,142.616L205.624,143.299L207.254,142.898L209.339,144.156L211.728,144.524L212.467,145.03L214.665,144.395L216.028,145.561L217.191,146.095L217.191,146.095Z" fill-rule="evenodd" fill="#3b82f6" stroke="#ffffff" stroke-width="0.5"/>
        <path class="prism-mark-geoshape" data-prism-id="geoshape-0-9" data-prism-datum-row="9" d="M159.554,164.975L159.987,165.493L161.149,165.214L161.688,165.927L162.823,166.283L162.441,166.574L160.822,167.135L160.225,166.56L160.108,166.074L158.676,166.23L158.542,165.994L159.554,164.975Z" fill-rule="evenodd" fill="#3b82f6" stroke="#ffffff" stroke-width="0.5"/>
        <path class="prism-mark-geoshape" data-prism-id="geoshape-1-0" data-prism-datum-row="10" d="M208.879,199.137L208.663,199.131L206.732,197.016L206.128,196.084L203.738,195.19L204.036,193.275L205.114,191.942L203.664,191.018L204.545,189.256L203.698,187.662L204.439,186.526L204.439,186.526L206.046,185.458L206.973,184.051L205.326,182.623L205.599,180.028L205.837,178.373L205.208,177.32L204.893,176.355L204.998,175.124L202.901,175.897L200.432,177.217L200.254,175.664L199.993,174.616L199.035,173.947L197.605,173.877L208.982,158.624L217.191,146.095L217.191,146.095L219.197,147.002L220.291,148.768L221.527,149.1L223.649,147.581L225.991,146.417L227.763,146.875L230.757,145.204L233.517,144.234L233.575,145.84L235.085,144.941L236.382,143.083L237.094,143.511L237.547,146.965L240.745,144.375L239.395,147.267L241.409,146.654L242.508,145.546L244.047,145.768L245.319,147.348L247.837,148.692L249.421,149.3L250.892,149.071L251.835,150.862L248.98,152.559L251.123,153.278L255.105,152.884L256.598,152.295L257.066,154.289L259.444,152.613L258.746,151.163L260.231,149.968L261.995,149.806L263.271,149.45L263.986,150.296L264.483,152.17L266.171,151.898L267.916,153.414L270.338,152.884L272.34,152.965L273.143,150.845L274.65,150.233L276.279,151.415L274.849,154.576L276.934,151.922L278.014,152.014L280.15,148.482L279.624,146.194L278.664,144.641L280.536,140.153L283.289,136.993L284.788,137.709L285.448,139.626L285.555,144.246L283.608,146.141L285.855,146.901L284.364,150.597L287.337,147.788L288.072,150.106L286.626,152.66L287.061,154.88L289.5,152.498L291.688,149.504L293.279,145.446L295.113,145.741L296.934,146.3L298.12,148.143L297.558,149.926L295.836,151.778L296.135,153.58L295.343,155.164L291.692,157.365L289.52,157.842L288.442,156.912L287.363,158.454L284.894,160.955L283.911,162.211L281.363,164.108L279.197,164.29L277.497,165.444L276.562,167.18L274.691,167.509L271.838,169.605L268.783,172.427L267.208,174.351L265.692,177.114L267.733,177.505L267.321,179.677L267.173,181.412L269.559,180.961L271.957,181.945L273.1,182.803L273.717,183.866L275.391,184.481L276.624,185.418L279.158,185.547L280.772,185.762L279.689,187.675L279.248,189.879L279.399,192.316L280.973,194.375L282.491,193.669L284.236,191.438L284.797,187.986L284.163,186.825L287.113,185.789L289.531,184.228L291.038,182.664L291.537,181.148L291.304,179.202L290.188,177.451L293.04,174.969L293.314,172.774L294.478,168.848L295.757,168.251L298,168.956L299.42,169.206L300.916,168.528L301.949,169.4L303.203,170.87L303.279,171.838L305.875,172.027L305.048,174.082L304.406,177.095L305.661,177.461L306.261,178.832L308.948,177.54L311.342,174.926L312.738,173.804L313.163,175.947L314.12,178.936L314.899,181.684L313.805,183.103L315.467,184.367L316.471,185.638L318.8,186.212L319.598,186.915L319.672,188.778L320.823,189.07L321.226,189.894L320.655,192.34L319.261,193.156L317.892,193.916L315.013,194.686L312.467,196.459L309.616,196.811L306.276,196.356L303.844,196.341L302.114,196.49L300.263,198.035L297.876,198.991L294.607,201.837L292.084,203.82L293.602,203.468L297.128,200.643L301.125,198.851L303.638,198.636L304.771,199.693L302.794,201.136L302.646,203.453L302.733,205.076L304.606,206.148L307.443,205.836L309.747,203.421L309.452,204.979L310.327,205.759L307.902,207.167L303.862,208.446L301.97,209.315L299.685,210.866L298.445,210.707L298.865,208.887L302.256,207.109L299.559,207.18L297.628,207.44L296.879,206.225L297.737,203.296L297.189,202.675L295.969,203.04L295.592,202.475L293.832,204.098L292.82,205.77L291.936,206.748L291.126,207.081L290.559,207.188L290.234,207.719L287.146,207.722L284.597,207.737L283.719,208.132L281.464,209.681L281.202,209.849L280.405,210.686L278.857,210.686L277.197,210.694L276.327,211.036L276.469,211.458L276.418,212.115L276.319,212.332L273.771,213.405L271.916,213.743L269.585,214.894L269.157,214.894L268.684,214.554L268.59,214.245L268.699,214.021L269.311,213.267L270.487,212.083L271.393,210.81L271.676,208.941L271.984,206.988L270.597,205.98L270.938,205.598L270.789,205.336L270.331,205.336L270.119,204.996L270.221,204.487L269.816,204.708L269.395,204.641L269.574,204.429L269.261,204.218L269.31,203.653L268.282,202.965L267.217,202.249L265.927,201.417L264.694,200.637L262.976,201.245L262.429,201.267L260.633,200.708L259.185,200.987L257.869,200.321L256.339,199.979L255.251,199.845L254.899,199.482L255.128,198.3L254.571,198.311L254.2,199.137L250.812,199.135L245.21,199.137L239.646,199.137L234.731,199.137L229.819,199.137L224.99,199.137L219.999,199.137L218.39,199.137L213.529,199.137L208.879,199.137Z" fill-rule="evenodd" fill="#3b82f6" stroke="#ffffff" stroke-width="0.5"/>
        <path class="prism-mark-geoshape" data-prism-id="geoshape-1-1" data-prism-datum-row="11" d="M285.927,168.505L287.563,167.301L289.572,167.325L289.318,167.834L286.954,169.262L285.935,169.203L285.927,168.505Z" fill-rule="evenodd" fill="#3b82f6" stroke="#ffffff" stroke-width="0.5"/>
        <path class="prism-mark-geoshape" data-prism-id="geoshape-1-2" data-prism-datum-row="12" d="M305.032,132.899L304.327,130.292L304.89,128.454L305.61,128.105L308.436,128.666L309.949,131.438L309.7,132.788L308.342,132.643L306.953,132.542L305.33,133.192L305.032,132.899Z" fill-rule="evenodd" fill="#3b82f6" stroke="#ffffff" stroke-width="0.5"/>
        <path class="prism-mark-geoshape" data-prism-id="geoshape-1-3" data-prism-datum-row="13" d="M290.952,169.449L291.857,168.678L292.437,168.735L292.587,169.262L291.43,170.598L290.865,170.384L290.805,169.628L290.952,169.449Z" fill-rule="evenodd" fill="#3b82f6" stroke="#ffffff" stroke-width="0.5"/>
        <path class="prism-mark-geoshape" data-prism-id="geoshape-1-4" data-prism-datum-row="14" d="M290.409,121.391L289.061,123.605L287.324,123.183L286.22,121.693L287.679,119.039L289.967,117.4L290.476,119.531L290.409,121.391Z" fill-rule="evenodd" fill="#3b82f6" stroke="#ffffff" stroke-width="0.5"/>
        <path class="prism-mark-geoshape" data-prism-id="geoshape-1-5" data-prism-datum-row="15" d="M294.48,104.785L293.867,104.998L291.674,104.527L291.853,102.435L294.292,102.549L294.826,103.943L294.48,104.785Z" fill-rule="evenodd" fill="#3b82f6" stroke="#ffffff" stroke-width="0.5"/>
        <path class="prism-mark-geoshape" data-prism-id="geoshape-1-6" d="M293.165,95.059L293.977,97.894L292.995,100.736L290.811,102.314L290.242,100.535L290.416,97.573L291.096,94.176L292.583,94.51L293.165,95.059Z" fill-rule="evenodd" fill="#3b82f6" stroke="#ffffff" stroke-width="0.5"/>
        <path class="prism-mark-geoshape" data-prism-id="geoshape-1-7" d="M296.464,124.717L294.581,124.03L291.695,122.21L292.167,118.985L292.847,115.929L292.328,113.126L289.951,112.321L289.055,110.233L290.257,107.378L292.697,107.824L293.515,110.063L295.971,110.042L296.496,112.261L295.585,114.715L296.659,116.149L297.075,117.628L298.713,117.898L300.43,118.41L302.779,117.079L305.483,116.55L307.431,116.986L308.239,119.285L307.93,121.721L306.75,123.24L304.523,124.441L303.056,123.762L299.135,124.618L296.464,124.717Z" fill-rule="evenodd" fill="#3b82f6" stroke="#ffffff" stroke-width="0.5"/>
        <path class="prism-mark-geoshape" data-prism-id="geoshape-1-8" d="M274.352,99.99L275.746,101.207L274.721,103.473L271.829,105.596L270.686,103.211L272.354,100.783L274.352,99.99Z" fill-rule="evenodd" fill="#3b82f6" stroke="#ffffff" stroke-width="0.5"/>
        <path class="prism-mark-geoshape" data-prism-id="geoshape-1-9" d="M276.086,94.744L277.235,96.407L275.35,97.982L273.336,97.974L273.66,96.822L275.536,94.36L276.086,94.744Z" fill-rule="evenodd" fill="#3b82f6" stroke="#ffffff" stroke-width="0.5"/>
        <path class="prism-mark-geoshape" data-prism-id="geoshape-1-10" d="M320.293,194.139L319.06,195.501L317.475,197.389L318.733,196.66L319.704,197.121L318.934,197.873L320.229,198.464L321.117,197.938L322.577,198.601L321.681,200.177L322.92,199.809L322.852,200.951L323.048,202.286L321.911,204.179L321.142,204.259L320.146,203.853L320.924,202.095L320.532,201.822L318.159,203.685L317.19,203.61L318.606,202.6L317.15,202.077L315.344,202.206L312.156,202.142L312.073,201.505L313.3,200.746L312.742,200.164L314.471,198.866L317.094,195.434L318.437,194.204L320.043,193.457L320.764,193.552L320.293,194.139Z" fill-rule="evenodd" fill="#3b82f6" stroke="#ffffff" stroke-width="0.5"/>
        <path class="prism-mark-geoshape" data-prism-id="geoshape-1-11" d="M289.291,161.253L290.448,162.237L291.731,163.118L291.298,164.436L292.459,164.224L293.116,165.13L291.456,165.98L289.462,165.331L289.18,164.1L287.096,165.552L284.387,166.937L284.596,165.371L282.497,165.631L284.381,164.282L285.556,162.077L287.216,159.407L288.145,159.651L287.854,160.941L288.783,160.491L289.291,161.253Z" fill-rule="evenodd" fill="#3b82f6" stroke="#ffffff" stroke-width="0.5"/>
        <path class="prism-mark-geoshape" data-prism-id="geoshape-1-12" d="M305.744,135.029L307.528,133.153L309.793,135.527L311.017,137.678L310.646,139.575L313.41,138.6L314.044,141.305L316.846,142.918L317.576,144.516L317.845,148.056L314.805,149.735L317.376,152.003L319.366,152.744L320.469,155.748L322.626,155.958L321.522,158.138L317.916,161.573L316.555,160.333L315.265,157.439L313.299,157.824L312.532,159.553L313.454,161.259L314.964,162.574L315.307,163.319L315.329,166.029L314.164,167.93L312.558,167.22L309.654,165.075L310.89,167.38L311.863,168.951L311.783,169.844L308.139,168.822L305.543,167.309L304.258,166.015L305.059,165.255L303.424,163.845L301.838,162.487L301.543,163.303L297.173,163.746L296.337,162.786L298.135,160.676L300.853,160.623L303.949,160.248L303.867,159.189L304.922,157.676L307.845,154.602L307.96,153.148L307.813,151.997L306.254,150.317L303.862,149.11L305.056,148.194L304.377,145.875L303.243,145.661L302.607,144.34L301.496,145.485L298.85,145.977L294.184,145.119L291.719,143.974L289.735,143.375L289.128,141.956L291.212,140.056L289.313,140.035L290.43,135.569L292.824,131.309L294.802,129.252L298.566,127.875L296.633,131.171L296.743,134.179L299.145,130.257L303.047,128.152L303.828,133.311L302.727,136.358L305.744,135.029Z" fill-rule="evenodd" fill="#3b82f6" stroke="#ffffff" stroke-width="0.5"/>
        <path class="prism-mark-geoshape" data-prism-id="geoshape-1-13" d="M287.85,126.117L290.486,126.306L292.569,127.597L289.201,132.109L287.324,133.048L284.706,136.525L283.25,136.358L283.867,132.236L284.717,129.767L286.108,127.571L287.85,126.117Z" fill-rule="evenodd" fill="#3b82f6" stroke="#ffffff" stroke-width="0.5"/>
        <path class="prism-mark-geoshape" data-prism-id="geoshape-1-14" d="M255.579,114.439L255.579,114.439L259.376,109.451L263.361,104.844L265.219,104.946L267.227,103.861L265.397,109.368L263.691,111.728L262.418,112.055L259.154,114.849L256.801,115.822L255.579,114.439Z" fill-rule="evenodd" fill="#3b82f6" stroke="#ffffff" stroke-width="0.5"/>
        <path class="prism-mark-geoshape" data-prism-id="geoshape-1-15" d="M199.852,188.208L201.493,188.032L199.335,190.516L199.565,192.268L198.928,192.264L198.623,191.268L198.705,190.266L198.361,189.586L198.727,188.622L199.305,187.922L199.852,188.208Z" fill-rule="evenodd" fill="#3b82f6" stroke="#ffffff" stroke-width="0.5"/>
        <path class="prism-mark-geoshape" data-prism-id="geoshape-1-16" d="M283.693,90.499L285.772,91.688L288.314,94.777L288.336,98.636L288.026,101.881L286.239,101.03L284.857,98.493L282.225,98.198L283.985,95.793L283.005,93.79L283.693,90.499Z" fill-rule="evenodd" fill="#3b82f6" stroke="#ffffff" stroke-width="0.5"/>
        <path class="prism-mark-geoshape" data-prism-id="geoshape-1-17" d="M207.183,200.192L206.188,200.491L204.051,199.514L204.005,198.75L202.988,197.996L203.062,197.382L201.621,196.994L201.714,195.821L202.165,195.32L203.574,195.79L204.37,196.118L205.758,196.347L205.866,197.091L206.067,198.115L207.182,199.004L207.183,200.192Z" fill-rule="evenodd" fill="#3b82f6" stroke="#ffffff" stroke-width="0.5"/>
        <path class="prism-mark-geoshape" data-prism-id="geoshape-1-18" d="M253.583,124.402L254.978,125.544L258.16,125.842L258.819,127.392L259.359,129.574L257.207,130.843L252.552,134.245L249.477,137.443L248.591,139.348L244.072,141.38L244.265,139.536L242.293,137.225L243.768,135.306L246.255,131.831L248.811,128.521L248.887,125.26L253.583,124.402Z" fill-rule="evenodd" fill="#3b82f6" stroke="#ffffff" stroke-width="0.5"/>
        <path class="prism-mark-geoshape" data-prism-id="geoshape-1-19" d="M273.946,116.162L275.394,115.105L276.628,115.385L275.912,118.422L274.232,121.246L269.602,122.142L265.508,124.579L263.503,124.706L264,122.883L267.549,120.32L261.542,121.025L260.136,119.971L263.934,113.909L265.708,112.068L268.529,114.284L269.569,118.002L271.633,118.465L271.745,112.394L273.625,109.939L274.677,110.73L274.153,113.889L273.946,116.162Z" fill-rule="evenodd" fill="#3b82f6" stroke="#ffffff" stroke-width="0.5"/>
        <path class="prism-mark-geoshape" data-prism-id="geoshape-1-20" d="M270.341,131.571L271.077,133.521L270.162,137.983L269.34,141.002L270.757,143.027L272.414,144.898L271.543,146.579L269.16,146.879L269.403,148.297L268.336,149.618L266.095,149.056L264.179,148.078L262.474,148.3L259.297,149.521L255.527,150.053L252.894,150.384L252.998,148.707L251.622,147.71L250.191,148.121L250.003,145.146L251.114,144.731L253.537,144.065L255.369,144.242L257.466,143.554L255.283,142.616L252.238,142.938L250.358,142.854L250.368,141.351L254.269,139.669L252.172,139.729L250.36,138.591L252.989,135.233L254.716,133.364L259.458,130.382L260.408,131.349L258.828,133.616L262.347,132.163L263.208,134.573L265.669,132.134L266.251,133.711L265.521,138.189L266.947,136.344L267.912,131.502L269.338,130.778L270.341,131.571Z" fill-rule="evenodd" fill="#3b82f6" stroke="#ffffff" stroke-width="0.5"/>
        <path class="prism-mark-geoshape" data-prism-id="geoshape-1-21" d="M277.677,133.364L277.375,130.156L279.771,127.665L280.951,128.764L283.49,128.105L283.335,129.599L281.3,131.987L282.57,134.056L280.851,138.15L278.02,139.822L276.866,139.468L276.583,137.807L274.615,134.292L275.206,132.769L277.677,133.364Z" fill-rule="evenodd" fill="#3b82f6" stroke="#ffffff" stroke-width="0.5"/>
        <path class="prism-mark-geoshape" data-prism-id="geoshape-1-22" d="M271.213,128.934L273.031,128.728L273.618,129.853L271.264,133.105L270.509,129.65L271.213,128.934Z" fill-rule="evenodd" fill="#3b82f6" stroke="#ffffff" stroke-width="0.5"/>
        <path class="prism-mark-geoshape" data-prism-id="geoshape-1-23" d="M287.281,110.445L287.402,113.531L286.527,116.806L284.635,121.275L282.345,121.871L281.259,120.943L282.348,117.437L280.131,117.91L281.493,113.007L282.782,113.217L285.297,110.947L286.947,111.332L287.281,110.445Z" fill-rule="evenodd" fill="#3b82f6" stroke="#ffffff" stroke-width="0.5"/>
        <path class="prism-mark-geoshape" data-prism-id="geoshape-1-24" d="M297.453,78.385L298.833,75.309L300.158,74.59L300.075,72.201L302.866,71.661L303.392,77.176L304.987,79.305L306.589,81.147L306.408,87.317L307.311,90.193L305.17,92.766L301.677,98.937L299.402,99.505L297.101,98.493L296.523,95.183L297.191,92.126L298.615,89.815L296.414,89.886L295.711,86.909L295.804,82.699L297.453,78.385Z" fill-rule="evenodd" fill="#3b82f6" stroke="#ffffff" stroke-width="0.5"/>
        <path class="prism-mark-geoshape" data-prism-id="geoshape-1-25" d="M304.972,64.685L307.019,62.504L308.413,62.123L310.934,60.234L313.244,55.778L314.559,56.411L315.318,59.763L317.073,53.212L318.822,51.202L321.014,49.787L324.507,49.261L324.938,50.643L328.429,48.474L330.765,49.287L333.106,50.107L336.003,51.1L338.253,52.713L339.979,56.059L339.599,59.267L336.268,64.3L333.227,66.58L331.887,69.042L334.409,68.977L330.875,75.381L328.59,78.236L325.457,86.042L322.772,87.552L321.724,89.374L317.948,90.316L319.418,91.403L318.328,92.937L318.616,97.025L316.968,99.756L314.67,101.942L313.516,104.866L311.352,107.029L311.19,108.631L313.367,108.358L313.043,110.049L308.829,114.045L305.968,112.234L302.049,113.257L300.378,112.46L298.097,112.115L298.734,108.847L301.397,107.257L301.977,101.942L302.839,101.406L305.422,104.645L304.782,99.779L303.124,98.262L304.748,95.117L307.276,93.123L308.185,90.123L307.146,86.627L307.507,81.811L310.66,82.223L311.416,83.249L313.84,79.747L311.384,78.603L307.172,79.236L305.69,75.83L305.433,71.63L304.607,68.475L304.972,64.685Z" fill-rule="evenodd" fill="#3b82f6" stroke="#ffffff" stroke-width="0.5"/>
        <path class="prism-mark-geoshape" data-prism-id="geoshape-1-26" d="M304.424,154.083L303.165,155.041L301.527,155.202L301.762,153.61L303.031,151.724L304.473,151.25L305.23,152.197L304.744,153.629L304.424,154.083Z" fill-rule="evenodd" fill="#3b82f6" stroke="#ffffff" stroke-width="0.5"/>
        <path class="prism-mark-geoshape" data-prism-id="geoshape-1-27" d="M278.014,146.931L278.26,148.34L276.862,149.603L275.473,148.515L274.177,148.909L273.015,147.267L274.72,146.103L276.372,144.43L277.364,145.531L277.9,146.217L278.014,146.931Z" fill-rule="evenodd" fill="#3b82f6" stroke="#ffffff" stroke-width="0.5"/>
        <path class="prism-mark-geoshape" data-prism-id="geoshape-1-28" d="M304.934,197.257L305.552,197.076L307.532,197.617L308.937,198.515L308.872,198.911L308.064,198.95L306.144,198.274L304.934,197.257Z" fill-rule="evenodd" fill="#3b82f6" stroke="#ffffff" stroke-width="0.5"/>
        <path class="prism-mark-geoshape" data-prism-id="geoshape-1-29" d="M303.971,203.36L304.26,204.405L305.388,204.693L306.944,204.635L305.89,205.516L305.236,205.656L303.373,204.742L303.158,204.025L303.971,203.36Z" fill-rule="evenodd" fill="#3b82f6" stroke="#ffffff" stroke-width="0.5"/>
        <path class="prism-mark-geoshape" data-prism-id="geoshape-2-0" d="M400.173,188.585L398.991,188.133L398.011,188.164L398.383,186.983L398.105,185.798L399.425,185.707L401.068,187.074L400.173,188.585Z" fill-rule="evenodd" fill="#3b82f6" stroke="#ffffff" stroke-width="0.5"/>
        <path class="prism-mark-geoshape" data-prism-id="geoshape-2-1" d="M405.078,189.599L405.082,189.601L405.335,188.328L404.299,186.972L404.276,186.942L402.371,186.553L402.011,185.953L402.608,184.962L402.109,184.347L401.237,185.4L401.209,183.247L400.46,182.097L401.097,179.739L402.344,177.861L403.561,178.045L405.408,177.849L403.719,180.349L405.295,180.035L406.983,180.047L406.559,181.904L405.131,183.922L406.744,184.065L406.865,184.3L408.242,186.919L409.321,187.275L410.294,189.774L410.75,190.636L412.688,191.05L412.504,192.442L411.69,193.078L412.34,194.2L410.891,195.33L408.724,195.311L405.961,195.905L405.211,195.479L404.123,196.492L402.624,196.246L401.463,197.07L400.609,196.638L403.041,194.371L404.494,193.903L404.481,193.901L401.973,193.541L401.54,192.679L403.233,192.005L402.383,190.833L402.719,189.402L405.078,189.599Z" fill-rule="evenodd" fill="#3b82f6" stroke="#ffffff" stroke-width="0.5"/>
        <path class="prism-mark-geoshape" data-prism-id="geoshape-3-0" d="M313.898,296.048L312.769,298.019L312.178,299.605L311.455,300.423L310.564,300.578L310.315,299.971L309.899,299.88L309.318,300.464L308.509,300.02L308.993,299.116L309.17,298.129L309.509,297.203L308.8,295.925L308.682,294.452L309.693,292.599L310.32,292.836L311.676,293.347L313.607,295.165L313.898,296.048Z" fill-rule="evenodd" fill="#3b82f6" stroke="#ffffff" stroke-width="0.5"/>
        <path class="prism-mark-geoshape" data-prism-id="geoshape-3-1" d="M420.099,198.138L420.887,198.703L423.259,199.099L422.483,200.572L422.326,202.103L421.884,202.471L421.126,202.273L421.195,202.819L420.017,204.027L420.019,205L420.803,204.663L421.402,205.606L421.35,206.212L421.866,207.021L421.305,207.674L421.784,209.339L422.704,209.612L422.539,210.546L421.042,211.762L417.697,211.179L415.244,211.878L415.066,213.175L413.102,213.455L411.189,212.479L410.573,212.944L407.457,211.966L406.79,211.129L407.67,209.838L408.011,205.555L406.314,203.3L405.107,202.213L402.599,201.385L402.467,199.817L404.6,199.348L407.347,199.903L406.85,197.466L408.384,198.39L412.177,196.71L412.651,194.939L414.061,194.503L414.303,195.263L415.056,195.3L415.824,196.166L416.978,197.184L417.809,197.016L419.26,197.998L419.63,198.184L420.099,198.138Z" fill-rule="evenodd" fill="#3b82f6" stroke="#ffffff" stroke-width="0.5"/>
        <path class="prism-mark-geoshape" data-prism-id="geoshape-3-2" d="M424.828,212.841L425.89,212.018L426.246,213.866L425.743,215.53L424.954,215.09L424.512,213.64L424.828,212.841Z" fill-rule="evenodd" fill="#3b82f6" stroke="#ffffff" stroke-width="0.5"/>
        <path class="prism-mark-geoshape" data-prism-id="geoshape-4-0" d="M432.404,188.829L432.856,189.942L432.455,190.525L433.091,191.301L433.572,192.464L433.501,193.212L434.262,194.593L433.558,194.82L433.114,194.572L432.736,194.982L431.602,195.402L431.035,195.939L429.883,196.41L430.205,197.05L430.431,197.96L431.295,198.476L432.277,199.402L431.759,200.394L431.185,200.667L431.501,202.067L431.368,202.432L430.828,201.993L430.032,201.927L428.872,202.312L427.413,202.221L427.203,202.789L426.34,202.191L425.846,202.309L424.052,201.652L423.73,202.118L422.326,202.103L422.483,200.572L423.259,199.099L420.887,198.703L420.099,198.138L420.165,197.195L419.825,196.707L419.967,195.248L419.629,192.98L420.593,192.98L420.974,192.164L421.302,190.169L420.978,189.431L421.271,188.967L422.593,188.848L422.908,189.33L423.938,188.249L423.539,187.424L423.41,186.172L424.614,186.464L425.604,186.128L425.677,186.981L427.299,187.495L427.326,188.276L428.911,187.865L429.761,187.261L431.605,188.128L432.404,188.829Z" fill-rule="evenodd" fill="#3b82f6" stroke="#ffffff" stroke-width="0.5"/>
        <path class="prism-mark-geoshape" data-prism-id="geoshape-5-0" d="M654.425,220.277L653.877,222.453L654.946,224.686L655.071,226.413L655.853,227.498L655.601,229.026L653.791,230.044L650.762,230.179L649.244,232.652L647.735,231.82L647.017,230.198L644.155,230.677L642.474,231.698L640.43,231.74L642.818,233.336L642.974,237.023L642.141,237.935L640.991,237.093L640.738,235.138L639.391,234.507L638.13,233.019L639.549,232.351L639.952,230.987L641.28,229.867L641.973,228.387L645.185,227.739L647.24,228.183L647.401,224.333L649.019,225.368L650.59,223.204L651.182,222.363L651,219.719L649.495,217.293L649.519,215.929L651.126,215.532L653.601,218.525L654.425,220.277Z" fill-rule="evenodd" fill="#3b82f6" stroke="#ffffff" stroke-width="0.5"/>
        <path class="prism-mark-geoshape" data-prism-id="geoshape-5-1" d="M653.547,209.971L654.203,209.059L655.985,211.476L653.812,212.065L653.508,214.204L650.034,212.731L650.377,215.088L648.499,215.121L647.128,212.979L647.059,211.323L648.798,211.202L647.588,208.227L647.094,206.552L650.386,208.79L652.097,209.513L653.547,209.971Z" fill-rule="evenodd" fill="#3b82f6" stroke="#ffffff" stroke-width="0.5"/>
        <path class="prism-mark-geoshape" data-prism-id="geoshape-5-2" d="M643.216,232.655L643.693,231.362L644.79,231.612L645.155,230.701L646.63,231.169L647.147,231.913L646.662,233.225L645.673,232.529L644.961,233.032L644.97,234.301L643.589,233.685L643.216,232.655Z" fill-rule="evenodd" fill="#3b82f6" stroke="#ffffff" stroke-width="0.5"/>
        <path class="prism-mark-geoshape" data-prism-id="geoshape-6-0" d="M662.576,393.236L663.524,393.381L662.229,395.94L661.226,396.683L660.055,398.417L659.806,397.827L657.761,399.327L657.479,399.211L656.48,399.144L656.492,397.301L657.052,395.88L657.088,394.002L657.658,393.012L658.675,393.204L659.927,393.948L661.018,393.652L662.576,393.236Z" fill-rule="evenodd" fill="#3b82f6" stroke="#ffffff" stroke-width="0.5"/>
        <path class="prism-mark-geoshape" data-prism-id="geoshape-6-1" d="M633.211,374.639L630.95,375.751L629.245,376.25L628.503,377.389L627.539,378.269L626.027,378.321L624.853,378.514L623.438,378.119L622.09,378.356L620.849,378.456L619.396,379.611L618.918,379.513L617.822,380.127L616.734,380.816L615.487,380.729L614.312,380.729L612.932,379.344L612.128,378.935L612.583,377.69L613.555,377.395L614.017,376.903L614.209,376.122L614.91,374.615L615.116,373.328L614.842,371.137L614.915,369.898L615.348,368.661L615.033,367.248L615.162,366.61L614.605,365.747L614.829,364.048L614.239,362.33L614.22,361.406L614.777,362.343L614.665,360.33L615.407,360.959L615.733,361.798L615.976,360.688L615.492,358.981L615.477,358.298L615.209,357.65L615.687,356.395L616.177,355.862L616.66,354.778L616.737,353.51L617.81,351.953L617.605,353.601L618.684,352.113L620.311,351.388L621.384,350.465L622.937,349.67L623.799,349.502L624.249,349.768L625.847,348.96L627.001,348.72L627.371,348.246L627.892,348.049L628.892,348.101L630.936,347.467L632.116,346.506L632.8,345.348L634.076,344.252L634.312,343.389L634.565,342.213L636.158,340.375L636.618,342.243L637.472,341.81L636.991,340.79L637.74,339.74L638.474,340.209L638.963,338.564L640.132,337.501L640.704,336.648L641.686,336.281L641.803,335.678L642.576,335.929L642.688,335.387L643.544,335.078L644.476,334.786L645.697,335.778L646.527,337.056L647.678,337.071L648.817,337.274L648.61,336.089L649.748,334.357L650.658,333.791L650.447,333.253L651.415,332.019L652.632,331.259L653.546,331.514L655.151,331.108L655.258,330.005L653.989,329.296L655.011,328.983L656.174,329.516L657.047,330.402L658.534,330.953L659.091,330.735L660.148,331.399L661.312,330.78L661.98,330.968L662.468,330.553L663.176,331.622L662.522,332.776L661.695,333.649L661.051,333.722L661.137,334.583L660.429,335.663L659.607,336.724L659.638,337.335L660.902,338.527L662.199,339.221L663.014,339.964L664.107,341.246L664.625,341.244L665.482,341.797L665.632,342.465L667.236,343.199L668.596,342.459L669.182,341.298L669.737,340.34L670.184,339.156L671.047,337.436L670.968,336.391L671.206,335.762L671.189,334.527L671.678,332.902L672.097,332.463L671.912,331.743L672.518,330.597L673.025,329.412L673.152,328.797L673.939,327.988L674.329,329.043L674.28,330.398L674.705,330.659L674.659,331.566L675.17,332.662L675.123,333.884L674.935,334.67L675.322,336.363L676.641,335.549L677.098,336.462L677.837,337.307L677.476,338.264L677.522,340.118L677.591,341.196L678.002,341.46L678.12,343.309L677.704,344.429L677.971,345.896L679.694,347.027L680.743,348.055L681.736,348.997L681.366,349.521L682.063,350.881L682.145,353.224L683.001,352.748L683.481,353.686L684.017,353.352L683.678,355.649L684.569,356.98L685.159,357.808L686.021,359.564L685.961,361.306L685.593,362.542L685.008,363.885L685.209,365.729L684.402,367.65L683.714,368.654L682.486,370.59L682.03,371.835L681.049,373.389L679.444,375.363L677.682,376.428L676.31,378.109L675.251,379.18L673.885,381.05L672.711,382.131L671.508,383.751L670.566,385.243L670.32,385.926L668.955,386.679L666.977,386.757L664.941,387.644L663.728,388.483L662.22,389.41L661.269,388.455L660.399,388.072L661.215,386.945L660.072,387.354L657.794,388.919L656.587,388.334L655.772,387.992L654.859,387.839L653.481,387.211L652.978,385.879L653.4,384.236L653.478,383.14L653.002,382.263L651.434,382.001L652.452,380.95L652.696,379.342L651.219,380.842L649.494,381.241L650.908,380.04L651.684,378.789L652.788,377.727L653.277,376.122L651.119,377.972L649.724,378.714L648.355,380.437L647.346,379.546L647.859,378.395L647.367,376.823L646.745,376.009L647.265,375.508L645.479,374.194L644.256,374.133L642.926,373.076L639.681,373.28L637.116,374.057L634.849,374.782L633.211,374.639Z" fill-rule="evenodd" fill="#3b82f6" stroke="#ffffff" stroke-width="0.5"/>
        <path class="prism-mark-geoshape" data-prism-id="geoshape-7-0" d="M427.311,203.666L428.33,203.973L428.503,203.563L430.12,203.191L430.53,203.936L432.935,204.493L432.818,205.55L433.272,206.466L431.926,206.152L430.609,206.915L430.756,207.984L430.581,208.597L431.187,209.692L432.825,210.774L433.772,212.554L435.758,214.291L437.089,214.278L437.533,214.754L437.08,215.183L438.656,215.961L439.951,216.615L441.493,217.739L441.696,218.143L441.426,218.916L440.409,217.908L438.899,217.554L438.26,218.95L439.549,219.75L439.413,220.877L438.699,221.005L437.879,222.86L437.165,223.026L437.138,222.365L437.428,221.206L437.777,220.743L437.036,219.492L436.452,218.404L435.724,218.134L435.168,217.202L434.049,216.811L433.265,215.944L431.995,215.804L430.618,214.83L429.001,213.429L427.796,212.188L427.182,210.059L426.333,209.81L424.939,209.1L424.176,209.39L423.235,210.389L422.539,210.546L422.704,209.612L421.784,209.339L421.305,207.674L421.866,207.021L421.35,206.212L421.402,205.606L422.133,206.066L422.934,205.965L423.843,205.235L424.144,205.576L424.934,205.507L425.261,204.641L426.503,204.91L427.218,204.547L427.311,203.666Z" fill-rule="evenodd" fill="#ef4444" stroke="#ffffff" stroke-width="0.5"/>
        <path class="prism-mark-geoshape" data-prism-id="geoshape-7-1" d="M435.542,222.518L436.845,222.33L436.308,224.032L436.602,224.703L436.291,225.816L434.922,225L434.028,224.766L431.557,223.667L431.754,222.557L433.788,222.754L435.542,222.518Z" fill-rule="evenodd" fill="#ef4444" stroke="#ffffff" stroke-width="0.5"/>
        <path class="prism-mark-geoshape" data-prism-id="geoshape-7-2" d="M424.889,216.565L425.721,215.897L426.801,217.428L426.659,220.285L425.871,220.149L425.19,220.869L424.519,220.296L424.373,217.692L423.946,216.458L424.889,216.565Z" fill-rule="evenodd" fill="#ef4444" stroke="#ffffff" stroke-width="0.5"/>
        <path class="prism-mark-geoshape" data-prism-id="geoshape-8-0" d="M397.046,224.781L396.92,224.065L397.581,223.254L397.834,222.665L397.253,222.023L397.764,220.603L397.107,219.307L397.854,219.13L397.95,218.108L398.236,217.793L398.3,216.11L399.103,215.526L398.652,214.446L397.664,214.37L397.364,214.642L396.359,214.644L395.965,213.59L395.262,213.903L394.626,214.45L394.766,212.916L394.106,211.981L396.549,210.43L398.603,210.817L400.867,210.804L402.657,211.172L404.06,211.058L406.79,211.129L407.457,211.966L410.573,212.944L411.189,212.479L413.102,213.455L415.066,213.175L415.171,214.426L413.571,215.862L411.386,216.317L411.234,217.044L410.184,218.24L409.52,219.998L410.192,221.232L409.192,222.198L408.816,223.604L407.505,224.035L406.264,225.699L404.053,225.731L402.395,225.69L401.293,226.455L400.613,227.273L399.763,227.093L399.13,226.361L398.662,225.117L397.046,224.781Z" fill-rule="evenodd" fill="#ef4444" stroke="#ffffff" stroke-width="0.5"/>
        <path class="prism-mark-geoshape" data-prism-id="geoshape-9-0" d="M316.065,378.005L315.389,376.777L316.013,375.749L314.772,374.272L313.208,373.074L311.177,371.684L310.527,371.746L308.498,370.069L307.376,370.299L309.338,367.342L311.081,365.235L312.173,364.352L313.539,363.154L313.373,361.423L312.323,360.172L311.478,360.586L311.688,359.335L311.79,358.053L311.661,356.861L310.966,356.468L310.325,356.817L309.639,356.722L309.336,355.888L308.958,353.903L308.551,353.255L307.263,352.668L306.563,353.092L304.601,352.676L304.423,349.738L303.768,348.534L304.295,348.086L304.005,346.852L304.421,345.904L304.599,344.2L304.052,342.855L303,342.249L302.735,341.395L302.907,340.148L299.375,340.057L298.474,337.542L299.009,337.506L298.918,336.575L298.514,335.944L298.347,334.696L297.232,334.054L296.072,334.076L295.266,333.45L293.989,333.023L293.211,332.215L291.118,331.859L288.988,329.926L289.051,328.48L288.776,327.65L288.889,326.034L286.482,326.399L285.549,327.21L283.98,328.083L283.606,328.737L282.655,328.782L281.267,328.601L280.246,328.972L279.388,328.724L279.322,325.448L277.873,326.718L276.233,326.664L275.467,325.512L274.229,325.387L274.572,324.462L273.473,323.149L272.61,321.209L273.083,320.815L273.042,319.905L274.14,319.282L273.911,318.116L274.359,317.367L274.462,316.363L276.548,314.895L278.061,314.482L278.302,314.156L279.98,314.258L280.722,308.351L280.759,307.419L280.461,306.185L279.633,305.398L279.644,303.835L280.695,303.479L281.067,303.701L281.132,302.876L280.042,302.655L280.03,301.306L283.656,301.356L284.28,300.613L284.791,301.295L285.144,302.566L285.497,302.301L286.515,303.441L287.964,303.301L288.327,302.642L289.715,302.138L290.485,301.784L290.709,300.873L292.044,300.259L291.949,299.807L290.375,299.622L290.136,298.265L290.238,296.822L289.415,296.264L289.768,296.065L291.14,296.339L292.609,296.878L293.155,296.369L294.501,296.035L296.598,295.23L297.297,294.407L297.065,293.799L298.034,293.704L298.455,294.2L298.192,295.146L298.825,295.471L299.231,296.473L298.702,297.233L298.376,299.066L298.839,300.154L298.966,301.151L300.103,302.161L301.017,302.269L301.226,301.847L301.815,301.754L302.659,301.375L303.269,300.802L304.297,300.985L304.752,300.908L305.761,301.084L305.932,300.645L305.625,300.216L305.818,299.594L306.566,299.783L307.447,299.564L308.509,300.02L309.318,300.464L309.899,299.88L310.315,299.971L310.564,300.578L311.455,300.423L312.178,299.605L312.769,298.019L313.898,296.048L314.535,295.947L314.975,297.138L315.977,300.903L316.97,301.261L317.012,302.747L315.607,304.52L316.186,305.168L319.476,305.506L319.551,307.666L320.959,306.253L323.304,307.027L326.402,308.343L327.319,309.605L327.024,310.796L329.182,310.133L332.815,311.272L335.594,311.188L338.365,312.972L340.772,315.384L342.213,316.005L343.804,316.093L344.489,316.772L345.166,319.515L345.5,320.819L344.843,324.382L343.936,325.79L341.415,328.793L340.321,331.231L339.026,333.102L338.566,333.146L338.117,334.732L338.435,338.78L338.095,342.111L337.981,343.538L337.449,344.39L337.301,347.283L335.638,350.11L335.488,352.345L334.087,353.285L333.763,354.583L331.789,354.579L329.004,355.411L327.812,356.375L325.84,357.008L323.875,358.734L322.565,360.885L322.474,362.505L322.902,363.703L322.813,365.894L322.531,366.953L321.424,368.147L319.932,371.966L318.607,373.688L317.546,374.701L317.043,376.766L316.065,378.005Z" fill-rule="evenodd" fill="#ef4444" stroke="#ffffff" stroke-width="0.5"/>
        <path class="prism-mark-geoshape" data-prism-id="geoshape-10-0" d="M202.975,234.669L205.038,234.502L207.358,234.266L207.056,234.691L209.397,235.745L212.979,237.273L216.513,237.258L217.92,237.258L218.183,236.362L221.253,236.362L221.681,237.132L222.396,237.817L223.191,238.772L223.475,239.905L223.606,241.098L224.36,241.754L225.678,242.405L227.238,240.69L228.707,240.649L229.746,241.513L230.278,242.999L230.594,244.271L231.366,245.507L231.419,247.026L231.699,248.045L232.96,248.718L234.14,249.195L234.856,249.13L233.766,251.034L233.139,252.595L232.456,255.497L232.088,256.557L232.193,257.737L232.575,258.794L232.658,260.475L233.611,262.085L233.849,263.321L234.405,264.385L236.267,264.959L236.896,265.865L238.588,265.259L240.017,265.041L241.443,264.652L242.647,264.282L243.935,263.399L244.553,262.137L244.977,260.317L245.388,259.684L246.713,259.117L248.717,258.615L250.319,258.69L251.451,258.506L251.818,258.965L251.6,260.009L250.431,261.297L249.809,262.613L250.093,262.992L249.69,263.927L249.008,265.614L248.615,265.058L248.228,265.095L247.876,265.123L247.048,266.43L246.748,266.172L246.513,266.274L246.486,266.592L244.793,266.568L243.079,266.57L242.922,267.787L242.091,267.794L242.683,268.516L243.301,269.015L243.448,269.482L243.73,269.614L243.597,270.349L241.234,270.355L240.144,272.119L240.36,272.52L240.09,273.028L239.975,273.657L238.154,271.332L237.288,270.63L235.855,270.066L234.809,270.224L233.231,271.036L232.278,271.248L231.047,270.68L229.721,270.269L228.131,269.277L226.795,268.974L224.854,267.969L223.465,266.936L223.086,266.358L222.08,266.228L220.309,265.545L219.699,264.556L217.932,263.33L217.246,261.964L216.994,260.91L217.64,260.698L217.562,260.081L218.082,259.52L218.229,258.771L217.797,257.798L217.798,256.936L217.401,255.842L216.242,253.688L214.784,251.995L214.204,250.644L212.858,249.757L212.649,249.228L213.241,247.887L212.447,247.382L211.645,246.327L211.582,244.813L210.662,244.637L209.922,243.494L209.369,242.439L209.477,241.76L208.976,240.124L208.828,238.462L209.101,237.629L208.079,236.767L207.457,236.863L206.631,236.264L206.074,237.147L206.053,238.186L205.744,239.816L206.096,240.712L207.001,242.205L207.155,242.717L207.384,242.871L207.418,243.618L207.745,243.587L207.733,244.987L208.135,245.538L208.321,246.306L209.175,247.41L209.282,249.427L209.595,250.377L209.864,251.394L209.707,252.537L210.563,252.608L211.075,253.594L211.527,254.561L211.402,254.949L210.473,255.746L210.153,255.736L209.95,254.418L209.03,253.183L207.958,252.135L207.159,251.585L207.588,249.997L207.595,248.822L206.902,248.15L205.905,247.182L205.597,247.462L205.287,246.896L204.313,246.371L203.587,245.11L203.761,244.948L204.467,245.071L205.349,244.26L205.68,243.281L204.733,241.734L203.856,241.133L203.595,239.777L203.36,238.356L203.071,236.62L202.975,234.669Z" fill-rule="evenodd" fill="#ef4444" stroke="#ffffff" stroke-width="0.5"/>
        <path class="prism-mark-geoshape" data-prism-id="geoshape-11-0" d="M650.334,140.558L650.79,138.778L652.849,141.669L651.521,141.878L650.334,140.558Z" fill-rule="evenodd" fill="#ef4444" stroke="#ffffff" stroke-width="0.5"/>
        <path class="prism-mark-geoshape" data-prism-id="geoshape-11-1" d="M491.62,204.729L491.127,206.004L489.583,206.359L488.354,208.577L490.273,210.619L490.379,212.068L492.699,214.605L492.699,214.605L491.839,215.474L491.644,216.024L490.862,215.875L489.461,214.567L488.97,214.493L487.813,213.995L487.139,213.11L485.481,212.66L484.509,212.998L484.145,212.597L481.666,211.566L479.121,211.217L477.636,210.849L477.47,211.103L475.035,209.285L472.992,208.474L471.35,207.21L472.514,206.866L473.61,205.069L472.541,204.218L474.838,203.341L474.713,202.873L473.287,203.219L473.177,202.264L473.925,201.662L475.491,201.505L475.622,200.789L475.043,199.602L475.5,198.476L475.361,197.843L472.829,197.143L471.883,197.164L470.697,196.155L469.511,196.496L467.319,195.739L467.282,195.313L466.546,194.375L465.242,194.271L464.995,193.6L465.323,193.16L464.089,191.932L462.462,192.142L461.956,192.032L461.63,192.527L461.017,192.438L461.017,192.438L460.402,191.046L459.912,190.322L460.187,190.119L461.485,190.194L462.025,189.717L461.47,189.133L460.335,188.747L460.365,188.35L459.655,187.95L458.433,186.506L458.672,185.909L458.348,184.866L456.732,184.335L455.955,184.601L455.646,184.047L453.917,183.485L453.217,182.156L452.92,181.055L452.097,180.528L452.649,179.801L451.869,177.639L452.748,176.284L452.455,175.871L452.455,175.871L453.97,174.548L452.21,173.395L452.21,173.395L454.908,170.227L456.04,168.75L456.371,167.422L453.902,165.598L454.215,163.818L452.585,161.717L453.171,159.207L451.007,155.697L451.958,153.245L449.517,150.98L449.401,148.497L450.471,148.162L452.611,146.677L452.611,146.677L453.843,145.354L456.415,147.633L460.319,148.504L466.248,152.461L467.625,154.041L468.14,156.179L466.891,157.814L464.724,158.624L457.968,156.28L456.993,156.678L459.689,158.925L460.023,160.304L460.642,163.233L462.667,164.081L463.942,164.792L463.87,163.453L462.768,162.245L463.479,161.158L467.318,162.932L468.394,162.245L466.991,160.124L469.71,157.167L471.056,157.344L472.615,158.415L472.979,156.292L471.399,154.384L471.674,152.397L470.223,150.261L474.334,151.377L475.54,153.271L473.856,153.679L474.258,155.487L475.611,156.569L477.639,155.885L477.511,153.827L480.066,152.234L484.203,149.246L485.288,149.422L484.441,151.546L486.257,151.901L486.956,150.723L489.533,150.629L491.205,149.161L493.352,151.281L494.289,148.945L492.283,146.819L492.671,145.569L497.017,146.718L499.24,147.876L505.472,151.918L505.83,150.103L503.846,148.209L503.573,147.43L501.811,147.062L501.745,145.265L500.159,142.173L499.764,140.852L501.202,136.93L500.999,132.706L501.74,131.747L505.544,133.029L506.512,135.638L506.242,139.24L507.462,140.596L508.74,143.455L510.048,148.656L512.289,150.831L512.463,153.105L511.281,157.649L513.067,158.099L513.235,156.99L514.505,156.188L514.316,154.605L514.976,153.038L513.494,151.105L513.356,148.772L511.75,148.475L510.757,146.413L510.625,142.486L507.874,139.077L509.416,136.09L508.198,132.759L508.824,132.648L510.236,135.265L510.943,139.554L512.612,140.331L511.078,137.203L512.788,135.422L515.466,135.177L518.702,137.754L516.372,133.948L514.753,128.686L516.724,127.634L519.91,127.865L522.524,127.175L520.676,124.341L521.144,120.597L522.565,120.432L524.235,117.443L527.353,116.619L527.309,114.888L530.45,114.29L531.875,115.727L533.743,112.281L536.072,112.394L535.612,109.471L535.995,106.471L538.114,103.466L540.861,105.85L539.661,107.619L542.769,108.694L544.081,112.061L544.741,110.424L548.409,110.513L552.234,113.759L554.019,116.149L554.777,119.339L553.971,121.089L551.707,124.247L551.317,125.874L553.192,126.627L555.603,127.959L556.398,126.963L558.335,130.282L558.391,128.96L560.153,128.142L564.665,128.996L565.952,131.354L571.749,132.085L570.184,128.235L573.325,129.139L575.393,129.114L578.674,131.752L580.701,134.811L580.835,136.728L584.227,140.162L587.228,141.854L586.204,137.372L589.357,139.339L591.026,138.172L594.322,139.502L594.657,138.29L597.173,138.899L594.014,134.731L594.714,132.677L608.256,135.729L610.9,138.386L616.355,141.628L621.308,140.843L624.422,141.524L626.64,143.207L628.389,146.057L630.817,147.129L632.114,146.36L634.471,146.262L637.582,146.998L639.881,146.583L644.691,149.827L645.531,148.681L642.662,146.319L642.037,144.614L647.175,145.695L649.844,145.465L655.153,147.267L658.338,148.862L669.369,161.628L669.374,161.645L668.672,162.893L666.607,162.687L669.291,164.172L672.267,166.406L673.627,167.119L674.841,168.204L675.122,168.889L671.826,168.326L669.52,170.255L668.474,170.548L667.84,172.301L667.068,173.804L667.535,174.899L663.824,173.224L661.635,175.122L660.137,174.23L659.613,175.258L657.293,174.93L658.206,176.496L658.385,178.761L659.263,179.693L661.471,180.207L664.165,183.507L662.791,183.59L663.726,185.456L665.195,186.411L663.389,187.539L664.904,190.041L662.959,190.573L664.236,192.783L663.477,194.801L661.735,193.31L658.561,190.137L653.719,185.245L651.881,182.135L652.042,180.779L651.212,179.709L653.158,179.193L653.328,176.251L653.76,173.787L654.717,171.829L652.731,168.251L651.13,168.471L652.093,170.573L650.695,173.298L646.812,170.242L643.704,171.098L643.423,175.196L645.909,176.652L643.026,177.266L640.868,177.508L639.566,175.802L636.912,175.44L635.984,176.607L631.008,176.201L626.555,176.9L625.032,181.41L622.903,186.688L625.585,186.966L627.345,188.346L629.232,188.833L629.459,187.735L631.297,187.878L635.331,190.287L636.707,192.14L636.959,194.306L638.571,196.884L640.084,200.327L639.538,203.438L639.877,204.925L639.068,207.427L638.192,209.911L637.789,211.183L636.201,212.447L635.146,212.475L633.54,211.426L632.076,213.002L632.172,213.72L632.172,213.72L632.172,213.72L632.172,213.72L631.745,213.343L631.745,213.343L631.183,212.248L632.018,212.19L630.936,209.646L629.505,207.805L630.525,207.047L632.767,207.427L632.712,205.336L631.909,202.982L632.083,202.196L631.77,200.26L629.442,200.895L628.522,201.742L626.014,201.74L624.147,199.718L621.286,198.188L618.031,197.501L616.142,195.387L614.758,194.059L613.572,193.128L611.196,190.935L609.284,190.132L606.487,189.481L604.417,189.54L602.685,189.936L602.032,191.02L603.224,191.538L603.967,192.737L603.487,193.431L603.368,195.726L603.925,196.675L602.394,198.037L599.988,197.223L598.144,197.404L596.896,196.681L595.794,196.449L594.227,197.966L592.265,198.324L591.039,198.858L588.799,198.507L587.295,198.528L585.745,197.427L583.624,196.392L581.852,196.108L579.941,196.39L578.603,196.789L575.848,195.881L574.737,194.262L572.563,193.706L570.977,193.453L568.733,192.557L568.152,194.801L569.412,196.073L568.529,197.574L565.927,197.033L564.268,196.955L562.727,195.946L561.02,195.916L559.315,195.253L557.296,196.267L554.979,198.123L553.41,198.498L552.843,198.675L551.438,197.356L549.457,197.645L548.395,196.731L547.088,196.313L545.802,195.065L544.752,194.676L542.65,195.231L539.93,193.985L539.514,195.116L533.757,189.601L531.059,187.906L531.361,187.215L528.204,189.289L526.727,189.413L526.406,188.216L524.089,187.466L522.639,188.003L521.291,185.713L518.295,185.236L517.216,186.157L513.562,186.972L512.978,187.517L507.31,188.282L506.818,189.03L508.437,190.527L507.08,191.094L507.56,191.686L506.342,192.746L509.397,194.234L509.298,195.259L506.998,195.166L506.712,195.808L504.321,194.686L501.771,194.73L500.303,195.641L498.153,194.768L494.205,193.268L491.706,193.325L488.942,195.678L489.106,197.253L487.147,196.002L486.379,198.371L486.952,198.81L486.355,200.441L488.062,201.899L489.273,201.839L490.636,203.275L490.702,204.381L491.62,204.729Z" fill-rule="evenodd" fill="#ef4444" stroke="#ffffff" stroke-width="0.5"/>
        <path class="prism-mark-geoshape" data-prism-id="geoshape-11-2" d="M519.148,74.094L521.241,71.736L524.46,76.934L529.034,86.225L530.464,94.101L528.066,95.142L524.18,92.715L521.501,89.401L519.303,82.832L517.343,80.944L519.148,74.094Z" fill-rule="evenodd" fill="#ef4444" stroke="#ffffff" stroke-width="0.5"/>
        <path class="prism-mark-geoshape" data-prism-id="geoshape-11-3" d="M533.171,90.682L537.348,95.497L537.798,98.779L531.665,101.781L531.378,91.091L532.143,90.114L533.171,90.682Z" fill-rule="evenodd" fill="#ef4444" stroke="#ffffff" stroke-width="0.5"/>
        <path class="prism-mark-geoshape" data-prism-id="geoshape-11-4" d="M584.452,114.31L587.884,114.593L593.826,117.916L594.758,122.314L589.968,122.153L588.432,123.499L584.292,119.733L583.266,115.512L584.452,114.31Z" fill-rule="evenodd" fill="#ef4444" stroke="#ffffff" stroke-width="0.5"/>
        <path class="prism-mark-geoshape" data-prism-id="geoshape-11-5" d="M598.38,119.231L602.28,120.785L601.863,123.059L599.577,122.553L596.162,120.261L595.612,118.319L598.38,119.231Z" fill-rule="evenodd" fill="#ef4444" stroke="#ffffff" stroke-width="0.5"/>
        <path class="prism-mark-geoshape" data-prism-id="geoshape-11-6" d="M592.655,130.106L592.922,128.079L594.314,127.592L597.12,129.574L597.936,130.897L595.969,130.932L593.013,130.372L592.655,130.106Z" fill-rule="evenodd" fill="#ef4444" stroke="#ffffff" stroke-width="0.5"/>
        <path class="prism-mark-geoshape" data-prism-id="geoshape-11-7" d="M462.579,78.504L464.701,76.682L466.465,76.561L466.96,79.246L467.404,76.864L468.345,75.186L470.295,77.407L469.995,78.93L468.549,80.225L467.562,80.954L467.554,82.538L466.326,84.095L464.831,81.85L465.216,78.811L462.579,78.504Z" fill-rule="evenodd" fill="#ef4444" stroke="#ffffff" stroke-width="0.5"/>
        <path class="prism-mark-geoshape" data-prism-id="geoshape-11-8" d="M445.92,187.574L443.018,187.607L441.047,187.358L441.304,186.387L443.396,185.669L445.087,186.057L445.824,186.407L445.727,187.012L445.92,187.574Z" fill-rule="evenodd" fill="#ef4444" stroke="#ffffff" stroke-width="0.5"/>
        <path class="prism-mark-geoshape" data-prism-id="geoshape-11-9" d="M479.524,128.157L481.768,123.409L480.97,120.802L483.272,117.634L486.736,113.564L490.69,112.334L492.381,109.829L494.638,108.931L496.003,111.627L495.554,113.681L491.691,116.837L488.363,119.739L485.404,125.173L484.459,130.292L483.331,134.941L484.385,138.67L487.732,142.128L487.016,142.482L482.481,141.952L481.727,140.103L479.065,138.956L478.399,136.57L479.567,135.596L479.03,133.033L480.836,128.79L479.524,128.157Z" fill-rule="evenodd" fill="#ef4444" stroke="#ffffff" stroke-width="0.5"/>
        <path class="prism-mark-geoshape" data-prism-id="geoshape-11-10" d="M636.85,188.943L638.938,191.048L640.428,193.186L642.627,195.369L646.871,199.189L643.973,198.476L644.998,201.585L648.005,203.788L648.892,205.29L646.832,203.994L646.763,205.658L645.35,203.855L644.219,201.761L642.533,199.441L641.835,197.813L639.946,194.928L637.517,192.8L635.535,189.824L636.269,188.818L634.891,187.801L635.364,187.491L636.85,188.943Z" fill-rule="evenodd" fill="#ef4444" stroke="#ffffff" stroke-width="0.5"/>
        <path class="prism-mark-geoshape" data-prism-id="geoshape-11-11" d="M163.819,154.857L162.027,156.831L162.324,157.599L163.932,155.321L167.365,155.796L167.709,158.693L165.179,159.995L162.566,160.298L160.046,163.101L158.944,163.682L157.659,163.598L157.44,162.622L156.271,161.792L157.08,160.535L156.052,160.057L154.08,160.436L154.233,159.404L155.544,158.284L153.195,159L152.575,160.398L150.631,161.628L161.662,148.862L162.886,151.549L163.819,154.857Z" fill-rule="evenodd" fill="#ef4444" stroke="#ffffff" stroke-width="0.5"/>
        <path class="prism-mark-geoshape" data-prism-id="geoshape-11-12" d="M169.094,141.417L167.151,141.669L169.21,138.778L169.509,138.596L170.637,138.604L171.713,139.839L171.194,140.415L169.094,141.417Z" fill-rule="evenodd" fill="#ef4444" stroke="#ffffff" stroke-width="0.5"/>
        <path class="prism-mark-geoshape" data-prism-id="geoshape-11-13" d="M465.712,205.647L466.073,205.114L467.324,205.576L467.873,205.66L468.153,206.086L468.414,206.15L468.455,206.337L469.349,206.855L471.034,206.726L470.825,207.494L469.046,207.866L466.945,209.111L465.95,208.672L466.181,207.661L464.266,207.034L464.505,206.621L466.002,205.905L465.712,205.647Z" fill-rule="evenodd" fill="#ef4444" stroke="#ffffff" stroke-width="0.5"/>
        <path class="prism-mark-geoshape" data-prism-id="geoshape-12-0" d="M610.673,265.748L609.061,265.078L608.697,263.217L609.428,262.237L611.317,261.631L612.376,261.68L612.932,262.507L612.297,263.459L612.085,264.71L610.673,265.748Z" fill-rule="evenodd" fill="#ef4444" stroke="#ffffff" stroke-width="0.5"/>
        <path class="prism-mark-geoshape" data-prism-id="geoshape-12-1" d="M546.261,213.44L545.745,212.212L546.729,211.652L544.002,207.913L547.029,207.055L547.719,206.576L547.541,202.729L551.087,203.436L551.64,202.464L550.886,200.308L552.172,200.108L552.843,198.675L553.41,198.498L554.452,200L556.291,201.14L558.968,201.946L560.804,203.679L561.144,206.189L562.102,207.122L564.23,207.489L566.602,207.79L569.147,209.13L570.278,209.369L571.803,211.353L573.276,212.63L575.126,212.58L578.809,213.063L580.949,212.763L582.748,213.084L585.773,214.394L587.831,214.392L588.849,215.062L590.369,213.905L592.806,213.155L595.316,213.075L596.973,212.317L597.686,211.163L598.547,210.44L597.955,209.73L597.043,208.904L597.286,207.517L598.319,207.711L600.245,208.147L601.372,207.006L603.516,206.174L604.03,204.753L604.889,204.141L607.152,203.857L608.586,204.098L608.369,203.335L606.076,201.832L604.386,201.144L603.539,201.938L601.737,201.604L600.945,201.875L600.063,200.998L600.08,198.847L599.988,197.223L602.394,198.037L603.925,196.675L603.368,195.726L603.487,193.431L603.967,192.737L603.224,191.538L602.032,191.02L602.685,189.936L604.417,189.54L606.487,189.481L609.284,190.132L611.196,190.935L613.572,193.128L614.758,194.059L616.142,195.387L618.031,197.501L621.286,198.188L624.147,199.718L626.014,201.74L628.522,201.742L629.442,200.895L631.77,200.26L632.083,202.196L631.909,202.982L632.712,205.336L632.767,207.427L630.525,207.047L629.505,207.805L630.936,209.646L632.018,212.19L631.183,212.248L631.745,213.343L630.009,212.072L629.943,213.278L627.774,214.207L628.587,215.343L627.077,215.265L625.945,214.588L625.496,216.119L624.144,217.277L623.369,218.663L621.24,219.289L620.405,220.3L618.797,220.89L619.291,219.888L618.573,219.048L619.301,217.597L617.895,216.466L616.742,217.228L615.453,218.728L614.977,220.123L613.332,220.227L612.861,221.234L614.355,222.698L615.912,223.052L616.353,224.024L617.972,224.656L619.304,223.111L621.181,223.952L622.327,224.011L623.059,225.143L620.833,225.749L620.466,226.918L619.174,228.003L618.827,229.52L621.142,230.712L622.578,232.843L624.329,234.832L626.083,236.498L626.576,238.11L625.648,238.703L626.435,239.859L627.69,240.532L627.948,242.3L627.996,244.019L627.052,244.214L626.393,246.564L625.684,249.41L624.649,251.999L622.627,253.998L620.509,255.822L618.515,256.071L617.607,257.033L616.831,256.331L616.025,257.408L613.701,258.493L611.836,258.825L611.646,261.111L610.658,261.239L609.889,259.667L610.159,258.829L607.583,258.136L606.79,258.489L604.849,257.926L603.813,257.046L603.854,255.798L602.115,255.402L601.077,254.589L599.761,255.744L598.043,255.993L596.592,255.983L595.716,256.511L594.834,256.83L595.558,259.308L594.576,259.247L594.322,258.738L594.107,257.844L592.885,258.474L592.024,258.075L590.528,257.263L590.726,255.463L589.498,255.042L588.682,253.048L586.841,253.408L586.55,250.835L587.883,249.024L587.569,247.234L587.147,245.575L586.246,245.058L585.353,243.78L584.342,243.941L582.338,243.618L582.732,242.706L581.576,241.356L580.517,242.27L578.895,241.738L577.148,243.118L575.873,244.733L574.486,245.004L573.576,244.42L572.618,244.368L571.231,243.867L570.379,244.416L569.523,246.03L569.022,244.321L568.023,244.776L565.891,244.566L563.761,244.067L562.115,243.114L560.638,242.687L559.824,241.645L558.756,241.333L556.663,239.92L555.096,239.252L554.465,239.772L551.677,238.254L549.646,236.88L548.636,234.489L549.969,234.78L549.783,233.674L548.831,232.564L548.603,230.794L546.119,228.254L543.038,227.379L542.122,225.714L540.592,224.705L540.131,224.084L539.565,222.851L539.414,222.01L538.241,221.517L537.727,221.736L536.781,219.737L537.143,219.242L536.774,218.737L538.141,217.718L539.21,217.295L541.102,217.584L541.363,216.207L543.481,215.951L543.84,215.095L546.171,213.926L546.261,213.44Z" fill-rule="evenodd" fill="#ef4444" stroke="#ffffff" stroke-width="0.5"/>
        <path class="prism-mark-geoshape" data-prism-id="geoshape-13-0" d="M439.252,366.743L440.152,365.669L440.836,366.263L441.098,367.192L441.895,367.348L443.001,367.758L443.968,367.6L445.618,366.491L445.972,358.48L446.447,358.806L447.429,360.866L447.202,362.187L447.57,362.95L448.868,362.729L449.815,361.759L450.7,361.106L451.191,360.068L452.096,359.567L452.845,359.829L453.675,360.436L455.138,360.545L456.319,360.039L456.538,359.363L456.912,358.324L457.905,358.151L458.491,357.338L459.171,355.892L460.886,354.275L463.543,352.679L464.282,352.702L465.142,353.071L465.769,352.811L466.723,353.027L467.412,356.076L467.788,357.615L467.305,360.033L467.408,360.811L466.524,360.415L465.992,360.569L465.781,361.202L465.235,362.015L465.2,362.766L466.191,363.942L467.259,363.707L467.695,362.744L469.057,362.761L468.491,364.341L468.143,366.144L467.604,367.122L466.3,368.218L465.927,368.533L465.085,369.635L464.501,370.751L463.37,372.304L461.19,374.543L459.839,375.845L458.429,376.831L456.521,377.673L455.616,377.786L455.344,378.388L454.298,378.067L453.398,378.479L451.52,378.061L450.436,378.325L449.715,378.213L447.847,379.069L446.326,379.412L445.192,380.231L444.391,380.283L443.694,379.511L443.103,379.47L442.4,378.503L442.299,378.805L442.097,378.221L442.174,376.949L441.674,375.495L442.265,375.101L442.302,373.437L441.235,371.406L440.421,369.568L440.419,369.561L439.252,366.743ZM461.804,367.565L461.071,366.897L460.203,367.337L459.179,368.188L458.133,369.561L459.352,371.23L460.004,371.015L460.382,370.321L461.399,369.982L461.753,369.275L462.377,368.218L461.804,367.565Z" fill-rule="evenodd" fill="#10b981" stroke="#ffffff" stroke-width="0.5"/>
        <path class="prism-mark-geoshape" data-prism-id="geoshape-14-0" d="M584.342,243.941L584.667,244.763L584.127,245.162L584.57,246.497L583.199,246.104L581.194,247.603L581.507,248.846L580.876,250.665L580.992,251.721L580.522,253.508L579.014,253.013L579.349,255.257L579.068,255.996L579.419,256.916L578.609,257.43L577.056,253.993L576.557,254L576.503,255.385L575.314,254.26L575.653,253.026L576.44,252.903L576.931,251.067L575.82,250.698L574.149,250.728L572.376,250.431L571.928,248.924L571.047,248.818L569.439,247.878L569.085,249.351L570.602,250.498L569.62,251.307L569.36,252.096L570.578,252.677L570.499,253.985L571.403,255.614L571.979,257.397L571.845,258.188L570.601,258.162L568.427,258.61L568.776,260.241L567.986,261.52L565.558,262.977L563.84,265.523L562.628,266.888L560.964,268.302L561.071,269.296L560.214,269.83L558.639,270.604L557.792,270.718L557.405,272.367L558.051,275.175L558.305,276.967L557.689,279.017L557.943,282.683L556.992,282.786L556.251,284.432L556.858,285.141L555.202,285.753L554.655,287.219L553.942,287.838L552.08,285.827L551.044,282.806L550.19,280.631L549.471,279.611L548.335,277.537L547.66,274.836L547.225,273.488L545.278,270.52L544.095,266.33L543.243,263.563L542.939,260.94L542.336,258.913L539.842,260.211L538.525,259.951L535.824,257.326L536.599,256.542L535.953,255.692L533.583,253.852L534.593,252.406L538.575,252.411L537.947,250.55L536.769,249.451L536.309,247.781L534.98,246.807L536.593,244.533L538.704,244.698L540.185,242.422L540.906,240.222L542.217,238.043L541.885,236.496L543.14,235.242L541.492,234.171L540.57,232.705L539.538,230.803L540.193,229.869L542.972,230.398L544.856,230.075L546.119,228.254L548.603,230.794L548.831,232.564L549.783,233.674L549.969,234.78L548.636,234.489L549.646,236.88L551.677,238.254L554.465,239.772L553.535,240.755L553.241,242.786L555.134,243.607L557.028,244.672L559.6,245.887L562.116,246.169L563.364,247.273L564.792,247.479L567.054,247.985L568.547,247.948L568.586,247.091L568.075,245.711L568.023,244.776L569.022,244.321L569.523,246.03L569.65,246.464L571.45,247.288L572.511,246.948L574.06,247.093L575.513,247.03L575.363,245.696L574.486,245.004L575.873,244.733L577.148,243.118L578.895,241.738L580.517,242.27L581.576,241.356L582.732,242.706L582.338,243.618L584.342,243.941Z" fill-rule="evenodd" fill="#10b981" stroke="#ffffff" stroke-width="0.5"/>
        <path class="prism-mark-geoshape" data-prism-id="geoshape-15-0" d="M477.08,257.519L469.863,257.519L462.803,257.519L455.489,257.519L455.097,249.536L454.655,241.821L454.012,240.074L454.386,238.733L454.05,237.807L454.623,236.765L456.979,236.728L458.729,237.303L460.537,237.943L461.387,238.282L462.7,237.594L463.382,236.973L464.932,236.793L466.216,237.067L466.789,238.143L467.141,237.436L468.609,237.948L470.004,238.071L470.829,237.524L470.829,237.524L472.103,240.688L472.33,241.252L471.903,242.125L471.655,243.763L471.258,244.893L470.868,245.271L470.216,244.572L469.332,243.602L467.807,240.493L467.639,240.69L468.563,242.98L469.833,245.16L471.448,248.54L472.2,249.718L472.868,250.943L474.662,253.343L474.33,253.722L474.484,255.131L476.732,257.075L477.08,257.519Z" fill-rule="evenodd" fill="#10b981" stroke="#ffffff" stroke-width="0.5"/>
      </g>
    </g>
    <g class="prism-legends"><g class="prism-legend prism-legend-color" data-prism-legend-id="legend-color"><text class="prism-legend-title" x="680" y="64">tier</text><rect class="prism-legend-swatch" x="680" y="76" width="12" height="12" fill="#3b82f6"/><text class="prism-legend-label" x="698" y="86">high</text><rect class="prism-legend-swatch" x="680" y="94" width="12" height="12" fill="#ef4444"/><text class="prism-legend-label" x="698" y="104">mid</text><rect class="prism-legend-swatch" x="680" y="112" width="12" height="12" fill="#10b981"/><text class="prism-legend-label" x="698" y="122">low</text></g></g>
  </g>
</svg>
