<svg xmlns="http://www.w3.org/2000/svg" viewBox="0 0 800 600" overflow="hidden">
  <style>:root{--prism-color-axis:#6b7280;--prism-color-grid:#e5e7eb;--prism-color-text:#111827;--prism-color-bg:transparent;--prism-font-sans:Inter, system-ui, sans-serif;--prism-font-mono:ui-monospace, SF Mono, monospace;--prism-font-size-label:11px;--prism-font-size-title:16px;--prism-font-size-axis-title:12px;--prism-axis-domain-color:#6b7280;--prism-axis-domain-width:1px;--prism-axis-tick-color:#6b7280;--prism-axis-tick-width:1px;--prism-axis-tick-size:5px;--prism-grid-color:#e5e7eb;--prism-grid-width:1px;--prism-axis-label-color:#111827;--prism-axis-label-font-size:11px;--prism-axis-label-padding:4px;--prism-axis-title-color:#111827;--prism-axis-title-font-size:12px;--prism-axis-title-padding:8px;--prism-legend-padding:8px;--prism-legend-symbol-size:64px;--prism-legend-label-color:#111827;--prism-legend-label-font-size:11px;--prism-legend-title-color:#111827;--prism-legend-title-font-size:12px;--prism-legend-title-font-weight:600;--prism-legend-row-padding:4px;--prism-title-color:#111827;--prism-title-font-size:16px;--prism-title-font-weight:600;--prism-title-anchor:start;--prism-title-padding:12px;--prism-view-bg:transparent;--prism-view-padding:0px;--prism-mark-fill:#4c78a8;--prism-mark-stroke-width:0px;--prism-mark-opacity:1;--prism-mark-arc-stroke:#ffffff;--prism-mark-arc-stroke-width:1px;--prism-mark-area-fill:#4c78a8;--prism-mark-area-opacity:0.7;--prism-mark-bar-fill:#4c78a8;--prism-mark-bar-corner-radius:0px;--prism-mark-geopoint-fill:#4c78a8;--prism-mark-geopoint-stroke-width:0px;--prism-mark-geopoint-size:36;--prism-mark-geoshape-fill:#cbd5e1;--prism-mark-geoshape-stroke:#ffffff;--prism-mark-geoshape-stroke-width:0.5px;--prism-mark-line-fill:transparent;--prism-mark-line-stroke:#4c78a8;--prism-mark-line-stroke-width:1.5px;--prism-mark-point-fill:#4c78a8;--prism-mark-point-stroke-width:0px;--prism-mark-point-size:64;--prism-mark-rule-stroke:#4c78a8;--prism-mark-rule-stroke-width:1px;--prism-mark-text-fill:#111827;--prism-mark-text-font-size:11px;--prism-mark-tick-stroke:#4c78a8;--prism-mark-tick-stroke-width:1px;--prism-deselected-opacity:0.3;--prism-selected-opacity:1;}.prism-axis-domain{stroke:var(--prism-axis-domain-color,var(--prism-color-axis));stroke-width:var(--prism-axis-domain-width,1px);fill:none;}.prism-axis-tick{stroke:var(--prism-axis-tick-color,var(--prism-color-axis));stroke-width:var(--prism-axis-tick-width,1px);}.prism-axis-label{fill:var(--prism-axis-label-color,var(--prism-color-text));font-family:var(--prism-font-sans);font-size:var(--prism-axis-label-font-size,var(--prism-font-size-label,11px));font-weight:var(--prism-axis-label-font-weight,400);}.prism-axis-title{fill:var(--prism-axis-title-color,var(--prism-color-text));font-family:var(--prism-font-sans);font-size:var(--prism-axis-title-font-size,var(--prism-font-size-axis-title,12px));font-weight:var(--prism-axis-title-font-weight,600);}.prism-grid-line{stroke:var(--prism-grid-color,var(--prism-color-grid));stroke-width:var(--prism-grid-width,1px);}.prism-title{fill:var(--prism-title-color,var(--prism-color-text));font-family:var(--prism-font-sans);font-size:var(--prism-title-font-size,var(--prism-font-size-title,16px));font-weight:var(--prism-title-font-weight,600);}.prism-legend-title{fill:var(--prism-legend-title-color,var(--prism-color-text));font-family:var(--prism-font-sans);font-size:var(--prism-legend-title-font-size,12px);font-weight:var(--prism-legend-title-font-weight,600);}.prism-legend-label{fill:var(--prism-legend-label-color,var(--prism-color-text));font-family:var(--prism-font-sans);font-size:var(--prism-legend-label-font-size,11px);}.prism-legend-swatch{stroke:none;}.prism-selected{opacity:var(--prism-selected-opacity,1);}.prism-deselected{opacity:var(--prism-deselected-opacity,0.3);}</style>

  <g class="prism-scene" data-scene-id="scene-0">
    <text class="prism-title" x="410" y="20" text-anchor="middle">Net daily P&amp;L</text>
    <g class="prism-axes">
      <g class="prism-axis prism-axis-x" data-prism-axis-id="x-axis"><line class="prism-grid-line" x1="40" y1="50" x2="40" y2="560"/><line class="prism-grid-line" x1="145.714" y1="50" x2="145.714" y2="560"/><line class="prism-grid-line" x1="251.429" y1="50" x2="251.429" y2="560"/><line class="prism-grid-line" x1="357.143" y1="50" x2="357.143" y2="560"/><line class="prism-grid-line" x1="462.857" y1="50" x2="462.857" y2="560"/><line class="prism-grid-line" x1="568.571" y1="50" x2="568.571" y2="560"/><line class="prism-grid-line" x1="674.286" y1="50" x2="674.286" y2="560"/><line class="prism-grid-line" x1="780" y1="50" x2="780" y2="560"/><line class="prism-axis-domain" x1="40" y1="560" x2="780" y2="560"/><line class="prism-axis-tick" x1="40" y1="560" x2="40" y2="565"/><text class="prism-axis-label" x="40" y="578" text-anchor="middle">0</text><line class="prism-axis-tick" x1="92.857" y1="560" x2="92.857" y2="563"/><line class="prism-axis-tick" x1="145.714" y1="560" x2="145.714" y2="565"/><text class="prism-axis-label" x="145.714" y="578" text-anchor="middle">1</text><line class="prism-axis-tick" x1="198.571" y1="560" x2="198.571" y2="563"/><line class="prism-axis-tick" x1="251.429" y1="560" x2="251.429" y2="565"/><text class="prism-axis-label" x="251.429" y="578" text-anchor="middle">2</text><line class="prism-axis-tick" x1="304.286" y1="560" x2="304.286" y2="563"/><line class="prism-axis-tick" x1="357.143" y1="560" x2="357.143" y2="565"/><text class="prism-axis-label" x="357.143" y="578" text-anchor="middle">3</text><line class="prism-axis-tick" x1="410" y1="560" x2="410" y2="563"/><line class="prism-axis-tick" x1="462.857" y1="560" x2="462.857" y2="565"/><text class="prism-axis-label" x="462.857" y="578" text-anchor="middle">4</text><line class="prism-axis-tick" x1="515.714" y1="560" x2="515.714" y2="563"/><line class="prism-axis-tick" x1="568.571" y1="560" x2="568.571" y2="565"/><text class="prism-axis-label" x="568.571" y="578" text-anchor="middle">5</text><line class="prism-axis-tick" x1="621.429" y1="560" x2="621.429" y2="563"/><line class="prism-axis-tick" x1="674.286" y1="560" x2="674.286" y2="565"/><text class="prism-axis-label" x="674.286" y="578" text-anchor="middle">6</text><line class="prism-axis-tick" x1="727.143" y1="560" x2="727.143" y2="563"/><line class="prism-axis-tick" x1="780" y1="560" x2="780" y2="565"/><text class="prism-axis-label" x="780" y="578" text-anchor="middle">7</text><text class="prism-axis-title" x="410" y="594" text-anchor="middle">day</text></g>
      <g class="prism-axis prism-axis-y" data-prism-axis-id="y-axis"><line class="prism-grid-line" x1="40" y1="494.537" x2="780" y2="494.537"/><line class="prism-grid-line" x1="40" y1="418.418" x2="780" y2="418.418"/><line class="prism-grid-line" x1="40" y1="342.299" x2="780" y2="342.299"/><line class="prism-grid-line" x1="40" y1="266.179" x2="780" y2="266.179"/><line class="prism-grid-line" x1="40" y1="190.06" x2="780" y2="190.06"/><line class="prism-grid-line" x1="40" y1="113.94" x2="780" y2="113.94"/><line class="prism-axis-domain" x1="40" y1="50" x2="40" y2="560"/><line class="prism-axis-tick" x1="40" y1="494.537" x2="35" y2="494.537"/><text class="prism-axis-label" x="32" y="498.537" text-anchor="end">-10</text><line class="prism-axis-tick" x1="40" y1="456.478" x2="37" y2="456.478"/><line class="prism-axis-tick" x1="40" y1="418.418" x2="35" y2="418.418"/><line class="prism-axis-tick" x1="40" y1="380.358" x2="37" y2="380.358"/><line class="prism-axis-tick" x1="40" y1="342.299" x2="35" y2="342.299"/><text class="prism-axis-label" x="32" y="346.299" text-anchor="end">0</text><line class="prism-axis-tick" x1="40" y1="304.239" x2="37" y2="304.239"/><line class="prism-axis-tick" x1="40" y1="266.179" x2="35" y2="266.179"/><line class="prism-axis-tick" x1="40" y1="228.119" x2="37" y2="228.119"/><line class="prism-axis-tick" x1="40" y1="190.06" x2="35" y2="190.06"/><text class="prism-axis-label" x="32" y="194.06" text-anchor="end">10</text><line class="prism-axis-tick" x1="40" y1="152" x2="37" y2="152"/><line class="prism-axis-tick" x1="40" y1="113.94" x2="35" y2="113.94"/><text class="prism-axis-title" x="10" y="305" text-anchor="middle" transform="rotate(-90 10 305)">pnl</text></g>
    </g>
    <g class="prism-plot">
      <g class="prism-layer" data-layer-id="layer-0" data-prism-layer="layer-0">
        <path class="prism-mark-area" data-prism-id="area-0" data-prism-datum-row="0" d="M145.714,153.522 L251.429,465.612 L357.143,270.746 L462.857,560 L568.571,50 L674.286,289.015 L780,372.746 L780,342.299 L674.286,342.299 L568.571,342.299 L462.857,342.299 L357.143,342.299 L251.429,342.299 L145.714,342.299 Z" fill="#4c78a8" opacity="0.7"/>
      </g>
    </g>
  </g>
</svg>
