<svg xmlns="http://www.w3.org/2000/svg" viewBox="0 0 800 600">
  <style>:root{--prism-color-axis:#6b7280;--prism-color-grid:#e5e7eb;--prism-color-text:#111827;--prism-color-bg:transparent;--prism-font-sans:Inter, system-ui, sans-serif;--prism-font-mono:ui-monospace, SF Mono, monospace;--prism-font-size-label:11px;--prism-font-size-title:16px;--prism-font-size-axis-title:12px;}.prism-axis-domain{stroke:var(--prism-color-axis);fill:none;}.prism-axis-tick{stroke:var(--prism-color-axis);}.prism-axis-label{fill:var(--prism-color-text);font-family:var(--prism-font-sans);font-size:var(--prism-font-size-label,11px);}.prism-axis-title{fill:var(--prism-color-text);font-family:var(--prism-font-sans);font-size:var(--prism-font-size-axis-title,12px);font-weight:600;}.prism-grid-line{stroke:var(--prism-color-grid);}.prism-title{fill:var(--prism-color-text);font-family:var(--prism-font-sans);font-size:var(--prism-font-size-title,16px);font-weight:600;}.prism-legend-title{fill:var(--prism-color-text);font-family:var(--prism-font-sans);font-size:12px;font-weight:600;}.prism-legend-label{fill:var(--prism-color-text);font-family:var(--prism-font-sans);font-size:11px;}.prism-legend-swatch{stroke:none;}.prism-selected{opacity:var(--prism-selected-opacity,1);}.prism-deselected{opacity:var(--prism-deselected-opacity,0.3);}</style>

  <g class="prism-scene" data-scene-id="scene-0">
    <text class="prism-title" x="410" y="20" text-anchor="middle">Weekly visits by source</text>
    <g class="prism-axes">
      <g class="prism-axis prism-axis-x" data-prism-axis-id="x-axis"><line class="prism-grid-line" x1="40" y1="50" x2="40" y2="560"/><line class="prism-grid-line" x1="225" y1="50" x2="225" y2="560"/><line class="prism-grid-line" x1="410" y1="50" x2="410" y2="560"/><line class="prism-grid-line" x1="595" y1="50" x2="595" y2="560"/><line class="prism-grid-line" x1="780" y1="50" x2="780" y2="560"/><line class="prism-axis-domain" x1="40" y1="560" x2="780" y2="560"/><line class="prism-axis-tick" x1="40" y1="560" x2="40" y2="565"/><text class="prism-axis-label" x="40" y="578" text-anchor="middle">0</text><line class="prism-axis-tick" x1="132.5" y1="560" x2="132.5" y2="563"/><line class="prism-axis-tick" x1="225" y1="560" x2="225" y2="565"/><text class="prism-axis-label" x="225" y="578" text-anchor="middle">1</text><line class="prism-axis-tick" x1="317.5" y1="560" x2="317.5" y2="563"/><line class="prism-axis-tick" x1="410" y1="560" x2="410" y2="565"/><text class="prism-axis-label" x="410" y="578" text-anchor="middle">2</text><line class="prism-axis-tick" x1="502.5" y1="560" x2="502.5" y2="563"/><line class="prism-axis-tick" x1="595" y1="560" x2="595" y2="565"/><text class="prism-axis-label" x="595" y="578" text-anchor="middle">3</text><line class="prism-axis-tick" x1="687.5" y1="560" x2="687.5" y2="563"/><line class="prism-axis-tick" x1="780" y1="560" x2="780" y2="565"/><text class="prism-axis-label" x="780" y="578" text-anchor="middle">4</text><text class="prism-axis-title" x="410" y="594" text-anchor="middle">week</text></g>
      <g class="prism-axis prism-axis-y" data-prism-axis-id="y-axis"><line class="prism-grid-line" x1="40" y1="560" x2="780" y2="560"/><line class="prism-grid-line" x1="40" y1="487.66" x2="780" y2="487.66"/><line class="prism-grid-line" x1="40" y1="415.319" x2="780" y2="415.319"/><line class="prism-grid-line" x1="40" y1="342.979" x2="780" y2="342.979"/><line class="prism-grid-line" x1="40" y1="270.638" x2="780" y2="270.638"/><line class="prism-grid-line" x1="40" y1="198.298" x2="780" y2="198.298"/><line class="prism-grid-line" x1="40" y1="125.957" x2="780" y2="125.957"/><line class="prism-grid-line" x1="40" y1="53.617" x2="780" y2="53.617"/><line class="prism-axis-domain" x1="40" y1="50" x2="40" y2="560"/><line class="prism-axis-tick" x1="40" y1="560" x2="35" y2="560"/><text class="prism-axis-label" x="32" y="564" text-anchor="end">0</text><line class="prism-axis-tick" x1="40" y1="523.83" x2="37" y2="523.83"/><line class="prism-axis-tick" x1="40" y1="487.66" x2="35" y2="487.66"/><line class="prism-axis-tick" x1="40" y1="451.489" x2="37" y2="451.489"/><line class="prism-axis-tick" x1="40" y1="415.319" x2="35" y2="415.319"/><text class="prism-axis-label" x="32" y="419.319" text-anchor="end">400</text><line class="prism-axis-tick" x1="40" y1="379.149" x2="37" y2="379.149"/><line class="prism-axis-tick" x1="40" y1="342.979" x2="35" y2="342.979"/><line class="prism-axis-tick" x1="40" y1="306.809" x2="37" y2="306.809"/><line class="prism-axis-tick" x1="40" y1="270.638" x2="35" y2="270.638"/><text class="prism-axis-label" x="32" y="274.638" text-anchor="end">800</text><line class="prism-axis-tick" x1="40" y1="234.468" x2="37" y2="234.468"/><line class="prism-axis-tick" x1="40" y1="198.298" x2="35" y2="198.298"/><line class="prism-axis-tick" x1="40" y1="162.128" x2="37" y2="162.128"/><line class="prism-axis-tick" x1="40" y1="125.957" x2="35" y2="125.957"/><text class="prism-axis-label" x="32" y="129.957" text-anchor="end">1200</text><line class="prism-axis-tick" x1="40" y1="89.787" x2="37" y2="89.787"/><line class="prism-axis-tick" x1="40" y1="53.617" x2="35" y2="53.617"/><text class="prism-axis-title" x="10" y="305" text-anchor="middle" transform="rotate(-90 10 305)">visits</text></g>
    </g>
    <g class="prism-plot">
      <g class="prism-layer" data-layer-id="layer-0" data-prism-layer="layer-0">
        <polyline class="prism-mark-line" data-prism-id="line-0" data-prism-datum-row="0" points="225,125.957 410,93.404 595,78.936 780,50 225,342.979 410,295.957 595,299.574 780,270.638 225,480.426 410,471.383 595,458.723 780,447.872" fill="none" stroke="#3b82f6" stroke-width="1.5"/>
      </g>
    </g>
    <g class="prism-legends"><g class="prism-legend prism-legend-color" data-prism-legend-id="legend-color"><text class="prism-legend-title" x="680" y="64">source</text><rect class="prism-legend-swatch" x="680" y="76" width="12" height="12" fill="#3b82f6"/><text class="prism-legend-label" x="698" y="86">organic</text><rect class="prism-legend-swatch" x="680" y="94" width="12" height="12" fill="#ef4444"/><text class="prism-legend-label" x="698" y="104">paid</text><rect class="prism-legend-swatch" x="680" y="112" width="12" height="12" fill="#10b981"/><text class="prism-legend-label" x="698" y="122">referral</text></g></g>
  </g>
</svg>
