<svg xmlns="http://www.w3.org/2000/svg" viewBox="0 0 800 600">
  <style>:root{--prism-color-axis:#6b7280;--prism-color-grid:#e5e7eb;--prism-color-text:#111827;--prism-color-bg:transparent;--prism-font-sans:Inter, system-ui, sans-serif;--prism-font-mono:ui-monospace, SF Mono, monospace;--prism-font-size-label:11px;--prism-font-size-title:16px;--prism-font-size-axis-title:12px;}.prism-axis-domain{stroke:var(--prism-color-axis);fill:none;}.prism-axis-tick{stroke:var(--prism-color-axis);}.prism-axis-label{fill:var(--prism-color-text);font-family:var(--prism-font-sans);font-size:var(--prism-font-size-label,11px);}.prism-axis-title{fill:var(--prism-color-text);font-family:var(--prism-font-sans);font-size:var(--prism-font-size-axis-title,12px);font-weight:600;}.prism-grid-line{stroke:var(--prism-color-grid);}.prism-title{fill:var(--prism-color-text);font-family:var(--prism-font-sans);font-size:var(--prism-font-size-title,16px);font-weight:600;}.prism-legend-title{fill:var(--prism-color-text);font-family:var(--prism-font-sans);font-size:12px;font-weight:600;}.prism-legend-label{fill:var(--prism-color-text);font-family:var(--prism-font-sans);font-size:11px;}.prism-legend-swatch{stroke:none;}.prism-selected{opacity:var(--prism-selected-opacity,1);}.prism-deselected{opacity:var(--prism-deselected-opacity,0.3);}</style>

  <g class="prism-scene" data-scene-id="scene-0">
    <text class="prism-title" x="410" y="20" text-anchor="middle">Tick strip</text>
    <g class="prism-axes">
      <g class="prism-axis prism-axis-x" data-prism-axis-id="x-axis"><line class="prism-grid-line" x1="225" y1="50" x2="225" y2="560"/><line class="prism-grid-line" x1="595" y1="50" x2="595" y2="560"/><line class="prism-axis-domain" x1="40" y1="560" x2="780" y2="560"/><line class="prism-axis-tick" x1="225" y1="560" x2="225" y2="565"/><text class="prism-axis-label" x="225" y="578" text-anchor="middle">a</text><line class="prism-axis-tick" x1="595" y1="560" x2="595" y2="565"/><text class="prism-axis-label" x="595" y="578" text-anchor="middle">b</text><text class="prism-axis-title" x="410" y="594" text-anchor="middle">group</text></g>
      <g class="prism-axis prism-axis-y" data-prism-axis-id="y-axis"><line class="prism-grid-line" x1="40" y1="560" x2="780" y2="560"/><line class="prism-grid-line" x1="40" y1="432.5" x2="780" y2="432.5"/><line class="prism-grid-line" x1="40" y1="305" x2="780" y2="305"/><line class="prism-grid-line" x1="40" y1="177.5" x2="780" y2="177.5"/><line class="prism-grid-line" x1="40" y1="50" x2="780" y2="50"/><line class="prism-axis-domain" x1="40" y1="50" x2="40" y2="560"/><line class="prism-axis-tick" x1="40" y1="560" x2="35" y2="560"/><text class="prism-axis-label" x="32" y="564" text-anchor="end">0</text><line class="prism-axis-tick" x1="40" y1="496.25" x2="37" y2="496.25"/><line class="prism-axis-tick" x1="40" y1="432.5" x2="35" y2="432.5"/><line class="prism-axis-tick" x1="40" y1="368.75" x2="37" y2="368.75"/><line class="prism-axis-tick" x1="40" y1="305" x2="35" y2="305"/><text class="prism-axis-label" x="32" y="309" text-anchor="end">0.4</text><line class="prism-axis-tick" x1="40" y1="241.25" x2="37" y2="241.25"/><line class="prism-axis-tick" x1="40" y1="177.5" x2="35" y2="177.5"/><line class="prism-axis-tick" x1="40" y1="113.75" x2="37" y2="113.75"/><line class="prism-axis-tick" x1="40" y1="50" x2="35" y2="50"/><text class="prism-axis-label" x="32" y="54" text-anchor="end">0.8</text><text class="prism-axis-title" x="10" y="305" text-anchor="middle" transform="rotate(-90 10 305)">value</text></g>
    </g>
    <g class="prism-plot">
      <g class="prism-layer" data-layer-id="layer-0" data-prism-layer="layer-0">
        <polyline class="prism-mark-line" data-prism-id="tick-0" data-prism-datum-row="0" points="225,363.75 225,373.75" fill="none" fill="#3b82f6"/>
        <polyline class="prism-mark-line" data-prism-id="tick-1" data-prism-datum-row="1" points="225,236.25 225,246.25" fill="none" fill="#3b82f6"/>
        <polyline class="prism-mark-line" data-prism-id="tick-2" data-prism-datum-row="2" points="225,172.5 225,182.5" fill="none" fill="#3b82f6"/>
        <polyline class="prism-mark-line" data-prism-id="tick-3" data-prism-datum-row="3" points="595,427.5 595,437.5" fill="none" fill="#3b82f6"/>
        <polyline class="prism-mark-line" data-prism-id="tick-4" data-prism-datum-row="4" points="595,45 595,55" fill="none" fill="#3b82f6"/>
      </g>
    </g>
  </g>
</svg>
