<svg xmlns="http://www.w3.org/2000/svg" viewBox="0 0 800 600" width="800" height="600">
  <style>:root{--prism-color-axis:#6b7280;--prism-color-grid:#e5e7eb;--prism-color-text:#111827;--prism-color-bg:transparent;--prism-font-sans:Inter, system-ui, sans-serif;--prism-font-mono:ui-monospace, SF Mono, monospace;--prism-font-size-label:11px;--prism-font-size-title:16px;--prism-font-size-axis-title:12px;}.prism-axis-domain{stroke:var(--prism-color-axis);fill:none;}.prism-axis-tick{stroke:var(--prism-color-axis);}.prism-axis-label{fill:var(--prism-color-text);font-family:var(--prism-font-sans);font-size:var(--prism-font-size-label,11px);}.prism-axis-title{fill:var(--prism-color-text);font-family:var(--prism-font-sans);font-size:var(--prism-font-size-axis-title,12px);font-weight:600;}.prism-grid-line{stroke:var(--prism-color-grid);}.prism-title{fill:var(--prism-color-text);font-family:var(--prism-font-sans);font-size:var(--prism-font-size-title,16px);font-weight:600;}.prism-legend-title{fill:var(--prism-color-text);font-family:var(--prism-font-sans);font-size:12px;font-weight:600;}.prism-legend-label{fill:var(--prism-color-text);font-family:var(--prism-font-sans);font-size:11px;}.prism-legend-swatch{stroke:none;}.prism-selected{opacity:var(--prism-selected-opacity,1);}.prism-deselected{opacity:var(--prism-deselected-opacity,0.3);}</style>

  <g class="prism-scene" data-scene-id="scene-0">
    <g class="prism-axes">
      <g class="prism-axis prism-axis-x" data-prism-axis-id="x-axis"><line class="prism-grid-line" x1="163.333" y1="20" x2="163.333" y2="560"/><line class="prism-grid-line" x1="410" y1="20" x2="410" y2="560"/><line class="prism-grid-line" x1="656.667" y1="20" x2="656.667" y2="560"/><line class="prism-axis-domain" x1="40" y1="560" x2="780" y2="560"/><line class="prism-axis-tick" x1="163.333" y1="560" x2="163.333" y2="565"/><text class="prism-axis-label" x="163.333" y="578" text-anchor="middle">a</text><line class="prism-axis-tick" x1="410" y1="560" x2="410" y2="565"/><text class="prism-axis-label" x="410" y="578" text-anchor="middle">b</text><line class="prism-axis-tick" x1="656.667" y1="560" x2="656.667" y2="565"/><text class="prism-axis-label" x="656.667" y="578" text-anchor="middle">c</text><text class="prism-axis-title" x="410" y="594" text-anchor="middle">x</text></g>
      <g class="prism-axis prism-axis-y" data-prism-axis-id="y-axis"><line class="prism-grid-line" x1="40" y1="560" x2="780" y2="560"/><line class="prism-grid-line" x1="40" y1="380" x2="780" y2="380"/><line class="prism-grid-line" x1="40" y1="200" x2="780" y2="200"/><line class="prism-grid-line" x1="40" y1="20" x2="780" y2="20"/><line class="prism-axis-domain" x1="40" y1="20" x2="40" y2="560"/><line class="prism-axis-tick" x1="40" y1="560" x2="35" y2="560"/><text class="prism-axis-label" x="32" y="564" text-anchor="end">1</text><line class="prism-axis-tick" x1="40" y1="505.815" x2="37" y2="505.815"/><line class="prism-axis-tick" x1="40" y1="474.118" x2="37" y2="474.118"/><line class="prism-axis-tick" x1="40" y1="451.629" x2="37" y2="451.629"/><line class="prism-axis-tick" x1="40" y1="434.185" x2="37" y2="434.185"/><line class="prism-axis-tick" x1="40" y1="419.933" x2="37" y2="419.933"/><line class="prism-axis-tick" x1="40" y1="407.882" x2="37" y2="407.882"/><line class="prism-axis-tick" x1="40" y1="397.444" x2="37" y2="397.444"/><line class="prism-axis-tick" x1="40" y1="388.236" x2="37" y2="388.236"/><line class="prism-axis-tick" x1="40" y1="380" x2="35" y2="380"/><line class="prism-axis-tick" x1="40" y1="325.815" x2="37" y2="325.815"/><line class="prism-axis-tick" x1="40" y1="294.118" x2="37" y2="294.118"/><line class="prism-axis-tick" x1="40" y1="271.629" x2="37" y2="271.629"/><line class="prism-axis-tick" x1="40" y1="254.185" x2="37" y2="254.185"/><line class="prism-axis-tick" x1="40" y1="239.933" x2="37" y2="239.933"/><line class="prism-axis-tick" x1="40" y1="227.882" x2="37" y2="227.882"/><line class="prism-axis-tick" x1="40" y1="217.444" x2="37" y2="217.444"/><line class="prism-axis-tick" x1="40" y1="208.236" x2="37" y2="208.236"/><line class="prism-axis-tick" x1="40" y1="200" x2="35" y2="200"/><text class="prism-axis-label" x="32" y="204" text-anchor="end">100</text><line class="prism-axis-tick" x1="40" y1="145.815" x2="37" y2="145.815"/><line class="prism-axis-tick" x1="40" y1="114.118" x2="37" y2="114.118"/><line class="prism-axis-tick" x1="40" y1="91.629" x2="37" y2="91.629"/><line class="prism-axis-tick" x1="40" y1="74.185" x2="37" y2="74.185"/><line class="prism-axis-tick" x1="40" y1="59.933" x2="37" y2="59.933"/><line class="prism-axis-tick" x1="40" y1="47.882" x2="37" y2="47.882"/><line class="prism-axis-tick" x1="40" y1="37.444" x2="37" y2="37.444"/><line class="prism-axis-tick" x1="40" y1="28.236" x2="37" y2="28.236"/><line class="prism-axis-tick" x1="40" y1="20" x2="35" y2="20"/><text class="prism-axis-title" x="10" y="290" text-anchor="middle" transform="rotate(-90 10 290)">y</text></g>
    </g>
    <g class="prism-plot">
      <g class="prism-layer" data-layer-id="layer-0" data-prism-layer="layer-0">
        <rect class="prism-mark-bar" data-prism-id="bar-0" data-prism-datum-row="0" x="52.333" y="560" width="222" height="0" fill="#3b82f6"/>
        <rect class="prism-mark-bar" data-prism-id="bar-1" data-prism-datum-row="1" x="299" y="380" width="222" height="180" fill="#3b82f6"/>
        <rect class="prism-mark-bar" data-prism-id="bar-2" data-prism-datum-row="2" x="545.667" y="20" width="222" height="540" fill="#3b82f6"/>
      </g>
    </g>
  </g>
</svg>
