<svg xmlns="http://www.w3.org/2000/svg" viewBox="0 0 800 600" width="800" height="600">
  <style>:root{--prism-color-axis:#6b7280;--prism-color-grid:#e5e7eb;--prism-color-text:#111827;--prism-color-bg:transparent;--prism-font-sans:Inter, system-ui, sans-serif;--prism-font-mono:ui-monospace, SF Mono, monospace;--prism-font-size-label:11px;--prism-font-size-title:16px;--prism-font-size-axis-title:12px;}.prism-axis-domain{stroke:var(--prism-color-axis);fill:none;}.prism-axis-tick{stroke:var(--prism-color-axis);}.prism-axis-label{fill:var(--prism-color-text);font-family:var(--prism-font-sans);font-size:var(--prism-font-size-label,11px);}.prism-axis-title{fill:var(--prism-color-text);font-family:var(--prism-font-sans);font-size:var(--prism-font-size-axis-title,12px);font-weight:600;}.prism-grid-line{stroke:var(--prism-color-grid);}.prism-title{fill:var(--prism-color-text);font-family:var(--prism-font-sans);font-size:var(--prism-font-size-title,16px);font-weight:600;}.prism-legend-title{fill:var(--prism-color-text);font-family:var(--prism-font-sans);font-size:12px;font-weight:600;}.prism-legend-label{fill:var(--prism-color-text);font-family:var(--prism-font-sans);font-size:11px;}.prism-legend-swatch{stroke:none;}.prism-selected{opacity:var(--prism-selected-opacity,1);}.prism-deselected{opacity:var(--prism-deselected-opacity,0.3);}</style>

  <g class="prism-scene" data-scene-id="scene-0">
    <g class="prism-axes">
      <g class="prism-axis prism-axis-x" data-prism-axis-id="x-axis"><line class="prism-grid-line" x1="163.333" y1="20" x2="163.333" y2="560"/><line class="prism-grid-line" x1="410" y1="20" x2="410" y2="560"/><line class="prism-grid-line" x1="656.667" y1="20" x2="656.667" y2="560"/><line class="prism-axis-domain" x1="40" y1="560" x2="780" y2="560"/><line class="prism-axis-tick" x1="163.333" y1="560" x2="163.333" y2="565"/><text class="prism-axis-label" x="163.333" y="578" text-anchor="middle">a</text><line class="prism-axis-tick" x1="410" y1="560" x2="410" y2="565"/><text class="prism-axis-label" x="410" y="578" text-anchor="middle">b</text><line class="prism-axis-tick" x1="656.667" y1="560" x2="656.667" y2="565"/><text class="prism-axis-label" x="656.667" y="578" text-anchor="middle">c</text><text class="prism-axis-title" x="410" y="594" text-anchor="middle">x</text></g>
      <g class="prism-axis prism-axis-y" data-prism-axis-id="y-axis"><line class="prism-grid-line" x1="40" y1="560" x2="780" y2="560"/><line class="prism-grid-line" x1="40" y1="452" x2="780" y2="452"/><line class="prism-grid-line" x1="40" y1="344" x2="780" y2="344"/><line class="prism-grid-line" x1="40" y1="236" x2="780" y2="236"/><line class="prism-grid-line" x1="40" y1="128" x2="780" y2="128"/><line class="prism-grid-line" x1="40" y1="20" x2="780" y2="20"/><line class="prism-axis-domain" x1="40" y1="20" x2="40" y2="560"/><line class="prism-axis-tick" x1="40" y1="560" x2="35" y2="560"/><text class="prism-axis-label" x="32" y="564" text-anchor="end">0</text><line class="prism-axis-tick" x1="40" y1="452" x2="35" y2="452"/><line class="prism-axis-tick" x1="40" y1="344" x2="35" y2="344"/><text class="prism-axis-label" x="32" y="348" text-anchor="end">63.245553203367585</text><line class="prism-axis-tick" x1="40" y1="236" x2="35" y2="236"/><line class="prism-axis-tick" x1="40" y1="128" x2="35" y2="128"/><text class="prism-axis-label" x="32" y="132" text-anchor="end">89.44271909999159</text><line class="prism-axis-tick" x1="40" y1="20" x2="35" y2="20"/><text class="prism-axis-title" x="10" y="290" text-anchor="middle" transform="rotate(-90 10 290)">y</text></g>
    </g>
    <g class="prism-plot">
      <g class="prism-layer" data-layer-id="layer-0" data-prism-layer="layer-0">
        <rect class="prism-mark-bar" data-prism-id="bar-0" data-prism-datum-row="0" x="52.333" y="560" width="222" height="0" fill="#3b82f6"/>
        <rect class="prism-mark-bar" data-prism-id="bar-1" data-prism-datum-row="1" x="299" y="425" width="222" height="135" fill="#3b82f6"/>
        <rect class="prism-mark-bar" data-prism-id="bar-2" data-prism-datum-row="2" x="545.667" y="20" width="222" height="540" fill="#3b82f6"/>
      </g>
    </g>
  </g>
</svg>
