<svg xmlns="http://www.w3.org/2000/svg" viewBox="0 0 800 600" width="800" height="600">
  <style>:root{--prism-color-axis:#6b7280;--prism-color-grid:#e5e7eb;--prism-color-text:#111827;--prism-color-bg:transparent;--prism-font-sans:Inter, system-ui, sans-serif;--prism-font-mono:ui-monospace, SF Mono, monospace;--prism-font-size-label:11px;--prism-font-size-title:16px;--prism-font-size-axis-title:12px;}.prism-axis-domain{stroke:var(--prism-color-axis);fill:none;}.prism-axis-tick{stroke:var(--prism-color-axis);}.prism-axis-label{fill:var(--prism-color-text);font-family:var(--prism-font-sans);font-size:var(--prism-font-size-label,11px);}.prism-axis-title{fill:var(--prism-color-text);font-family:var(--prism-font-sans);font-size:var(--prism-font-size-axis-title,12px);font-weight:600;}.prism-grid-line{stroke:var(--prism-color-grid);}.prism-title{fill:var(--prism-color-text);font-family:var(--prism-font-sans);font-size:var(--prism-font-size-title,16px);font-weight:600;}.prism-legend-title{fill:var(--prism-color-text);font-family:var(--prism-font-sans);font-size:12px;font-weight:600;}.prism-legend-label{fill:var(--prism-color-text);font-family:var(--prism-font-sans);font-size:11px;}.prism-legend-swatch{stroke:none;}.prism-selected{opacity:var(--prism-selected-opacity,1);}.prism-deselected{opacity:var(--prism-deselected-opacity,0.3);}</style>

  <g class="prism-scene" data-scene-id="scene-0">
    <text class="prism-title" x="410" y="20" text-anchor="middle">Brand score (Pulse-backed bar)</text>
    <g class="prism-axes">
      <g class="prism-axis prism-axis-x" data-prism-axis-id="x-axis"><line class="prism-grid-line" x1="132.5" y1="50" x2="132.5" y2="560"/><line class="prism-grid-line" x1="317.5" y1="50" x2="317.5" y2="560"/><line class="prism-grid-line" x1="502.5" y1="50" x2="502.5" y2="560"/><line class="prism-grid-line" x1="687.5" y1="50" x2="687.5" y2="560"/><line class="prism-axis-domain" x1="40" y1="560" x2="780" y2="560"/><line class="prism-axis-tick" x1="132.5" y1="560" x2="132.5" y2="565"/><text class="prism-axis-label" x="132.5" y="578" text-anchor="middle">beta</text><line class="prism-axis-tick" x1="317.5" y1="560" x2="317.5" y2="565"/><text class="prism-axis-label" x="317.5" y="578" text-anchor="middle">alpha</text><line class="prism-axis-tick" x1="502.5" y1="560" x2="502.5" y2="565"/><text class="prism-axis-label" x="502.5" y="578" text-anchor="middle">gamma</text><line class="prism-axis-tick" x1="687.5" y1="560" x2="687.5" y2="565"/><text class="prism-axis-label" x="687.5" y="578" text-anchor="middle">delta</text><text class="prism-axis-title" x="410" y="594" text-anchor="middle">brand_id</text></g>
      <g class="prism-axis prism-axis-y" data-prism-axis-id="y-axis"><line class="prism-grid-line" x1="40" y1="560" x2="780" y2="560"/><line class="prism-grid-line" x1="40" y1="462.228" x2="780" y2="462.228"/><line class="prism-grid-line" x1="40" y1="364.456" x2="780" y2="364.456"/><line class="prism-grid-line" x1="40" y1="266.684" x2="780" y2="266.684"/><line class="prism-grid-line" x1="40" y1="168.912" x2="780" y2="168.912"/><line class="prism-grid-line" x1="40" y1="71.14" x2="780" y2="71.14"/><line class="prism-axis-domain" x1="40" y1="50" x2="40" y2="560"/><line class="prism-axis-tick" x1="40" y1="560" x2="35" y2="560"/><text class="prism-axis-label" x="32" y="564" text-anchor="end">0</text><line class="prism-axis-tick" x1="40" y1="511.114" x2="37" y2="511.114"/><line class="prism-axis-tick" x1="40" y1="462.228" x2="35" y2="462.228"/><line class="prism-axis-tick" x1="40" y1="413.342" x2="37" y2="413.342"/><line class="prism-axis-tick" x1="40" y1="364.456" x2="35" y2="364.456"/><text class="prism-axis-label" x="32" y="368.456" text-anchor="end">0.2</text><line class="prism-axis-tick" x1="40" y1="315.57" x2="37" y2="315.57"/><line class="prism-axis-tick" x1="40" y1="266.684" x2="35" y2="266.684"/><line class="prism-axis-tick" x1="40" y1="217.798" x2="37" y2="217.798"/><line class="prism-axis-tick" x1="40" y1="168.912" x2="35" y2="168.912"/><text class="prism-axis-label" x="32" y="172.912" text-anchor="end">0.4</text><line class="prism-axis-tick" x1="40" y1="120.026" x2="37" y2="120.026"/><line class="prism-axis-tick" x1="40" y1="71.14" x2="35" y2="71.14"/><text class="prism-axis-title" x="10" y="305" text-anchor="middle" transform="rotate(-90 10 305)">score</text></g>
    </g>
    <g class="prism-plot">
      <g class="prism-layer" data-layer-id="layer-0" data-prism-layer="layer-0">
        <rect class="prism-mark-bar" data-prism-id="bar-0" data-prism-datum-row="0" x="49.25" y="72.294" width="166.5" height="487.706" fill="#3b82f6"/>
        <rect class="prism-mark-bar" data-prism-id="bar-1" data-prism-datum-row="1" x="234.25" y="67.745" width="166.5" height="492.255" fill="#3b82f6"/>
        <rect class="prism-mark-bar" data-prism-id="bar-2" data-prism-datum-row="2" x="419.25" y="83.546" width="166.5" height="476.454" fill="#3b82f6"/>
        <rect class="prism-mark-bar" data-prism-id="bar-3" data-prism-datum-row="3" x="604.25" y="50" width="166.5" height="510" fill="#3b82f6"/>
      </g>
    </g>
  </g>
</svg>
